%TF.GenerationSoftware,KiCad,Pcbnew,8.0.3*%
%TF.CreationDate,2024-08-02T22:41:38+02:00*%
%TF.ProjectId,IOT board sensor,494f5420-626f-4617-9264-2073656e736f,rev?*%
%TF.SameCoordinates,Original*%
%TF.FileFunction,Soldermask,Bot*%
%TF.FilePolarity,Negative*%
%FSLAX46Y46*%
G04 Gerber Fmt 4.6, Leading zero omitted, Abs format (unit mm)*
G04 Created by KiCad (PCBNEW 8.0.3) date 2024-08-02 22:41:38*
%MOMM*%
%LPD*%
G01*
G04 APERTURE LIST*
G04 Aperture macros list*
%AMRoundRect*
0 Rectangle with rounded corners*
0 $1 Rounding radius*
0 $2 $3 $4 $5 $6 $7 $8 $9 X,Y pos of 4 corners*
0 Add a 4 corners polygon primitive as box body*
4,1,4,$2,$3,$4,$5,$6,$7,$8,$9,$2,$3,0*
0 Add four circle primitives for the rounded corners*
1,1,$1+$1,$2,$3*
1,1,$1+$1,$4,$5*
1,1,$1+$1,$6,$7*
1,1,$1+$1,$8,$9*
0 Add four rect primitives between the rounded corners*
20,1,$1+$1,$2,$3,$4,$5,0*
20,1,$1+$1,$4,$5,$6,$7,0*
20,1,$1+$1,$6,$7,$8,$9,0*
20,1,$1+$1,$8,$9,$2,$3,0*%
%AMFreePoly0*
4,1,19,0.500000,-0.750000,0.000000,-0.750000,0.000000,-0.744911,-0.071157,-0.744911,-0.207708,-0.704816,-0.327430,-0.627875,-0.420627,-0.520320,-0.479746,-0.390866,-0.500000,-0.250000,-0.500000,0.250000,-0.479746,0.390866,-0.420627,0.520320,-0.327430,0.627875,-0.207708,0.704816,-0.071157,0.744911,0.000000,0.744911,0.000000,0.750000,0.500000,0.750000,0.500000,-0.750000,0.500000,-0.750000,
$1*%
%AMFreePoly1*
4,1,19,0.000000,0.744911,0.071157,0.744911,0.207708,0.704816,0.327430,0.627875,0.420627,0.520320,0.479746,0.390866,0.500000,0.250000,0.500000,-0.250000,0.479746,-0.390866,0.420627,-0.520320,0.327430,-0.627875,0.207708,-0.704816,0.071157,-0.744911,0.000000,-0.744911,0.000000,-0.750000,-0.500000,-0.750000,-0.500000,0.750000,0.000000,0.750000,0.000000,0.744911,0.000000,0.744911,
$1*%
%AMFreePoly2*
4,1,19,0.550000,-0.750000,0.000000,-0.750000,0.000000,-0.744911,-0.071157,-0.744911,-0.207708,-0.704816,-0.327430,-0.627875,-0.420627,-0.520320,-0.479746,-0.390866,-0.500000,-0.250000,-0.500000,0.250000,-0.479746,0.390866,-0.420627,0.520320,-0.327430,0.627875,-0.207708,0.704816,-0.071157,0.744911,0.000000,0.744911,0.000000,0.750000,0.550000,0.750000,0.550000,-0.750000,0.550000,-0.750000,
$1*%
%AMFreePoly3*
4,1,19,0.000000,0.744911,0.071157,0.744911,0.207708,0.704816,0.327430,0.627875,0.420627,0.520320,0.479746,0.390866,0.500000,0.250000,0.500000,-0.250000,0.479746,-0.390866,0.420627,-0.520320,0.327430,-0.627875,0.207708,-0.704816,0.071157,-0.744911,0.000000,-0.744911,0.000000,-0.750000,-0.550000,-0.750000,-0.550000,0.750000,0.000000,0.750000,0.000000,0.744911,0.000000,0.744911,
$1*%
G04 Aperture macros list end*
%ADD10C,0.800000*%
%ADD11C,6.400000*%
%ADD12R,1.700000X1.700000*%
%ADD13O,1.700000X1.700000*%
%ADD14R,2.400000X2.400000*%
%ADD15C,2.400000*%
%ADD16FreePoly0,270.000000*%
%ADD17FreePoly1,270.000000*%
%ADD18C,2.000000*%
%ADD19FreePoly2,180.000000*%
%ADD20R,1.000000X1.500000*%
%ADD21FreePoly3,180.000000*%
%ADD22FreePoly2,90.000000*%
%ADD23R,1.500000X1.000000*%
%ADD24FreePoly3,90.000000*%
%ADD25RoundRect,0.250000X-0.450000X0.325000X-0.450000X-0.325000X0.450000X-0.325000X0.450000X0.325000X0*%
%ADD26FreePoly0,90.000000*%
%ADD27FreePoly1,90.000000*%
%ADD28RoundRect,0.250000X0.350000X0.450000X-0.350000X0.450000X-0.350000X-0.450000X0.350000X-0.450000X0*%
%ADD29RoundRect,0.250000X-0.350000X-0.450000X0.350000X-0.450000X0.350000X0.450000X-0.350000X0.450000X0*%
%ADD30RoundRect,0.250000X0.450000X-0.350000X0.450000X0.350000X-0.450000X0.350000X-0.450000X-0.350000X0*%
%ADD31RoundRect,0.250000X-0.450000X0.350000X-0.450000X-0.350000X0.450000X-0.350000X0.450000X0.350000X0*%
%ADD32R,1.000000X3.150000*%
G04 APERTURE END LIST*
D10*
%TO.C,REF\u002A\u002A*%
X142100000Y-76500000D03*
X142802944Y-74802944D03*
X142802944Y-78197056D03*
X144500000Y-74100000D03*
D11*
X144500000Y-76500000D03*
D10*
X144500000Y-78900000D03*
X146197056Y-74802944D03*
X146197056Y-78197056D03*
X146900000Y-76500000D03*
%TD*%
%TO.C,REF\u002A\u002A*%
X178600000Y-76500000D03*
X179302944Y-74802944D03*
X179302944Y-78197056D03*
X181000000Y-74100000D03*
D11*
X181000000Y-76500000D03*
D10*
X181000000Y-78900000D03*
X182697056Y-74802944D03*
X182697056Y-78197056D03*
X183400000Y-76500000D03*
%TD*%
D12*
%TO.C,J1*%
X142240000Y-82550000D03*
D13*
X142240000Y-85090000D03*
X142240000Y-87630000D03*
X142240000Y-90170000D03*
X142240000Y-92710000D03*
X142240000Y-95250000D03*
X142240000Y-97790000D03*
X142240000Y-100330000D03*
X142240000Y-102870000D03*
X142240000Y-105410000D03*
%TD*%
%TO.C,J3*%
X182880000Y-105410000D03*
X182880000Y-102870000D03*
X182880000Y-100330000D03*
X182880000Y-97790000D03*
X182880000Y-95250000D03*
X182880000Y-92710000D03*
X182880000Y-90170000D03*
X182880000Y-87630000D03*
X182880000Y-85090000D03*
D12*
X182880000Y-82550000D03*
%TD*%
D14*
%TO.C,J4*%
X189992000Y-107950000D03*
D15*
X189992000Y-104450000D03*
X189992000Y-100950000D03*
X189992000Y-97450000D03*
X189992000Y-93950000D03*
X189992000Y-90450000D03*
X189992000Y-86950000D03*
X189992000Y-83450000D03*
X189992000Y-79950000D03*
X189992000Y-76450000D03*
%TD*%
D14*
%TO.C,J2*%
X135229600Y-76450000D03*
D15*
X135229600Y-79950000D03*
X135229600Y-83450000D03*
X135229600Y-86950000D03*
X135229600Y-90450000D03*
X135229600Y-93950000D03*
X135229600Y-97450000D03*
X135229600Y-100950000D03*
X135229600Y-104450000D03*
X135229600Y-107950000D03*
%TD*%
D16*
%TO.C,JP1*%
X162661600Y-104851200D03*
D17*
X162661600Y-106151200D03*
%TD*%
D12*
%TO.C,J9*%
X167640000Y-109000000D03*
D13*
X165100000Y-109000000D03*
X162560000Y-109000000D03*
X160020000Y-109000000D03*
%TD*%
D18*
%TO.C,SW1*%
X172414000Y-103723000D03*
X165914000Y-103723000D03*
X172414000Y-99223000D03*
X165914000Y-99223000D03*
%TD*%
D13*
%TO.C,J8*%
X177546000Y-83655000D03*
X177546000Y-86195000D03*
X177546000Y-88735000D03*
D12*
X177546000Y-91275000D03*
%TD*%
%TO.C,J7*%
X177546000Y-109000000D03*
D13*
X175006000Y-109000000D03*
X172466000Y-109000000D03*
%TD*%
D12*
%TO.C,J6*%
X152692500Y-88590000D03*
D13*
X150152500Y-88590000D03*
X147612500Y-88590000D03*
%TD*%
D12*
%TO.C,J5*%
X177546000Y-103632000D03*
D13*
X177546000Y-101092000D03*
X177546000Y-98552000D03*
X177546000Y-96012000D03*
%TD*%
D19*
%TO.C,JP2*%
X162100000Y-95400000D03*
D20*
X160800000Y-95400000D03*
D21*
X159500000Y-95400000D03*
%TD*%
D22*
%TO.C,JP3*%
X162915600Y-101731600D03*
D23*
X162915600Y-100431600D03*
D24*
X162915600Y-99131600D03*
%TD*%
D25*
%TO.C,D1*%
X149000000Y-103000000D03*
X149000000Y-105050000D03*
%TD*%
D26*
%TO.C,JP6*%
X174600000Y-105100000D03*
D27*
X174600000Y-103800000D03*
%TD*%
D28*
%TO.C,R5*%
X168894000Y-92456000D03*
X166894000Y-92456000D03*
%TD*%
D29*
%TO.C,R8*%
X156000000Y-93000000D03*
X158000000Y-93000000D03*
%TD*%
%TO.C,R2*%
X151667500Y-85090000D03*
X153667500Y-85090000D03*
%TD*%
%TO.C,R1*%
X147667500Y-85090000D03*
X149667500Y-85090000D03*
%TD*%
D30*
%TO.C,R4*%
X151500000Y-105000000D03*
X151500000Y-103000000D03*
%TD*%
D29*
%TO.C,R9*%
X162650000Y-81350000D03*
X164650000Y-81350000D03*
%TD*%
D28*
%TO.C,R3*%
X160500000Y-84582000D03*
X158500000Y-84582000D03*
%TD*%
D30*
%TO.C,R6*%
X148500000Y-95500000D03*
X148500000Y-93500000D03*
%TD*%
D31*
%TO.C,R11*%
X173482000Y-93091000D03*
X173482000Y-95091000D03*
%TD*%
D32*
%TO.C,J10*%
X164338000Y-84709000D03*
X164338000Y-89759000D03*
X166878000Y-84709000D03*
X166878000Y-89759000D03*
X169418000Y-84709000D03*
X169418000Y-89759000D03*
%TD*%
D30*
%TO.C,R10*%
X171500000Y-93075000D03*
X171500000Y-91075000D03*
%TD*%
M02*
