%TF.GenerationSoftware,KiCad,Pcbnew,8.0.3*%
%TF.CreationDate,2024-08-02T22:41:38+02:00*%
%TF.ProjectId,IOT board sensor,494f5420-626f-4617-9264-2073656e736f,rev?*%
%TF.SameCoordinates,Original*%
%TF.FileFunction,Paste,Top*%
%TF.FilePolarity,Positive*%
%FSLAX46Y46*%
G04 Gerber Fmt 4.6, Leading zero omitted, Abs format (unit mm)*
G04 Created by KiCad (PCBNEW 8.0.3) date 2024-08-02 22:41:38*
%MOMM*%
%LPD*%
G01*
G04 APERTURE LIST*
G04 Aperture macros list*
%AMRoundRect*
0 Rectangle with rounded corners*
0 $1 Rounding radius*
0 $2 $3 $4 $5 $6 $7 $8 $9 X,Y pos of 4 corners*
0 Add a 4 corners polygon primitive as box body*
4,1,4,$2,$3,$4,$5,$6,$7,$8,$9,$2,$3,0*
0 Add four circle primitives for the rounded corners*
1,1,$1+$1,$2,$3*
1,1,$1+$1,$4,$5*
1,1,$1+$1,$6,$7*
1,1,$1+$1,$8,$9*
0 Add four rect primitives between the rounded corners*
20,1,$1+$1,$2,$3,$4,$5,0*
20,1,$1+$1,$4,$5,$6,$7,0*
20,1,$1+$1,$6,$7,$8,$9,0*
20,1,$1+$1,$8,$9,$2,$3,0*%
G04 Aperture macros list end*
%ADD10RoundRect,0.250000X-0.850000X-0.350000X0.850000X-0.350000X0.850000X0.350000X-0.850000X0.350000X0*%
%ADD11RoundRect,0.250000X-1.275000X-1.125000X1.275000X-1.125000X1.275000X1.125000X-1.275000X1.125000X0*%
%ADD12R,2.500000X1.000000*%
%ADD13R,1.000000X1.800000*%
%ADD14R,1.600000X1.600000*%
%ADD15RoundRect,0.250000X0.337500X0.475000X-0.337500X0.475000X-0.337500X-0.475000X0.337500X-0.475000X0*%
%ADD16RoundRect,0.250000X-0.337500X-0.475000X0.337500X-0.475000X0.337500X0.475000X-0.337500X0.475000X0*%
%ADD17RoundRect,0.250000X-0.450000X0.350000X-0.450000X-0.350000X0.450000X-0.350000X0.450000X0.350000X0*%
G04 APERTURE END LIST*
D10*
%TO.C,Q1*%
X151525000Y-100745000D03*
D11*
X156150000Y-101500000D03*
X156150000Y-104550000D03*
X159500000Y-101500000D03*
X159500000Y-104550000D03*
D10*
X151525000Y-105305000D03*
%TD*%
D12*
%TO.C,U2*%
X158250000Y-81030000D03*
X158250000Y-83030000D03*
X158250000Y-85030000D03*
X158250000Y-87030000D03*
X158250000Y-89030000D03*
X158250000Y-91030000D03*
X158250000Y-93030000D03*
X158250000Y-95030000D03*
D13*
X160850000Y-96530000D03*
X162850000Y-96530000D03*
X164850000Y-96530000D03*
X166850000Y-96530000D03*
X168850000Y-96530000D03*
X170850000Y-96530000D03*
D12*
X173450000Y-95030000D03*
X173450000Y-93030000D03*
X173450000Y-91030000D03*
X173450000Y-89030000D03*
X173450000Y-87030000D03*
X173450000Y-85030000D03*
X173450000Y-83030000D03*
X173450000Y-81030000D03*
%TD*%
D14*
%TO.C,U1*%
X153810000Y-95770000D03*
X153810000Y-93230000D03*
X146190000Y-93230000D03*
X146190000Y-95770000D03*
%TD*%
D15*
%TO.C,C3*%
X153205000Y-82590000D03*
X151130000Y-82590000D03*
%TD*%
%TO.C,C4*%
X151130000Y-85090000D03*
X153205000Y-85090000D03*
%TD*%
D16*
%TO.C,C1*%
X147130000Y-85090000D03*
X149205000Y-85090000D03*
%TD*%
D17*
%TO.C,R7*%
X149000000Y-99000000D03*
X149000000Y-101000000D03*
%TD*%
D16*
%TO.C,C2*%
X147130000Y-82590000D03*
X149205000Y-82590000D03*
%TD*%
M02*
