%TF.GenerationSoftware,KiCad,Pcbnew,8.0.3*%
%TF.CreationDate,2024-08-02T22:41:38+02:00*%
%TF.ProjectId,IOT board sensor,494f5420-626f-4617-9264-2073656e736f,rev?*%
%TF.SameCoordinates,Original*%
%TF.FileFunction,Legend,Top*%
%TF.FilePolarity,Positive*%
%FSLAX46Y46*%
G04 Gerber Fmt 4.6, Leading zero omitted, Abs format (unit mm)*
G04 Created by KiCad (PCBNEW 8.0.3) date 2024-08-02 22:41:38*
%MOMM*%
%LPD*%
G01*
G04 APERTURE LIST*
%ADD10C,0.100000*%
%ADD11C,0.375000*%
%ADD12C,0.275000*%
%ADD13C,0.150000*%
%ADD14C,0.250000*%
%ADD15C,0.120000*%
G04 APERTURE END LIST*
D10*
X167252379Y-100479847D02*
X167252379Y-100765561D01*
X167252379Y-100765561D02*
X167233332Y-100822704D01*
X167233332Y-100822704D02*
X167195236Y-100860800D01*
X167195236Y-100860800D02*
X167138094Y-100879847D01*
X167138094Y-100879847D02*
X167099998Y-100879847D01*
X167633332Y-100879847D02*
X167442856Y-100879847D01*
X167442856Y-100879847D02*
X167442856Y-100479847D01*
X167995237Y-100841752D02*
X167976189Y-100860800D01*
X167976189Y-100860800D02*
X167919047Y-100879847D01*
X167919047Y-100879847D02*
X167880951Y-100879847D01*
X167880951Y-100879847D02*
X167823808Y-100860800D01*
X167823808Y-100860800D02*
X167785713Y-100822704D01*
X167785713Y-100822704D02*
X167766666Y-100784609D01*
X167766666Y-100784609D02*
X167747618Y-100708419D01*
X167747618Y-100708419D02*
X167747618Y-100651276D01*
X167747618Y-100651276D02*
X167766666Y-100575085D01*
X167766666Y-100575085D02*
X167785713Y-100536990D01*
X167785713Y-100536990D02*
X167823808Y-100498895D01*
X167823808Y-100498895D02*
X167880951Y-100479847D01*
X167880951Y-100479847D02*
X167919047Y-100479847D01*
X167919047Y-100479847D02*
X167976189Y-100498895D01*
X167976189Y-100498895D02*
X167995237Y-100517942D01*
X168280951Y-100479847D02*
X168280951Y-100765561D01*
X168280951Y-100765561D02*
X168261904Y-100822704D01*
X168261904Y-100822704D02*
X168223808Y-100860800D01*
X168223808Y-100860800D02*
X168166666Y-100879847D01*
X168166666Y-100879847D02*
X168128570Y-100879847D01*
X168661904Y-100879847D02*
X168471428Y-100879847D01*
X168471428Y-100879847D02*
X168471428Y-100479847D01*
X169023809Y-100841752D02*
X169004761Y-100860800D01*
X169004761Y-100860800D02*
X168947619Y-100879847D01*
X168947619Y-100879847D02*
X168909523Y-100879847D01*
X168909523Y-100879847D02*
X168852380Y-100860800D01*
X168852380Y-100860800D02*
X168814285Y-100822704D01*
X168814285Y-100822704D02*
X168795238Y-100784609D01*
X168795238Y-100784609D02*
X168776190Y-100708419D01*
X168776190Y-100708419D02*
X168776190Y-100651276D01*
X168776190Y-100651276D02*
X168795238Y-100575085D01*
X168795238Y-100575085D02*
X168814285Y-100536990D01*
X168814285Y-100536990D02*
X168852380Y-100498895D01*
X168852380Y-100498895D02*
X168909523Y-100479847D01*
X168909523Y-100479847D02*
X168947619Y-100479847D01*
X168947619Y-100479847D02*
X169004761Y-100498895D01*
X169004761Y-100498895D02*
X169023809Y-100517942D01*
X169309523Y-100479847D02*
X169309523Y-100765561D01*
X169309523Y-100765561D02*
X169290476Y-100822704D01*
X169290476Y-100822704D02*
X169252380Y-100860800D01*
X169252380Y-100860800D02*
X169195238Y-100879847D01*
X169195238Y-100879847D02*
X169157142Y-100879847D01*
X169690476Y-100879847D02*
X169500000Y-100879847D01*
X169500000Y-100879847D02*
X169500000Y-100479847D01*
X170052381Y-100841752D02*
X170033333Y-100860800D01*
X170033333Y-100860800D02*
X169976191Y-100879847D01*
X169976191Y-100879847D02*
X169938095Y-100879847D01*
X169938095Y-100879847D02*
X169880952Y-100860800D01*
X169880952Y-100860800D02*
X169842857Y-100822704D01*
X169842857Y-100822704D02*
X169823810Y-100784609D01*
X169823810Y-100784609D02*
X169804762Y-100708419D01*
X169804762Y-100708419D02*
X169804762Y-100651276D01*
X169804762Y-100651276D02*
X169823810Y-100575085D01*
X169823810Y-100575085D02*
X169842857Y-100536990D01*
X169842857Y-100536990D02*
X169880952Y-100498895D01*
X169880952Y-100498895D02*
X169938095Y-100479847D01*
X169938095Y-100479847D02*
X169976191Y-100479847D01*
X169976191Y-100479847D02*
X170033333Y-100498895D01*
X170033333Y-100498895D02*
X170052381Y-100517942D01*
X170338095Y-100479847D02*
X170338095Y-100765561D01*
X170338095Y-100765561D02*
X170319048Y-100822704D01*
X170319048Y-100822704D02*
X170280952Y-100860800D01*
X170280952Y-100860800D02*
X170223810Y-100879847D01*
X170223810Y-100879847D02*
X170185714Y-100879847D01*
X170719048Y-100879847D02*
X170528572Y-100879847D01*
X170528572Y-100879847D02*
X170528572Y-100479847D01*
X171080953Y-100841752D02*
X171061905Y-100860800D01*
X171061905Y-100860800D02*
X171004763Y-100879847D01*
X171004763Y-100879847D02*
X170966667Y-100879847D01*
X170966667Y-100879847D02*
X170909524Y-100860800D01*
X170909524Y-100860800D02*
X170871429Y-100822704D01*
X170871429Y-100822704D02*
X170852382Y-100784609D01*
X170852382Y-100784609D02*
X170833334Y-100708419D01*
X170833334Y-100708419D02*
X170833334Y-100651276D01*
X170833334Y-100651276D02*
X170852382Y-100575085D01*
X170852382Y-100575085D02*
X170871429Y-100536990D01*
X170871429Y-100536990D02*
X170909524Y-100498895D01*
X170909524Y-100498895D02*
X170966667Y-100479847D01*
X170966667Y-100479847D02*
X171004763Y-100479847D01*
X171004763Y-100479847D02*
X171061905Y-100498895D01*
X171061905Y-100498895D02*
X171080953Y-100517942D01*
D11*
X159884805Y-80925500D02*
X160003852Y-80854071D01*
X160003852Y-80854071D02*
X160241948Y-80782642D01*
X160241948Y-80782642D02*
X160718138Y-80925500D01*
X160718138Y-80925500D02*
X160956233Y-80854071D01*
X160956233Y-80854071D02*
X161075281Y-80782642D01*
X161670519Y-80925500D02*
X161789566Y-80854071D01*
X161789566Y-80854071D02*
X162027662Y-80782642D01*
X162027662Y-80782642D02*
X162503852Y-80925500D01*
X162503852Y-80925500D02*
X162741947Y-80854071D01*
X162741947Y-80854071D02*
X162860995Y-80782642D01*
X163456233Y-80925500D02*
X163575280Y-80854071D01*
X163575280Y-80854071D02*
X163813376Y-80782642D01*
X163813376Y-80782642D02*
X164289566Y-80925500D01*
X164289566Y-80925500D02*
X164527661Y-80854071D01*
X164527661Y-80854071D02*
X164646709Y-80782642D01*
X165241947Y-80925500D02*
X165360994Y-80854071D01*
X165360994Y-80854071D02*
X165599090Y-80782642D01*
X165599090Y-80782642D02*
X166075280Y-80925500D01*
X166075280Y-80925500D02*
X166313375Y-80854071D01*
X166313375Y-80854071D02*
X166432423Y-80782642D01*
X167027661Y-80925500D02*
X167146708Y-80854071D01*
X167146708Y-80854071D02*
X167384804Y-80782642D01*
X167384804Y-80782642D02*
X167860994Y-80925500D01*
X167860994Y-80925500D02*
X168099089Y-80854071D01*
X168099089Y-80854071D02*
X168218137Y-80782642D01*
X168813375Y-80925500D02*
X168932422Y-80854071D01*
X168932422Y-80854071D02*
X169170518Y-80782642D01*
X169170518Y-80782642D02*
X169646708Y-80925500D01*
X169646708Y-80925500D02*
X169884803Y-80854071D01*
X169884803Y-80854071D02*
X170003851Y-80782642D01*
X170599089Y-80925500D02*
X170718136Y-80854071D01*
X170718136Y-80854071D02*
X170956232Y-80782642D01*
X170956232Y-80782642D02*
X171432422Y-80925500D01*
X171432422Y-80925500D02*
X171670517Y-80854071D01*
X171670517Y-80854071D02*
X171789565Y-80782642D01*
X167146709Y-81572348D02*
X167432423Y-81572348D01*
X167432423Y-81572348D02*
X167575280Y-81643777D01*
X167575280Y-81643777D02*
X167718137Y-81786634D01*
X167718137Y-81786634D02*
X167789566Y-82072348D01*
X167789566Y-82072348D02*
X167789566Y-82572348D01*
X167789566Y-82572348D02*
X167718137Y-82858062D01*
X167718137Y-82858062D02*
X167575280Y-83000920D01*
X167575280Y-83000920D02*
X167432423Y-83072348D01*
X167432423Y-83072348D02*
X167146709Y-83072348D01*
X167146709Y-83072348D02*
X167003852Y-83000920D01*
X167003852Y-83000920D02*
X166860994Y-82858062D01*
X166860994Y-82858062D02*
X166789566Y-82572348D01*
X166789566Y-82572348D02*
X166789566Y-82072348D01*
X166789566Y-82072348D02*
X166860994Y-81786634D01*
X166860994Y-81786634D02*
X167003852Y-81643777D01*
X167003852Y-81643777D02*
X167146709Y-81572348D01*
X168218137Y-85487264D02*
X168075280Y-85415836D01*
X168075280Y-85415836D02*
X168003851Y-85344407D01*
X168003851Y-85344407D02*
X167932423Y-85201550D01*
X167932423Y-85201550D02*
X167932423Y-84772978D01*
X167932423Y-84772978D02*
X168003851Y-84630121D01*
X168003851Y-84630121D02*
X168075280Y-84558693D01*
X168075280Y-84558693D02*
X168218137Y-84487264D01*
X168218137Y-84487264D02*
X168432423Y-84487264D01*
X168432423Y-84487264D02*
X168575280Y-84558693D01*
X168575280Y-84558693D02*
X168646709Y-84630121D01*
X168646709Y-84630121D02*
X168718137Y-84772978D01*
X168718137Y-84772978D02*
X168718137Y-85201550D01*
X168718137Y-85201550D02*
X168646709Y-85344407D01*
X168646709Y-85344407D02*
X168575280Y-85415836D01*
X168575280Y-85415836D02*
X168432423Y-85487264D01*
X168432423Y-85487264D02*
X168218137Y-85487264D01*
X160003852Y-86902180D02*
X161146710Y-87330752D01*
X161146710Y-87330752D02*
X160003852Y-87759323D01*
X163003853Y-86902180D02*
X161860995Y-87330752D01*
X161860995Y-87330752D02*
X163003853Y-87759323D01*
X163718138Y-86902180D02*
X164860996Y-87330752D01*
X164860996Y-87330752D02*
X163718138Y-87759323D01*
X166932424Y-86402180D02*
X166789567Y-86473609D01*
X166789567Y-86473609D02*
X166718138Y-86616466D01*
X166718138Y-86616466D02*
X166789567Y-86759323D01*
X166789567Y-86759323D02*
X166932424Y-86830752D01*
X166932424Y-86830752D02*
X167075281Y-86759323D01*
X167075281Y-86759323D02*
X167146710Y-86616466D01*
X167146710Y-86616466D02*
X167075281Y-86473609D01*
X167075281Y-86473609D02*
X166932424Y-86402180D01*
X166860995Y-89317096D02*
X165718137Y-89745668D01*
X165718137Y-89745668D02*
X166860995Y-90174239D01*
X167575280Y-89317096D02*
X168718138Y-89745668D01*
X168718138Y-89745668D02*
X167575280Y-90174239D01*
X170575281Y-89317096D02*
X169432423Y-89745668D01*
X169432423Y-89745668D02*
X170575281Y-90174239D01*
X162289566Y-92589155D02*
X162360995Y-92660584D01*
X162360995Y-92660584D02*
X162289566Y-92732012D01*
X162289566Y-92732012D02*
X162218138Y-92660584D01*
X162218138Y-92660584D02*
X162289566Y-92589155D01*
X162289566Y-92589155D02*
X162289566Y-92732012D01*
X164575281Y-94146928D02*
X163432423Y-94575500D01*
X163432423Y-94575500D02*
X164575281Y-95004071D01*
X165289566Y-94146928D02*
X166432424Y-94575500D01*
X166432424Y-94575500D02*
X165289566Y-95004071D01*
X168289567Y-94146928D02*
X167146709Y-94575500D01*
X167146709Y-94575500D02*
X168289567Y-95004071D01*
D12*
X149032825Y-108845747D02*
X149870921Y-109160033D01*
X149870921Y-109160033D02*
X149032825Y-109474319D01*
X150709016Y-109998128D02*
X150656635Y-109945747D01*
X150656635Y-109945747D02*
X150551873Y-109788604D01*
X150551873Y-109788604D02*
X150499492Y-109683842D01*
X150499492Y-109683842D02*
X150447111Y-109526700D01*
X150447111Y-109526700D02*
X150394730Y-109264795D01*
X150394730Y-109264795D02*
X150394730Y-109055271D01*
X150394730Y-109055271D02*
X150447111Y-108793366D01*
X150447111Y-108793366D02*
X150499492Y-108636223D01*
X150499492Y-108636223D02*
X150551873Y-108531461D01*
X150551873Y-108531461D02*
X150656635Y-108374319D01*
X150656635Y-108374319D02*
X150709016Y-108321938D01*
X150970920Y-108583842D02*
X151180444Y-108426700D01*
X151180444Y-108426700D02*
X151389968Y-108583842D01*
X151651872Y-108845747D02*
X151861396Y-109579080D01*
X151861396Y-109579080D02*
X152070920Y-109055271D01*
X152070920Y-109055271D02*
X152280444Y-109579080D01*
X152280444Y-109579080D02*
X152489968Y-108845747D01*
X152751872Y-108583842D02*
X152961396Y-108426700D01*
X152961396Y-108426700D02*
X153170920Y-108583842D01*
X153432824Y-109998128D02*
X153485205Y-109945747D01*
X153485205Y-109945747D02*
X153589967Y-109788604D01*
X153589967Y-109788604D02*
X153642348Y-109683842D01*
X153642348Y-109683842D02*
X153694729Y-109526700D01*
X153694729Y-109526700D02*
X153747110Y-109264795D01*
X153747110Y-109264795D02*
X153747110Y-109055271D01*
X153747110Y-109055271D02*
X153694729Y-108793366D01*
X153694729Y-108793366D02*
X153642348Y-108636223D01*
X153642348Y-108636223D02*
X153589967Y-108531461D01*
X153589967Y-108531461D02*
X153485205Y-108374319D01*
X153485205Y-108374319D02*
X153432824Y-108321938D01*
X155109015Y-108845747D02*
X154270919Y-109160033D01*
X154270919Y-109160033D02*
X155109015Y-109474319D01*
X175619080Y-78640126D02*
X174780985Y-78640126D01*
X174990509Y-78849650D02*
X174780985Y-78640126D01*
X174780985Y-78640126D02*
X174990509Y-78430602D01*
X175619080Y-77697269D02*
X174885747Y-77697269D01*
X174519080Y-77697269D02*
X174571461Y-77749650D01*
X174571461Y-77749650D02*
X174623842Y-77697269D01*
X174623842Y-77697269D02*
X174571461Y-77644888D01*
X174571461Y-77644888D02*
X174519080Y-77697269D01*
X174519080Y-77697269D02*
X174623842Y-77697269D01*
X174885747Y-77173459D02*
X175619080Y-77173459D01*
X174990509Y-77173459D02*
X174938128Y-77121078D01*
X174938128Y-77121078D02*
X174885747Y-77016316D01*
X174885747Y-77016316D02*
X174885747Y-76859173D01*
X174885747Y-76859173D02*
X174938128Y-76754411D01*
X174938128Y-76754411D02*
X175042890Y-76702030D01*
X175042890Y-76702030D02*
X175619080Y-76702030D01*
X175566700Y-76230602D02*
X175619080Y-76125840D01*
X175619080Y-76125840D02*
X175619080Y-75916316D01*
X175619080Y-75916316D02*
X175566700Y-75811554D01*
X175566700Y-75811554D02*
X175461938Y-75759173D01*
X175461938Y-75759173D02*
X175409557Y-75759173D01*
X175409557Y-75759173D02*
X175304795Y-75811554D01*
X175304795Y-75811554D02*
X175252414Y-75916316D01*
X175252414Y-75916316D02*
X175252414Y-76073459D01*
X175252414Y-76073459D02*
X175200033Y-76178221D01*
X175200033Y-76178221D02*
X175095271Y-76230602D01*
X175095271Y-76230602D02*
X175042890Y-76230602D01*
X175042890Y-76230602D02*
X174938128Y-76178221D01*
X174938128Y-76178221D02*
X174885747Y-76073459D01*
X174885747Y-76073459D02*
X174885747Y-75916316D01*
X174885747Y-75916316D02*
X174938128Y-75811554D01*
X175566700Y-74868697D02*
X175619080Y-74973459D01*
X175619080Y-74973459D02*
X175619080Y-75182983D01*
X175619080Y-75182983D02*
X175566700Y-75287745D01*
X175566700Y-75287745D02*
X175461938Y-75340126D01*
X175461938Y-75340126D02*
X175042890Y-75340126D01*
X175042890Y-75340126D02*
X174938128Y-75287745D01*
X174938128Y-75287745D02*
X174885747Y-75182983D01*
X174885747Y-75182983D02*
X174885747Y-74973459D01*
X174885747Y-74973459D02*
X174938128Y-74868697D01*
X174938128Y-74868697D02*
X175042890Y-74816316D01*
X175042890Y-74816316D02*
X175147652Y-74816316D01*
X175147652Y-74816316D02*
X175252414Y-75340126D01*
X175566700Y-73873459D02*
X175619080Y-73978221D01*
X175619080Y-73978221D02*
X175619080Y-74187745D01*
X175619080Y-74187745D02*
X175566700Y-74292507D01*
X175566700Y-74292507D02*
X175514319Y-74344888D01*
X175514319Y-74344888D02*
X175409557Y-74397269D01*
X175409557Y-74397269D02*
X175095271Y-74397269D01*
X175095271Y-74397269D02*
X174990509Y-74344888D01*
X174990509Y-74344888D02*
X174938128Y-74292507D01*
X174938128Y-74292507D02*
X174885747Y-74187745D01*
X174885747Y-74187745D02*
X174885747Y-73978221D01*
X174885747Y-73978221D02*
X174938128Y-73873459D01*
X174885747Y-73559174D02*
X174885747Y-73140126D01*
X174519080Y-73402031D02*
X175461938Y-73402031D01*
X175461938Y-73402031D02*
X175566700Y-73349650D01*
X175566700Y-73349650D02*
X175619080Y-73244888D01*
X175619080Y-73244888D02*
X175619080Y-73140126D01*
X182306825Y-110236319D02*
X182359206Y-110288700D01*
X182359206Y-110288700D02*
X182306825Y-110341080D01*
X182306825Y-110341080D02*
X182254444Y-110288700D01*
X182254444Y-110288700D02*
X182306825Y-110236319D01*
X182306825Y-110236319D02*
X182306825Y-110341080D01*
X182306825Y-109660128D02*
X182359206Y-109712509D01*
X182359206Y-109712509D02*
X182306825Y-109764890D01*
X182306825Y-109764890D02*
X182254444Y-109712509D01*
X182254444Y-109712509D02*
X182306825Y-109660128D01*
X182306825Y-109660128D02*
X182306825Y-109764890D01*
X182725873Y-109241080D02*
X183406826Y-109241080D01*
X183406826Y-109241080D02*
X183040159Y-109660128D01*
X183040159Y-109660128D02*
X183197302Y-109660128D01*
X183197302Y-109660128D02*
X183302064Y-109712509D01*
X183302064Y-109712509D02*
X183354445Y-109764890D01*
X183354445Y-109764890D02*
X183406826Y-109869652D01*
X183406826Y-109869652D02*
X183406826Y-110131557D01*
X183406826Y-110131557D02*
X183354445Y-110236319D01*
X183354445Y-110236319D02*
X183302064Y-110288700D01*
X183302064Y-110288700D02*
X183197302Y-110341080D01*
X183197302Y-110341080D02*
X182883016Y-110341080D01*
X182883016Y-110341080D02*
X182778254Y-110288700D01*
X182778254Y-110288700D02*
X182725873Y-110236319D01*
D13*
X148431619Y-77670819D02*
X148431619Y-76670819D01*
X148431619Y-77051771D02*
X148526857Y-77004152D01*
X148526857Y-77004152D02*
X148717333Y-77004152D01*
X148717333Y-77004152D02*
X148812571Y-77051771D01*
X148812571Y-77051771D02*
X148860190Y-77099390D01*
X148860190Y-77099390D02*
X148907809Y-77194628D01*
X148907809Y-77194628D02*
X148907809Y-77480342D01*
X148907809Y-77480342D02*
X148860190Y-77575580D01*
X148860190Y-77575580D02*
X148812571Y-77623200D01*
X148812571Y-77623200D02*
X148717333Y-77670819D01*
X148717333Y-77670819D02*
X148526857Y-77670819D01*
X148526857Y-77670819D02*
X148431619Y-77623200D01*
X149241143Y-77004152D02*
X149479238Y-77670819D01*
X149717333Y-77004152D02*
X149479238Y-77670819D01*
X149479238Y-77670819D02*
X149384000Y-77908914D01*
X149384000Y-77908914D02*
X149336381Y-77956533D01*
X149336381Y-77956533D02*
X149241143Y-78004152D01*
X150860191Y-77670819D02*
X150860191Y-77004152D01*
X150860191Y-77099390D02*
X150907810Y-77051771D01*
X150907810Y-77051771D02*
X151003048Y-77004152D01*
X151003048Y-77004152D02*
X151145905Y-77004152D01*
X151145905Y-77004152D02*
X151241143Y-77051771D01*
X151241143Y-77051771D02*
X151288762Y-77147009D01*
X151288762Y-77147009D02*
X151288762Y-77670819D01*
X151288762Y-77147009D02*
X151336381Y-77051771D01*
X151336381Y-77051771D02*
X151431619Y-77004152D01*
X151431619Y-77004152D02*
X151574476Y-77004152D01*
X151574476Y-77004152D02*
X151669715Y-77051771D01*
X151669715Y-77051771D02*
X151717334Y-77147009D01*
X151717334Y-77147009D02*
X151717334Y-77670819D01*
X152193524Y-77004152D02*
X152193524Y-77670819D01*
X152193524Y-77099390D02*
X152241143Y-77051771D01*
X152241143Y-77051771D02*
X152336381Y-77004152D01*
X152336381Y-77004152D02*
X152479238Y-77004152D01*
X152479238Y-77004152D02*
X152574476Y-77051771D01*
X152574476Y-77051771D02*
X152622095Y-77147009D01*
X152622095Y-77147009D02*
X152622095Y-77670819D01*
X153526857Y-77004152D02*
X153526857Y-77670819D01*
X153098286Y-77004152D02*
X153098286Y-77527961D01*
X153098286Y-77527961D02*
X153145905Y-77623200D01*
X153145905Y-77623200D02*
X153241143Y-77670819D01*
X153241143Y-77670819D02*
X153384000Y-77670819D01*
X153384000Y-77670819D02*
X153479238Y-77623200D01*
X153479238Y-77623200D02*
X153526857Y-77575580D01*
X153907810Y-77670819D02*
X154431619Y-77004152D01*
X153907810Y-77004152D02*
X154431619Y-77670819D01*
D12*
X148996254Y-73546809D02*
X148996254Y-74280142D01*
X148524825Y-73546809D02*
X148524825Y-74123000D01*
X148524825Y-74123000D02*
X148577206Y-74227762D01*
X148577206Y-74227762D02*
X148681968Y-74280142D01*
X148681968Y-74280142D02*
X148839111Y-74280142D01*
X148839111Y-74280142D02*
X148943873Y-74227762D01*
X148943873Y-74227762D02*
X148996254Y-74175381D01*
X149520063Y-73546809D02*
X149520063Y-74280142D01*
X149520063Y-73651571D02*
X149572444Y-73599190D01*
X149572444Y-73599190D02*
X149677206Y-73546809D01*
X149677206Y-73546809D02*
X149834349Y-73546809D01*
X149834349Y-73546809D02*
X149939111Y-73599190D01*
X149939111Y-73599190D02*
X149991492Y-73703952D01*
X149991492Y-73703952D02*
X149991492Y-74280142D01*
X150515301Y-74280142D02*
X150515301Y-73546809D01*
X150515301Y-73180142D02*
X150462920Y-73232523D01*
X150462920Y-73232523D02*
X150515301Y-73284904D01*
X150515301Y-73284904D02*
X150567682Y-73232523D01*
X150567682Y-73232523D02*
X150515301Y-73180142D01*
X150515301Y-73180142D02*
X150515301Y-73284904D01*
X150934349Y-73546809D02*
X151196254Y-74280142D01*
X151196254Y-74280142D02*
X151458159Y-73546809D01*
X152296254Y-74227762D02*
X152191492Y-74280142D01*
X152191492Y-74280142D02*
X151981968Y-74280142D01*
X151981968Y-74280142D02*
X151877206Y-74227762D01*
X151877206Y-74227762D02*
X151824825Y-74123000D01*
X151824825Y-74123000D02*
X151824825Y-73703952D01*
X151824825Y-73703952D02*
X151877206Y-73599190D01*
X151877206Y-73599190D02*
X151981968Y-73546809D01*
X151981968Y-73546809D02*
X152191492Y-73546809D01*
X152191492Y-73546809D02*
X152296254Y-73599190D01*
X152296254Y-73599190D02*
X152348635Y-73703952D01*
X152348635Y-73703952D02*
X152348635Y-73808714D01*
X152348635Y-73808714D02*
X151824825Y-73913476D01*
X152820063Y-74280142D02*
X152820063Y-73546809D01*
X152820063Y-73756333D02*
X152872444Y-73651571D01*
X152872444Y-73651571D02*
X152924825Y-73599190D01*
X152924825Y-73599190D02*
X153029587Y-73546809D01*
X153029587Y-73546809D02*
X153134349Y-73546809D01*
X153448634Y-74227762D02*
X153553396Y-74280142D01*
X153553396Y-74280142D02*
X153762920Y-74280142D01*
X153762920Y-74280142D02*
X153867682Y-74227762D01*
X153867682Y-74227762D02*
X153920063Y-74123000D01*
X153920063Y-74123000D02*
X153920063Y-74070619D01*
X153920063Y-74070619D02*
X153867682Y-73965857D01*
X153867682Y-73965857D02*
X153762920Y-73913476D01*
X153762920Y-73913476D02*
X153605777Y-73913476D01*
X153605777Y-73913476D02*
X153501015Y-73861095D01*
X153501015Y-73861095D02*
X153448634Y-73756333D01*
X153448634Y-73756333D02*
X153448634Y-73703952D01*
X153448634Y-73703952D02*
X153501015Y-73599190D01*
X153501015Y-73599190D02*
X153605777Y-73546809D01*
X153605777Y-73546809D02*
X153762920Y-73546809D01*
X153762920Y-73546809D02*
X153867682Y-73599190D01*
X154862920Y-74280142D02*
X154862920Y-73703952D01*
X154862920Y-73703952D02*
X154810539Y-73599190D01*
X154810539Y-73599190D02*
X154705777Y-73546809D01*
X154705777Y-73546809D02*
X154496253Y-73546809D01*
X154496253Y-73546809D02*
X154391491Y-73599190D01*
X154862920Y-74227762D02*
X154758158Y-74280142D01*
X154758158Y-74280142D02*
X154496253Y-74280142D01*
X154496253Y-74280142D02*
X154391491Y-74227762D01*
X154391491Y-74227762D02*
X154339110Y-74123000D01*
X154339110Y-74123000D02*
X154339110Y-74018238D01*
X154339110Y-74018238D02*
X154391491Y-73913476D01*
X154391491Y-73913476D02*
X154496253Y-73861095D01*
X154496253Y-73861095D02*
X154758158Y-73861095D01*
X154758158Y-73861095D02*
X154862920Y-73808714D01*
X155543872Y-74280142D02*
X155439110Y-74227762D01*
X155439110Y-74227762D02*
X155386729Y-74123000D01*
X155386729Y-74123000D02*
X155386729Y-73180142D01*
X148524825Y-76051080D02*
X148524825Y-74951080D01*
X149258159Y-74951080D02*
X149467683Y-74951080D01*
X149467683Y-74951080D02*
X149572445Y-75003461D01*
X149572445Y-75003461D02*
X149677207Y-75108223D01*
X149677207Y-75108223D02*
X149729588Y-75317747D01*
X149729588Y-75317747D02*
X149729588Y-75684414D01*
X149729588Y-75684414D02*
X149677207Y-75893938D01*
X149677207Y-75893938D02*
X149572445Y-75998700D01*
X149572445Y-75998700D02*
X149467683Y-76051080D01*
X149467683Y-76051080D02*
X149258159Y-76051080D01*
X149258159Y-76051080D02*
X149153397Y-75998700D01*
X149153397Y-75998700D02*
X149048635Y-75893938D01*
X149048635Y-75893938D02*
X148996254Y-75684414D01*
X148996254Y-75684414D02*
X148996254Y-75317747D01*
X148996254Y-75317747D02*
X149048635Y-75108223D01*
X149048635Y-75108223D02*
X149153397Y-75003461D01*
X149153397Y-75003461D02*
X149258159Y-74951080D01*
X150043873Y-74951080D02*
X150672445Y-74951080D01*
X150358159Y-76051080D02*
X150358159Y-74951080D01*
X151877206Y-76051080D02*
X151877206Y-74951080D01*
X151877206Y-75370128D02*
X151981968Y-75317747D01*
X151981968Y-75317747D02*
X152191492Y-75317747D01*
X152191492Y-75317747D02*
X152296254Y-75370128D01*
X152296254Y-75370128D02*
X152348635Y-75422509D01*
X152348635Y-75422509D02*
X152401016Y-75527271D01*
X152401016Y-75527271D02*
X152401016Y-75841557D01*
X152401016Y-75841557D02*
X152348635Y-75946319D01*
X152348635Y-75946319D02*
X152296254Y-75998700D01*
X152296254Y-75998700D02*
X152191492Y-76051080D01*
X152191492Y-76051080D02*
X151981968Y-76051080D01*
X151981968Y-76051080D02*
X151877206Y-75998700D01*
X153029587Y-76051080D02*
X152924825Y-75998700D01*
X152924825Y-75998700D02*
X152872444Y-75946319D01*
X152872444Y-75946319D02*
X152820063Y-75841557D01*
X152820063Y-75841557D02*
X152820063Y-75527271D01*
X152820063Y-75527271D02*
X152872444Y-75422509D01*
X152872444Y-75422509D02*
X152924825Y-75370128D01*
X152924825Y-75370128D02*
X153029587Y-75317747D01*
X153029587Y-75317747D02*
X153186730Y-75317747D01*
X153186730Y-75317747D02*
X153291492Y-75370128D01*
X153291492Y-75370128D02*
X153343873Y-75422509D01*
X153343873Y-75422509D02*
X153396254Y-75527271D01*
X153396254Y-75527271D02*
X153396254Y-75841557D01*
X153396254Y-75841557D02*
X153343873Y-75946319D01*
X153343873Y-75946319D02*
X153291492Y-75998700D01*
X153291492Y-75998700D02*
X153186730Y-76051080D01*
X153186730Y-76051080D02*
X153029587Y-76051080D01*
X154339111Y-76051080D02*
X154339111Y-75474890D01*
X154339111Y-75474890D02*
X154286730Y-75370128D01*
X154286730Y-75370128D02*
X154181968Y-75317747D01*
X154181968Y-75317747D02*
X153972444Y-75317747D01*
X153972444Y-75317747D02*
X153867682Y-75370128D01*
X154339111Y-75998700D02*
X154234349Y-76051080D01*
X154234349Y-76051080D02*
X153972444Y-76051080D01*
X153972444Y-76051080D02*
X153867682Y-75998700D01*
X153867682Y-75998700D02*
X153815301Y-75893938D01*
X153815301Y-75893938D02*
X153815301Y-75789176D01*
X153815301Y-75789176D02*
X153867682Y-75684414D01*
X153867682Y-75684414D02*
X153972444Y-75632033D01*
X153972444Y-75632033D02*
X154234349Y-75632033D01*
X154234349Y-75632033D02*
X154339111Y-75579652D01*
X154862920Y-76051080D02*
X154862920Y-75317747D01*
X154862920Y-75527271D02*
X154915301Y-75422509D01*
X154915301Y-75422509D02*
X154967682Y-75370128D01*
X154967682Y-75370128D02*
X155072444Y-75317747D01*
X155072444Y-75317747D02*
X155177206Y-75317747D01*
X156015301Y-76051080D02*
X156015301Y-74951080D01*
X156015301Y-75998700D02*
X155910539Y-76051080D01*
X155910539Y-76051080D02*
X155701015Y-76051080D01*
X155701015Y-76051080D02*
X155596253Y-75998700D01*
X155596253Y-75998700D02*
X155543872Y-75946319D01*
X155543872Y-75946319D02*
X155491491Y-75841557D01*
X155491491Y-75841557D02*
X155491491Y-75527271D01*
X155491491Y-75527271D02*
X155543872Y-75422509D01*
X155543872Y-75422509D02*
X155596253Y-75370128D01*
X155596253Y-75370128D02*
X155701015Y-75317747D01*
X155701015Y-75317747D02*
X155910539Y-75317747D01*
X155910539Y-75317747D02*
X156015301Y-75370128D01*
X140160680Y-87752402D02*
X139636871Y-88119069D01*
X140160680Y-88380974D02*
X139060680Y-88380974D01*
X139060680Y-88380974D02*
X139060680Y-87961926D01*
X139060680Y-87961926D02*
X139113061Y-87857164D01*
X139113061Y-87857164D02*
X139165442Y-87804783D01*
X139165442Y-87804783D02*
X139270204Y-87752402D01*
X139270204Y-87752402D02*
X139427347Y-87752402D01*
X139427347Y-87752402D02*
X139532109Y-87804783D01*
X139532109Y-87804783D02*
X139584490Y-87857164D01*
X139584490Y-87857164D02*
X139636871Y-87961926D01*
X139636871Y-87961926D02*
X139636871Y-88380974D01*
X140108300Y-87333355D02*
X140160680Y-87176212D01*
X140160680Y-87176212D02*
X140160680Y-86914307D01*
X140160680Y-86914307D02*
X140108300Y-86809545D01*
X140108300Y-86809545D02*
X140055919Y-86757164D01*
X140055919Y-86757164D02*
X139951157Y-86704783D01*
X139951157Y-86704783D02*
X139846395Y-86704783D01*
X139846395Y-86704783D02*
X139741633Y-86757164D01*
X139741633Y-86757164D02*
X139689252Y-86809545D01*
X139689252Y-86809545D02*
X139636871Y-86914307D01*
X139636871Y-86914307D02*
X139584490Y-87123831D01*
X139584490Y-87123831D02*
X139532109Y-87228593D01*
X139532109Y-87228593D02*
X139479728Y-87280974D01*
X139479728Y-87280974D02*
X139374966Y-87333355D01*
X139374966Y-87333355D02*
X139270204Y-87333355D01*
X139270204Y-87333355D02*
X139165442Y-87280974D01*
X139165442Y-87280974D02*
X139113061Y-87228593D01*
X139113061Y-87228593D02*
X139060680Y-87123831D01*
X139060680Y-87123831D02*
X139060680Y-86861926D01*
X139060680Y-86861926D02*
X139113061Y-86704783D01*
X139060680Y-86390498D02*
X139060680Y-85761926D01*
X140160680Y-86076212D02*
X139060680Y-86076212D01*
X139741633Y-97956774D02*
X139741633Y-97118679D01*
X139113061Y-84248783D02*
X139060680Y-84353545D01*
X139060680Y-84353545D02*
X139060680Y-84510688D01*
X139060680Y-84510688D02*
X139113061Y-84667831D01*
X139113061Y-84667831D02*
X139217823Y-84772593D01*
X139217823Y-84772593D02*
X139322585Y-84824974D01*
X139322585Y-84824974D02*
X139532109Y-84877355D01*
X139532109Y-84877355D02*
X139689252Y-84877355D01*
X139689252Y-84877355D02*
X139898776Y-84824974D01*
X139898776Y-84824974D02*
X140003538Y-84772593D01*
X140003538Y-84772593D02*
X140108300Y-84667831D01*
X140108300Y-84667831D02*
X140160680Y-84510688D01*
X140160680Y-84510688D02*
X140160680Y-84405926D01*
X140160680Y-84405926D02*
X140108300Y-84248783D01*
X140108300Y-84248783D02*
X140055919Y-84196402D01*
X140055919Y-84196402D02*
X139689252Y-84196402D01*
X139689252Y-84196402D02*
X139689252Y-84405926D01*
X140160680Y-83724974D02*
X139060680Y-83724974D01*
X139060680Y-83724974D02*
X140160680Y-83096402D01*
X140160680Y-83096402D02*
X139060680Y-83096402D01*
X140160680Y-82572593D02*
X139060680Y-82572593D01*
X139060680Y-82572593D02*
X139060680Y-82310688D01*
X139060680Y-82310688D02*
X139113061Y-82153545D01*
X139113061Y-82153545D02*
X139217823Y-82048783D01*
X139217823Y-82048783D02*
X139322585Y-81996402D01*
X139322585Y-81996402D02*
X139532109Y-81944021D01*
X139532109Y-81944021D02*
X139689252Y-81944021D01*
X139689252Y-81944021D02*
X139898776Y-81996402D01*
X139898776Y-81996402D02*
X140003538Y-82048783D01*
X140003538Y-82048783D02*
X140108300Y-82153545D01*
X140108300Y-82153545D02*
X140160680Y-82310688D01*
X140160680Y-82310688D02*
X140160680Y-82572593D01*
X139060680Y-77133517D02*
X140160680Y-76766850D01*
X140160680Y-76766850D02*
X139060680Y-76400183D01*
X140160680Y-76033517D02*
X139060680Y-76033517D01*
X140160680Y-75509707D02*
X139060680Y-75509707D01*
X139060680Y-75509707D02*
X140160680Y-74881135D01*
X140160680Y-74881135D02*
X139060680Y-74881135D01*
X139060680Y-80891136D02*
X139060680Y-80210183D01*
X139060680Y-80210183D02*
X139479728Y-80576850D01*
X139479728Y-80576850D02*
X139479728Y-80419707D01*
X139479728Y-80419707D02*
X139532109Y-80314945D01*
X139532109Y-80314945D02*
X139584490Y-80262564D01*
X139584490Y-80262564D02*
X139689252Y-80210183D01*
X139689252Y-80210183D02*
X139951157Y-80210183D01*
X139951157Y-80210183D02*
X140055919Y-80262564D01*
X140055919Y-80262564D02*
X140108300Y-80314945D01*
X140108300Y-80314945D02*
X140160680Y-80419707D01*
X140160680Y-80419707D02*
X140160680Y-80733993D01*
X140160680Y-80733993D02*
X140108300Y-80838755D01*
X140108300Y-80838755D02*
X140055919Y-80891136D01*
X139060680Y-79895898D02*
X140160680Y-79529231D01*
X140160680Y-79529231D02*
X139060680Y-79162564D01*
X139060680Y-78900660D02*
X139060680Y-78219707D01*
X139060680Y-78219707D02*
X139479728Y-78586374D01*
X139479728Y-78586374D02*
X139479728Y-78429231D01*
X139479728Y-78429231D02*
X139532109Y-78324469D01*
X139532109Y-78324469D02*
X139584490Y-78272088D01*
X139584490Y-78272088D02*
X139689252Y-78219707D01*
X139689252Y-78219707D02*
X139951157Y-78219707D01*
X139951157Y-78219707D02*
X140055919Y-78272088D01*
X140055919Y-78272088D02*
X140108300Y-78324469D01*
X140108300Y-78324469D02*
X140160680Y-78429231D01*
X140160680Y-78429231D02*
X140160680Y-78743517D01*
X140160680Y-78743517D02*
X140108300Y-78848279D01*
X140108300Y-78848279D02*
X140055919Y-78900660D01*
X139741633Y-104967174D02*
X139741633Y-104129079D01*
X140160680Y-104548126D02*
X139322585Y-104548126D01*
X139113061Y-108759783D02*
X139060680Y-108864545D01*
X139060680Y-108864545D02*
X139060680Y-109021688D01*
X139060680Y-109021688D02*
X139113061Y-109178831D01*
X139113061Y-109178831D02*
X139217823Y-109283593D01*
X139217823Y-109283593D02*
X139322585Y-109335974D01*
X139322585Y-109335974D02*
X139532109Y-109388355D01*
X139532109Y-109388355D02*
X139689252Y-109388355D01*
X139689252Y-109388355D02*
X139898776Y-109335974D01*
X139898776Y-109335974D02*
X140003538Y-109283593D01*
X140003538Y-109283593D02*
X140108300Y-109178831D01*
X140108300Y-109178831D02*
X140160680Y-109021688D01*
X140160680Y-109021688D02*
X140160680Y-108916926D01*
X140160680Y-108916926D02*
X140108300Y-108759783D01*
X140108300Y-108759783D02*
X140055919Y-108707402D01*
X140055919Y-108707402D02*
X139689252Y-108707402D01*
X139689252Y-108707402D02*
X139689252Y-108916926D01*
X140160680Y-108235974D02*
X139060680Y-108235974D01*
X139060680Y-108235974D02*
X140160680Y-107607402D01*
X140160680Y-107607402D02*
X139060680Y-107607402D01*
X140160680Y-107083593D02*
X139060680Y-107083593D01*
X139060680Y-107083593D02*
X139060680Y-106821688D01*
X139060680Y-106821688D02*
X139113061Y-106664545D01*
X139113061Y-106664545D02*
X139217823Y-106559783D01*
X139217823Y-106559783D02*
X139322585Y-106507402D01*
X139322585Y-106507402D02*
X139532109Y-106455021D01*
X139532109Y-106455021D02*
X139689252Y-106455021D01*
X139689252Y-106455021D02*
X139898776Y-106507402D01*
X139898776Y-106507402D02*
X140003538Y-106559783D01*
X140003538Y-106559783D02*
X140108300Y-106664545D01*
X140108300Y-106664545D02*
X140160680Y-106821688D01*
X140160680Y-106821688D02*
X140160680Y-107083593D01*
X139846395Y-91354355D02*
X139846395Y-90830545D01*
X140160680Y-91459117D02*
X139060680Y-91092450D01*
X139060680Y-91092450D02*
X140160680Y-90725783D01*
X139060680Y-90149593D02*
X139060680Y-90044831D01*
X139060680Y-90044831D02*
X139113061Y-89940069D01*
X139113061Y-89940069D02*
X139165442Y-89887688D01*
X139165442Y-89887688D02*
X139270204Y-89835307D01*
X139270204Y-89835307D02*
X139479728Y-89782926D01*
X139479728Y-89782926D02*
X139741633Y-89782926D01*
X139741633Y-89782926D02*
X139951157Y-89835307D01*
X139951157Y-89835307D02*
X140055919Y-89887688D01*
X140055919Y-89887688D02*
X140108300Y-89940069D01*
X140108300Y-89940069D02*
X140160680Y-90044831D01*
X140160680Y-90044831D02*
X140160680Y-90149593D01*
X140160680Y-90149593D02*
X140108300Y-90254355D01*
X140108300Y-90254355D02*
X140055919Y-90306736D01*
X140055919Y-90306736D02*
X139951157Y-90359117D01*
X139951157Y-90359117D02*
X139741633Y-90411498D01*
X139741633Y-90411498D02*
X139479728Y-90411498D01*
X139479728Y-90411498D02*
X139270204Y-90359117D01*
X139270204Y-90359117D02*
X139165442Y-90306736D01*
X139165442Y-90306736D02*
X139113061Y-90254355D01*
X139113061Y-90254355D02*
X139060680Y-90149593D01*
X140160680Y-101344564D02*
X140160680Y-101868374D01*
X140160680Y-101868374D02*
X139060680Y-101868374D01*
X139741633Y-100977898D02*
X139741633Y-100139803D01*
D14*
X140161980Y-95382422D02*
X139061980Y-95382422D01*
X139061980Y-95382422D02*
X139061980Y-95120517D01*
X139061980Y-95120517D02*
X139114361Y-94963374D01*
X139114361Y-94963374D02*
X139219123Y-94858612D01*
X139219123Y-94858612D02*
X139323885Y-94806231D01*
X139323885Y-94806231D02*
X139533409Y-94753850D01*
X139533409Y-94753850D02*
X139690552Y-94753850D01*
X139690552Y-94753850D02*
X139900076Y-94806231D01*
X139900076Y-94806231D02*
X140004838Y-94858612D01*
X140004838Y-94858612D02*
X140109600Y-94963374D01*
X140109600Y-94963374D02*
X140161980Y-95120517D01*
X140161980Y-95120517D02*
X140161980Y-95382422D01*
X140161980Y-93706231D02*
X140161980Y-94334803D01*
X140161980Y-94020517D02*
X139061980Y-94020517D01*
X139061980Y-94020517D02*
X139219123Y-94125279D01*
X139219123Y-94125279D02*
X139323885Y-94230041D01*
X139323885Y-94230041D02*
X139376266Y-94334803D01*
X139166742Y-93287184D02*
X139114361Y-93234803D01*
X139114361Y-93234803D02*
X139061980Y-93130041D01*
X139061980Y-93130041D02*
X139061980Y-92868136D01*
X139061980Y-92868136D02*
X139114361Y-92763374D01*
X139114361Y-92763374D02*
X139166742Y-92710993D01*
X139166742Y-92710993D02*
X139271504Y-92658612D01*
X139271504Y-92658612D02*
X139376266Y-92658612D01*
X139376266Y-92658612D02*
X139533409Y-92710993D01*
X139533409Y-92710993D02*
X140161980Y-93339565D01*
X140161980Y-93339565D02*
X140161980Y-92658612D01*
D12*
X186033080Y-109285174D02*
X184933080Y-109285174D01*
X184933080Y-109285174D02*
X184933080Y-109023269D01*
X184933080Y-109023269D02*
X184985461Y-108866126D01*
X184985461Y-108866126D02*
X185090223Y-108761364D01*
X185090223Y-108761364D02*
X185194985Y-108708983D01*
X185194985Y-108708983D02*
X185404509Y-108656602D01*
X185404509Y-108656602D02*
X185561652Y-108656602D01*
X185561652Y-108656602D02*
X185771176Y-108708983D01*
X185771176Y-108708983D02*
X185875938Y-108761364D01*
X185875938Y-108761364D02*
X185980700Y-108866126D01*
X185980700Y-108866126D02*
X186033080Y-109023269D01*
X186033080Y-109023269D02*
X186033080Y-109285174D01*
X186033080Y-107608983D02*
X186033080Y-108237555D01*
X186033080Y-107923269D02*
X184933080Y-107923269D01*
X184933080Y-107923269D02*
X185090223Y-108028031D01*
X185090223Y-108028031D02*
X185194985Y-108132793D01*
X185194985Y-108132793D02*
X185247366Y-108237555D01*
X185299747Y-106666126D02*
X186033080Y-106666126D01*
X184880700Y-106928031D02*
X185666414Y-107189936D01*
X185666414Y-107189936D02*
X185666414Y-106508983D01*
X186033080Y-104798964D02*
X186033080Y-105322774D01*
X186033080Y-105322774D02*
X184933080Y-105322774D01*
X186033080Y-104432298D02*
X184933080Y-104432298D01*
X184933080Y-104432298D02*
X184933080Y-104013250D01*
X184933080Y-104013250D02*
X184985461Y-103908488D01*
X184985461Y-103908488D02*
X185037842Y-103856107D01*
X185037842Y-103856107D02*
X185142604Y-103803726D01*
X185142604Y-103803726D02*
X185299747Y-103803726D01*
X185299747Y-103803726D02*
X185404509Y-103856107D01*
X185404509Y-103856107D02*
X185456890Y-103908488D01*
X185456890Y-103908488D02*
X185509271Y-104013250D01*
X185509271Y-104013250D02*
X185509271Y-104432298D01*
X186033080Y-102833574D02*
X184933080Y-102833574D01*
X184933080Y-102833574D02*
X184933080Y-102571669D01*
X184933080Y-102571669D02*
X184985461Y-102414526D01*
X184985461Y-102414526D02*
X185090223Y-102309764D01*
X185090223Y-102309764D02*
X185194985Y-102257383D01*
X185194985Y-102257383D02*
X185404509Y-102205002D01*
X185404509Y-102205002D02*
X185561652Y-102205002D01*
X185561652Y-102205002D02*
X185771176Y-102257383D01*
X185771176Y-102257383D02*
X185875938Y-102309764D01*
X185875938Y-102309764D02*
X185980700Y-102414526D01*
X185980700Y-102414526D02*
X186033080Y-102571669D01*
X186033080Y-102571669D02*
X186033080Y-102833574D01*
X186033080Y-101157383D02*
X186033080Y-101785955D01*
X186033080Y-101471669D02*
X184933080Y-101471669D01*
X184933080Y-101471669D02*
X185090223Y-101576431D01*
X185090223Y-101576431D02*
X185194985Y-101681193D01*
X185194985Y-101681193D02*
X185247366Y-101785955D01*
X184933080Y-100214526D02*
X184933080Y-100424050D01*
X184933080Y-100424050D02*
X184985461Y-100528812D01*
X184985461Y-100528812D02*
X185037842Y-100581193D01*
X185037842Y-100581193D02*
X185194985Y-100685955D01*
X185194985Y-100685955D02*
X185404509Y-100738336D01*
X185404509Y-100738336D02*
X185823557Y-100738336D01*
X185823557Y-100738336D02*
X185928319Y-100685955D01*
X185928319Y-100685955D02*
X185980700Y-100633574D01*
X185980700Y-100633574D02*
X186033080Y-100528812D01*
X186033080Y-100528812D02*
X186033080Y-100319288D01*
X186033080Y-100319288D02*
X185980700Y-100214526D01*
X185980700Y-100214526D02*
X185928319Y-100162145D01*
X185928319Y-100162145D02*
X185823557Y-100109764D01*
X185823557Y-100109764D02*
X185561652Y-100109764D01*
X185561652Y-100109764D02*
X185456890Y-100162145D01*
X185456890Y-100162145D02*
X185404509Y-100214526D01*
X185404509Y-100214526D02*
X185352128Y-100319288D01*
X185352128Y-100319288D02*
X185352128Y-100528812D01*
X185352128Y-100528812D02*
X185404509Y-100633574D01*
X185404509Y-100633574D02*
X185456890Y-100685955D01*
X185456890Y-100685955D02*
X185561652Y-100738336D01*
X184985461Y-98498183D02*
X184933080Y-98602945D01*
X184933080Y-98602945D02*
X184933080Y-98760088D01*
X184933080Y-98760088D02*
X184985461Y-98917231D01*
X184985461Y-98917231D02*
X185090223Y-99021993D01*
X185090223Y-99021993D02*
X185194985Y-99074374D01*
X185194985Y-99074374D02*
X185404509Y-99126755D01*
X185404509Y-99126755D02*
X185561652Y-99126755D01*
X185561652Y-99126755D02*
X185771176Y-99074374D01*
X185771176Y-99074374D02*
X185875938Y-99021993D01*
X185875938Y-99021993D02*
X185980700Y-98917231D01*
X185980700Y-98917231D02*
X186033080Y-98760088D01*
X186033080Y-98760088D02*
X186033080Y-98655326D01*
X186033080Y-98655326D02*
X185980700Y-98498183D01*
X185980700Y-98498183D02*
X185928319Y-98445802D01*
X185928319Y-98445802D02*
X185561652Y-98445802D01*
X185561652Y-98445802D02*
X185561652Y-98655326D01*
X186033080Y-97974374D02*
X184933080Y-97974374D01*
X184933080Y-97974374D02*
X186033080Y-97345802D01*
X186033080Y-97345802D02*
X184933080Y-97345802D01*
X186033080Y-96821993D02*
X184933080Y-96821993D01*
X184933080Y-96821993D02*
X184933080Y-96560088D01*
X184933080Y-96560088D02*
X184985461Y-96402945D01*
X184985461Y-96402945D02*
X185090223Y-96298183D01*
X185090223Y-96298183D02*
X185194985Y-96245802D01*
X185194985Y-96245802D02*
X185404509Y-96193421D01*
X185404509Y-96193421D02*
X185561652Y-96193421D01*
X185561652Y-96193421D02*
X185771176Y-96245802D01*
X185771176Y-96245802D02*
X185875938Y-96298183D01*
X185875938Y-96298183D02*
X185980700Y-96402945D01*
X185980700Y-96402945D02*
X186033080Y-96560088D01*
X186033080Y-96560088D02*
X186033080Y-96821993D01*
D14*
X186034380Y-95280822D02*
X184934380Y-95280822D01*
X184934380Y-95280822D02*
X184934380Y-95018917D01*
X184934380Y-95018917D02*
X184986761Y-94861774D01*
X184986761Y-94861774D02*
X185091523Y-94757012D01*
X185091523Y-94757012D02*
X185196285Y-94704631D01*
X185196285Y-94704631D02*
X185405809Y-94652250D01*
X185405809Y-94652250D02*
X185562952Y-94652250D01*
X185562952Y-94652250D02*
X185772476Y-94704631D01*
X185772476Y-94704631D02*
X185877238Y-94757012D01*
X185877238Y-94757012D02*
X185982000Y-94861774D01*
X185982000Y-94861774D02*
X186034380Y-95018917D01*
X186034380Y-95018917D02*
X186034380Y-95280822D01*
X186034380Y-93604631D02*
X186034380Y-94233203D01*
X186034380Y-93918917D02*
X184934380Y-93918917D01*
X184934380Y-93918917D02*
X185091523Y-94023679D01*
X185091523Y-94023679D02*
X185196285Y-94128441D01*
X185196285Y-94128441D02*
X185248666Y-94233203D01*
X184934380Y-93237965D02*
X184934380Y-92557012D01*
X184934380Y-92557012D02*
X185353428Y-92923679D01*
X185353428Y-92923679D02*
X185353428Y-92766536D01*
X185353428Y-92766536D02*
X185405809Y-92661774D01*
X185405809Y-92661774D02*
X185458190Y-92609393D01*
X185458190Y-92609393D02*
X185562952Y-92557012D01*
X185562952Y-92557012D02*
X185824857Y-92557012D01*
X185824857Y-92557012D02*
X185929619Y-92609393D01*
X185929619Y-92609393D02*
X185982000Y-92661774D01*
X185982000Y-92661774D02*
X186034380Y-92766536D01*
X186034380Y-92766536D02*
X186034380Y-93080822D01*
X186034380Y-93080822D02*
X185982000Y-93185584D01*
X185982000Y-93185584D02*
X185929619Y-93237965D01*
D12*
X184933080Y-91609936D02*
X184933080Y-90928983D01*
X184933080Y-90928983D02*
X185352128Y-91295650D01*
X185352128Y-91295650D02*
X185352128Y-91138507D01*
X185352128Y-91138507D02*
X185404509Y-91033745D01*
X185404509Y-91033745D02*
X185456890Y-90981364D01*
X185456890Y-90981364D02*
X185561652Y-90928983D01*
X185561652Y-90928983D02*
X185823557Y-90928983D01*
X185823557Y-90928983D02*
X185928319Y-90981364D01*
X185928319Y-90981364D02*
X185980700Y-91033745D01*
X185980700Y-91033745D02*
X186033080Y-91138507D01*
X186033080Y-91138507D02*
X186033080Y-91452793D01*
X186033080Y-91452793D02*
X185980700Y-91557555D01*
X185980700Y-91557555D02*
X185928319Y-91609936D01*
X184933080Y-90614698D02*
X186033080Y-90248031D01*
X186033080Y-90248031D02*
X184933080Y-89881364D01*
X184933080Y-89619460D02*
X184933080Y-88938507D01*
X184933080Y-88938507D02*
X185352128Y-89305174D01*
X185352128Y-89305174D02*
X185352128Y-89148031D01*
X185352128Y-89148031D02*
X185404509Y-89043269D01*
X185404509Y-89043269D02*
X185456890Y-88990888D01*
X185456890Y-88990888D02*
X185561652Y-88938507D01*
X185561652Y-88938507D02*
X185823557Y-88938507D01*
X185823557Y-88938507D02*
X185928319Y-88990888D01*
X185928319Y-88990888D02*
X185980700Y-89043269D01*
X185980700Y-89043269D02*
X186033080Y-89148031D01*
X186033080Y-89148031D02*
X186033080Y-89462317D01*
X186033080Y-89462317D02*
X185980700Y-89567079D01*
X185980700Y-89567079D02*
X185928319Y-89619460D01*
X185980700Y-87899955D02*
X186033080Y-87742812D01*
X186033080Y-87742812D02*
X186033080Y-87480907D01*
X186033080Y-87480907D02*
X185980700Y-87376145D01*
X185980700Y-87376145D02*
X185928319Y-87323764D01*
X185928319Y-87323764D02*
X185823557Y-87271383D01*
X185823557Y-87271383D02*
X185718795Y-87271383D01*
X185718795Y-87271383D02*
X185614033Y-87323764D01*
X185614033Y-87323764D02*
X185561652Y-87376145D01*
X185561652Y-87376145D02*
X185509271Y-87480907D01*
X185509271Y-87480907D02*
X185456890Y-87690431D01*
X185456890Y-87690431D02*
X185404509Y-87795193D01*
X185404509Y-87795193D02*
X185352128Y-87847574D01*
X185352128Y-87847574D02*
X185247366Y-87899955D01*
X185247366Y-87899955D02*
X185142604Y-87899955D01*
X185142604Y-87899955D02*
X185037842Y-87847574D01*
X185037842Y-87847574D02*
X184985461Y-87795193D01*
X184985461Y-87795193D02*
X184933080Y-87690431D01*
X184933080Y-87690431D02*
X184933080Y-87428526D01*
X184933080Y-87428526D02*
X184985461Y-87271383D01*
X186033080Y-86799955D02*
X184933080Y-86799955D01*
X184933080Y-86799955D02*
X184933080Y-86538050D01*
X184933080Y-86538050D02*
X184985461Y-86380907D01*
X184985461Y-86380907D02*
X185090223Y-86276145D01*
X185090223Y-86276145D02*
X185194985Y-86223764D01*
X185194985Y-86223764D02*
X185404509Y-86171383D01*
X185404509Y-86171383D02*
X185561652Y-86171383D01*
X185561652Y-86171383D02*
X185771176Y-86223764D01*
X185771176Y-86223764D02*
X185875938Y-86276145D01*
X185875938Y-86276145D02*
X185980700Y-86380907D01*
X185980700Y-86380907D02*
X186033080Y-86538050D01*
X186033080Y-86538050D02*
X186033080Y-86799955D01*
X185718795Y-85752336D02*
X185718795Y-85228526D01*
X186033080Y-85857098D02*
X184933080Y-85490431D01*
X184933080Y-85490431D02*
X186033080Y-85123764D01*
X185980700Y-84140755D02*
X186033080Y-83983612D01*
X186033080Y-83983612D02*
X186033080Y-83721707D01*
X186033080Y-83721707D02*
X185980700Y-83616945D01*
X185980700Y-83616945D02*
X185928319Y-83564564D01*
X185928319Y-83564564D02*
X185823557Y-83512183D01*
X185823557Y-83512183D02*
X185718795Y-83512183D01*
X185718795Y-83512183D02*
X185614033Y-83564564D01*
X185614033Y-83564564D02*
X185561652Y-83616945D01*
X185561652Y-83616945D02*
X185509271Y-83721707D01*
X185509271Y-83721707D02*
X185456890Y-83931231D01*
X185456890Y-83931231D02*
X185404509Y-84035993D01*
X185404509Y-84035993D02*
X185352128Y-84088374D01*
X185352128Y-84088374D02*
X185247366Y-84140755D01*
X185247366Y-84140755D02*
X185142604Y-84140755D01*
X185142604Y-84140755D02*
X185037842Y-84088374D01*
X185037842Y-84088374D02*
X184985461Y-84035993D01*
X184985461Y-84035993D02*
X184933080Y-83931231D01*
X184933080Y-83931231D02*
X184933080Y-83669326D01*
X184933080Y-83669326D02*
X184985461Y-83512183D01*
X185928319Y-82412183D02*
X185980700Y-82464564D01*
X185980700Y-82464564D02*
X186033080Y-82621707D01*
X186033080Y-82621707D02*
X186033080Y-82726469D01*
X186033080Y-82726469D02*
X185980700Y-82883612D01*
X185980700Y-82883612D02*
X185875938Y-82988374D01*
X185875938Y-82988374D02*
X185771176Y-83040755D01*
X185771176Y-83040755D02*
X185561652Y-83093136D01*
X185561652Y-83093136D02*
X185404509Y-83093136D01*
X185404509Y-83093136D02*
X185194985Y-83040755D01*
X185194985Y-83040755D02*
X185090223Y-82988374D01*
X185090223Y-82988374D02*
X184985461Y-82883612D01*
X184985461Y-82883612D02*
X184933080Y-82726469D01*
X184933080Y-82726469D02*
X184933080Y-82621707D01*
X184933080Y-82621707D02*
X184985461Y-82464564D01*
X184985461Y-82464564D02*
X185037842Y-82412183D01*
X186033080Y-81416945D02*
X186033080Y-81940755D01*
X186033080Y-81940755D02*
X184933080Y-81940755D01*
X184933080Y-80740317D02*
X184933080Y-80111745D01*
X186033080Y-80426031D02*
X184933080Y-80426031D01*
X184933080Y-79849841D02*
X186033080Y-79116507D01*
X184933080Y-79116507D02*
X186033080Y-79849841D01*
X186033080Y-78697460D02*
X184933080Y-78697460D01*
X184933080Y-78697460D02*
X184933080Y-78435555D01*
X184933080Y-78435555D02*
X184985461Y-78278412D01*
X184985461Y-78278412D02*
X185090223Y-78173650D01*
X185090223Y-78173650D02*
X185194985Y-78121269D01*
X185194985Y-78121269D02*
X185404509Y-78068888D01*
X185404509Y-78068888D02*
X185561652Y-78068888D01*
X185561652Y-78068888D02*
X185771176Y-78121269D01*
X185771176Y-78121269D02*
X185875938Y-78173650D01*
X185875938Y-78173650D02*
X185980700Y-78278412D01*
X185980700Y-78278412D02*
X186033080Y-78435555D01*
X186033080Y-78435555D02*
X186033080Y-78697460D01*
X186033080Y-76551002D02*
X185509271Y-76917669D01*
X186033080Y-77179574D02*
X184933080Y-77179574D01*
X184933080Y-77179574D02*
X184933080Y-76760526D01*
X184933080Y-76760526D02*
X184985461Y-76655764D01*
X184985461Y-76655764D02*
X185037842Y-76603383D01*
X185037842Y-76603383D02*
X185142604Y-76551002D01*
X185142604Y-76551002D02*
X185299747Y-76551002D01*
X185299747Y-76551002D02*
X185404509Y-76603383D01*
X185404509Y-76603383D02*
X185456890Y-76655764D01*
X185456890Y-76655764D02*
X185509271Y-76760526D01*
X185509271Y-76760526D02*
X185509271Y-77179574D01*
X184933080Y-76184336D02*
X186033080Y-75451002D01*
X184933080Y-75451002D02*
X186033080Y-76184336D01*
X186033080Y-75031955D02*
X184933080Y-75031955D01*
X184933080Y-75031955D02*
X184933080Y-74770050D01*
X184933080Y-74770050D02*
X184985461Y-74612907D01*
X184985461Y-74612907D02*
X185090223Y-74508145D01*
X185090223Y-74508145D02*
X185194985Y-74455764D01*
X185194985Y-74455764D02*
X185404509Y-74403383D01*
X185404509Y-74403383D02*
X185561652Y-74403383D01*
X185561652Y-74403383D02*
X185771176Y-74455764D01*
X185771176Y-74455764D02*
X185875938Y-74508145D01*
X185875938Y-74508145D02*
X185980700Y-74612907D01*
X185980700Y-74612907D02*
X186033080Y-74770050D01*
X186033080Y-74770050D02*
X186033080Y-75031955D01*
D10*
X160020000Y-107089600D02*
X160020000Y-107489600D01*
X161544000Y-106411600D02*
X160020000Y-107089600D01*
X162600000Y-104200000D02*
X161544000Y-104611600D01*
X161544000Y-104611600D02*
X161544000Y-106411600D01*
D14*
X180364619Y-102340431D02*
X179364619Y-102340431D01*
X179364619Y-101673765D02*
X179364619Y-101483289D01*
X179364619Y-101483289D02*
X179412238Y-101388051D01*
X179412238Y-101388051D02*
X179507476Y-101292813D01*
X179507476Y-101292813D02*
X179697952Y-101245194D01*
X179697952Y-101245194D02*
X180031285Y-101245194D01*
X180031285Y-101245194D02*
X180221761Y-101292813D01*
X180221761Y-101292813D02*
X180317000Y-101388051D01*
X180317000Y-101388051D02*
X180364619Y-101483289D01*
X180364619Y-101483289D02*
X180364619Y-101673765D01*
X180364619Y-101673765D02*
X180317000Y-101769003D01*
X180317000Y-101769003D02*
X180221761Y-101864241D01*
X180221761Y-101864241D02*
X180031285Y-101911860D01*
X180031285Y-101911860D02*
X179697952Y-101911860D01*
X179697952Y-101911860D02*
X179507476Y-101864241D01*
X179507476Y-101864241D02*
X179412238Y-101769003D01*
X179412238Y-101769003D02*
X179364619Y-101673765D01*
X180364619Y-100292813D02*
X180364619Y-100864241D01*
X180364619Y-100578527D02*
X179364619Y-100578527D01*
X179364619Y-100578527D02*
X179507476Y-100673765D01*
X179507476Y-100673765D02*
X179602714Y-100769003D01*
X179602714Y-100769003D02*
X179650333Y-100864241D01*
X179364619Y-99435670D02*
X179364619Y-99626146D01*
X179364619Y-99626146D02*
X179412238Y-99721384D01*
X179412238Y-99721384D02*
X179459857Y-99769003D01*
X179459857Y-99769003D02*
X179602714Y-99864241D01*
X179602714Y-99864241D02*
X179793190Y-99911860D01*
X179793190Y-99911860D02*
X180174142Y-99911860D01*
X180174142Y-99911860D02*
X180269380Y-99864241D01*
X180269380Y-99864241D02*
X180317000Y-99816622D01*
X180317000Y-99816622D02*
X180364619Y-99721384D01*
X180364619Y-99721384D02*
X180364619Y-99530908D01*
X180364619Y-99530908D02*
X180317000Y-99435670D01*
X180317000Y-99435670D02*
X180269380Y-99388051D01*
X180269380Y-99388051D02*
X180174142Y-99340432D01*
X180174142Y-99340432D02*
X179936047Y-99340432D01*
X179936047Y-99340432D02*
X179840809Y-99388051D01*
X179840809Y-99388051D02*
X179793190Y-99435670D01*
X179793190Y-99435670D02*
X179745571Y-99530908D01*
X179745571Y-99530908D02*
X179745571Y-99721384D01*
X179745571Y-99721384D02*
X179793190Y-99816622D01*
X179793190Y-99816622D02*
X179840809Y-99864241D01*
X179840809Y-99864241D02*
X179936047Y-99911860D01*
X180364619Y-98530908D02*
X179602714Y-98530908D01*
X179793190Y-98721384D02*
X179602714Y-98530908D01*
X179602714Y-98530908D02*
X179793190Y-98340432D01*
X179412238Y-90573622D02*
X179364619Y-90668860D01*
X179364619Y-90668860D02*
X179364619Y-90811717D01*
X179364619Y-90811717D02*
X179412238Y-90954574D01*
X179412238Y-90954574D02*
X179507476Y-91049812D01*
X179507476Y-91049812D02*
X179602714Y-91097431D01*
X179602714Y-91097431D02*
X179793190Y-91145050D01*
X179793190Y-91145050D02*
X179936047Y-91145050D01*
X179936047Y-91145050D02*
X180126523Y-91097431D01*
X180126523Y-91097431D02*
X180221761Y-91049812D01*
X180221761Y-91049812D02*
X180317000Y-90954574D01*
X180317000Y-90954574D02*
X180364619Y-90811717D01*
X180364619Y-90811717D02*
X180364619Y-90716479D01*
X180364619Y-90716479D02*
X180317000Y-90573622D01*
X180317000Y-90573622D02*
X180269380Y-90526003D01*
X180269380Y-90526003D02*
X179936047Y-90526003D01*
X179936047Y-90526003D02*
X179936047Y-90716479D01*
X180317000Y-82957050D02*
X180364619Y-82814193D01*
X180364619Y-82814193D02*
X180364619Y-82576098D01*
X180364619Y-82576098D02*
X180317000Y-82480860D01*
X180317000Y-82480860D02*
X180269380Y-82433241D01*
X180269380Y-82433241D02*
X180174142Y-82385622D01*
X180174142Y-82385622D02*
X180078904Y-82385622D01*
X180078904Y-82385622D02*
X179983666Y-82433241D01*
X179983666Y-82433241D02*
X179936047Y-82480860D01*
X179936047Y-82480860D02*
X179888428Y-82576098D01*
X179888428Y-82576098D02*
X179840809Y-82766574D01*
X179840809Y-82766574D02*
X179793190Y-82861812D01*
X179793190Y-82861812D02*
X179745571Y-82909431D01*
X179745571Y-82909431D02*
X179650333Y-82957050D01*
X179650333Y-82957050D02*
X179555095Y-82957050D01*
X179555095Y-82957050D02*
X179459857Y-82909431D01*
X179459857Y-82909431D02*
X179412238Y-82861812D01*
X179412238Y-82861812D02*
X179364619Y-82766574D01*
X179364619Y-82766574D02*
X179364619Y-82528479D01*
X179364619Y-82528479D02*
X179412238Y-82385622D01*
X180269380Y-81385622D02*
X180317000Y-81433241D01*
X180317000Y-81433241D02*
X180364619Y-81576098D01*
X180364619Y-81576098D02*
X180364619Y-81671336D01*
X180364619Y-81671336D02*
X180317000Y-81814193D01*
X180317000Y-81814193D02*
X180221761Y-81909431D01*
X180221761Y-81909431D02*
X180126523Y-81957050D01*
X180126523Y-81957050D02*
X179936047Y-82004669D01*
X179936047Y-82004669D02*
X179793190Y-82004669D01*
X179793190Y-82004669D02*
X179602714Y-81957050D01*
X179602714Y-81957050D02*
X179507476Y-81909431D01*
X179507476Y-81909431D02*
X179412238Y-81814193D01*
X179412238Y-81814193D02*
X179364619Y-81671336D01*
X179364619Y-81671336D02*
X179364619Y-81576098D01*
X179364619Y-81576098D02*
X179412238Y-81433241D01*
X179412238Y-81433241D02*
X179459857Y-81385622D01*
X180364619Y-80480860D02*
X180364619Y-80957050D01*
X180364619Y-80957050D02*
X179364619Y-80957050D01*
D13*
X179355979Y-109343819D02*
X179355979Y-108343819D01*
X179355979Y-108343819D02*
X179689312Y-109058104D01*
X179689312Y-109058104D02*
X180022645Y-108343819D01*
X180022645Y-108343819D02*
X180022645Y-109343819D01*
X180451217Y-108439057D02*
X180498836Y-108391438D01*
X180498836Y-108391438D02*
X180594074Y-108343819D01*
X180594074Y-108343819D02*
X180832169Y-108343819D01*
X180832169Y-108343819D02*
X180927407Y-108391438D01*
X180927407Y-108391438D02*
X180975026Y-108439057D01*
X180975026Y-108439057D02*
X181022645Y-108534295D01*
X181022645Y-108534295D02*
X181022645Y-108629533D01*
X181022645Y-108629533D02*
X180975026Y-108772390D01*
X180975026Y-108772390D02*
X180403598Y-109343819D01*
X180403598Y-109343819D02*
X181022645Y-109343819D01*
D14*
X162069031Y-106102714D02*
X162069031Y-106864619D01*
X162259507Y-106674142D02*
X162069031Y-106864619D01*
X162069031Y-106864619D02*
X161878555Y-106674142D01*
X162830936Y-106197952D02*
X163021412Y-106864619D01*
X163021412Y-106864619D02*
X163211888Y-106388428D01*
X163211888Y-106388428D02*
X163402364Y-106864619D01*
X163402364Y-106864619D02*
X163592840Y-106197952D01*
X164402364Y-106864619D02*
X164402364Y-106340809D01*
X164402364Y-106340809D02*
X164354745Y-106245571D01*
X164354745Y-106245571D02*
X164259507Y-106197952D01*
X164259507Y-106197952D02*
X164069031Y-106197952D01*
X164069031Y-106197952D02*
X163973793Y-106245571D01*
X164402364Y-106817000D02*
X164307126Y-106864619D01*
X164307126Y-106864619D02*
X164069031Y-106864619D01*
X164069031Y-106864619D02*
X163973793Y-106817000D01*
X163973793Y-106817000D02*
X163926174Y-106721761D01*
X163926174Y-106721761D02*
X163926174Y-106626523D01*
X163926174Y-106626523D02*
X163973793Y-106531285D01*
X163973793Y-106531285D02*
X164069031Y-106483666D01*
X164069031Y-106483666D02*
X164307126Y-106483666D01*
X164307126Y-106483666D02*
X164402364Y-106436047D01*
X164878555Y-106864619D02*
X164878555Y-105864619D01*
X164973793Y-106483666D02*
X165259507Y-106864619D01*
X165259507Y-106197952D02*
X164878555Y-106578904D01*
X166069031Y-106817000D02*
X165973793Y-106864619D01*
X165973793Y-106864619D02*
X165783317Y-106864619D01*
X165783317Y-106864619D02*
X165688079Y-106817000D01*
X165688079Y-106817000D02*
X165640460Y-106721761D01*
X165640460Y-106721761D02*
X165640460Y-106340809D01*
X165640460Y-106340809D02*
X165688079Y-106245571D01*
X165688079Y-106245571D02*
X165783317Y-106197952D01*
X165783317Y-106197952D02*
X165973793Y-106197952D01*
X165973793Y-106197952D02*
X166069031Y-106245571D01*
X166069031Y-106245571D02*
X166116650Y-106340809D01*
X166116650Y-106340809D02*
X166116650Y-106436047D01*
X166116650Y-106436047D02*
X165640460Y-106531285D01*
X163064619Y-103631139D02*
X162064619Y-103631139D01*
X162064619Y-103631139D02*
X163064619Y-103059711D01*
X163064619Y-103059711D02*
X162064619Y-103059711D01*
X162969380Y-102012092D02*
X163017000Y-102059711D01*
X163017000Y-102059711D02*
X163064619Y-102202568D01*
X163064619Y-102202568D02*
X163064619Y-102297806D01*
X163064619Y-102297806D02*
X163017000Y-102440663D01*
X163017000Y-102440663D02*
X162921761Y-102535901D01*
X162921761Y-102535901D02*
X162826523Y-102583520D01*
X162826523Y-102583520D02*
X162636047Y-102631139D01*
X162636047Y-102631139D02*
X162493190Y-102631139D01*
X162493190Y-102631139D02*
X162302714Y-102583520D01*
X162302714Y-102583520D02*
X162207476Y-102535901D01*
X162207476Y-102535901D02*
X162112238Y-102440663D01*
X162112238Y-102440663D02*
X162064619Y-102297806D01*
X162064619Y-102297806D02*
X162064619Y-102202568D01*
X162064619Y-102202568D02*
X162112238Y-102059711D01*
X162112238Y-102059711D02*
X162159857Y-102012092D01*
X162017000Y-100869235D02*
X163302714Y-101726377D01*
X162778904Y-100583520D02*
X162778904Y-100107330D01*
X163064619Y-100678758D02*
X162064619Y-100345425D01*
X162064619Y-100345425D02*
X163064619Y-100012092D01*
X162064619Y-99488282D02*
X162064619Y-99393044D01*
X162064619Y-99393044D02*
X162112238Y-99297806D01*
X162112238Y-99297806D02*
X162159857Y-99250187D01*
X162159857Y-99250187D02*
X162255095Y-99202568D01*
X162255095Y-99202568D02*
X162445571Y-99154949D01*
X162445571Y-99154949D02*
X162683666Y-99154949D01*
X162683666Y-99154949D02*
X162874142Y-99202568D01*
X162874142Y-99202568D02*
X162969380Y-99250187D01*
X162969380Y-99250187D02*
X163017000Y-99297806D01*
X163017000Y-99297806D02*
X163064619Y-99393044D01*
X163064619Y-99393044D02*
X163064619Y-99488282D01*
X163064619Y-99488282D02*
X163017000Y-99583520D01*
X163017000Y-99583520D02*
X162969380Y-99631139D01*
X162969380Y-99631139D02*
X162874142Y-99678758D01*
X162874142Y-99678758D02*
X162683666Y-99726377D01*
X162683666Y-99726377D02*
X162445571Y-99726377D01*
X162445571Y-99726377D02*
X162255095Y-99678758D01*
X162255095Y-99678758D02*
X162159857Y-99631139D01*
X162159857Y-99631139D02*
X162112238Y-99583520D01*
X162112238Y-99583520D02*
X162064619Y-99488282D01*
X179412238Y-103573622D02*
X179364619Y-103668860D01*
X179364619Y-103668860D02*
X179364619Y-103811717D01*
X179364619Y-103811717D02*
X179412238Y-103954574D01*
X179412238Y-103954574D02*
X179507476Y-104049812D01*
X179507476Y-104049812D02*
X179602714Y-104097431D01*
X179602714Y-104097431D02*
X179793190Y-104145050D01*
X179793190Y-104145050D02*
X179936047Y-104145050D01*
X179936047Y-104145050D02*
X180126523Y-104097431D01*
X180126523Y-104097431D02*
X180221761Y-104049812D01*
X180221761Y-104049812D02*
X180317000Y-103954574D01*
X180317000Y-103954574D02*
X180364619Y-103811717D01*
X180364619Y-103811717D02*
X180364619Y-103716479D01*
X180364619Y-103716479D02*
X180317000Y-103573622D01*
X180317000Y-103573622D02*
X180269380Y-103526003D01*
X180269380Y-103526003D02*
X179936047Y-103526003D01*
X179936047Y-103526003D02*
X179936047Y-103716479D01*
X178477431Y-105912238D02*
X178382193Y-105864619D01*
X178382193Y-105864619D02*
X178239336Y-105864619D01*
X178239336Y-105864619D02*
X178096479Y-105912238D01*
X178096479Y-105912238D02*
X178001241Y-106007476D01*
X178001241Y-106007476D02*
X177953622Y-106102714D01*
X177953622Y-106102714D02*
X177906003Y-106293190D01*
X177906003Y-106293190D02*
X177906003Y-106436047D01*
X177906003Y-106436047D02*
X177953622Y-106626523D01*
X177953622Y-106626523D02*
X178001241Y-106721761D01*
X178001241Y-106721761D02*
X178096479Y-106817000D01*
X178096479Y-106817000D02*
X178239336Y-106864619D01*
X178239336Y-106864619D02*
X178334574Y-106864619D01*
X178334574Y-106864619D02*
X178477431Y-106817000D01*
X178477431Y-106817000D02*
X178525050Y-106769380D01*
X178525050Y-106769380D02*
X178525050Y-106436047D01*
X178525050Y-106436047D02*
X178334574Y-106436047D01*
X179364619Y-97192669D02*
X179364619Y-96573622D01*
X179364619Y-96573622D02*
X179745571Y-96906955D01*
X179745571Y-96906955D02*
X179745571Y-96764098D01*
X179745571Y-96764098D02*
X179793190Y-96668860D01*
X179793190Y-96668860D02*
X179840809Y-96621241D01*
X179840809Y-96621241D02*
X179936047Y-96573622D01*
X179936047Y-96573622D02*
X180174142Y-96573622D01*
X180174142Y-96573622D02*
X180269380Y-96621241D01*
X180269380Y-96621241D02*
X180317000Y-96668860D01*
X180317000Y-96668860D02*
X180364619Y-96764098D01*
X180364619Y-96764098D02*
X180364619Y-97049812D01*
X180364619Y-97049812D02*
X180317000Y-97145050D01*
X180317000Y-97145050D02*
X180269380Y-97192669D01*
X179364619Y-96287907D02*
X180364619Y-95954574D01*
X180364619Y-95954574D02*
X179364619Y-95621241D01*
X179364619Y-95383145D02*
X179364619Y-94764098D01*
X179364619Y-94764098D02*
X179745571Y-95097431D01*
X179745571Y-95097431D02*
X179745571Y-94954574D01*
X179745571Y-94954574D02*
X179793190Y-94859336D01*
X179793190Y-94859336D02*
X179840809Y-94811717D01*
X179840809Y-94811717D02*
X179936047Y-94764098D01*
X179936047Y-94764098D02*
X180174142Y-94764098D01*
X180174142Y-94764098D02*
X180269380Y-94811717D01*
X180269380Y-94811717D02*
X180317000Y-94859336D01*
X180317000Y-94859336D02*
X180364619Y-94954574D01*
X180364619Y-94954574D02*
X180364619Y-95240288D01*
X180364619Y-95240288D02*
X180317000Y-95335526D01*
X180317000Y-95335526D02*
X180269380Y-95383145D01*
X167440631Y-105912238D02*
X167345393Y-105864619D01*
X167345393Y-105864619D02*
X167202536Y-105864619D01*
X167202536Y-105864619D02*
X167059679Y-105912238D01*
X167059679Y-105912238D02*
X166964441Y-106007476D01*
X166964441Y-106007476D02*
X166916822Y-106102714D01*
X166916822Y-106102714D02*
X166869203Y-106293190D01*
X166869203Y-106293190D02*
X166869203Y-106436047D01*
X166869203Y-106436047D02*
X166916822Y-106626523D01*
X166916822Y-106626523D02*
X166964441Y-106721761D01*
X166964441Y-106721761D02*
X167059679Y-106817000D01*
X167059679Y-106817000D02*
X167202536Y-106864619D01*
X167202536Y-106864619D02*
X167297774Y-106864619D01*
X167297774Y-106864619D02*
X167440631Y-106817000D01*
X167440631Y-106817000D02*
X167488250Y-106769380D01*
X167488250Y-106769380D02*
X167488250Y-106436047D01*
X167488250Y-106436047D02*
X167297774Y-106436047D01*
X180317000Y-86386050D02*
X180364619Y-86243193D01*
X180364619Y-86243193D02*
X180364619Y-86005098D01*
X180364619Y-86005098D02*
X180317000Y-85909860D01*
X180317000Y-85909860D02*
X180269380Y-85862241D01*
X180269380Y-85862241D02*
X180174142Y-85814622D01*
X180174142Y-85814622D02*
X180078904Y-85814622D01*
X180078904Y-85814622D02*
X179983666Y-85862241D01*
X179983666Y-85862241D02*
X179936047Y-85909860D01*
X179936047Y-85909860D02*
X179888428Y-86005098D01*
X179888428Y-86005098D02*
X179840809Y-86195574D01*
X179840809Y-86195574D02*
X179793190Y-86290812D01*
X179793190Y-86290812D02*
X179745571Y-86338431D01*
X179745571Y-86338431D02*
X179650333Y-86386050D01*
X179650333Y-86386050D02*
X179555095Y-86386050D01*
X179555095Y-86386050D02*
X179459857Y-86338431D01*
X179459857Y-86338431D02*
X179412238Y-86290812D01*
X179412238Y-86290812D02*
X179364619Y-86195574D01*
X179364619Y-86195574D02*
X179364619Y-85957479D01*
X179364619Y-85957479D02*
X179412238Y-85814622D01*
X180364619Y-85386050D02*
X179364619Y-85386050D01*
X179364619Y-85386050D02*
X179364619Y-85147955D01*
X179364619Y-85147955D02*
X179412238Y-85005098D01*
X179412238Y-85005098D02*
X179507476Y-84909860D01*
X179507476Y-84909860D02*
X179602714Y-84862241D01*
X179602714Y-84862241D02*
X179793190Y-84814622D01*
X179793190Y-84814622D02*
X179936047Y-84814622D01*
X179936047Y-84814622D02*
X180126523Y-84862241D01*
X180126523Y-84862241D02*
X180221761Y-84909860D01*
X180221761Y-84909860D02*
X180317000Y-85005098D01*
X180317000Y-85005098D02*
X180364619Y-85147955D01*
X180364619Y-85147955D02*
X180364619Y-85386050D01*
X180078904Y-84433669D02*
X180078904Y-83957479D01*
X180364619Y-84528907D02*
X179364619Y-84195574D01*
X179364619Y-84195574D02*
X180364619Y-83862241D01*
X179364619Y-89735669D02*
X179364619Y-89116622D01*
X179364619Y-89116622D02*
X179745571Y-89449955D01*
X179745571Y-89449955D02*
X179745571Y-89307098D01*
X179745571Y-89307098D02*
X179793190Y-89211860D01*
X179793190Y-89211860D02*
X179840809Y-89164241D01*
X179840809Y-89164241D02*
X179936047Y-89116622D01*
X179936047Y-89116622D02*
X180174142Y-89116622D01*
X180174142Y-89116622D02*
X180269380Y-89164241D01*
X180269380Y-89164241D02*
X180317000Y-89211860D01*
X180317000Y-89211860D02*
X180364619Y-89307098D01*
X180364619Y-89307098D02*
X180364619Y-89592812D01*
X180364619Y-89592812D02*
X180317000Y-89688050D01*
X180317000Y-89688050D02*
X180269380Y-89735669D01*
X179364619Y-88830907D02*
X180364619Y-88497574D01*
X180364619Y-88497574D02*
X179364619Y-88164241D01*
X179364619Y-87926145D02*
X179364619Y-87307098D01*
X179364619Y-87307098D02*
X179745571Y-87640431D01*
X179745571Y-87640431D02*
X179745571Y-87497574D01*
X179745571Y-87497574D02*
X179793190Y-87402336D01*
X179793190Y-87402336D02*
X179840809Y-87354717D01*
X179840809Y-87354717D02*
X179936047Y-87307098D01*
X179936047Y-87307098D02*
X180174142Y-87307098D01*
X180174142Y-87307098D02*
X180269380Y-87354717D01*
X180269380Y-87354717D02*
X180317000Y-87402336D01*
X180317000Y-87402336D02*
X180364619Y-87497574D01*
X180364619Y-87497574D02*
X180364619Y-87783288D01*
X180364619Y-87783288D02*
X180317000Y-87878526D01*
X180317000Y-87878526D02*
X180269380Y-87926145D01*
D13*
X176636779Y-80419819D02*
X176636779Y-79419819D01*
X177065350Y-79515057D02*
X177112969Y-79467438D01*
X177112969Y-79467438D02*
X177208207Y-79419819D01*
X177208207Y-79419819D02*
X177446302Y-79419819D01*
X177446302Y-79419819D02*
X177541540Y-79467438D01*
X177541540Y-79467438D02*
X177589159Y-79515057D01*
X177589159Y-79515057D02*
X177636778Y-79610295D01*
X177636778Y-79610295D02*
X177636778Y-79705533D01*
X177636778Y-79705533D02*
X177589159Y-79848390D01*
X177589159Y-79848390D02*
X177017731Y-80419819D01*
X177017731Y-80419819D02*
X177636778Y-80419819D01*
X178636778Y-80324580D02*
X178589159Y-80372200D01*
X178589159Y-80372200D02*
X178446302Y-80419819D01*
X178446302Y-80419819D02*
X178351064Y-80419819D01*
X178351064Y-80419819D02*
X178208207Y-80372200D01*
X178208207Y-80372200D02*
X178112969Y-80276961D01*
X178112969Y-80276961D02*
X178065350Y-80181723D01*
X178065350Y-80181723D02*
X178017731Y-79991247D01*
X178017731Y-79991247D02*
X178017731Y-79848390D01*
X178017731Y-79848390D02*
X178065350Y-79657914D01*
X178065350Y-79657914D02*
X178112969Y-79562676D01*
X178112969Y-79562676D02*
X178208207Y-79467438D01*
X178208207Y-79467438D02*
X178351064Y-79419819D01*
X178351064Y-79419819D02*
X178446302Y-79419819D01*
X178446302Y-79419819D02*
X178589159Y-79467438D01*
X178589159Y-79467438D02*
X178636778Y-79515057D01*
D14*
X168718753Y-106131287D02*
X168718753Y-106893192D01*
X168909229Y-106702715D02*
X168718753Y-106893192D01*
X168718753Y-106893192D02*
X168528277Y-106702715D01*
X169480658Y-105893192D02*
X170099705Y-105893192D01*
X170099705Y-105893192D02*
X169766372Y-106274144D01*
X169766372Y-106274144D02*
X169909229Y-106274144D01*
X169909229Y-106274144D02*
X170004467Y-106321763D01*
X170004467Y-106321763D02*
X170052086Y-106369382D01*
X170052086Y-106369382D02*
X170099705Y-106464620D01*
X170099705Y-106464620D02*
X170099705Y-106702715D01*
X170099705Y-106702715D02*
X170052086Y-106797953D01*
X170052086Y-106797953D02*
X170004467Y-106845573D01*
X170004467Y-106845573D02*
X169909229Y-106893192D01*
X169909229Y-106893192D02*
X169623515Y-106893192D01*
X169623515Y-106893192D02*
X169528277Y-106845573D01*
X169528277Y-106845573D02*
X169480658Y-106797953D01*
X170385420Y-105893192D02*
X170718753Y-106893192D01*
X170718753Y-106893192D02*
X171052086Y-105893192D01*
X171290182Y-105893192D02*
X171909229Y-105893192D01*
X171909229Y-105893192D02*
X171575896Y-106274144D01*
X171575896Y-106274144D02*
X171718753Y-106274144D01*
X171718753Y-106274144D02*
X171813991Y-106321763D01*
X171813991Y-106321763D02*
X171861610Y-106369382D01*
X171861610Y-106369382D02*
X171909229Y-106464620D01*
X171909229Y-106464620D02*
X171909229Y-106702715D01*
X171909229Y-106702715D02*
X171861610Y-106797953D01*
X171861610Y-106797953D02*
X171813991Y-106845573D01*
X171813991Y-106845573D02*
X171718753Y-106893192D01*
X171718753Y-106893192D02*
X171433039Y-106893192D01*
X171433039Y-106893192D02*
X171337801Y-106845573D01*
X171337801Y-106845573D02*
X171290182Y-106797953D01*
X172718753Y-106131287D02*
X172718753Y-106893192D01*
X172909229Y-106702715D02*
X172718753Y-106893192D01*
X172718753Y-106893192D02*
X172528277Y-106702715D01*
X174025051Y-106864619D02*
X174025051Y-105864619D01*
X174691717Y-105864619D02*
X174882193Y-105864619D01*
X174882193Y-105864619D02*
X174977431Y-105912238D01*
X174977431Y-105912238D02*
X175072669Y-106007476D01*
X175072669Y-106007476D02*
X175120288Y-106197952D01*
X175120288Y-106197952D02*
X175120288Y-106531285D01*
X175120288Y-106531285D02*
X175072669Y-106721761D01*
X175072669Y-106721761D02*
X174977431Y-106817000D01*
X174977431Y-106817000D02*
X174882193Y-106864619D01*
X174882193Y-106864619D02*
X174691717Y-106864619D01*
X174691717Y-106864619D02*
X174596479Y-106817000D01*
X174596479Y-106817000D02*
X174501241Y-106721761D01*
X174501241Y-106721761D02*
X174453622Y-106531285D01*
X174453622Y-106531285D02*
X174453622Y-106197952D01*
X174453622Y-106197952D02*
X174501241Y-106007476D01*
X174501241Y-106007476D02*
X174596479Y-105912238D01*
X174596479Y-105912238D02*
X174691717Y-105864619D01*
X176072669Y-106864619D02*
X175501241Y-106864619D01*
X175786955Y-106864619D02*
X175786955Y-105864619D01*
X175786955Y-105864619D02*
X175691717Y-106007476D01*
X175691717Y-106007476D02*
X175596479Y-106102714D01*
X175596479Y-106102714D02*
X175501241Y-106150333D01*
X176929812Y-106197952D02*
X176929812Y-106864619D01*
X176691717Y-105817000D02*
X176453622Y-106531285D01*
X176453622Y-106531285D02*
X177072669Y-106531285D01*
D13*
X175893922Y-93119819D02*
X176465350Y-93119819D01*
X176179636Y-94119819D02*
X176179636Y-93119819D01*
X177179636Y-94072200D02*
X177084398Y-94119819D01*
X177084398Y-94119819D02*
X176893922Y-94119819D01*
X176893922Y-94119819D02*
X176798684Y-94072200D01*
X176798684Y-94072200D02*
X176751065Y-93976961D01*
X176751065Y-93976961D02*
X176751065Y-93596009D01*
X176751065Y-93596009D02*
X176798684Y-93500771D01*
X176798684Y-93500771D02*
X176893922Y-93453152D01*
X176893922Y-93453152D02*
X177084398Y-93453152D01*
X177084398Y-93453152D02*
X177179636Y-93500771D01*
X177179636Y-93500771D02*
X177227255Y-93596009D01*
X177227255Y-93596009D02*
X177227255Y-93691247D01*
X177227255Y-93691247D02*
X176751065Y-93786485D01*
X177655827Y-94119819D02*
X177655827Y-93453152D01*
X177655827Y-93548390D02*
X177703446Y-93500771D01*
X177703446Y-93500771D02*
X177798684Y-93453152D01*
X177798684Y-93453152D02*
X177941541Y-93453152D01*
X177941541Y-93453152D02*
X178036779Y-93500771D01*
X178036779Y-93500771D02*
X178084398Y-93596009D01*
X178084398Y-93596009D02*
X178084398Y-94119819D01*
X178084398Y-93596009D02*
X178132017Y-93500771D01*
X178132017Y-93500771D02*
X178227255Y-93453152D01*
X178227255Y-93453152D02*
X178370112Y-93453152D01*
X178370112Y-93453152D02*
X178465351Y-93500771D01*
X178465351Y-93500771D02*
X178512970Y-93596009D01*
X178512970Y-93596009D02*
X178512970Y-94119819D01*
X178989160Y-93453152D02*
X178989160Y-94453152D01*
X178989160Y-93500771D02*
X179084398Y-93453152D01*
X179084398Y-93453152D02*
X179274874Y-93453152D01*
X179274874Y-93453152D02*
X179370112Y-93500771D01*
X179370112Y-93500771D02*
X179417731Y-93548390D01*
X179417731Y-93548390D02*
X179465350Y-93643628D01*
X179465350Y-93643628D02*
X179465350Y-93929342D01*
X179465350Y-93929342D02*
X179417731Y-94024580D01*
X179417731Y-94024580D02*
X179370112Y-94072200D01*
X179370112Y-94072200D02*
X179274874Y-94119819D01*
X179274874Y-94119819D02*
X179084398Y-94119819D01*
X179084398Y-94119819D02*
X178989160Y-94072200D01*
X156648379Y-109343819D02*
X156648379Y-108343819D01*
X156648379Y-108343819D02*
X156981712Y-109058104D01*
X156981712Y-109058104D02*
X157315045Y-108343819D01*
X157315045Y-108343819D02*
X157315045Y-109343819D01*
X158315045Y-109343819D02*
X157743617Y-109343819D01*
X158029331Y-109343819D02*
X158029331Y-108343819D01*
X158029331Y-108343819D02*
X157934093Y-108486676D01*
X157934093Y-108486676D02*
X157838855Y-108581914D01*
X157838855Y-108581914D02*
X157743617Y-108629533D01*
X144200666Y-102070819D02*
X144200666Y-102785104D01*
X144200666Y-102785104D02*
X144153047Y-102927961D01*
X144153047Y-102927961D02*
X144057809Y-103023200D01*
X144057809Y-103023200D02*
X143914952Y-103070819D01*
X143914952Y-103070819D02*
X143819714Y-103070819D01*
X144676857Y-103070819D02*
X144676857Y-102070819D01*
X144676857Y-102070819D02*
X145057809Y-102070819D01*
X145057809Y-102070819D02*
X145153047Y-102118438D01*
X145153047Y-102118438D02*
X145200666Y-102166057D01*
X145200666Y-102166057D02*
X145248285Y-102261295D01*
X145248285Y-102261295D02*
X145248285Y-102404152D01*
X145248285Y-102404152D02*
X145200666Y-102499390D01*
X145200666Y-102499390D02*
X145153047Y-102547009D01*
X145153047Y-102547009D02*
X145057809Y-102594628D01*
X145057809Y-102594628D02*
X144676857Y-102594628D01*
X146153047Y-102070819D02*
X145676857Y-102070819D01*
X145676857Y-102070819D02*
X145629238Y-102547009D01*
X145629238Y-102547009D02*
X145676857Y-102499390D01*
X145676857Y-102499390D02*
X145772095Y-102451771D01*
X145772095Y-102451771D02*
X146010190Y-102451771D01*
X146010190Y-102451771D02*
X146105428Y-102499390D01*
X146105428Y-102499390D02*
X146153047Y-102547009D01*
X146153047Y-102547009D02*
X146200666Y-102642247D01*
X146200666Y-102642247D02*
X146200666Y-102880342D01*
X146200666Y-102880342D02*
X146153047Y-102975580D01*
X146153047Y-102975580D02*
X146105428Y-103023200D01*
X146105428Y-103023200D02*
X146010190Y-103070819D01*
X146010190Y-103070819D02*
X145772095Y-103070819D01*
X145772095Y-103070819D02*
X145676857Y-103023200D01*
X145676857Y-103023200D02*
X145629238Y-102975580D01*
X144234819Y-101425332D02*
X144234819Y-100806285D01*
X144234819Y-100806285D02*
X144615771Y-101139618D01*
X144615771Y-101139618D02*
X144615771Y-100996761D01*
X144615771Y-100996761D02*
X144663390Y-100901523D01*
X144663390Y-100901523D02*
X144711009Y-100853904D01*
X144711009Y-100853904D02*
X144806247Y-100806285D01*
X144806247Y-100806285D02*
X145044342Y-100806285D01*
X145044342Y-100806285D02*
X145139580Y-100853904D01*
X145139580Y-100853904D02*
X145187200Y-100901523D01*
X145187200Y-100901523D02*
X145234819Y-100996761D01*
X145234819Y-100996761D02*
X145234819Y-101282475D01*
X145234819Y-101282475D02*
X145187200Y-101377713D01*
X145187200Y-101377713D02*
X145139580Y-101425332D01*
X145234819Y-98266285D02*
X145234819Y-98837713D01*
X145234819Y-98551999D02*
X144234819Y-98551999D01*
X144234819Y-98551999D02*
X144377676Y-98647237D01*
X144377676Y-98647237D02*
X144472914Y-98742475D01*
X144472914Y-98742475D02*
X144520533Y-98837713D01*
X174905200Y-100393332D02*
X174952819Y-100250475D01*
X174952819Y-100250475D02*
X174952819Y-100012380D01*
X174952819Y-100012380D02*
X174905200Y-99917142D01*
X174905200Y-99917142D02*
X174857580Y-99869523D01*
X174857580Y-99869523D02*
X174762342Y-99821904D01*
X174762342Y-99821904D02*
X174667104Y-99821904D01*
X174667104Y-99821904D02*
X174571866Y-99869523D01*
X174571866Y-99869523D02*
X174524247Y-99917142D01*
X174524247Y-99917142D02*
X174476628Y-100012380D01*
X174476628Y-100012380D02*
X174429009Y-100202856D01*
X174429009Y-100202856D02*
X174381390Y-100298094D01*
X174381390Y-100298094D02*
X174333771Y-100345713D01*
X174333771Y-100345713D02*
X174238533Y-100393332D01*
X174238533Y-100393332D02*
X174143295Y-100393332D01*
X174143295Y-100393332D02*
X174048057Y-100345713D01*
X174048057Y-100345713D02*
X174000438Y-100298094D01*
X174000438Y-100298094D02*
X173952819Y-100202856D01*
X173952819Y-100202856D02*
X173952819Y-99964761D01*
X173952819Y-99964761D02*
X174000438Y-99821904D01*
X173952819Y-99488570D02*
X174952819Y-99250475D01*
X174952819Y-99250475D02*
X174238533Y-99059999D01*
X174238533Y-99059999D02*
X174952819Y-98869523D01*
X174952819Y-98869523D02*
X173952819Y-98631428D01*
X174952819Y-97726666D02*
X174952819Y-98298094D01*
X174952819Y-98012380D02*
X173952819Y-98012380D01*
X173952819Y-98012380D02*
X174095676Y-98107618D01*
X174095676Y-98107618D02*
X174190914Y-98202856D01*
X174190914Y-98202856D02*
X174238533Y-98298094D01*
X155606761Y-98975057D02*
X155511523Y-98927438D01*
X155511523Y-98927438D02*
X155416285Y-98832200D01*
X155416285Y-98832200D02*
X155273428Y-98689342D01*
X155273428Y-98689342D02*
X155178190Y-98641723D01*
X155178190Y-98641723D02*
X155082952Y-98641723D01*
X155130571Y-98879819D02*
X155035333Y-98832200D01*
X155035333Y-98832200D02*
X154940095Y-98736961D01*
X154940095Y-98736961D02*
X154892476Y-98546485D01*
X154892476Y-98546485D02*
X154892476Y-98213152D01*
X154892476Y-98213152D02*
X154940095Y-98022676D01*
X154940095Y-98022676D02*
X155035333Y-97927438D01*
X155035333Y-97927438D02*
X155130571Y-97879819D01*
X155130571Y-97879819D02*
X155321047Y-97879819D01*
X155321047Y-97879819D02*
X155416285Y-97927438D01*
X155416285Y-97927438D02*
X155511523Y-98022676D01*
X155511523Y-98022676D02*
X155559142Y-98213152D01*
X155559142Y-98213152D02*
X155559142Y-98546485D01*
X155559142Y-98546485D02*
X155511523Y-98736961D01*
X155511523Y-98736961D02*
X155416285Y-98832200D01*
X155416285Y-98832200D02*
X155321047Y-98879819D01*
X155321047Y-98879819D02*
X155130571Y-98879819D01*
X156511523Y-98879819D02*
X155940095Y-98879819D01*
X156225809Y-98879819D02*
X156225809Y-97879819D01*
X156225809Y-97879819D02*
X156130571Y-98022676D01*
X156130571Y-98022676D02*
X156035333Y-98117914D01*
X156035333Y-98117914D02*
X155940095Y-98165533D01*
X154528095Y-78724819D02*
X154528095Y-79534342D01*
X154528095Y-79534342D02*
X154575714Y-79629580D01*
X154575714Y-79629580D02*
X154623333Y-79677200D01*
X154623333Y-79677200D02*
X154718571Y-79724819D01*
X154718571Y-79724819D02*
X154909047Y-79724819D01*
X154909047Y-79724819D02*
X155004285Y-79677200D01*
X155004285Y-79677200D02*
X155051904Y-79629580D01*
X155051904Y-79629580D02*
X155099523Y-79534342D01*
X155099523Y-79534342D02*
X155099523Y-78724819D01*
X155528095Y-78820057D02*
X155575714Y-78772438D01*
X155575714Y-78772438D02*
X155670952Y-78724819D01*
X155670952Y-78724819D02*
X155909047Y-78724819D01*
X155909047Y-78724819D02*
X156004285Y-78772438D01*
X156004285Y-78772438D02*
X156051904Y-78820057D01*
X156051904Y-78820057D02*
X156099523Y-78915295D01*
X156099523Y-78915295D02*
X156099523Y-79010533D01*
X156099523Y-79010533D02*
X156051904Y-79153390D01*
X156051904Y-79153390D02*
X155480476Y-79724819D01*
X155480476Y-79724819D02*
X156099523Y-79724819D01*
X153543095Y-90386819D02*
X153543095Y-91196342D01*
X153543095Y-91196342D02*
X153590714Y-91291580D01*
X153590714Y-91291580D02*
X153638333Y-91339200D01*
X153638333Y-91339200D02*
X153733571Y-91386819D01*
X153733571Y-91386819D02*
X153924047Y-91386819D01*
X153924047Y-91386819D02*
X154019285Y-91339200D01*
X154019285Y-91339200D02*
X154066904Y-91291580D01*
X154066904Y-91291580D02*
X154114523Y-91196342D01*
X154114523Y-91196342D02*
X154114523Y-90386819D01*
X155114523Y-91386819D02*
X154543095Y-91386819D01*
X154828809Y-91386819D02*
X154828809Y-90386819D01*
X154828809Y-90386819D02*
X154733571Y-90529676D01*
X154733571Y-90529676D02*
X154638333Y-90624914D01*
X154638333Y-90624914D02*
X154543095Y-90672533D01*
X151860833Y-79824580D02*
X151813214Y-79872200D01*
X151813214Y-79872200D02*
X151670357Y-79919819D01*
X151670357Y-79919819D02*
X151575119Y-79919819D01*
X151575119Y-79919819D02*
X151432262Y-79872200D01*
X151432262Y-79872200D02*
X151337024Y-79776961D01*
X151337024Y-79776961D02*
X151289405Y-79681723D01*
X151289405Y-79681723D02*
X151241786Y-79491247D01*
X151241786Y-79491247D02*
X151241786Y-79348390D01*
X151241786Y-79348390D02*
X151289405Y-79157914D01*
X151289405Y-79157914D02*
X151337024Y-79062676D01*
X151337024Y-79062676D02*
X151432262Y-78967438D01*
X151432262Y-78967438D02*
X151575119Y-78919819D01*
X151575119Y-78919819D02*
X151670357Y-78919819D01*
X151670357Y-78919819D02*
X151813214Y-78967438D01*
X151813214Y-78967438D02*
X151860833Y-79015057D01*
X152194167Y-78919819D02*
X152813214Y-78919819D01*
X152813214Y-78919819D02*
X152479881Y-79300771D01*
X152479881Y-79300771D02*
X152622738Y-79300771D01*
X152622738Y-79300771D02*
X152717976Y-79348390D01*
X152717976Y-79348390D02*
X152765595Y-79396009D01*
X152765595Y-79396009D02*
X152813214Y-79491247D01*
X152813214Y-79491247D02*
X152813214Y-79729342D01*
X152813214Y-79729342D02*
X152765595Y-79824580D01*
X152765595Y-79824580D02*
X152717976Y-79872200D01*
X152717976Y-79872200D02*
X152622738Y-79919819D01*
X152622738Y-79919819D02*
X152337024Y-79919819D01*
X152337024Y-79919819D02*
X152241786Y-79872200D01*
X152241786Y-79872200D02*
X152194167Y-79824580D01*
X151860833Y-81221580D02*
X151813214Y-81269200D01*
X151813214Y-81269200D02*
X151670357Y-81316819D01*
X151670357Y-81316819D02*
X151575119Y-81316819D01*
X151575119Y-81316819D02*
X151432262Y-81269200D01*
X151432262Y-81269200D02*
X151337024Y-81173961D01*
X151337024Y-81173961D02*
X151289405Y-81078723D01*
X151289405Y-81078723D02*
X151241786Y-80888247D01*
X151241786Y-80888247D02*
X151241786Y-80745390D01*
X151241786Y-80745390D02*
X151289405Y-80554914D01*
X151289405Y-80554914D02*
X151337024Y-80459676D01*
X151337024Y-80459676D02*
X151432262Y-80364438D01*
X151432262Y-80364438D02*
X151575119Y-80316819D01*
X151575119Y-80316819D02*
X151670357Y-80316819D01*
X151670357Y-80316819D02*
X151813214Y-80364438D01*
X151813214Y-80364438D02*
X151860833Y-80412057D01*
X152717976Y-80650152D02*
X152717976Y-81316819D01*
X152479881Y-80269200D02*
X152241786Y-80983485D01*
X152241786Y-80983485D02*
X152860833Y-80983485D01*
X147796833Y-81221580D02*
X147749214Y-81269200D01*
X147749214Y-81269200D02*
X147606357Y-81316819D01*
X147606357Y-81316819D02*
X147511119Y-81316819D01*
X147511119Y-81316819D02*
X147368262Y-81269200D01*
X147368262Y-81269200D02*
X147273024Y-81173961D01*
X147273024Y-81173961D02*
X147225405Y-81078723D01*
X147225405Y-81078723D02*
X147177786Y-80888247D01*
X147177786Y-80888247D02*
X147177786Y-80745390D01*
X147177786Y-80745390D02*
X147225405Y-80554914D01*
X147225405Y-80554914D02*
X147273024Y-80459676D01*
X147273024Y-80459676D02*
X147368262Y-80364438D01*
X147368262Y-80364438D02*
X147511119Y-80316819D01*
X147511119Y-80316819D02*
X147606357Y-80316819D01*
X147606357Y-80316819D02*
X147749214Y-80364438D01*
X147749214Y-80364438D02*
X147796833Y-80412057D01*
X148749214Y-81316819D02*
X148177786Y-81316819D01*
X148463500Y-81316819D02*
X148463500Y-80316819D01*
X148463500Y-80316819D02*
X148368262Y-80459676D01*
X148368262Y-80459676D02*
X148273024Y-80554914D01*
X148273024Y-80554914D02*
X148177786Y-80602533D01*
X147502666Y-102832819D02*
X147502666Y-103547104D01*
X147502666Y-103547104D02*
X147455047Y-103689961D01*
X147455047Y-103689961D02*
X147359809Y-103785200D01*
X147359809Y-103785200D02*
X147216952Y-103832819D01*
X147216952Y-103832819D02*
X147121714Y-103832819D01*
X147978857Y-103832819D02*
X147978857Y-102832819D01*
X147978857Y-102832819D02*
X148359809Y-102832819D01*
X148359809Y-102832819D02*
X148455047Y-102880438D01*
X148455047Y-102880438D02*
X148502666Y-102928057D01*
X148502666Y-102928057D02*
X148550285Y-103023295D01*
X148550285Y-103023295D02*
X148550285Y-103166152D01*
X148550285Y-103166152D02*
X148502666Y-103261390D01*
X148502666Y-103261390D02*
X148455047Y-103309009D01*
X148455047Y-103309009D02*
X148359809Y-103356628D01*
X148359809Y-103356628D02*
X147978857Y-103356628D01*
X149407428Y-103166152D02*
X149407428Y-103832819D01*
X149169333Y-102785200D02*
X148931238Y-103499485D01*
X148931238Y-103499485D02*
X149550285Y-103499485D01*
X149383714Y-107388819D02*
X148812286Y-107388819D01*
X149098000Y-107388819D02*
X149098000Y-106388819D01*
X149098000Y-106388819D02*
X149002762Y-106531676D01*
X149002762Y-106531676D02*
X148907524Y-106626914D01*
X148907524Y-106626914D02*
X148812286Y-106674533D01*
X144864667Y-104610819D02*
X145483714Y-104610819D01*
X145483714Y-104610819D02*
X145150381Y-104991771D01*
X145150381Y-104991771D02*
X145293238Y-104991771D01*
X145293238Y-104991771D02*
X145388476Y-105039390D01*
X145388476Y-105039390D02*
X145436095Y-105087009D01*
X145436095Y-105087009D02*
X145483714Y-105182247D01*
X145483714Y-105182247D02*
X145483714Y-105420342D01*
X145483714Y-105420342D02*
X145436095Y-105515580D01*
X145436095Y-105515580D02*
X145388476Y-105563200D01*
X145388476Y-105563200D02*
X145293238Y-105610819D01*
X145293238Y-105610819D02*
X145007524Y-105610819D01*
X145007524Y-105610819D02*
X144912286Y-105563200D01*
X144912286Y-105563200D02*
X144864667Y-105515580D01*
X150963333Y-98752819D02*
X150630000Y-98276628D01*
X150391905Y-98752819D02*
X150391905Y-97752819D01*
X150391905Y-97752819D02*
X150772857Y-97752819D01*
X150772857Y-97752819D02*
X150868095Y-97800438D01*
X150868095Y-97800438D02*
X150915714Y-97848057D01*
X150915714Y-97848057D02*
X150963333Y-97943295D01*
X150963333Y-97943295D02*
X150963333Y-98086152D01*
X150963333Y-98086152D02*
X150915714Y-98181390D01*
X150915714Y-98181390D02*
X150868095Y-98229009D01*
X150868095Y-98229009D02*
X150772857Y-98276628D01*
X150772857Y-98276628D02*
X150391905Y-98276628D01*
X151296667Y-97752819D02*
X151963333Y-97752819D01*
X151963333Y-97752819D02*
X151534762Y-98752819D01*
X147796833Y-79824580D02*
X147749214Y-79872200D01*
X147749214Y-79872200D02*
X147606357Y-79919819D01*
X147606357Y-79919819D02*
X147511119Y-79919819D01*
X147511119Y-79919819D02*
X147368262Y-79872200D01*
X147368262Y-79872200D02*
X147273024Y-79776961D01*
X147273024Y-79776961D02*
X147225405Y-79681723D01*
X147225405Y-79681723D02*
X147177786Y-79491247D01*
X147177786Y-79491247D02*
X147177786Y-79348390D01*
X147177786Y-79348390D02*
X147225405Y-79157914D01*
X147225405Y-79157914D02*
X147273024Y-79062676D01*
X147273024Y-79062676D02*
X147368262Y-78967438D01*
X147368262Y-78967438D02*
X147511119Y-78919819D01*
X147511119Y-78919819D02*
X147606357Y-78919819D01*
X147606357Y-78919819D02*
X147749214Y-78967438D01*
X147749214Y-78967438D02*
X147796833Y-79015057D01*
X148177786Y-79015057D02*
X148225405Y-78967438D01*
X148225405Y-78967438D02*
X148320643Y-78919819D01*
X148320643Y-78919819D02*
X148558738Y-78919819D01*
X148558738Y-78919819D02*
X148653976Y-78967438D01*
X148653976Y-78967438D02*
X148701595Y-79015057D01*
X148701595Y-79015057D02*
X148749214Y-79110295D01*
X148749214Y-79110295D02*
X148749214Y-79205533D01*
X148749214Y-79205533D02*
X148701595Y-79348390D01*
X148701595Y-79348390D02*
X148130167Y-79919819D01*
X148130167Y-79919819D02*
X148749214Y-79919819D01*
D15*
%TO.C,JP5*%
X146258000Y-97802000D02*
X146858000Y-97802000D01*
X147558000Y-98452000D02*
X147558000Y-101252000D01*
X145558000Y-101252000D02*
X145558000Y-98452000D01*
X146858000Y-101902000D02*
X146258000Y-101902000D01*
X146858000Y-97802000D02*
G75*
G02*
X147558000Y-98502000I1J-699999D01*
G01*
X145558000Y-98502000D02*
G75*
G02*
X146258000Y-97802000I699999J1D01*
G01*
X147558000Y-101202000D02*
G75*
G02*
X146858000Y-101902000I-700000J0D01*
G01*
X146258000Y-101902000D02*
G75*
G02*
X145558000Y-101202000I0J700000D01*
G01*
%TO.C,J1*%
X140910000Y-81220000D02*
X142240000Y-81220000D01*
X140910000Y-82550000D02*
X140910000Y-81220000D01*
X140910000Y-83820000D02*
X140910000Y-106740000D01*
X140910000Y-83820000D02*
X143570000Y-83820000D01*
X140910000Y-106740000D02*
X143570000Y-106740000D01*
X143570000Y-83820000D02*
X143570000Y-106740000D01*
%TO.C,J3*%
X184210000Y-83820000D02*
X184210000Y-106740000D01*
X181550000Y-106740000D02*
X184210000Y-106740000D01*
X181550000Y-83820000D02*
X184210000Y-83820000D01*
X181550000Y-83820000D02*
X181550000Y-106740000D01*
X181550000Y-82550000D02*
X181550000Y-81220000D01*
X181550000Y-81220000D02*
X182880000Y-81220000D01*
%TO.C,J4*%
X192152000Y-110350000D02*
X193892000Y-110350000D01*
X193892000Y-110350000D02*
X193892000Y-108850000D01*
X186532000Y-110110000D02*
X193652000Y-110110000D01*
X186532000Y-110110000D02*
X186532000Y-74290000D01*
X192092000Y-110110000D02*
X192092000Y-74290000D01*
X193652000Y-110110000D02*
X193652000Y-74290000D01*
X186532000Y-74290000D02*
X193652000Y-74290000D01*
X190599742Y-109382109D02*
G75*
G02*
X189384000Y-109382000I-607742J1432109D01*
G01*
X188559891Y-108557742D02*
G75*
G02*
X188560000Y-107342000I1432109J607742D01*
G01*
X191547493Y-107922989D02*
G75*
G02*
X191424000Y-108558000I-1555481J-27013D01*
G01*
X191423385Y-107342413D02*
G75*
G02*
X191547000Y-107950000I-1431385J-607587D01*
G01*
X189384258Y-106517891D02*
G75*
G02*
X190600000Y-106518000I607743J-1432112D01*
G01*
X191547000Y-104450000D02*
G75*
G02*
X188437000Y-104450000I-1555000J0D01*
G01*
X188437000Y-104450000D02*
G75*
G02*
X191547000Y-104450000I1555000J0D01*
G01*
X191547000Y-100950000D02*
G75*
G02*
X188437000Y-100950000I-1555000J0D01*
G01*
X188437000Y-100950000D02*
G75*
G02*
X191547000Y-100950000I1555000J0D01*
G01*
X191547000Y-97450000D02*
G75*
G02*
X188437000Y-97450000I-1555000J0D01*
G01*
X188437000Y-97450000D02*
G75*
G02*
X191547000Y-97450000I1555000J0D01*
G01*
X191547000Y-93950000D02*
G75*
G02*
X188437000Y-93950000I-1555000J0D01*
G01*
X188437000Y-93950000D02*
G75*
G02*
X191547000Y-93950000I1555000J0D01*
G01*
X191547000Y-90450000D02*
G75*
G02*
X188437000Y-90450000I-1555000J0D01*
G01*
X188437000Y-90450000D02*
G75*
G02*
X191547000Y-90450000I1555000J0D01*
G01*
X191547000Y-86950000D02*
G75*
G02*
X188437000Y-86950000I-1555000J0D01*
G01*
X188437000Y-86950000D02*
G75*
G02*
X191547000Y-86950000I1555000J0D01*
G01*
X191547000Y-83450000D02*
G75*
G02*
X188437000Y-83450000I-1555000J0D01*
G01*
X188437000Y-83450000D02*
G75*
G02*
X191547000Y-83450000I1555000J0D01*
G01*
X191547000Y-79950000D02*
G75*
G02*
X188437000Y-79950000I-1555000J0D01*
G01*
X188437000Y-79950000D02*
G75*
G02*
X191547000Y-79950000I1555000J0D01*
G01*
X191547000Y-76450000D02*
G75*
G02*
X188437000Y-76450000I-1555000J0D01*
G01*
X188437000Y-76450000D02*
G75*
G02*
X191547000Y-76450000I1555000J0D01*
G01*
%TO.C,J2*%
X133069600Y-74050000D02*
X131329600Y-74050000D01*
X131329600Y-74050000D02*
X131329600Y-75550000D01*
X138689600Y-74290000D02*
X131569600Y-74290000D01*
X138689600Y-74290000D02*
X138689600Y-110110000D01*
X133129600Y-74290000D02*
X133129600Y-110110000D01*
X131569600Y-74290000D02*
X131569600Y-110110000D01*
X138689600Y-110110000D02*
X131569600Y-110110000D01*
X134621858Y-75017891D02*
G75*
G02*
X135837600Y-75018000I607742J-1432109D01*
G01*
X136661709Y-75842258D02*
G75*
G02*
X136661600Y-77058000I-1432109J-607742D01*
G01*
X133674107Y-76477011D02*
G75*
G02*
X133797600Y-75842000I1555481J27013D01*
G01*
X133798215Y-77057587D02*
G75*
G02*
X133674600Y-76450000I1431385J607587D01*
G01*
X135837342Y-77882109D02*
G75*
G02*
X134621600Y-77882000I-607743J1432112D01*
G01*
X136784600Y-79950000D02*
G75*
G02*
X133674600Y-79950000I-1555000J0D01*
G01*
X133674600Y-79950000D02*
G75*
G02*
X136784600Y-79950000I1555000J0D01*
G01*
X136784600Y-83450000D02*
G75*
G02*
X133674600Y-83450000I-1555000J0D01*
G01*
X133674600Y-83450000D02*
G75*
G02*
X136784600Y-83450000I1555000J0D01*
G01*
X136784600Y-86950000D02*
G75*
G02*
X133674600Y-86950000I-1555000J0D01*
G01*
X133674600Y-86950000D02*
G75*
G02*
X136784600Y-86950000I1555000J0D01*
G01*
X136784600Y-90450000D02*
G75*
G02*
X133674600Y-90450000I-1555000J0D01*
G01*
X133674600Y-90450000D02*
G75*
G02*
X136784600Y-90450000I1555000J0D01*
G01*
X136784600Y-93950000D02*
G75*
G02*
X133674600Y-93950000I-1555000J0D01*
G01*
X133674600Y-93950000D02*
G75*
G02*
X136784600Y-93950000I1555000J0D01*
G01*
X136784600Y-97450000D02*
G75*
G02*
X133674600Y-97450000I-1555000J0D01*
G01*
X133674600Y-97450000D02*
G75*
G02*
X136784600Y-97450000I1555000J0D01*
G01*
X136784600Y-100950000D02*
G75*
G02*
X133674600Y-100950000I-1555000J0D01*
G01*
X133674600Y-100950000D02*
G75*
G02*
X136784600Y-100950000I1555000J0D01*
G01*
X136784600Y-104450000D02*
G75*
G02*
X133674600Y-104450000I-1555000J0D01*
G01*
X133674600Y-104450000D02*
G75*
G02*
X136784600Y-104450000I1555000J0D01*
G01*
X136784600Y-107950000D02*
G75*
G02*
X133674600Y-107950000I-1555000J0D01*
G01*
X133674600Y-107950000D02*
G75*
G02*
X136784600Y-107950000I1555000J0D01*
G01*
%TO.C,J9*%
X158690000Y-107670000D02*
X158690000Y-110330000D01*
X166370000Y-107670000D02*
X158690000Y-107670000D01*
X166370000Y-107670000D02*
X166370000Y-110330000D01*
X166370000Y-110330000D02*
X158690000Y-110330000D01*
X167640000Y-107670000D02*
X168970000Y-107670000D01*
X168970000Y-107670000D02*
X168970000Y-109000000D01*
%TO.C,SW1*%
X165664000Y-100723000D02*
X165664000Y-102223000D01*
X166914000Y-104723000D02*
X171414000Y-104723000D01*
X171414000Y-98223000D02*
X166914000Y-98223000D01*
X172664000Y-102223000D02*
X172664000Y-100723000D01*
%TO.C,Q1*%
X153255000Y-99575000D02*
X153255000Y-99845000D01*
X153255000Y-106475000D02*
X153255000Y-106205000D01*
X159675000Y-99575000D02*
X153255000Y-99575000D01*
X159675000Y-106475000D02*
X153255000Y-106475000D01*
X151835000Y-99885000D02*
X151595000Y-99555000D01*
X152075000Y-99555000D01*
X151835000Y-99885000D01*
G36*
X151835000Y-99885000D02*
G01*
X151595000Y-99555000D01*
X152075000Y-99555000D01*
X151835000Y-99885000D01*
G37*
%TO.C,J8*%
X176216000Y-90005000D02*
X176216000Y-82325000D01*
X178876000Y-82325000D02*
X176216000Y-82325000D01*
X178876000Y-90005000D02*
X176216000Y-90005000D01*
X178876000Y-90005000D02*
X178876000Y-82325000D01*
X178876000Y-91275000D02*
X178876000Y-92605000D01*
X178876000Y-92605000D02*
X177546000Y-92605000D01*
%TO.C,J7*%
X171136000Y-107670000D02*
X171136000Y-110330000D01*
X176276000Y-107670000D02*
X171136000Y-107670000D01*
X176276000Y-107670000D02*
X176276000Y-110330000D01*
X176276000Y-110330000D02*
X171136000Y-110330000D01*
X177546000Y-107670000D02*
X178876000Y-107670000D01*
X178876000Y-107670000D02*
X178876000Y-109000000D01*
%TO.C,U2*%
X157730000Y-72410000D02*
X173970000Y-72410000D01*
X157730000Y-80030000D02*
X157730000Y-72410000D01*
X157730000Y-96650000D02*
X157730000Y-96030000D01*
X159850000Y-96650000D02*
X157730000Y-96650000D01*
X173970000Y-72410000D02*
X173970000Y-80030000D01*
X173970000Y-96030000D02*
X173970000Y-96650000D01*
X173970000Y-96650000D02*
X171850000Y-96650000D01*
X157300000Y-80030000D02*
X157060000Y-79694000D01*
X157540000Y-79694000D01*
X157300000Y-80030000D01*
G36*
X157300000Y-80030000D02*
G01*
X157060000Y-79694000D01*
X157540000Y-79694000D01*
X157300000Y-80030000D01*
G37*
%TO.C,U1*%
X144860000Y-91840000D02*
X144860000Y-97160000D01*
X144860000Y-97160000D02*
X155140000Y-97160000D01*
X147350000Y-91900000D02*
X147350000Y-97100000D01*
X147350000Y-97100000D02*
X149000000Y-97100000D01*
X151000000Y-97100000D02*
X152650000Y-97100000D01*
X152650000Y-91900000D02*
X147350000Y-91900000D01*
X152650000Y-97100000D02*
X152650000Y-91900000D01*
X155140000Y-91840000D02*
X144860000Y-91840000D01*
X155140000Y-97160000D02*
X155140000Y-91840000D01*
X149000000Y-97100000D02*
G75*
G02*
X151000000Y-97100000I1000000J0D01*
G01*
%TO.C,C3*%
X152428752Y-81855000D02*
X151906248Y-81855000D01*
X152428752Y-83325000D02*
X151906248Y-83325000D01*
%TO.C,J6*%
X146282500Y-87260000D02*
X146282500Y-89920000D01*
X151422500Y-87260000D02*
X146282500Y-87260000D01*
X151422500Y-87260000D02*
X151422500Y-89920000D01*
X151422500Y-89920000D02*
X146282500Y-89920000D01*
X152692500Y-87260000D02*
X154022500Y-87260000D01*
X154022500Y-87260000D02*
X154022500Y-88590000D01*
%TO.C,C4*%
X152428752Y-85825000D02*
X151906248Y-85825000D01*
X152428752Y-84355000D02*
X151906248Y-84355000D01*
%TO.C,C1*%
X147906248Y-84355000D02*
X148428752Y-84355000D01*
X147906248Y-85825000D02*
X148428752Y-85825000D01*
%TO.C,J5*%
X176216000Y-102362000D02*
X176216000Y-94682000D01*
X178876000Y-94682000D02*
X176216000Y-94682000D01*
X178876000Y-102362000D02*
X176216000Y-102362000D01*
X178876000Y-102362000D02*
X178876000Y-94682000D01*
X178876000Y-103632000D02*
X178876000Y-104962000D01*
X178876000Y-104962000D02*
X177546000Y-104962000D01*
%TO.C,JP4*%
X146398000Y-104156000D02*
X149198000Y-104156000D01*
X149848000Y-104856000D02*
X149848000Y-105456000D01*
X145748000Y-105456000D02*
X145748000Y-104856000D01*
X149198000Y-106156000D02*
X146398000Y-106156000D01*
X149148000Y-104156000D02*
G75*
G02*
X149848000Y-104856000I1J-699999D01*
G01*
X145748000Y-104856000D02*
G75*
G02*
X146448000Y-104156000I700000J0D01*
G01*
X149848000Y-105456000D02*
G75*
G02*
X149148000Y-106156000I-699999J-1D01*
G01*
X146448000Y-106156000D02*
G75*
G02*
X145748000Y-105456000I0J700000D01*
G01*
%TO.C,R7*%
X148265000Y-99772936D02*
X148265000Y-100227064D01*
X149735000Y-99772936D02*
X149735000Y-100227064D01*
%TO.C,C2*%
X147906248Y-81855000D02*
X148428752Y-81855000D01*
X147906248Y-83325000D02*
X148428752Y-83325000D01*
%TD*%
M02*
