%TF.GenerationSoftware,KiCad,Pcbnew,8.0.3*%
%TF.CreationDate,2024-08-02T22:41:38+02:00*%
%TF.ProjectId,IOT board sensor,494f5420-626f-4617-9264-2073656e736f,rev?*%
%TF.SameCoordinates,Original*%
%TF.FileFunction,Legend,Bot*%
%TF.FilePolarity,Positive*%
%FSLAX46Y46*%
G04 Gerber Fmt 4.6, Leading zero omitted, Abs format (unit mm)*
G04 Created by KiCad (PCBNEW 8.0.3) date 2024-08-02 22:41:38*
%MOMM*%
%LPD*%
G01*
G04 APERTURE LIST*
%ADD10C,0.275000*%
%ADD11C,0.150000*%
%ADD12C,0.375000*%
%ADD13C,0.120000*%
G04 APERTURE END LIST*
D10*
X186282033Y-82692825D02*
X186282033Y-83530921D01*
X186334414Y-84369016D02*
X186543938Y-84369016D01*
X185967747Y-84107111D02*
X186020128Y-84054730D01*
X186020128Y-84054730D02*
X186124890Y-84002349D01*
X186124890Y-84002349D02*
X186543938Y-84002349D01*
X186543938Y-84002349D02*
X186648700Y-84054730D01*
X186648700Y-84054730D02*
X186701080Y-84159492D01*
X186701080Y-84159492D02*
X186701080Y-84211873D01*
X186701080Y-84211873D02*
X186648700Y-84316635D01*
X186648700Y-84316635D02*
X186543938Y-84369016D01*
X186543938Y-84369016D02*
X186648700Y-84421397D01*
X186648700Y-84421397D02*
X186701080Y-84526159D01*
X186701080Y-84526159D02*
X186701080Y-84578540D01*
X186701080Y-84578540D02*
X186648700Y-84683302D01*
X186648700Y-84683302D02*
X186543938Y-84735683D01*
X186543938Y-84735683D02*
X186124890Y-84735683D01*
X186124890Y-84735683D02*
X186020128Y-84683302D01*
X186020128Y-84683302D02*
X185967747Y-84630921D01*
X186282033Y-85207111D02*
X186282033Y-86045207D01*
X140011936Y-100351080D02*
X139435745Y-99617747D01*
X140011936Y-99617747D02*
X139435745Y-100351080D01*
X139121460Y-99251080D02*
X138440507Y-99251080D01*
X138440507Y-99251080D02*
X138807174Y-99670128D01*
X138807174Y-99670128D02*
X138650031Y-99670128D01*
X138650031Y-99670128D02*
X138545269Y-99722509D01*
X138545269Y-99722509D02*
X138492888Y-99774890D01*
X138492888Y-99774890D02*
X138440507Y-99879652D01*
X138440507Y-99879652D02*
X138440507Y-100141557D01*
X138440507Y-100141557D02*
X138492888Y-100246319D01*
X138492888Y-100246319D02*
X138545269Y-100298700D01*
X138545269Y-100298700D02*
X138650031Y-100351080D01*
X138650031Y-100351080D02*
X138964317Y-100351080D01*
X138964317Y-100351080D02*
X139069079Y-100298700D01*
X139069079Y-100298700D02*
X139121460Y-100246319D01*
X193451080Y-74964254D02*
X192874890Y-74964254D01*
X192874890Y-74964254D02*
X192770128Y-74911873D01*
X192770128Y-74911873D02*
X192717747Y-74807111D01*
X192717747Y-74807111D02*
X192717747Y-74597587D01*
X192717747Y-74597587D02*
X192770128Y-74492825D01*
X193398700Y-74964254D02*
X193451080Y-74859492D01*
X193451080Y-74859492D02*
X193451080Y-74597587D01*
X193451080Y-74597587D02*
X193398700Y-74492825D01*
X193398700Y-74492825D02*
X193293938Y-74440444D01*
X193293938Y-74440444D02*
X193189176Y-74440444D01*
X193189176Y-74440444D02*
X193084414Y-74492825D01*
X193084414Y-74492825D02*
X193032033Y-74597587D01*
X193032033Y-74597587D02*
X193032033Y-74859492D01*
X193032033Y-74859492D02*
X192979652Y-74964254D01*
X193398700Y-75435682D02*
X193451080Y-75540444D01*
X193451080Y-75540444D02*
X193451080Y-75749968D01*
X193451080Y-75749968D02*
X193398700Y-75854730D01*
X193398700Y-75854730D02*
X193293938Y-75907111D01*
X193293938Y-75907111D02*
X193241557Y-75907111D01*
X193241557Y-75907111D02*
X193136795Y-75854730D01*
X193136795Y-75854730D02*
X193084414Y-75749968D01*
X193084414Y-75749968D02*
X193084414Y-75592825D01*
X193084414Y-75592825D02*
X193032033Y-75488063D01*
X193032033Y-75488063D02*
X192927271Y-75435682D01*
X192927271Y-75435682D02*
X192874890Y-75435682D01*
X192874890Y-75435682D02*
X192770128Y-75488063D01*
X192770128Y-75488063D02*
X192717747Y-75592825D01*
X192717747Y-75592825D02*
X192717747Y-75749968D01*
X192717747Y-75749968D02*
X192770128Y-75854730D01*
X193398700Y-76326158D02*
X193451080Y-76430920D01*
X193451080Y-76430920D02*
X193451080Y-76640444D01*
X193451080Y-76640444D02*
X193398700Y-76745206D01*
X193398700Y-76745206D02*
X193293938Y-76797587D01*
X193293938Y-76797587D02*
X193241557Y-76797587D01*
X193241557Y-76797587D02*
X193136795Y-76745206D01*
X193136795Y-76745206D02*
X193084414Y-76640444D01*
X193084414Y-76640444D02*
X193084414Y-76483301D01*
X193084414Y-76483301D02*
X193032033Y-76378539D01*
X193032033Y-76378539D02*
X192927271Y-76326158D01*
X192927271Y-76326158D02*
X192874890Y-76326158D01*
X192874890Y-76326158D02*
X192770128Y-76378539D01*
X192770128Y-76378539D02*
X192717747Y-76483301D01*
X192717747Y-76483301D02*
X192717747Y-76640444D01*
X192717747Y-76640444D02*
X192770128Y-76745206D01*
X193398700Y-77688063D02*
X193451080Y-77583301D01*
X193451080Y-77583301D02*
X193451080Y-77373777D01*
X193451080Y-77373777D02*
X193398700Y-77269015D01*
X193398700Y-77269015D02*
X193293938Y-77216634D01*
X193293938Y-77216634D02*
X192874890Y-77216634D01*
X192874890Y-77216634D02*
X192770128Y-77269015D01*
X192770128Y-77269015D02*
X192717747Y-77373777D01*
X192717747Y-77373777D02*
X192717747Y-77583301D01*
X192717747Y-77583301D02*
X192770128Y-77688063D01*
X192770128Y-77688063D02*
X192874890Y-77740444D01*
X192874890Y-77740444D02*
X192979652Y-77740444D01*
X192979652Y-77740444D02*
X193084414Y-77216634D01*
X193451080Y-78211872D02*
X192717747Y-78211872D01*
X192822509Y-78211872D02*
X192770128Y-78264253D01*
X192770128Y-78264253D02*
X192717747Y-78369015D01*
X192717747Y-78369015D02*
X192717747Y-78526158D01*
X192717747Y-78526158D02*
X192770128Y-78630920D01*
X192770128Y-78630920D02*
X192874890Y-78683301D01*
X192874890Y-78683301D02*
X193451080Y-78683301D01*
X192874890Y-78683301D02*
X192770128Y-78735682D01*
X192770128Y-78735682D02*
X192717747Y-78840444D01*
X192717747Y-78840444D02*
X192717747Y-78997587D01*
X192717747Y-78997587D02*
X192770128Y-79102348D01*
X192770128Y-79102348D02*
X192874890Y-79154729D01*
X192874890Y-79154729D02*
X193451080Y-79154729D01*
X193451080Y-79678539D02*
X192351080Y-79678539D01*
X192770128Y-79678539D02*
X192717747Y-79783301D01*
X192717747Y-79783301D02*
X192717747Y-79992825D01*
X192717747Y-79992825D02*
X192770128Y-80097587D01*
X192770128Y-80097587D02*
X192822509Y-80149968D01*
X192822509Y-80149968D02*
X192927271Y-80202349D01*
X192927271Y-80202349D02*
X193241557Y-80202349D01*
X193241557Y-80202349D02*
X193346319Y-80149968D01*
X193346319Y-80149968D02*
X193398700Y-80097587D01*
X193398700Y-80097587D02*
X193451080Y-79992825D01*
X193451080Y-79992825D02*
X193451080Y-79783301D01*
X193451080Y-79783301D02*
X193398700Y-79678539D01*
X193451080Y-80830920D02*
X193398700Y-80726158D01*
X193398700Y-80726158D02*
X193293938Y-80673777D01*
X193293938Y-80673777D02*
X192351080Y-80673777D01*
X193398700Y-81669015D02*
X193451080Y-81564253D01*
X193451080Y-81564253D02*
X193451080Y-81354729D01*
X193451080Y-81354729D02*
X193398700Y-81249967D01*
X193398700Y-81249967D02*
X193293938Y-81197586D01*
X193293938Y-81197586D02*
X192874890Y-81197586D01*
X192874890Y-81197586D02*
X192770128Y-81249967D01*
X192770128Y-81249967D02*
X192717747Y-81354729D01*
X192717747Y-81354729D02*
X192717747Y-81564253D01*
X192717747Y-81564253D02*
X192770128Y-81669015D01*
X192770128Y-81669015D02*
X192874890Y-81721396D01*
X192874890Y-81721396D02*
X192979652Y-81721396D01*
X192979652Y-81721396D02*
X193084414Y-81197586D01*
X193451080Y-82664253D02*
X192351080Y-82664253D01*
X193398700Y-82664253D02*
X193451080Y-82559491D01*
X193451080Y-82559491D02*
X193451080Y-82349967D01*
X193451080Y-82349967D02*
X193398700Y-82245205D01*
X193398700Y-82245205D02*
X193346319Y-82192824D01*
X193346319Y-82192824D02*
X193241557Y-82140443D01*
X193241557Y-82140443D02*
X192927271Y-82140443D01*
X192927271Y-82140443D02*
X192822509Y-82192824D01*
X192822509Y-82192824D02*
X192770128Y-82245205D01*
X192770128Y-82245205D02*
X192717747Y-82349967D01*
X192717747Y-82349967D02*
X192717747Y-82559491D01*
X192717747Y-82559491D02*
X192770128Y-82664253D01*
X192717747Y-83921395D02*
X193451080Y-84130919D01*
X193451080Y-84130919D02*
X192927271Y-84340443D01*
X192927271Y-84340443D02*
X193451080Y-84549967D01*
X193451080Y-84549967D02*
X192717747Y-84759491D01*
X193451080Y-85178538D02*
X192717747Y-85178538D01*
X192351080Y-85178538D02*
X192403461Y-85126157D01*
X192403461Y-85126157D02*
X192455842Y-85178538D01*
X192455842Y-85178538D02*
X192403461Y-85230919D01*
X192403461Y-85230919D02*
X192351080Y-85178538D01*
X192351080Y-85178538D02*
X192455842Y-85178538D01*
X192717747Y-85545205D02*
X192717747Y-85964253D01*
X192351080Y-85702348D02*
X193293938Y-85702348D01*
X193293938Y-85702348D02*
X193398700Y-85754729D01*
X193398700Y-85754729D02*
X193451080Y-85859491D01*
X193451080Y-85859491D02*
X193451080Y-85964253D01*
X193451080Y-86330919D02*
X192351080Y-86330919D01*
X193451080Y-86802348D02*
X192874890Y-86802348D01*
X192874890Y-86802348D02*
X192770128Y-86749967D01*
X192770128Y-86749967D02*
X192717747Y-86645205D01*
X192717747Y-86645205D02*
X192717747Y-86488062D01*
X192717747Y-86488062D02*
X192770128Y-86383300D01*
X192770128Y-86383300D02*
X192822509Y-86330919D01*
X193398700Y-88635681D02*
X193451080Y-88530919D01*
X193451080Y-88530919D02*
X193451080Y-88321395D01*
X193451080Y-88321395D02*
X193398700Y-88216633D01*
X193398700Y-88216633D02*
X193346319Y-88164252D01*
X193346319Y-88164252D02*
X193241557Y-88111871D01*
X193241557Y-88111871D02*
X192927271Y-88111871D01*
X192927271Y-88111871D02*
X192822509Y-88164252D01*
X192822509Y-88164252D02*
X192770128Y-88216633D01*
X192770128Y-88216633D02*
X192717747Y-88321395D01*
X192717747Y-88321395D02*
X192717747Y-88530919D01*
X192717747Y-88530919D02*
X192770128Y-88635681D01*
X193451080Y-89578538D02*
X192874890Y-89578538D01*
X192874890Y-89578538D02*
X192770128Y-89526157D01*
X192770128Y-89526157D02*
X192717747Y-89421395D01*
X192717747Y-89421395D02*
X192717747Y-89211871D01*
X192717747Y-89211871D02*
X192770128Y-89107109D01*
X193398700Y-89578538D02*
X193451080Y-89473776D01*
X193451080Y-89473776D02*
X193451080Y-89211871D01*
X193451080Y-89211871D02*
X193398700Y-89107109D01*
X193398700Y-89107109D02*
X193293938Y-89054728D01*
X193293938Y-89054728D02*
X193189176Y-89054728D01*
X193189176Y-89054728D02*
X193084414Y-89107109D01*
X193084414Y-89107109D02*
X193032033Y-89211871D01*
X193032033Y-89211871D02*
X193032033Y-89473776D01*
X193032033Y-89473776D02*
X192979652Y-89578538D01*
X192717747Y-89945204D02*
X192717747Y-90364252D01*
X192351080Y-90102347D02*
X193293938Y-90102347D01*
X193293938Y-90102347D02*
X193398700Y-90154728D01*
X193398700Y-90154728D02*
X193451080Y-90259490D01*
X193451080Y-90259490D02*
X193451080Y-90364252D01*
X192717747Y-91569013D02*
X193817747Y-91569013D01*
X192770128Y-91569013D02*
X192717747Y-91673775D01*
X192717747Y-91673775D02*
X192717747Y-91883299D01*
X192717747Y-91883299D02*
X192770128Y-91988061D01*
X192770128Y-91988061D02*
X192822509Y-92040442D01*
X192822509Y-92040442D02*
X192927271Y-92092823D01*
X192927271Y-92092823D02*
X193241557Y-92092823D01*
X193241557Y-92092823D02*
X193346319Y-92040442D01*
X193346319Y-92040442D02*
X193398700Y-91988061D01*
X193398700Y-91988061D02*
X193451080Y-91883299D01*
X193451080Y-91883299D02*
X193451080Y-91673775D01*
X193451080Y-91673775D02*
X193398700Y-91569013D01*
X193451080Y-93035680D02*
X192874890Y-93035680D01*
X192874890Y-93035680D02*
X192770128Y-92983299D01*
X192770128Y-92983299D02*
X192717747Y-92878537D01*
X192717747Y-92878537D02*
X192717747Y-92669013D01*
X192717747Y-92669013D02*
X192770128Y-92564251D01*
X193398700Y-93035680D02*
X193451080Y-92930918D01*
X193451080Y-92930918D02*
X193451080Y-92669013D01*
X193451080Y-92669013D02*
X193398700Y-92564251D01*
X193398700Y-92564251D02*
X193293938Y-92511870D01*
X193293938Y-92511870D02*
X193189176Y-92511870D01*
X193189176Y-92511870D02*
X193084414Y-92564251D01*
X193084414Y-92564251D02*
X193032033Y-92669013D01*
X193032033Y-92669013D02*
X193032033Y-92930918D01*
X193032033Y-92930918D02*
X192979652Y-93035680D01*
X192717747Y-93454727D02*
X193451080Y-93664251D01*
X193451080Y-93664251D02*
X192927271Y-93873775D01*
X192927271Y-93873775D02*
X193451080Y-94083299D01*
X193451080Y-94083299D02*
X192717747Y-94292823D01*
X193398700Y-94659489D02*
X193451080Y-94764251D01*
X193451080Y-94764251D02*
X193451080Y-94973775D01*
X193451080Y-94973775D02*
X193398700Y-95078537D01*
X193398700Y-95078537D02*
X193293938Y-95130918D01*
X193293938Y-95130918D02*
X193241557Y-95130918D01*
X193241557Y-95130918D02*
X193136795Y-95078537D01*
X193136795Y-95078537D02*
X193084414Y-94973775D01*
X193084414Y-94973775D02*
X193084414Y-94816632D01*
X193084414Y-94816632D02*
X193032033Y-94711870D01*
X193032033Y-94711870D02*
X192927271Y-94659489D01*
X192927271Y-94659489D02*
X192874890Y-94659489D01*
X192874890Y-94659489D02*
X192770128Y-94711870D01*
X192770128Y-94711870D02*
X192717747Y-94816632D01*
X192717747Y-94816632D02*
X192717747Y-94973775D01*
X192717747Y-94973775D02*
X192770128Y-95078537D01*
X193346319Y-96440441D02*
X193398700Y-96492822D01*
X193398700Y-96492822D02*
X193451080Y-96440441D01*
X193451080Y-96440441D02*
X193398700Y-96388060D01*
X193398700Y-96388060D02*
X193346319Y-96440441D01*
X193346319Y-96440441D02*
X193451080Y-96440441D01*
X192770128Y-96440441D02*
X192822509Y-96492822D01*
X192822509Y-96492822D02*
X192874890Y-96440441D01*
X192874890Y-96440441D02*
X192822509Y-96388060D01*
X192822509Y-96388060D02*
X192770128Y-96440441D01*
X192770128Y-96440441D02*
X192874890Y-96440441D01*
X192351080Y-96859489D02*
X192351080Y-97540442D01*
X192351080Y-97540442D02*
X192770128Y-97173775D01*
X192770128Y-97173775D02*
X192770128Y-97330918D01*
X192770128Y-97330918D02*
X192822509Y-97435680D01*
X192822509Y-97435680D02*
X192874890Y-97488061D01*
X192874890Y-97488061D02*
X192979652Y-97540442D01*
X192979652Y-97540442D02*
X193241557Y-97540442D01*
X193241557Y-97540442D02*
X193346319Y-97488061D01*
X193346319Y-97488061D02*
X193398700Y-97435680D01*
X193398700Y-97435680D02*
X193451080Y-97330918D01*
X193451080Y-97330918D02*
X193451080Y-97016632D01*
X193451080Y-97016632D02*
X193398700Y-96911870D01*
X193398700Y-96911870D02*
X193346319Y-96859489D01*
X193398700Y-98483299D02*
X193451080Y-98378537D01*
X193451080Y-98378537D02*
X193451080Y-98169013D01*
X193451080Y-98169013D02*
X193398700Y-98064251D01*
X193398700Y-98064251D02*
X193346319Y-98011870D01*
X193346319Y-98011870D02*
X193241557Y-97959489D01*
X193241557Y-97959489D02*
X192927271Y-97959489D01*
X192927271Y-97959489D02*
X192822509Y-98011870D01*
X192822509Y-98011870D02*
X192770128Y-98064251D01*
X192770128Y-98064251D02*
X192717747Y-98169013D01*
X192717747Y-98169013D02*
X192717747Y-98378537D01*
X192717747Y-98378537D02*
X192770128Y-98483299D01*
X140057174Y-73617747D02*
X139219079Y-73932033D01*
X139219079Y-73932033D02*
X140057174Y-74246319D01*
X137857174Y-73617747D02*
X138695269Y-73932033D01*
X138695269Y-73932033D02*
X137857174Y-74246319D01*
X137333364Y-73617747D02*
X136495269Y-73932033D01*
X136495269Y-73932033D02*
X137333364Y-74246319D01*
X154057174Y-108617747D02*
X153219079Y-108932033D01*
X153219079Y-108932033D02*
X154057174Y-109246319D01*
X152800031Y-108617747D02*
X152590507Y-109351080D01*
X152590507Y-109351080D02*
X152380983Y-108827271D01*
X152380983Y-108827271D02*
X152171459Y-109351080D01*
X152171459Y-109351080D02*
X151961935Y-108617747D01*
X150704793Y-108617747D02*
X151542888Y-108932033D01*
X151542888Y-108932033D02*
X150704793Y-109246319D01*
D11*
X187416839Y-108076132D02*
X186940649Y-108076132D01*
X187512077Y-108361847D02*
X187178744Y-107361847D01*
X187178744Y-107361847D02*
X186845411Y-108361847D01*
X186083506Y-107695180D02*
X186083506Y-108361847D01*
X186512077Y-107695180D02*
X186512077Y-108218989D01*
X186512077Y-108218989D02*
X186464458Y-108314228D01*
X186464458Y-108314228D02*
X186369220Y-108361847D01*
X186369220Y-108361847D02*
X186226363Y-108361847D01*
X186226363Y-108361847D02*
X186131125Y-108314228D01*
X186131125Y-108314228D02*
X186083506Y-108266608D01*
X185178744Y-107695180D02*
X185178744Y-108504704D01*
X185178744Y-108504704D02*
X185226363Y-108599942D01*
X185226363Y-108599942D02*
X185273982Y-108647561D01*
X185273982Y-108647561D02*
X185369220Y-108695180D01*
X185369220Y-108695180D02*
X185512077Y-108695180D01*
X185512077Y-108695180D02*
X185607315Y-108647561D01*
X185178744Y-108314228D02*
X185273982Y-108361847D01*
X185273982Y-108361847D02*
X185464458Y-108361847D01*
X185464458Y-108361847D02*
X185559696Y-108314228D01*
X185559696Y-108314228D02*
X185607315Y-108266608D01*
X185607315Y-108266608D02*
X185654934Y-108171370D01*
X185654934Y-108171370D02*
X185654934Y-107885656D01*
X185654934Y-107885656D02*
X185607315Y-107790418D01*
X185607315Y-107790418D02*
X185559696Y-107742799D01*
X185559696Y-107742799D02*
X185464458Y-107695180D01*
X185464458Y-107695180D02*
X185273982Y-107695180D01*
X185273982Y-107695180D02*
X185178744Y-107742799D01*
X183988267Y-107457085D02*
X183940648Y-107409466D01*
X183940648Y-107409466D02*
X183845410Y-107361847D01*
X183845410Y-107361847D02*
X183607315Y-107361847D01*
X183607315Y-107361847D02*
X183512077Y-107409466D01*
X183512077Y-107409466D02*
X183464458Y-107457085D01*
X183464458Y-107457085D02*
X183416839Y-107552323D01*
X183416839Y-107552323D02*
X183416839Y-107647561D01*
X183416839Y-107647561D02*
X183464458Y-107790418D01*
X183464458Y-107790418D02*
X184035886Y-108361847D01*
X184035886Y-108361847D02*
X183416839Y-108361847D01*
X182797791Y-107361847D02*
X182702553Y-107361847D01*
X182702553Y-107361847D02*
X182607315Y-107409466D01*
X182607315Y-107409466D02*
X182559696Y-107457085D01*
X182559696Y-107457085D02*
X182512077Y-107552323D01*
X182512077Y-107552323D02*
X182464458Y-107742799D01*
X182464458Y-107742799D02*
X182464458Y-107980894D01*
X182464458Y-107980894D02*
X182512077Y-108171370D01*
X182512077Y-108171370D02*
X182559696Y-108266608D01*
X182559696Y-108266608D02*
X182607315Y-108314228D01*
X182607315Y-108314228D02*
X182702553Y-108361847D01*
X182702553Y-108361847D02*
X182797791Y-108361847D01*
X182797791Y-108361847D02*
X182893029Y-108314228D01*
X182893029Y-108314228D02*
X182940648Y-108266608D01*
X182940648Y-108266608D02*
X182988267Y-108171370D01*
X182988267Y-108171370D02*
X183035886Y-107980894D01*
X183035886Y-107980894D02*
X183035886Y-107742799D01*
X183035886Y-107742799D02*
X182988267Y-107552323D01*
X182988267Y-107552323D02*
X182940648Y-107457085D01*
X182940648Y-107457085D02*
X182893029Y-107409466D01*
X182893029Y-107409466D02*
X182797791Y-107361847D01*
X182083505Y-107457085D02*
X182035886Y-107409466D01*
X182035886Y-107409466D02*
X181940648Y-107361847D01*
X181940648Y-107361847D02*
X181702553Y-107361847D01*
X181702553Y-107361847D02*
X181607315Y-107409466D01*
X181607315Y-107409466D02*
X181559696Y-107457085D01*
X181559696Y-107457085D02*
X181512077Y-107552323D01*
X181512077Y-107552323D02*
X181512077Y-107647561D01*
X181512077Y-107647561D02*
X181559696Y-107790418D01*
X181559696Y-107790418D02*
X182131124Y-108361847D01*
X182131124Y-108361847D02*
X181512077Y-108361847D01*
X180654934Y-107695180D02*
X180654934Y-108361847D01*
X180893029Y-107314228D02*
X181131124Y-108028513D01*
X181131124Y-108028513D02*
X180512077Y-108028513D01*
X187369220Y-109971791D02*
X187369220Y-109305124D01*
X187369220Y-109495600D02*
X187321601Y-109400362D01*
X187321601Y-109400362D02*
X187273982Y-109352743D01*
X187273982Y-109352743D02*
X187178744Y-109305124D01*
X187178744Y-109305124D02*
X187083506Y-109305124D01*
X186369220Y-109924172D02*
X186464458Y-109971791D01*
X186464458Y-109971791D02*
X186654934Y-109971791D01*
X186654934Y-109971791D02*
X186750172Y-109924172D01*
X186750172Y-109924172D02*
X186797791Y-109828933D01*
X186797791Y-109828933D02*
X186797791Y-109447981D01*
X186797791Y-109447981D02*
X186750172Y-109352743D01*
X186750172Y-109352743D02*
X186654934Y-109305124D01*
X186654934Y-109305124D02*
X186464458Y-109305124D01*
X186464458Y-109305124D02*
X186369220Y-109352743D01*
X186369220Y-109352743D02*
X186321601Y-109447981D01*
X186321601Y-109447981D02*
X186321601Y-109543219D01*
X186321601Y-109543219D02*
X186797791Y-109638457D01*
X185988267Y-109305124D02*
X185750172Y-109971791D01*
X185750172Y-109971791D02*
X185512077Y-109305124D01*
X185131124Y-109876552D02*
X185083505Y-109924172D01*
X185083505Y-109924172D02*
X185131124Y-109971791D01*
X185131124Y-109971791D02*
X185178743Y-109924172D01*
X185178743Y-109924172D02*
X185131124Y-109876552D01*
X185131124Y-109876552D02*
X185131124Y-109971791D01*
X183940648Y-109686076D02*
X183464458Y-109686076D01*
X184035886Y-109971791D02*
X183702553Y-108971791D01*
X183702553Y-108971791D02*
X183369220Y-109971791D01*
X166274380Y-77354819D02*
X166274380Y-76354819D01*
X166274380Y-76735771D02*
X166179142Y-76688152D01*
X166179142Y-76688152D02*
X165988666Y-76688152D01*
X165988666Y-76688152D02*
X165893428Y-76735771D01*
X165893428Y-76735771D02*
X165845809Y-76783390D01*
X165845809Y-76783390D02*
X165798190Y-76878628D01*
X165798190Y-76878628D02*
X165798190Y-77164342D01*
X165798190Y-77164342D02*
X165845809Y-77259580D01*
X165845809Y-77259580D02*
X165893428Y-77307200D01*
X165893428Y-77307200D02*
X165988666Y-77354819D01*
X165988666Y-77354819D02*
X166179142Y-77354819D01*
X166179142Y-77354819D02*
X166274380Y-77307200D01*
X165464856Y-76688152D02*
X165226761Y-77354819D01*
X164988666Y-76688152D02*
X165226761Y-77354819D01*
X165226761Y-77354819D02*
X165321999Y-77592914D01*
X165321999Y-77592914D02*
X165369618Y-77640533D01*
X165369618Y-77640533D02*
X165464856Y-77688152D01*
X163845808Y-77354819D02*
X163845808Y-76688152D01*
X163845808Y-76783390D02*
X163798189Y-76735771D01*
X163798189Y-76735771D02*
X163702951Y-76688152D01*
X163702951Y-76688152D02*
X163560094Y-76688152D01*
X163560094Y-76688152D02*
X163464856Y-76735771D01*
X163464856Y-76735771D02*
X163417237Y-76831009D01*
X163417237Y-76831009D02*
X163417237Y-77354819D01*
X163417237Y-76831009D02*
X163369618Y-76735771D01*
X163369618Y-76735771D02*
X163274380Y-76688152D01*
X163274380Y-76688152D02*
X163131523Y-76688152D01*
X163131523Y-76688152D02*
X163036284Y-76735771D01*
X163036284Y-76735771D02*
X162988665Y-76831009D01*
X162988665Y-76831009D02*
X162988665Y-77354819D01*
X162512475Y-76688152D02*
X162512475Y-77354819D01*
X162512475Y-76783390D02*
X162464856Y-76735771D01*
X162464856Y-76735771D02*
X162369618Y-76688152D01*
X162369618Y-76688152D02*
X162226761Y-76688152D01*
X162226761Y-76688152D02*
X162131523Y-76735771D01*
X162131523Y-76735771D02*
X162083904Y-76831009D01*
X162083904Y-76831009D02*
X162083904Y-77354819D01*
X161179142Y-76688152D02*
X161179142Y-77354819D01*
X161607713Y-76688152D02*
X161607713Y-77211961D01*
X161607713Y-77211961D02*
X161560094Y-77307200D01*
X161560094Y-77307200D02*
X161464856Y-77354819D01*
X161464856Y-77354819D02*
X161321999Y-77354819D01*
X161321999Y-77354819D02*
X161226761Y-77307200D01*
X161226761Y-77307200D02*
X161179142Y-77259580D01*
X160798189Y-77354819D02*
X160274380Y-76688152D01*
X160798189Y-76688152D02*
X160274380Y-77354819D01*
D12*
X172235290Y-73852012D02*
X172235290Y-74852012D01*
X172878147Y-73852012D02*
X172878147Y-74637726D01*
X172878147Y-74637726D02*
X172806718Y-74780584D01*
X172806718Y-74780584D02*
X172663861Y-74852012D01*
X172663861Y-74852012D02*
X172449575Y-74852012D01*
X172449575Y-74852012D02*
X172306718Y-74780584D01*
X172306718Y-74780584D02*
X172235290Y-74709155D01*
X171521004Y-73852012D02*
X171521004Y-74852012D01*
X171521004Y-73994869D02*
X171449575Y-73923441D01*
X171449575Y-73923441D02*
X171306718Y-73852012D01*
X171306718Y-73852012D02*
X171092432Y-73852012D01*
X171092432Y-73852012D02*
X170949575Y-73923441D01*
X170949575Y-73923441D02*
X170878147Y-74066298D01*
X170878147Y-74066298D02*
X170878147Y-74852012D01*
X170163861Y-74852012D02*
X170163861Y-73852012D01*
X170163861Y-73352012D02*
X170235289Y-73423441D01*
X170235289Y-73423441D02*
X170163861Y-73494869D01*
X170163861Y-73494869D02*
X170092432Y-73423441D01*
X170092432Y-73423441D02*
X170163861Y-73352012D01*
X170163861Y-73352012D02*
X170163861Y-73494869D01*
X169592432Y-73852012D02*
X169235289Y-74852012D01*
X169235289Y-74852012D02*
X168878146Y-73852012D01*
X167735289Y-74780584D02*
X167878146Y-74852012D01*
X167878146Y-74852012D02*
X168163861Y-74852012D01*
X168163861Y-74852012D02*
X168306718Y-74780584D01*
X168306718Y-74780584D02*
X168378146Y-74637726D01*
X168378146Y-74637726D02*
X168378146Y-74066298D01*
X168378146Y-74066298D02*
X168306718Y-73923441D01*
X168306718Y-73923441D02*
X168163861Y-73852012D01*
X168163861Y-73852012D02*
X167878146Y-73852012D01*
X167878146Y-73852012D02*
X167735289Y-73923441D01*
X167735289Y-73923441D02*
X167663861Y-74066298D01*
X167663861Y-74066298D02*
X167663861Y-74209155D01*
X167663861Y-74209155D02*
X168378146Y-74352012D01*
X167021004Y-74852012D02*
X167021004Y-73852012D01*
X167021004Y-74137726D02*
X166949575Y-73994869D01*
X166949575Y-73994869D02*
X166878147Y-73923441D01*
X166878147Y-73923441D02*
X166735289Y-73852012D01*
X166735289Y-73852012D02*
X166592432Y-73852012D01*
X166163861Y-74780584D02*
X166021004Y-74852012D01*
X166021004Y-74852012D02*
X165735290Y-74852012D01*
X165735290Y-74852012D02*
X165592433Y-74780584D01*
X165592433Y-74780584D02*
X165521004Y-74637726D01*
X165521004Y-74637726D02*
X165521004Y-74566298D01*
X165521004Y-74566298D02*
X165592433Y-74423441D01*
X165592433Y-74423441D02*
X165735290Y-74352012D01*
X165735290Y-74352012D02*
X165949576Y-74352012D01*
X165949576Y-74352012D02*
X166092433Y-74280584D01*
X166092433Y-74280584D02*
X166163861Y-74137726D01*
X166163861Y-74137726D02*
X166163861Y-74066298D01*
X166163861Y-74066298D02*
X166092433Y-73923441D01*
X166092433Y-73923441D02*
X165949576Y-73852012D01*
X165949576Y-73852012D02*
X165735290Y-73852012D01*
X165735290Y-73852012D02*
X165592433Y-73923441D01*
X164235290Y-74852012D02*
X164235290Y-74066298D01*
X164235290Y-74066298D02*
X164306718Y-73923441D01*
X164306718Y-73923441D02*
X164449575Y-73852012D01*
X164449575Y-73852012D02*
X164735290Y-73852012D01*
X164735290Y-73852012D02*
X164878147Y-73923441D01*
X164235290Y-74780584D02*
X164378147Y-74852012D01*
X164378147Y-74852012D02*
X164735290Y-74852012D01*
X164735290Y-74852012D02*
X164878147Y-74780584D01*
X164878147Y-74780584D02*
X164949575Y-74637726D01*
X164949575Y-74637726D02*
X164949575Y-74494869D01*
X164949575Y-74494869D02*
X164878147Y-74352012D01*
X164878147Y-74352012D02*
X164735290Y-74280584D01*
X164735290Y-74280584D02*
X164378147Y-74280584D01*
X164378147Y-74280584D02*
X164235290Y-74209155D01*
X163306718Y-74852012D02*
X163449575Y-74780584D01*
X163449575Y-74780584D02*
X163521004Y-74637726D01*
X163521004Y-74637726D02*
X163521004Y-73352012D01*
X161592433Y-74852012D02*
X161592433Y-73352012D01*
X160592432Y-73352012D02*
X160306718Y-73352012D01*
X160306718Y-73352012D02*
X160163861Y-73423441D01*
X160163861Y-73423441D02*
X160021004Y-73566298D01*
X160021004Y-73566298D02*
X159949575Y-73852012D01*
X159949575Y-73852012D02*
X159949575Y-74352012D01*
X159949575Y-74352012D02*
X160021004Y-74637726D01*
X160021004Y-74637726D02*
X160163861Y-74780584D01*
X160163861Y-74780584D02*
X160306718Y-74852012D01*
X160306718Y-74852012D02*
X160592432Y-74852012D01*
X160592432Y-74852012D02*
X160735290Y-74780584D01*
X160735290Y-74780584D02*
X160878147Y-74637726D01*
X160878147Y-74637726D02*
X160949575Y-74352012D01*
X160949575Y-74352012D02*
X160949575Y-73852012D01*
X160949575Y-73852012D02*
X160878147Y-73566298D01*
X160878147Y-73566298D02*
X160735290Y-73423441D01*
X160735290Y-73423441D02*
X160592432Y-73352012D01*
X159521003Y-73352012D02*
X158663861Y-73352012D01*
X159092432Y-74852012D02*
X159092432Y-73352012D01*
X172878147Y-77266928D02*
X172878147Y-75766928D01*
X172878147Y-76338357D02*
X172735290Y-76266928D01*
X172735290Y-76266928D02*
X172449575Y-76266928D01*
X172449575Y-76266928D02*
X172306718Y-76338357D01*
X172306718Y-76338357D02*
X172235290Y-76409785D01*
X172235290Y-76409785D02*
X172163861Y-76552642D01*
X172163861Y-76552642D02*
X172163861Y-76981214D01*
X172163861Y-76981214D02*
X172235290Y-77124071D01*
X172235290Y-77124071D02*
X172306718Y-77195500D01*
X172306718Y-77195500D02*
X172449575Y-77266928D01*
X172449575Y-77266928D02*
X172735290Y-77266928D01*
X172735290Y-77266928D02*
X172878147Y-77195500D01*
X171306718Y-77266928D02*
X171449575Y-77195500D01*
X171449575Y-77195500D02*
X171521004Y-77124071D01*
X171521004Y-77124071D02*
X171592432Y-76981214D01*
X171592432Y-76981214D02*
X171592432Y-76552642D01*
X171592432Y-76552642D02*
X171521004Y-76409785D01*
X171521004Y-76409785D02*
X171449575Y-76338357D01*
X171449575Y-76338357D02*
X171306718Y-76266928D01*
X171306718Y-76266928D02*
X171092432Y-76266928D01*
X171092432Y-76266928D02*
X170949575Y-76338357D01*
X170949575Y-76338357D02*
X170878147Y-76409785D01*
X170878147Y-76409785D02*
X170806718Y-76552642D01*
X170806718Y-76552642D02*
X170806718Y-76981214D01*
X170806718Y-76981214D02*
X170878147Y-77124071D01*
X170878147Y-77124071D02*
X170949575Y-77195500D01*
X170949575Y-77195500D02*
X171092432Y-77266928D01*
X171092432Y-77266928D02*
X171306718Y-77266928D01*
X169521004Y-77266928D02*
X169521004Y-76481214D01*
X169521004Y-76481214D02*
X169592432Y-76338357D01*
X169592432Y-76338357D02*
X169735289Y-76266928D01*
X169735289Y-76266928D02*
X170021004Y-76266928D01*
X170021004Y-76266928D02*
X170163861Y-76338357D01*
X169521004Y-77195500D02*
X169663861Y-77266928D01*
X169663861Y-77266928D02*
X170021004Y-77266928D01*
X170021004Y-77266928D02*
X170163861Y-77195500D01*
X170163861Y-77195500D02*
X170235289Y-77052642D01*
X170235289Y-77052642D02*
X170235289Y-76909785D01*
X170235289Y-76909785D02*
X170163861Y-76766928D01*
X170163861Y-76766928D02*
X170021004Y-76695500D01*
X170021004Y-76695500D02*
X169663861Y-76695500D01*
X169663861Y-76695500D02*
X169521004Y-76624071D01*
X168806718Y-77266928D02*
X168806718Y-76266928D01*
X168806718Y-76552642D02*
X168735289Y-76409785D01*
X168735289Y-76409785D02*
X168663861Y-76338357D01*
X168663861Y-76338357D02*
X168521003Y-76266928D01*
X168521003Y-76266928D02*
X168378146Y-76266928D01*
X167235290Y-77266928D02*
X167235290Y-75766928D01*
X167235290Y-77195500D02*
X167378147Y-77266928D01*
X167378147Y-77266928D02*
X167663861Y-77266928D01*
X167663861Y-77266928D02*
X167806718Y-77195500D01*
X167806718Y-77195500D02*
X167878147Y-77124071D01*
X167878147Y-77124071D02*
X167949575Y-76981214D01*
X167949575Y-76981214D02*
X167949575Y-76552642D01*
X167949575Y-76552642D02*
X167878147Y-76409785D01*
X167878147Y-76409785D02*
X167806718Y-76338357D01*
X167806718Y-76338357D02*
X167663861Y-76266928D01*
X167663861Y-76266928D02*
X167378147Y-76266928D01*
X167378147Y-76266928D02*
X167235290Y-76338357D01*
D11*
X166187333Y-105626819D02*
X166187333Y-106341104D01*
X166187333Y-106341104D02*
X166234952Y-106483961D01*
X166234952Y-106483961D02*
X166330190Y-106579200D01*
X166330190Y-106579200D02*
X166473047Y-106626819D01*
X166473047Y-106626819D02*
X166568285Y-106626819D01*
X165711142Y-106626819D02*
X165711142Y-105626819D01*
X165711142Y-105626819D02*
X165330190Y-105626819D01*
X165330190Y-105626819D02*
X165234952Y-105674438D01*
X165234952Y-105674438D02*
X165187333Y-105722057D01*
X165187333Y-105722057D02*
X165139714Y-105817295D01*
X165139714Y-105817295D02*
X165139714Y-105960152D01*
X165139714Y-105960152D02*
X165187333Y-106055390D01*
X165187333Y-106055390D02*
X165234952Y-106103009D01*
X165234952Y-106103009D02*
X165330190Y-106150628D01*
X165330190Y-106150628D02*
X165711142Y-106150628D01*
X164187333Y-106626819D02*
X164758761Y-106626819D01*
X164473047Y-106626819D02*
X164473047Y-105626819D01*
X164473047Y-105626819D02*
X164568285Y-105769676D01*
X164568285Y-105769676D02*
X164663523Y-105864914D01*
X164663523Y-105864914D02*
X164758761Y-105912533D01*
X161633333Y-93054819D02*
X161633333Y-93769104D01*
X161633333Y-93769104D02*
X161680952Y-93911961D01*
X161680952Y-93911961D02*
X161776190Y-94007200D01*
X161776190Y-94007200D02*
X161919047Y-94054819D01*
X161919047Y-94054819D02*
X162014285Y-94054819D01*
X161157142Y-94054819D02*
X161157142Y-93054819D01*
X161157142Y-93054819D02*
X160776190Y-93054819D01*
X160776190Y-93054819D02*
X160680952Y-93102438D01*
X160680952Y-93102438D02*
X160633333Y-93150057D01*
X160633333Y-93150057D02*
X160585714Y-93245295D01*
X160585714Y-93245295D02*
X160585714Y-93388152D01*
X160585714Y-93388152D02*
X160633333Y-93483390D01*
X160633333Y-93483390D02*
X160680952Y-93531009D01*
X160680952Y-93531009D02*
X160776190Y-93578628D01*
X160776190Y-93578628D02*
X161157142Y-93578628D01*
X160204761Y-93150057D02*
X160157142Y-93102438D01*
X160157142Y-93102438D02*
X160061904Y-93054819D01*
X160061904Y-93054819D02*
X159823809Y-93054819D01*
X159823809Y-93054819D02*
X159728571Y-93102438D01*
X159728571Y-93102438D02*
X159680952Y-93150057D01*
X159680952Y-93150057D02*
X159633333Y-93245295D01*
X159633333Y-93245295D02*
X159633333Y-93340533D01*
X159633333Y-93340533D02*
X159680952Y-93483390D01*
X159680952Y-93483390D02*
X160252380Y-94054819D01*
X160252380Y-94054819D02*
X159633333Y-94054819D01*
X163114285Y-95854819D02*
X163685713Y-95854819D01*
X163399999Y-95854819D02*
X163399999Y-94854819D01*
X163399999Y-94854819D02*
X163495237Y-94997676D01*
X163495237Y-94997676D02*
X163590475Y-95092914D01*
X163590475Y-95092914D02*
X163685713Y-95140533D01*
X158533332Y-94854819D02*
X157914285Y-94854819D01*
X157914285Y-94854819D02*
X158247618Y-95235771D01*
X158247618Y-95235771D02*
X158104761Y-95235771D01*
X158104761Y-95235771D02*
X158009523Y-95283390D01*
X158009523Y-95283390D02*
X157961904Y-95331009D01*
X157961904Y-95331009D02*
X157914285Y-95426247D01*
X157914285Y-95426247D02*
X157914285Y-95664342D01*
X157914285Y-95664342D02*
X157961904Y-95759580D01*
X157961904Y-95759580D02*
X158009523Y-95807200D01*
X158009523Y-95807200D02*
X158104761Y-95854819D01*
X158104761Y-95854819D02*
X158390475Y-95854819D01*
X158390475Y-95854819D02*
X158485713Y-95807200D01*
X158485713Y-95807200D02*
X158533332Y-95759580D01*
X161107333Y-98464019D02*
X161107333Y-99178304D01*
X161107333Y-99178304D02*
X161154952Y-99321161D01*
X161154952Y-99321161D02*
X161250190Y-99416400D01*
X161250190Y-99416400D02*
X161393047Y-99464019D01*
X161393047Y-99464019D02*
X161488285Y-99464019D01*
X160631142Y-99464019D02*
X160631142Y-98464019D01*
X160631142Y-98464019D02*
X160250190Y-98464019D01*
X160250190Y-98464019D02*
X160154952Y-98511638D01*
X160154952Y-98511638D02*
X160107333Y-98559257D01*
X160107333Y-98559257D02*
X160059714Y-98654495D01*
X160059714Y-98654495D02*
X160059714Y-98797352D01*
X160059714Y-98797352D02*
X160107333Y-98892590D01*
X160107333Y-98892590D02*
X160154952Y-98940209D01*
X160154952Y-98940209D02*
X160250190Y-98987828D01*
X160250190Y-98987828D02*
X160631142Y-98987828D01*
X159726380Y-98464019D02*
X159107333Y-98464019D01*
X159107333Y-98464019D02*
X159440666Y-98844971D01*
X159440666Y-98844971D02*
X159297809Y-98844971D01*
X159297809Y-98844971D02*
X159202571Y-98892590D01*
X159202571Y-98892590D02*
X159154952Y-98940209D01*
X159154952Y-98940209D02*
X159107333Y-99035447D01*
X159107333Y-99035447D02*
X159107333Y-99273542D01*
X159107333Y-99273542D02*
X159154952Y-99368780D01*
X159154952Y-99368780D02*
X159202571Y-99416400D01*
X159202571Y-99416400D02*
X159297809Y-99464019D01*
X159297809Y-99464019D02*
X159583523Y-99464019D01*
X159583523Y-99464019D02*
X159678761Y-99416400D01*
X159678761Y-99416400D02*
X159726380Y-99368780D01*
X162370419Y-97498267D02*
X162370419Y-98117314D01*
X162370419Y-98117314D02*
X162751371Y-97783981D01*
X162751371Y-97783981D02*
X162751371Y-97926838D01*
X162751371Y-97926838D02*
X162798990Y-98022076D01*
X162798990Y-98022076D02*
X162846609Y-98069695D01*
X162846609Y-98069695D02*
X162941847Y-98117314D01*
X162941847Y-98117314D02*
X163179942Y-98117314D01*
X163179942Y-98117314D02*
X163275180Y-98069695D01*
X163275180Y-98069695D02*
X163322800Y-98022076D01*
X163322800Y-98022076D02*
X163370419Y-97926838D01*
X163370419Y-97926838D02*
X163370419Y-97641124D01*
X163370419Y-97641124D02*
X163322800Y-97545886D01*
X163322800Y-97545886D02*
X163275180Y-97498267D01*
X163370419Y-103317314D02*
X163370419Y-102745886D01*
X163370419Y-103031600D02*
X162370419Y-103031600D01*
X162370419Y-103031600D02*
X162513276Y-102936362D01*
X162513276Y-102936362D02*
X162608514Y-102841124D01*
X162608514Y-102841124D02*
X162656133Y-102745886D01*
X149738094Y-101954819D02*
X149738094Y-100954819D01*
X149738094Y-100954819D02*
X149499999Y-100954819D01*
X149499999Y-100954819D02*
X149357142Y-101002438D01*
X149357142Y-101002438D02*
X149261904Y-101097676D01*
X149261904Y-101097676D02*
X149214285Y-101192914D01*
X149214285Y-101192914D02*
X149166666Y-101383390D01*
X149166666Y-101383390D02*
X149166666Y-101526247D01*
X149166666Y-101526247D02*
X149214285Y-101716723D01*
X149214285Y-101716723D02*
X149261904Y-101811961D01*
X149261904Y-101811961D02*
X149357142Y-101907200D01*
X149357142Y-101907200D02*
X149499999Y-101954819D01*
X149499999Y-101954819D02*
X149738094Y-101954819D01*
X148214285Y-101954819D02*
X148785713Y-101954819D01*
X148499999Y-101954819D02*
X148499999Y-100954819D01*
X148499999Y-100954819D02*
X148595237Y-101097676D01*
X148595237Y-101097676D02*
X148690475Y-101192914D01*
X148690475Y-101192914D02*
X148785713Y-101240533D01*
X175483733Y-101562819D02*
X175483733Y-102277104D01*
X175483733Y-102277104D02*
X175531352Y-102419961D01*
X175531352Y-102419961D02*
X175626590Y-102515200D01*
X175626590Y-102515200D02*
X175769447Y-102562819D01*
X175769447Y-102562819D02*
X175864685Y-102562819D01*
X175007542Y-102562819D02*
X175007542Y-101562819D01*
X175007542Y-101562819D02*
X174626590Y-101562819D01*
X174626590Y-101562819D02*
X174531352Y-101610438D01*
X174531352Y-101610438D02*
X174483733Y-101658057D01*
X174483733Y-101658057D02*
X174436114Y-101753295D01*
X174436114Y-101753295D02*
X174436114Y-101896152D01*
X174436114Y-101896152D02*
X174483733Y-101991390D01*
X174483733Y-101991390D02*
X174531352Y-102039009D01*
X174531352Y-102039009D02*
X174626590Y-102086628D01*
X174626590Y-102086628D02*
X175007542Y-102086628D01*
X173578971Y-101562819D02*
X173769447Y-101562819D01*
X173769447Y-101562819D02*
X173864685Y-101610438D01*
X173864685Y-101610438D02*
X173912304Y-101658057D01*
X173912304Y-101658057D02*
X174007542Y-101800914D01*
X174007542Y-101800914D02*
X174055161Y-101991390D01*
X174055161Y-101991390D02*
X174055161Y-102372342D01*
X174055161Y-102372342D02*
X174007542Y-102467580D01*
X174007542Y-102467580D02*
X173959923Y-102515200D01*
X173959923Y-102515200D02*
X173864685Y-102562819D01*
X173864685Y-102562819D02*
X173674209Y-102562819D01*
X173674209Y-102562819D02*
X173578971Y-102515200D01*
X173578971Y-102515200D02*
X173531352Y-102467580D01*
X173531352Y-102467580D02*
X173483733Y-102372342D01*
X173483733Y-102372342D02*
X173483733Y-102134247D01*
X173483733Y-102134247D02*
X173531352Y-102039009D01*
X173531352Y-102039009D02*
X173578971Y-101991390D01*
X173578971Y-101991390D02*
X173674209Y-101943771D01*
X173674209Y-101943771D02*
X173864685Y-101943771D01*
X173864685Y-101943771D02*
X173959923Y-101991390D01*
X173959923Y-101991390D02*
X174007542Y-102039009D01*
X174007542Y-102039009D02*
X174055161Y-102134247D01*
X168009866Y-94485619D02*
X168343199Y-94009428D01*
X168581294Y-94485619D02*
X168581294Y-93485619D01*
X168581294Y-93485619D02*
X168200342Y-93485619D01*
X168200342Y-93485619D02*
X168105104Y-93533238D01*
X168105104Y-93533238D02*
X168057485Y-93580857D01*
X168057485Y-93580857D02*
X168009866Y-93676095D01*
X168009866Y-93676095D02*
X168009866Y-93818952D01*
X168009866Y-93818952D02*
X168057485Y-93914190D01*
X168057485Y-93914190D02*
X168105104Y-93961809D01*
X168105104Y-93961809D02*
X168200342Y-94009428D01*
X168200342Y-94009428D02*
X168581294Y-94009428D01*
X167105104Y-93485619D02*
X167581294Y-93485619D01*
X167581294Y-93485619D02*
X167628913Y-93961809D01*
X167628913Y-93961809D02*
X167581294Y-93914190D01*
X167581294Y-93914190D02*
X167486056Y-93866571D01*
X167486056Y-93866571D02*
X167247961Y-93866571D01*
X167247961Y-93866571D02*
X167152723Y-93914190D01*
X167152723Y-93914190D02*
X167105104Y-93961809D01*
X167105104Y-93961809D02*
X167057485Y-94057047D01*
X167057485Y-94057047D02*
X167057485Y-94295142D01*
X167057485Y-94295142D02*
X167105104Y-94390380D01*
X167105104Y-94390380D02*
X167152723Y-94438000D01*
X167152723Y-94438000D02*
X167247961Y-94485619D01*
X167247961Y-94485619D02*
X167486056Y-94485619D01*
X167486056Y-94485619D02*
X167581294Y-94438000D01*
X167581294Y-94438000D02*
X167628913Y-94390380D01*
X157011666Y-91767819D02*
X157344999Y-91291628D01*
X157583094Y-91767819D02*
X157583094Y-90767819D01*
X157583094Y-90767819D02*
X157202142Y-90767819D01*
X157202142Y-90767819D02*
X157106904Y-90815438D01*
X157106904Y-90815438D02*
X157059285Y-90863057D01*
X157059285Y-90863057D02*
X157011666Y-90958295D01*
X157011666Y-90958295D02*
X157011666Y-91101152D01*
X157011666Y-91101152D02*
X157059285Y-91196390D01*
X157059285Y-91196390D02*
X157106904Y-91244009D01*
X157106904Y-91244009D02*
X157202142Y-91291628D01*
X157202142Y-91291628D02*
X157583094Y-91291628D01*
X156440237Y-91196390D02*
X156535475Y-91148771D01*
X156535475Y-91148771D02*
X156583094Y-91101152D01*
X156583094Y-91101152D02*
X156630713Y-91005914D01*
X156630713Y-91005914D02*
X156630713Y-90958295D01*
X156630713Y-90958295D02*
X156583094Y-90863057D01*
X156583094Y-90863057D02*
X156535475Y-90815438D01*
X156535475Y-90815438D02*
X156440237Y-90767819D01*
X156440237Y-90767819D02*
X156249761Y-90767819D01*
X156249761Y-90767819D02*
X156154523Y-90815438D01*
X156154523Y-90815438D02*
X156106904Y-90863057D01*
X156106904Y-90863057D02*
X156059285Y-90958295D01*
X156059285Y-90958295D02*
X156059285Y-91005914D01*
X156059285Y-91005914D02*
X156106904Y-91101152D01*
X156106904Y-91101152D02*
X156154523Y-91148771D01*
X156154523Y-91148771D02*
X156249761Y-91196390D01*
X156249761Y-91196390D02*
X156440237Y-91196390D01*
X156440237Y-91196390D02*
X156535475Y-91244009D01*
X156535475Y-91244009D02*
X156583094Y-91291628D01*
X156583094Y-91291628D02*
X156630713Y-91386866D01*
X156630713Y-91386866D02*
X156630713Y-91577342D01*
X156630713Y-91577342D02*
X156583094Y-91672580D01*
X156583094Y-91672580D02*
X156535475Y-91720200D01*
X156535475Y-91720200D02*
X156440237Y-91767819D01*
X156440237Y-91767819D02*
X156249761Y-91767819D01*
X156249761Y-91767819D02*
X156154523Y-91720200D01*
X156154523Y-91720200D02*
X156106904Y-91672580D01*
X156106904Y-91672580D02*
X156059285Y-91577342D01*
X156059285Y-91577342D02*
X156059285Y-91386866D01*
X156059285Y-91386866D02*
X156106904Y-91291628D01*
X156106904Y-91291628D02*
X156154523Y-91244009D01*
X156154523Y-91244009D02*
X156249761Y-91196390D01*
X152816666Y-83804819D02*
X153149999Y-83328628D01*
X153388094Y-83804819D02*
X153388094Y-82804819D01*
X153388094Y-82804819D02*
X153007142Y-82804819D01*
X153007142Y-82804819D02*
X152911904Y-82852438D01*
X152911904Y-82852438D02*
X152864285Y-82900057D01*
X152864285Y-82900057D02*
X152816666Y-82995295D01*
X152816666Y-82995295D02*
X152816666Y-83138152D01*
X152816666Y-83138152D02*
X152864285Y-83233390D01*
X152864285Y-83233390D02*
X152911904Y-83281009D01*
X152911904Y-83281009D02*
X153007142Y-83328628D01*
X153007142Y-83328628D02*
X153388094Y-83328628D01*
X152435713Y-82900057D02*
X152388094Y-82852438D01*
X152388094Y-82852438D02*
X152292856Y-82804819D01*
X152292856Y-82804819D02*
X152054761Y-82804819D01*
X152054761Y-82804819D02*
X151959523Y-82852438D01*
X151959523Y-82852438D02*
X151911904Y-82900057D01*
X151911904Y-82900057D02*
X151864285Y-82995295D01*
X151864285Y-82995295D02*
X151864285Y-83090533D01*
X151864285Y-83090533D02*
X151911904Y-83233390D01*
X151911904Y-83233390D02*
X152483332Y-83804819D01*
X152483332Y-83804819D02*
X151864285Y-83804819D01*
X148816666Y-83804819D02*
X149149999Y-83328628D01*
X149388094Y-83804819D02*
X149388094Y-82804819D01*
X149388094Y-82804819D02*
X149007142Y-82804819D01*
X149007142Y-82804819D02*
X148911904Y-82852438D01*
X148911904Y-82852438D02*
X148864285Y-82900057D01*
X148864285Y-82900057D02*
X148816666Y-82995295D01*
X148816666Y-82995295D02*
X148816666Y-83138152D01*
X148816666Y-83138152D02*
X148864285Y-83233390D01*
X148864285Y-83233390D02*
X148911904Y-83281009D01*
X148911904Y-83281009D02*
X149007142Y-83328628D01*
X149007142Y-83328628D02*
X149388094Y-83328628D01*
X147864285Y-83804819D02*
X148435713Y-83804819D01*
X148149999Y-83804819D02*
X148149999Y-82804819D01*
X148149999Y-82804819D02*
X148245237Y-82947676D01*
X148245237Y-82947676D02*
X148340475Y-83042914D01*
X148340475Y-83042914D02*
X148435713Y-83090533D01*
X151666666Y-102004819D02*
X151999999Y-101528628D01*
X152238094Y-102004819D02*
X152238094Y-101004819D01*
X152238094Y-101004819D02*
X151857142Y-101004819D01*
X151857142Y-101004819D02*
X151761904Y-101052438D01*
X151761904Y-101052438D02*
X151714285Y-101100057D01*
X151714285Y-101100057D02*
X151666666Y-101195295D01*
X151666666Y-101195295D02*
X151666666Y-101338152D01*
X151666666Y-101338152D02*
X151714285Y-101433390D01*
X151714285Y-101433390D02*
X151761904Y-101481009D01*
X151761904Y-101481009D02*
X151857142Y-101528628D01*
X151857142Y-101528628D02*
X152238094Y-101528628D01*
X150809523Y-101338152D02*
X150809523Y-102004819D01*
X151047618Y-100957200D02*
X151285713Y-101671485D01*
X151285713Y-101671485D02*
X150666666Y-101671485D01*
X166659866Y-81830819D02*
X166993199Y-81354628D01*
X167231294Y-81830819D02*
X167231294Y-80830819D01*
X167231294Y-80830819D02*
X166850342Y-80830819D01*
X166850342Y-80830819D02*
X166755104Y-80878438D01*
X166755104Y-80878438D02*
X166707485Y-80926057D01*
X166707485Y-80926057D02*
X166659866Y-81021295D01*
X166659866Y-81021295D02*
X166659866Y-81164152D01*
X166659866Y-81164152D02*
X166707485Y-81259390D01*
X166707485Y-81259390D02*
X166755104Y-81307009D01*
X166755104Y-81307009D02*
X166850342Y-81354628D01*
X166850342Y-81354628D02*
X167231294Y-81354628D01*
X166183675Y-81830819D02*
X165993199Y-81830819D01*
X165993199Y-81830819D02*
X165897961Y-81783200D01*
X165897961Y-81783200D02*
X165850342Y-81735580D01*
X165850342Y-81735580D02*
X165755104Y-81592723D01*
X165755104Y-81592723D02*
X165707485Y-81402247D01*
X165707485Y-81402247D02*
X165707485Y-81021295D01*
X165707485Y-81021295D02*
X165755104Y-80926057D01*
X165755104Y-80926057D02*
X165802723Y-80878438D01*
X165802723Y-80878438D02*
X165897961Y-80830819D01*
X165897961Y-80830819D02*
X166088437Y-80830819D01*
X166088437Y-80830819D02*
X166183675Y-80878438D01*
X166183675Y-80878438D02*
X166231294Y-80926057D01*
X166231294Y-80926057D02*
X166278913Y-81021295D01*
X166278913Y-81021295D02*
X166278913Y-81259390D01*
X166278913Y-81259390D02*
X166231294Y-81354628D01*
X166231294Y-81354628D02*
X166183675Y-81402247D01*
X166183675Y-81402247D02*
X166088437Y-81449866D01*
X166088437Y-81449866D02*
X165897961Y-81449866D01*
X165897961Y-81449866D02*
X165802723Y-81402247D01*
X165802723Y-81402247D02*
X165755104Y-81354628D01*
X165755104Y-81354628D02*
X165707485Y-81259390D01*
X160016666Y-83386819D02*
X160349999Y-82910628D01*
X160588094Y-83386819D02*
X160588094Y-82386819D01*
X160588094Y-82386819D02*
X160207142Y-82386819D01*
X160207142Y-82386819D02*
X160111904Y-82434438D01*
X160111904Y-82434438D02*
X160064285Y-82482057D01*
X160064285Y-82482057D02*
X160016666Y-82577295D01*
X160016666Y-82577295D02*
X160016666Y-82720152D01*
X160016666Y-82720152D02*
X160064285Y-82815390D01*
X160064285Y-82815390D02*
X160111904Y-82863009D01*
X160111904Y-82863009D02*
X160207142Y-82910628D01*
X160207142Y-82910628D02*
X160588094Y-82910628D01*
X159683332Y-82386819D02*
X159064285Y-82386819D01*
X159064285Y-82386819D02*
X159397618Y-82767771D01*
X159397618Y-82767771D02*
X159254761Y-82767771D01*
X159254761Y-82767771D02*
X159159523Y-82815390D01*
X159159523Y-82815390D02*
X159111904Y-82863009D01*
X159111904Y-82863009D02*
X159064285Y-82958247D01*
X159064285Y-82958247D02*
X159064285Y-83196342D01*
X159064285Y-83196342D02*
X159111904Y-83291580D01*
X159111904Y-83291580D02*
X159159523Y-83339200D01*
X159159523Y-83339200D02*
X159254761Y-83386819D01*
X159254761Y-83386819D02*
X159540475Y-83386819D01*
X159540475Y-83386819D02*
X159635713Y-83339200D01*
X159635713Y-83339200D02*
X159683332Y-83291580D01*
X151093466Y-94130019D02*
X151426799Y-93653828D01*
X151664894Y-94130019D02*
X151664894Y-93130019D01*
X151664894Y-93130019D02*
X151283942Y-93130019D01*
X151283942Y-93130019D02*
X151188704Y-93177638D01*
X151188704Y-93177638D02*
X151141085Y-93225257D01*
X151141085Y-93225257D02*
X151093466Y-93320495D01*
X151093466Y-93320495D02*
X151093466Y-93463352D01*
X151093466Y-93463352D02*
X151141085Y-93558590D01*
X151141085Y-93558590D02*
X151188704Y-93606209D01*
X151188704Y-93606209D02*
X151283942Y-93653828D01*
X151283942Y-93653828D02*
X151664894Y-93653828D01*
X150236323Y-93130019D02*
X150426799Y-93130019D01*
X150426799Y-93130019D02*
X150522037Y-93177638D01*
X150522037Y-93177638D02*
X150569656Y-93225257D01*
X150569656Y-93225257D02*
X150664894Y-93368114D01*
X150664894Y-93368114D02*
X150712513Y-93558590D01*
X150712513Y-93558590D02*
X150712513Y-93939542D01*
X150712513Y-93939542D02*
X150664894Y-94034780D01*
X150664894Y-94034780D02*
X150617275Y-94082400D01*
X150617275Y-94082400D02*
X150522037Y-94130019D01*
X150522037Y-94130019D02*
X150331561Y-94130019D01*
X150331561Y-94130019D02*
X150236323Y-94082400D01*
X150236323Y-94082400D02*
X150188704Y-94034780D01*
X150188704Y-94034780D02*
X150141085Y-93939542D01*
X150141085Y-93939542D02*
X150141085Y-93701447D01*
X150141085Y-93701447D02*
X150188704Y-93606209D01*
X150188704Y-93606209D02*
X150236323Y-93558590D01*
X150236323Y-93558590D02*
X150331561Y-93510971D01*
X150331561Y-93510971D02*
X150522037Y-93510971D01*
X150522037Y-93510971D02*
X150617275Y-93558590D01*
X150617275Y-93558590D02*
X150664894Y-93606209D01*
X150664894Y-93606209D02*
X150712513Y-93701447D01*
X176342857Y-93622019D02*
X176676190Y-93145828D01*
X176914285Y-93622019D02*
X176914285Y-92622019D01*
X176914285Y-92622019D02*
X176533333Y-92622019D01*
X176533333Y-92622019D02*
X176438095Y-92669638D01*
X176438095Y-92669638D02*
X176390476Y-92717257D01*
X176390476Y-92717257D02*
X176342857Y-92812495D01*
X176342857Y-92812495D02*
X176342857Y-92955352D01*
X176342857Y-92955352D02*
X176390476Y-93050590D01*
X176390476Y-93050590D02*
X176438095Y-93098209D01*
X176438095Y-93098209D02*
X176533333Y-93145828D01*
X176533333Y-93145828D02*
X176914285Y-93145828D01*
X175390476Y-93622019D02*
X175961904Y-93622019D01*
X175676190Y-93622019D02*
X175676190Y-92622019D01*
X175676190Y-92622019D02*
X175771428Y-92764876D01*
X175771428Y-92764876D02*
X175866666Y-92860114D01*
X175866666Y-92860114D02*
X175961904Y-92907733D01*
X174438095Y-93622019D02*
X175009523Y-93622019D01*
X174723809Y-93622019D02*
X174723809Y-92622019D01*
X174723809Y-92622019D02*
X174819047Y-92764876D01*
X174819047Y-92764876D02*
X174914285Y-92860114D01*
X174914285Y-92860114D02*
X175009523Y-92907733D01*
X172361123Y-83224019D02*
X172361123Y-83938304D01*
X172361123Y-83938304D02*
X172408742Y-84081161D01*
X172408742Y-84081161D02*
X172503980Y-84176400D01*
X172503980Y-84176400D02*
X172646837Y-84224019D01*
X172646837Y-84224019D02*
X172742075Y-84224019D01*
X171361123Y-84224019D02*
X171932551Y-84224019D01*
X171646837Y-84224019D02*
X171646837Y-83224019D01*
X171646837Y-83224019D02*
X171742075Y-83366876D01*
X171742075Y-83366876D02*
X171837313Y-83462114D01*
X171837313Y-83462114D02*
X171932551Y-83509733D01*
X170742075Y-83224019D02*
X170646837Y-83224019D01*
X170646837Y-83224019D02*
X170551599Y-83271638D01*
X170551599Y-83271638D02*
X170503980Y-83319257D01*
X170503980Y-83319257D02*
X170456361Y-83414495D01*
X170456361Y-83414495D02*
X170408742Y-83604971D01*
X170408742Y-83604971D02*
X170408742Y-83843066D01*
X170408742Y-83843066D02*
X170456361Y-84033542D01*
X170456361Y-84033542D02*
X170503980Y-84128780D01*
X170503980Y-84128780D02*
X170551599Y-84176400D01*
X170551599Y-84176400D02*
X170646837Y-84224019D01*
X170646837Y-84224019D02*
X170742075Y-84224019D01*
X170742075Y-84224019D02*
X170837313Y-84176400D01*
X170837313Y-84176400D02*
X170884932Y-84128780D01*
X170884932Y-84128780D02*
X170932551Y-84033542D01*
X170932551Y-84033542D02*
X170980170Y-83843066D01*
X170980170Y-83843066D02*
X170980170Y-83604971D01*
X170980170Y-83604971D02*
X170932551Y-83414495D01*
X170932551Y-83414495D02*
X170884932Y-83319257D01*
X170884932Y-83319257D02*
X170837313Y-83271638D01*
X170837313Y-83271638D02*
X170742075Y-83224019D01*
X174492857Y-91504819D02*
X174826190Y-91028628D01*
X175064285Y-91504819D02*
X175064285Y-90504819D01*
X175064285Y-90504819D02*
X174683333Y-90504819D01*
X174683333Y-90504819D02*
X174588095Y-90552438D01*
X174588095Y-90552438D02*
X174540476Y-90600057D01*
X174540476Y-90600057D02*
X174492857Y-90695295D01*
X174492857Y-90695295D02*
X174492857Y-90838152D01*
X174492857Y-90838152D02*
X174540476Y-90933390D01*
X174540476Y-90933390D02*
X174588095Y-90981009D01*
X174588095Y-90981009D02*
X174683333Y-91028628D01*
X174683333Y-91028628D02*
X175064285Y-91028628D01*
X173540476Y-91504819D02*
X174111904Y-91504819D01*
X173826190Y-91504819D02*
X173826190Y-90504819D01*
X173826190Y-90504819D02*
X173921428Y-90647676D01*
X173921428Y-90647676D02*
X174016666Y-90742914D01*
X174016666Y-90742914D02*
X174111904Y-90790533D01*
X172921428Y-90504819D02*
X172826190Y-90504819D01*
X172826190Y-90504819D02*
X172730952Y-90552438D01*
X172730952Y-90552438D02*
X172683333Y-90600057D01*
X172683333Y-90600057D02*
X172635714Y-90695295D01*
X172635714Y-90695295D02*
X172588095Y-90885771D01*
X172588095Y-90885771D02*
X172588095Y-91123866D01*
X172588095Y-91123866D02*
X172635714Y-91314342D01*
X172635714Y-91314342D02*
X172683333Y-91409580D01*
X172683333Y-91409580D02*
X172730952Y-91457200D01*
X172730952Y-91457200D02*
X172826190Y-91504819D01*
X172826190Y-91504819D02*
X172921428Y-91504819D01*
X172921428Y-91504819D02*
X173016666Y-91457200D01*
X173016666Y-91457200D02*
X173064285Y-91409580D01*
X173064285Y-91409580D02*
X173111904Y-91314342D01*
X173111904Y-91314342D02*
X173159523Y-91123866D01*
X173159523Y-91123866D02*
X173159523Y-90885771D01*
X173159523Y-90885771D02*
X173111904Y-90695295D01*
X173111904Y-90695295D02*
X173064285Y-90600057D01*
X173064285Y-90600057D02*
X173016666Y-90552438D01*
X173016666Y-90552438D02*
X172921428Y-90504819D01*
D13*
%TO.C,JP1*%
X162361600Y-104101200D02*
X162961600Y-104101200D01*
X161661600Y-106201200D02*
X161661600Y-104801200D01*
X163661600Y-104801200D02*
X163661600Y-106201200D01*
X162961600Y-106901200D02*
X162361600Y-106901200D01*
X161661600Y-104801200D02*
G75*
G02*
X162361600Y-104101200I699999J1D01*
G01*
X162961600Y-104101200D02*
G75*
G02*
X163661600Y-104801200I1J-699999D01*
G01*
X162361600Y-106901200D02*
G75*
G02*
X161661600Y-106201200I0J700000D01*
G01*
X163661600Y-106201200D02*
G75*
G02*
X162961600Y-106901200I-700000J0D01*
G01*
%TO.C,JP2*%
X158750000Y-95700000D02*
X158750000Y-95100000D01*
X159400000Y-94400000D02*
X162200000Y-94400000D01*
X162200000Y-96400000D02*
X159400000Y-96400000D01*
X162850000Y-95100000D02*
X162850000Y-95700000D01*
X158750000Y-95100000D02*
G75*
G02*
X159450000Y-94400000I700000J0D01*
G01*
X159450000Y-96400000D02*
G75*
G02*
X158750000Y-95700000I0J700000D01*
G01*
X162150000Y-94400000D02*
G75*
G02*
X162850000Y-95100000I1J-699999D01*
G01*
X162850000Y-95700000D02*
G75*
G02*
X162150000Y-96400000I-699999J-1D01*
G01*
%TO.C,JP3*%
X161915600Y-101831600D02*
X161915600Y-99031600D01*
X162615600Y-98381600D02*
X163215600Y-98381600D01*
X163215600Y-102481600D02*
X162615600Y-102481600D01*
X163915600Y-99031600D02*
X163915600Y-101831600D01*
X161915600Y-99081600D02*
G75*
G02*
X162615600Y-98381600I700000J0D01*
G01*
X162615600Y-102481600D02*
G75*
G02*
X161915600Y-101781600I-1J699999D01*
G01*
X163215600Y-98381600D02*
G75*
G02*
X163915600Y-99081600I0J-700000D01*
G01*
X163915600Y-101781600D02*
G75*
G02*
X163215600Y-102481600I-699999J-1D01*
G01*
%TO.C,D1*%
X148040000Y-102165000D02*
X148040000Y-105025000D01*
X149960000Y-102165000D02*
X148040000Y-102165000D01*
X149960000Y-105025000D02*
X149960000Y-102165000D01*
%TO.C,JP6*%
X173600000Y-105150000D02*
X173600000Y-103750000D01*
X174300000Y-103050000D02*
X174900000Y-103050000D01*
X174900000Y-105850000D02*
X174300000Y-105850000D01*
X175600000Y-103750000D02*
X175600000Y-105150000D01*
X173600000Y-103750000D02*
G75*
G02*
X174300000Y-103050000I700000J0D01*
G01*
X174300000Y-105850000D02*
G75*
G02*
X173600000Y-105150000I-1J699999D01*
G01*
X174900000Y-103050000D02*
G75*
G02*
X175600000Y-103750000I0J-700000D01*
G01*
X175600000Y-105150000D02*
G75*
G02*
X174900000Y-105850000I-699999J-1D01*
G01*
%TO.C,R5*%
X167666936Y-91721000D02*
X168121064Y-91721000D01*
X167666936Y-93191000D02*
X168121064Y-93191000D01*
%TO.C,R8*%
X157227064Y-92265000D02*
X156772936Y-92265000D01*
X157227064Y-93735000D02*
X156772936Y-93735000D01*
%TO.C,R2*%
X152894564Y-84355000D02*
X152440436Y-84355000D01*
X152894564Y-85825000D02*
X152440436Y-85825000D01*
%TO.C,R1*%
X148894564Y-84355000D02*
X148440436Y-84355000D01*
X148894564Y-85825000D02*
X148440436Y-85825000D01*
%TO.C,R4*%
X150765000Y-103772936D02*
X150765000Y-104227064D01*
X152235000Y-103772936D02*
X152235000Y-104227064D01*
%TO.C,R9*%
X163877064Y-80615000D02*
X163422936Y-80615000D01*
X163877064Y-82085000D02*
X163422936Y-82085000D01*
%TO.C,R3*%
X159272936Y-83847000D02*
X159727064Y-83847000D01*
X159272936Y-85317000D02*
X159727064Y-85317000D01*
%TO.C,R6*%
X147765000Y-94272936D02*
X147765000Y-94727064D01*
X149235000Y-94272936D02*
X149235000Y-94727064D01*
%TO.C,R11*%
X172747000Y-94318064D02*
X172747000Y-93863936D01*
X174217000Y-94318064D02*
X174217000Y-93863936D01*
%TO.C,J10*%
X170748000Y-84634000D02*
X170748000Y-89834000D01*
X170178000Y-89834000D02*
X170748000Y-89834000D01*
X170178000Y-89834000D02*
X170178000Y-91274000D01*
X170178000Y-84634000D02*
X170748000Y-84634000D01*
X167638000Y-89834000D02*
X168658000Y-89834000D01*
X167638000Y-84634000D02*
X168658000Y-84634000D01*
X165098000Y-89834000D02*
X166118000Y-89834000D01*
X165098000Y-84634000D02*
X166118000Y-84634000D01*
X163008000Y-89834000D02*
X163578000Y-89834000D01*
X163008000Y-84634000D02*
X163578000Y-84634000D01*
X163008000Y-84634000D02*
X163008000Y-89834000D01*
%TO.C,R10*%
X170765000Y-91847936D02*
X170765000Y-92302064D01*
X172235000Y-91847936D02*
X172235000Y-92302064D01*
%TD*%
M02*
