%TF.GenerationSoftware,KiCad,Pcbnew,8.0.3*%
%TF.CreationDate,2024-08-02T22:41:38+02:00*%
%TF.ProjectId,IOT board sensor,494f5420-626f-4617-9264-2073656e736f,rev?*%
%TF.SameCoordinates,Original*%
%TF.FileFunction,Copper,L2,Bot*%
%TF.FilePolarity,Positive*%
%FSLAX46Y46*%
G04 Gerber Fmt 4.6, Leading zero omitted, Abs format (unit mm)*
G04 Created by KiCad (PCBNEW 8.0.3) date 2024-08-02 22:41:38*
%MOMM*%
%LPD*%
G01*
G04 APERTURE LIST*
G04 Aperture macros list*
%AMRoundRect*
0 Rectangle with rounded corners*
0 $1 Rounding radius*
0 $2 $3 $4 $5 $6 $7 $8 $9 X,Y pos of 4 corners*
0 Add a 4 corners polygon primitive as box body*
4,1,4,$2,$3,$4,$5,$6,$7,$8,$9,$2,$3,0*
0 Add four circle primitives for the rounded corners*
1,1,$1+$1,$2,$3*
1,1,$1+$1,$4,$5*
1,1,$1+$1,$6,$7*
1,1,$1+$1,$8,$9*
0 Add four rect primitives between the rounded corners*
20,1,$1+$1,$2,$3,$4,$5,0*
20,1,$1+$1,$4,$5,$6,$7,0*
20,1,$1+$1,$6,$7,$8,$9,0*
20,1,$1+$1,$8,$9,$2,$3,0*%
%AMFreePoly0*
4,1,19,0.500000,-0.750000,0.000000,-0.750000,0.000000,-0.744911,-0.071157,-0.744911,-0.207708,-0.704816,-0.327430,-0.627875,-0.420627,-0.520320,-0.479746,-0.390866,-0.500000,-0.250000,-0.500000,0.250000,-0.479746,0.390866,-0.420627,0.520320,-0.327430,0.627875,-0.207708,0.704816,-0.071157,0.744911,0.000000,0.744911,0.000000,0.750000,0.500000,0.750000,0.500000,-0.750000,0.500000,-0.750000,
$1*%
%AMFreePoly1*
4,1,19,0.000000,0.744911,0.071157,0.744911,0.207708,0.704816,0.327430,0.627875,0.420627,0.520320,0.479746,0.390866,0.500000,0.250000,0.500000,-0.250000,0.479746,-0.390866,0.420627,-0.520320,0.327430,-0.627875,0.207708,-0.704816,0.071157,-0.744911,0.000000,-0.744911,0.000000,-0.750000,-0.500000,-0.750000,-0.500000,0.750000,0.000000,0.750000,0.000000,0.744911,0.000000,0.744911,
$1*%
%AMFreePoly2*
4,1,19,0.550000,-0.750000,0.000000,-0.750000,0.000000,-0.744911,-0.071157,-0.744911,-0.207708,-0.704816,-0.327430,-0.627875,-0.420627,-0.520320,-0.479746,-0.390866,-0.500000,-0.250000,-0.500000,0.250000,-0.479746,0.390866,-0.420627,0.520320,-0.327430,0.627875,-0.207708,0.704816,-0.071157,0.744911,0.000000,0.744911,0.000000,0.750000,0.550000,0.750000,0.550000,-0.750000,0.550000,-0.750000,
$1*%
%AMFreePoly3*
4,1,19,0.000000,0.744911,0.071157,0.744911,0.207708,0.704816,0.327430,0.627875,0.420627,0.520320,0.479746,0.390866,0.500000,0.250000,0.500000,-0.250000,0.479746,-0.390866,0.420627,-0.520320,0.327430,-0.627875,0.207708,-0.704816,0.071157,-0.744911,0.000000,-0.744911,0.000000,-0.750000,-0.550000,-0.750000,-0.550000,0.750000,0.000000,0.750000,0.000000,0.744911,0.000000,0.744911,
$1*%
G04 Aperture macros list end*
%TA.AperFunction,EtchedComponent*%
%ADD10C,0.000000*%
%TD*%
%TA.AperFunction,ComponentPad*%
%ADD11C,0.800000*%
%TD*%
%TA.AperFunction,ComponentPad*%
%ADD12C,6.400000*%
%TD*%
%TA.AperFunction,ComponentPad*%
%ADD13R,1.700000X1.700000*%
%TD*%
%TA.AperFunction,ComponentPad*%
%ADD14O,1.700000X1.700000*%
%TD*%
%TA.AperFunction,ComponentPad*%
%ADD15R,2.400000X2.400000*%
%TD*%
%TA.AperFunction,ComponentPad*%
%ADD16C,2.400000*%
%TD*%
%TA.AperFunction,SMDPad,CuDef*%
%ADD17FreePoly0,270.000000*%
%TD*%
%TA.AperFunction,SMDPad,CuDef*%
%ADD18FreePoly1,270.000000*%
%TD*%
%TA.AperFunction,ComponentPad*%
%ADD19C,2.000000*%
%TD*%
%TA.AperFunction,SMDPad,CuDef*%
%ADD20FreePoly2,180.000000*%
%TD*%
%TA.AperFunction,SMDPad,CuDef*%
%ADD21R,1.000000X1.500000*%
%TD*%
%TA.AperFunction,SMDPad,CuDef*%
%ADD22FreePoly3,180.000000*%
%TD*%
%TA.AperFunction,SMDPad,CuDef*%
%ADD23FreePoly2,90.000000*%
%TD*%
%TA.AperFunction,SMDPad,CuDef*%
%ADD24R,1.500000X1.000000*%
%TD*%
%TA.AperFunction,SMDPad,CuDef*%
%ADD25FreePoly3,90.000000*%
%TD*%
%TA.AperFunction,SMDPad,CuDef*%
%ADD26RoundRect,0.250000X-0.450000X0.325000X-0.450000X-0.325000X0.450000X-0.325000X0.450000X0.325000X0*%
%TD*%
%TA.AperFunction,SMDPad,CuDef*%
%ADD27FreePoly0,90.000000*%
%TD*%
%TA.AperFunction,SMDPad,CuDef*%
%ADD28FreePoly1,90.000000*%
%TD*%
%TA.AperFunction,SMDPad,CuDef*%
%ADD29RoundRect,0.250000X0.350000X0.450000X-0.350000X0.450000X-0.350000X-0.450000X0.350000X-0.450000X0*%
%TD*%
%TA.AperFunction,SMDPad,CuDef*%
%ADD30RoundRect,0.250000X-0.350000X-0.450000X0.350000X-0.450000X0.350000X0.450000X-0.350000X0.450000X0*%
%TD*%
%TA.AperFunction,SMDPad,CuDef*%
%ADD31RoundRect,0.250000X0.450000X-0.350000X0.450000X0.350000X-0.450000X0.350000X-0.450000X-0.350000X0*%
%TD*%
%TA.AperFunction,SMDPad,CuDef*%
%ADD32RoundRect,0.250000X-0.450000X0.350000X-0.450000X-0.350000X0.450000X-0.350000X0.450000X0.350000X0*%
%TD*%
%TA.AperFunction,SMDPad,CuDef*%
%ADD33R,1.000000X3.150000*%
%TD*%
%TA.AperFunction,ViaPad*%
%ADD34C,0.600000*%
%TD*%
%TA.AperFunction,ViaPad*%
%ADD35C,3.100000*%
%TD*%
%TA.AperFunction,Conductor*%
%ADD36C,0.750000*%
%TD*%
%TA.AperFunction,Conductor*%
%ADD37C,1.000000*%
%TD*%
G04 APERTURE END LIST*
D10*
%TA.AperFunction,EtchedComponent*%
%TO.C,JP2*%
G36*
X161700000Y-95200000D02*
G01*
X161200000Y-95200000D01*
X161200000Y-94800000D01*
X161700000Y-94800000D01*
X161700000Y-95200000D01*
G37*
%TD.AperFunction*%
%TA.AperFunction,EtchedComponent*%
G36*
X161700000Y-96000000D02*
G01*
X161200000Y-96000000D01*
X161200000Y-95600000D01*
X161700000Y-95600000D01*
X161700000Y-96000000D01*
G37*
%TD.AperFunction*%
%TA.AperFunction,EtchedComponent*%
%TO.C,JP3*%
G36*
X162715600Y-101331600D02*
G01*
X162315600Y-101331600D01*
X162315600Y-100831600D01*
X162715600Y-100831600D01*
X162715600Y-101331600D01*
G37*
%TD.AperFunction*%
%TA.AperFunction,EtchedComponent*%
G36*
X163515600Y-101331600D02*
G01*
X163115600Y-101331600D01*
X163115600Y-100831600D01*
X163515600Y-100831600D01*
X163515600Y-101331600D01*
G37*
%TD.AperFunction*%
%TD*%
D11*
%TO.P,REF\u002A\u002A,1*%
%TO.N,N/C*%
X142100000Y-76500000D03*
X142802944Y-74802944D03*
X142802944Y-78197056D03*
X144500000Y-74100000D03*
D12*
%TO.N,GND*%
X144500000Y-76500000D03*
D11*
%TO.N,N/C*%
X144500000Y-78900000D03*
X146197056Y-74802944D03*
X146197056Y-78197056D03*
X146900000Y-76500000D03*
%TD*%
%TO.P,REF\u002A\u002A,1*%
%TO.N,N/C*%
X178600000Y-76500000D03*
X179302944Y-74802944D03*
X179302944Y-78197056D03*
X181000000Y-74100000D03*
D12*
%TO.N,GND*%
X181000000Y-76500000D03*
D11*
%TO.N,N/C*%
X181000000Y-78900000D03*
X182697056Y-74802944D03*
X182697056Y-78197056D03*
X183400000Y-76500000D03*
%TD*%
D13*
%TO.P,J1,1,Pin_1*%
%TO.N,VIN*%
X142240000Y-82550000D03*
D14*
%TO.P,J1,2,Pin_2*%
%TO.N,+3.3V*%
X142240000Y-85090000D03*
%TO.P,J1,3,Pin_3*%
%TO.N,GND*%
X142240000Y-87630000D03*
%TO.P,J1,4,Pin_4*%
%TO.N,nRST*%
X142240000Y-90170000D03*
%TO.P,J1,5,Pin_5*%
%TO.N,V Sense*%
X142240000Y-92710000D03*
%TO.P,J1,6,Pin_6*%
%TO.N,IO12*%
X142240000Y-95250000D03*
%TO.P,J1,7,Pin_7*%
%TO.N,Fet LOAD VCC*%
X142240000Y-97790000D03*
%TO.P,J1,8,Pin_8*%
%TO.N,Fet LOAD GND*%
X142240000Y-100330000D03*
%TO.P,J1,9,Pin_9*%
%TO.N,Fet GND*%
X142240000Y-102870000D03*
%TO.P,J1,10,Pin_10*%
%TO.N,GND*%
X142240000Y-105410000D03*
%TD*%
%TO.P,J3,10,Pin_10*%
%TO.N,IO14*%
X182880000Y-105410000D03*
%TO.P,J3,9,Pin_9*%
%TO.N,GND LP*%
X182880000Y-102870000D03*
%TO.P,J3,8,Pin_8*%
%TO.N,IO16*%
X182880000Y-100330000D03*
%TO.P,J3,7,Pin_7*%
%TO.N,GND*%
X182880000Y-97790000D03*
%TO.P,J3,6,Pin_6*%
%TO.N,IO13*%
X182880000Y-95250000D03*
%TO.P,J3,5,Pin_5*%
%TO.N,+3.3V*%
X182880000Y-92710000D03*
%TO.P,J3,4,Pin_4*%
%TO.N,SDA*%
X182880000Y-90170000D03*
%TO.P,J3,3,Pin_3*%
%TO.N,SCL*%
X182880000Y-87630000D03*
%TO.P,J3,2,Pin_2*%
%TO.N,TXD*%
X182880000Y-85090000D03*
D13*
%TO.P,J3,1,Pin_1*%
%TO.N,RXD*%
X182880000Y-82550000D03*
%TD*%
D15*
%TO.P,J4,1,Pin_1*%
%TO.N,IO14*%
X189992000Y-107950000D03*
D16*
%TO.P,J4,2,Pin_2*%
%TO.N,GND LP*%
X189992000Y-104450000D03*
%TO.P,J4,3,Pin_3*%
%TO.N,IO16*%
X189992000Y-100950000D03*
%TO.P,J4,4,Pin_4*%
%TO.N,GND*%
X189992000Y-97450000D03*
%TO.P,J4,5,Pin_5*%
%TO.N,IO13*%
X189992000Y-93950000D03*
%TO.P,J4,6,Pin_6*%
%TO.N,+3.3V*%
X189992000Y-90450000D03*
%TO.P,J4,7,Pin_7*%
%TO.N,SDA*%
X189992000Y-86950000D03*
%TO.P,J4,8,Pin_8*%
%TO.N,SCL*%
X189992000Y-83450000D03*
%TO.P,J4,9,Pin_9*%
%TO.N,TXD*%
X189992000Y-79950000D03*
%TO.P,J4,10,Pin_10*%
%TO.N,RXD*%
X189992000Y-76450000D03*
%TD*%
D15*
%TO.P,J2,1,Pin_1*%
%TO.N,VIN*%
X135229600Y-76450000D03*
D16*
%TO.P,J2,2,Pin_2*%
%TO.N,+3.3V*%
X135229600Y-79950000D03*
%TO.P,J2,3,Pin_3*%
%TO.N,GND*%
X135229600Y-83450000D03*
%TO.P,J2,4,Pin_4*%
%TO.N,nRST*%
X135229600Y-86950000D03*
%TO.P,J2,5,Pin_5*%
%TO.N,V Sense*%
X135229600Y-90450000D03*
%TO.P,J2,6,Pin_6*%
%TO.N,IO12*%
X135229600Y-93950000D03*
%TO.P,J2,7,Pin_7*%
%TO.N,Fet LOAD VCC*%
X135229600Y-97450000D03*
%TO.P,J2,8,Pin_8*%
%TO.N,Fet LOAD GND*%
X135229600Y-100950000D03*
%TO.P,J2,9,Pin_9*%
%TO.N,Fet GND*%
X135229600Y-104450000D03*
%TO.P,J2,10,Pin_10*%
%TO.N,GND*%
X135229600Y-107950000D03*
%TD*%
D17*
%TO.P,JP1,1,A*%
%TO.N,V Sense*%
X162661600Y-104851200D03*
D18*
%TO.P,JP1,2,B*%
%TO.N,Net-(J9-Pin_4)*%
X162661600Y-106151200D03*
%TD*%
D13*
%TO.P,J9,1,Pin_1*%
%TO.N,+3.3V*%
X167640000Y-109000000D03*
D14*
%TO.P,J9,2,Pin_2*%
%TO.N,GND LP*%
X165100000Y-109000000D03*
%TO.P,J9,3,Pin_3*%
%TO.N,Net-(J9-Pin_3)*%
X162560000Y-109000000D03*
%TO.P,J9,4,Pin_4*%
%TO.N,Net-(J9-Pin_4)*%
X160020000Y-109000000D03*
%TD*%
D19*
%TO.P,SW1,1,C*%
%TO.N,GND*%
X172414000Y-103723000D03*
X165914000Y-103723000D03*
%TO.P,SW1,2,D*%
%TO.N,Net-(SW1A-D)*%
X172414000Y-99223000D03*
X165914000Y-99223000D03*
%TD*%
D14*
%TO.P,J8,4,Pin_4*%
%TO.N,SCL*%
X177546000Y-83655000D03*
%TO.P,J8,3,Pin_3*%
%TO.N,SDA*%
X177546000Y-86195000D03*
%TO.P,J8,2,Pin_2*%
%TO.N,GND LP*%
X177546000Y-88735000D03*
D13*
%TO.P,J8,1,Pin_1*%
%TO.N,+3.3V*%
X177546000Y-91275000D03*
%TD*%
%TO.P,J7,1,Pin_1*%
%TO.N,GND LP*%
X177546000Y-109000000D03*
D14*
%TO.P,J7,2,Pin_2*%
%TO.N,IO14*%
X175006000Y-109000000D03*
%TO.P,J7,3,Pin_3*%
%TO.N,+3.3V*%
X172466000Y-109000000D03*
%TD*%
D13*
%TO.P,J6,1,Pin_1*%
%TO.N,+3.3V*%
X152692500Y-88590000D03*
D14*
%TO.P,J6,2,Pin_2*%
%TO.N,GND*%
X150152500Y-88590000D03*
%TO.P,J6,3,Pin_3*%
%TO.N,VIN*%
X147612500Y-88590000D03*
%TD*%
D13*
%TO.P,J5,1,Pin_1*%
%TO.N,GND LP*%
X177546000Y-103632000D03*
D14*
%TO.P,J5,2,Pin_2*%
%TO.N,unconnected-(J5-Pin_2-Pad2)*%
X177546000Y-101092000D03*
%TO.P,J5,3,Pin_3*%
%TO.N,IO16*%
X177546000Y-98552000D03*
%TO.P,J5,4,Pin_4*%
%TO.N,+3.3V*%
X177546000Y-96012000D03*
%TD*%
D20*
%TO.P,JP2,1,A*%
%TO.N,nRST*%
X162100000Y-95400000D03*
D21*
%TO.P,JP2,2,C*%
%TO.N,Net-(J9-Pin_3)*%
X160800000Y-95400000D03*
D22*
%TO.P,JP2,3,B*%
%TO.N,IO12*%
X159500000Y-95400000D03*
%TD*%
D23*
%TO.P,JP3,1,A*%
%TO.N,GND LP*%
X162915600Y-101731600D03*
D24*
%TO.P,JP3,2,C*%
%TO.N,Net-(JP3-C)*%
X162915600Y-100431600D03*
D25*
%TO.P,JP3,3,B*%
%TO.N,Fet LOAD GND*%
X162915600Y-99131600D03*
%TD*%
D26*
%TO.P,D1,1,K*%
%TO.N,Net-(D1-K)*%
X149000000Y-103000000D03*
%TO.P,D1,2,A*%
%TO.N,Net-(D1-A)*%
X149000000Y-105050000D03*
%TD*%
D27*
%TO.P,JP6,1,A*%
%TO.N,GND LP*%
X174600000Y-105100000D03*
D28*
%TO.P,JP6,2,B*%
%TO.N,GND*%
X174600000Y-103800000D03*
%TD*%
D29*
%TO.P,R5,1*%
%TO.N,+3.3V*%
X168894000Y-92456000D03*
%TO.P,R5,2*%
%TO.N,nRST*%
X166894000Y-92456000D03*
%TD*%
D30*
%TO.P,R8,1*%
%TO.N,Net-(R8-Pad1)*%
X156000000Y-93000000D03*
%TO.P,R8,2*%
%TO.N,IO13*%
X158000000Y-93000000D03*
%TD*%
%TO.P,R2,1*%
%TO.N,V Sense*%
X151667500Y-85090000D03*
%TO.P,R2,2*%
%TO.N,GND*%
X153667500Y-85090000D03*
%TD*%
%TO.P,R1,1*%
%TO.N,VIN*%
X147667500Y-85090000D03*
%TO.P,R1,2*%
%TO.N,V Sense*%
X149667500Y-85090000D03*
%TD*%
D31*
%TO.P,R4,1*%
%TO.N,Net-(D1-A)*%
X151500000Y-105000000D03*
%TO.P,R4,2*%
%TO.N,Net-(Q1-G)*%
X151500000Y-103000000D03*
%TD*%
D30*
%TO.P,R9,1*%
%TO.N,+3.3V*%
X162650000Y-81350000D03*
%TO.P,R9,2*%
%TO.N,GPIO0*%
X164650000Y-81350000D03*
%TD*%
D29*
%TO.P,R3,1*%
%TO.N,+3.3V*%
X160500000Y-84582000D03*
%TO.P,R3,2*%
%TO.N,Net-(U2-EN)*%
X158500000Y-84582000D03*
%TD*%
D31*
%TO.P,R6,1*%
%TO.N,Net-(Q1-G)*%
X148500000Y-95500000D03*
%TO.P,R6,2*%
%TO.N,Net-(D1-K)*%
X148500000Y-93500000D03*
%TD*%
D32*
%TO.P,R11,1*%
%TO.N,Net-(U2-GPIO15)*%
X173482000Y-93091000D03*
%TO.P,R11,2*%
%TO.N,GND*%
X173482000Y-95091000D03*
%TD*%
D33*
%TO.P,J10,6,Pin_6*%
%TO.N,GND*%
X164338000Y-84709000D03*
%TO.P,J10,5,Pin_5*%
%TO.N,+3.3V*%
X164338000Y-89759000D03*
%TO.P,J10,4,Pin_4*%
%TO.N,GPIO0*%
X166878000Y-84709000D03*
%TO.P,J10,3,Pin_3*%
%TO.N,nRST*%
X166878000Y-89759000D03*
%TO.P,J10,2,Pin_2*%
%TO.N,RXD*%
X169418000Y-84709000D03*
%TO.P,J10,1,Pin_1*%
%TO.N,TXD*%
X169418000Y-89759000D03*
%TD*%
D31*
%TO.P,R10,1*%
%TO.N,+3.3V*%
X171500000Y-93075000D03*
%TO.P,R10,2*%
%TO.N,Net-(SW1A-D)*%
X171500000Y-91075000D03*
%TD*%
D34*
%TO.N,GND*%
X174900000Y-95000000D03*
D35*
%TO.N,*%
X145500000Y-109000000D03*
D34*
%TO.N,GND*%
X165550000Y-82850000D03*
X169418000Y-105156000D03*
X131826000Y-107442000D03*
X158750000Y-97028000D03*
X166624000Y-101346000D03*
X153670000Y-104648000D03*
X149850000Y-107750000D03*
X155194000Y-110490000D03*
X170180000Y-110490000D03*
X180340000Y-106680000D03*
X180594000Y-102870000D03*
X182118000Y-108966000D03*
X193294000Y-76200000D03*
X192150000Y-81800000D03*
X192200000Y-87600000D03*
X193294000Y-95758000D03*
X193040000Y-101854000D03*
X193040000Y-107442000D03*
X157226000Y-96520000D03*
X176413409Y-105494028D03*
X169926000Y-107696000D03*
X162306000Y-84836000D03*
X179300000Y-94350000D03*
X141224000Y-109982000D03*
X137922000Y-102616000D03*
X132080000Y-101346000D03*
X137668000Y-95758000D03*
X132080000Y-94996000D03*
X137549626Y-88737433D03*
X132080000Y-89154000D03*
X137969609Y-85181585D03*
X132334000Y-82296000D03*
X155702000Y-77470000D03*
X176530000Y-73406000D03*
X187452000Y-74930000D03*
X187452000Y-97536000D03*
X181102000Y-104394000D03*
X166370000Y-107442000D03*
X169550000Y-101400000D03*
X174752000Y-102870000D03*
X153810000Y-93230000D03*
X150876000Y-95758000D03*
X154750000Y-84100000D03*
X151384000Y-86614000D03*
X150114000Y-86614000D03*
X144526000Y-83820000D03*
%TO.N,IO13*%
X171450000Y-89916000D03*
%TO.N,IO16*%
X170000000Y-93300000D03*
%TO.N,IO13*%
X178900000Y-93475000D03*
%TO.N,Fet LOAD GND*%
X152908000Y-102362000D03*
%TO.N,V Sense*%
X153416000Y-90424000D03*
%TO.N,nRST*%
X158242000Y-81026000D03*
%TO.N,+3.3V*%
X156083000Y-88519000D03*
%TO.N,nRST*%
X166878000Y-88646000D03*
%TO.N,GND*%
X173482000Y-95123000D03*
%TO.N,IO14*%
X158750000Y-89027000D03*
%TO.N,IO12*%
X158813500Y-91122500D03*
%TO.N,V Sense*%
X162814000Y-104386000D03*
X158500000Y-83000000D03*
%TO.N,Net-(U2-GPIO15)*%
X173500000Y-93000000D03*
%TO.N,Net-(U2-EN)*%
X158500000Y-84582000D03*
%TO.N,RXD*%
X173708000Y-80772000D03*
%TO.N,TXD*%
X173500000Y-83000000D03*
%TO.N,Net-(J9-Pin_3)*%
X164185600Y-98044000D03*
%TO.N,nRST*%
X166370000Y-92964000D03*
X162200000Y-94930000D03*
%TO.N,GPIO0*%
X166878000Y-84709000D03*
%TO.N,Net-(SW1A-D)*%
X173500000Y-91000000D03*
%TO.N,Net-(Q1-G)*%
X151511000Y-100584000D03*
%TO.N,Net-(D1-K)*%
X148500000Y-93500000D03*
%TO.N,Net-(R8-Pad1)*%
X153810000Y-95770000D03*
%TO.N,Net-(D1-A)*%
X151500000Y-105000000D03*
%TO.N,Net-(JP3-C)*%
X155500000Y-100500000D03*
X157000000Y-105500000D03*
X155500000Y-102500000D03*
X155500000Y-103500000D03*
X158500000Y-105500000D03*
X160000000Y-104500000D03*
X160000000Y-103500000D03*
X160000000Y-101500000D03*
X158500000Y-102500000D03*
X158500000Y-103500000D03*
X157000000Y-103500000D03*
X155500000Y-101500000D03*
X155500000Y-104500000D03*
X160000000Y-105500000D03*
X158500000Y-101500000D03*
X157000000Y-102500000D03*
X157000000Y-101500000D03*
X158500000Y-104500000D03*
X160000000Y-102500000D03*
X157000000Y-100500000D03*
X157000000Y-104500000D03*
X155500000Y-105500000D03*
X158500000Y-100500000D03*
X160000000Y-100500000D03*
%TO.N,IO14*%
X170434000Y-105029000D03*
%TO.N,IO13*%
X158000000Y-93000000D03*
%TD*%
D36*
%TO.N,GND LP*%
X180594000Y-100526000D02*
X180594000Y-90424000D01*
X180594000Y-90424000D02*
X178905000Y-88735000D01*
X178905000Y-88735000D02*
X177546000Y-88735000D01*
%TO.N,IO13*%
X178900000Y-93475000D02*
X177318502Y-93475000D01*
X177318502Y-93475000D02*
X173743502Y-89900000D01*
X173743502Y-89900000D02*
X171450000Y-89900000D01*
%TO.N,GND LP*%
X174600000Y-105100000D02*
X175570000Y-105100000D01*
X175570000Y-105100000D02*
X177050000Y-103620000D01*
X177980000Y-103620000D02*
X180594000Y-101006000D01*
X177050000Y-103620000D02*
X177980000Y-103620000D01*
X180594000Y-101006000D02*
X180594000Y-100526000D01*
X182880000Y-102870000D02*
X182420000Y-102870000D01*
X182420000Y-102870000D02*
X180594000Y-101044000D01*
X180594000Y-101044000D02*
X180594000Y-100526000D01*
%TO.N,IO14*%
X158750000Y-89027000D02*
X159027000Y-89027000D01*
X170434000Y-104934000D02*
X170434000Y-105029000D01*
X159027000Y-89027000D02*
X168300000Y-98300000D01*
X168300000Y-98300000D02*
X168300000Y-102800000D01*
X168300000Y-102800000D02*
X170434000Y-104934000D01*
%TO.N,+3.3V*%
X164338000Y-89759000D02*
X164338000Y-89738000D01*
X164338000Y-89738000D02*
X160500000Y-85900000D01*
X160500000Y-85900000D02*
X160500000Y-84582000D01*
X160500000Y-84582000D02*
X160500000Y-85850000D01*
X160500000Y-85850000D02*
X157850000Y-88500000D01*
X157850000Y-88500000D02*
X155500000Y-88500000D01*
%TO.N,Net-(SW1A-D)*%
X171500000Y-91075000D02*
X173425000Y-91075000D01*
X173425000Y-91075000D02*
X173500000Y-91000000D01*
%TO.N,IO16*%
X170053984Y-99314984D02*
X171704000Y-100965000D01*
X175075000Y-100965000D02*
X177500000Y-98540000D01*
X170000000Y-93300000D02*
X170053984Y-93353984D01*
X170053984Y-93353984D02*
X170053984Y-99314984D01*
X171704000Y-100965000D02*
X175075000Y-100965000D01*
%TO.N,GPIO0*%
X166878000Y-84709000D02*
X166878000Y-81828000D01*
X166878000Y-81828000D02*
X166400000Y-81350000D01*
X166400000Y-81350000D02*
X164950000Y-81350000D01*
%TO.N,+3.3V*%
X164000000Y-81350000D02*
X160966000Y-81350000D01*
X160966000Y-81350000D02*
X160500000Y-81816000D01*
X160500000Y-81816000D02*
X160500000Y-84582000D01*
%TO.N,Fet LOAD GND*%
X152908000Y-102362000D02*
X153670000Y-101600000D01*
X153670000Y-101600000D02*
X153670000Y-99822000D01*
X153670000Y-99822000D02*
X154432000Y-99060000D01*
X154432000Y-99060000D02*
X162844000Y-99060000D01*
X162844000Y-99060000D02*
X162915600Y-99131600D01*
%TO.N,nRST*%
X158242000Y-81026000D02*
X146558000Y-81026000D01*
X146558000Y-81026000D02*
X145542000Y-82042000D01*
X145542000Y-82042000D02*
X145542000Y-86868000D01*
X145542000Y-86868000D02*
X142240000Y-90170000D01*
%TO.N,IO14*%
X182880000Y-105410000D02*
X178155600Y-105410000D01*
X178155600Y-105410000D02*
X175006000Y-108559600D01*
X175006000Y-108559600D02*
X175006000Y-109000000D01*
%TO.N,Net-(J9-Pin_4)*%
X162306000Y-106060000D02*
X162570400Y-106060000D01*
X162570400Y-106060000D02*
X162661600Y-106151200D01*
X162661600Y-106151200D02*
X162661600Y-106358400D01*
X162661600Y-106358400D02*
X160020000Y-109000000D01*
%TO.N,GND LP*%
X162915600Y-101731600D02*
X164236400Y-103052400D01*
X164236400Y-103052400D02*
X164236400Y-104673400D01*
X164236400Y-104673400D02*
X165960000Y-106397000D01*
%TO.N,Net-(JP3-C)*%
X162915600Y-100431600D02*
X160068400Y-100431600D01*
X160068400Y-100431600D02*
X160000000Y-100500000D01*
%TO.N,Net-(J9-Pin_3)*%
X164185600Y-98044000D02*
X163423600Y-97282000D01*
X163423600Y-97282000D02*
X161861754Y-97282000D01*
X161861754Y-97282000D02*
X160800000Y-96220246D01*
X160800000Y-96220246D02*
X160800000Y-95400000D01*
%TO.N,+3.3V*%
X171500000Y-93075000D02*
X170627000Y-92202000D01*
X170627000Y-92202000D02*
X169283000Y-92202000D01*
X169283000Y-92202000D02*
X167505000Y-93980000D01*
X167505000Y-93980000D02*
X165989000Y-93980000D01*
X164338000Y-92329000D02*
X164338000Y-89759000D01*
X165989000Y-93980000D02*
X164338000Y-92329000D01*
%TO.N,nRST*%
X166370000Y-92964000D02*
X166878000Y-92456000D01*
X166878000Y-92456000D02*
X166878000Y-89759000D01*
%TO.N,IO12*%
X142240000Y-95250000D02*
X145542000Y-91948000D01*
X145542000Y-91948000D02*
X154051000Y-91948000D01*
X154051000Y-91948000D02*
X154876500Y-91122500D01*
X154876500Y-91122500D02*
X158813500Y-91122500D01*
%TO.N,V Sense*%
X144526000Y-90424000D02*
X142240000Y-92710000D01*
X153416000Y-90424000D02*
X144526000Y-90424000D01*
%TO.N,IO13*%
X182880000Y-95250000D02*
X182756000Y-95250000D01*
%TO.N,IO12*%
X159500000Y-95400000D02*
X159500000Y-91809000D01*
X159500000Y-91809000D02*
X158813500Y-91122500D01*
%TO.N,GND LP*%
X165960000Y-106397000D02*
X165100000Y-107257000D01*
X165100000Y-107257000D02*
X165100000Y-109000000D01*
%TO.N,+3.3V*%
X156083000Y-88519000D02*
X152763500Y-88519000D01*
X152763500Y-88519000D02*
X152692500Y-88590000D01*
%TO.N,Net-(Q1-G)*%
X151511000Y-100584000D02*
X151511000Y-98511000D01*
X151511000Y-98511000D02*
X148500000Y-95500000D01*
%TO.N,V Sense*%
X158500000Y-83000000D02*
X153757500Y-83000000D01*
X153757500Y-83000000D02*
X151667500Y-85090000D01*
%TO.N,+3.3V*%
X177500000Y-96000000D02*
X176650000Y-96850000D01*
X176650000Y-96850000D02*
X172796000Y-96850000D01*
X172796000Y-96850000D02*
X171500000Y-95554000D01*
X171500000Y-95554000D02*
X171500000Y-93075000D01*
%TO.N,GND LP*%
X165960000Y-106397000D02*
X166058000Y-106299000D01*
X166058000Y-106299000D02*
X173863000Y-106299000D01*
X173863000Y-106299000D02*
X174600000Y-105562000D01*
X174600000Y-105562000D02*
X174600000Y-105100000D01*
%TO.N,Net-(R8-Pad1)*%
X153810000Y-95770000D02*
X155182000Y-95770000D01*
X155182000Y-95770000D02*
X156000000Y-94952000D01*
X156000000Y-94952000D02*
X156000000Y-93000000D01*
%TO.N,Net-(D1-K)*%
X148500000Y-93500000D02*
X147800000Y-93500000D01*
X147800000Y-93500000D02*
X146939000Y-94361000D01*
X148971000Y-102971000D02*
X149000000Y-103000000D01*
X146939000Y-94361000D02*
X146939000Y-98044000D01*
X146939000Y-98044000D02*
X148971000Y-100076000D01*
X148971000Y-100076000D02*
X148971000Y-102971000D01*
%TO.N,Net-(Q1-G)*%
X151511000Y-100584000D02*
X151511000Y-102989000D01*
X151511000Y-102989000D02*
X151500000Y-103000000D01*
%TO.N,V Sense*%
X149667500Y-85090000D02*
X151667500Y-85090000D01*
%TO.N,VIN*%
X147612500Y-88590000D02*
X147612500Y-85145000D01*
X147612500Y-85145000D02*
X147667500Y-85090000D01*
%TO.N,TXD*%
X173500000Y-83000000D02*
X173500000Y-85677000D01*
X173500000Y-85677000D02*
X169418000Y-89759000D01*
%TO.N,+3.3V*%
X168500000Y-109000000D02*
X172880000Y-109000000D01*
D37*
%TO.N,Net-(D1-A)*%
X151500000Y-105000000D02*
X149050000Y-105000000D01*
X149050000Y-105000000D02*
X149000000Y-105050000D01*
D36*
%TO.N,RXD*%
X171069000Y-80772000D02*
X169418000Y-82423000D01*
X173708000Y-80772000D02*
X171069000Y-80772000D01*
X169418000Y-82423000D02*
X169418000Y-84709000D01*
X173708000Y-80772000D02*
X181102000Y-80772000D01*
X181102000Y-80772000D02*
X182880000Y-82550000D01*
%TD*%
%TA.AperFunction,Conductor*%
%TO.N,GND*%
G36*
X177354054Y-104902184D02*
G01*
X177399809Y-104954988D01*
X177409753Y-105024146D01*
X177380728Y-105087702D01*
X177374696Y-105094180D01*
X174698221Y-107770655D01*
X174642636Y-107802748D01*
X174576670Y-107820424D01*
X174378361Y-107912898D01*
X174378357Y-107912900D01*
X174199121Y-108038402D01*
X174044402Y-108193121D01*
X173918900Y-108372357D01*
X173918898Y-108372361D01*
X173848382Y-108523583D01*
X173802209Y-108576022D01*
X173735016Y-108595174D01*
X173668135Y-108574958D01*
X173623618Y-108523583D01*
X173584044Y-108438717D01*
X173553102Y-108372362D01*
X173553100Y-108372359D01*
X173553099Y-108372357D01*
X173427599Y-108193124D01*
X173352950Y-108118475D01*
X173272877Y-108038402D01*
X173093639Y-107912898D01*
X173093640Y-107912898D01*
X173093638Y-107912897D01*
X172994484Y-107866661D01*
X172895330Y-107820425D01*
X172895326Y-107820424D01*
X172895322Y-107820422D01*
X172683977Y-107763793D01*
X172466002Y-107744723D01*
X172465998Y-107744723D01*
X172320682Y-107757436D01*
X172248023Y-107763793D01*
X172248020Y-107763793D01*
X172036677Y-107820422D01*
X172036670Y-107820424D01*
X172036670Y-107820425D01*
X172033391Y-107821954D01*
X171838361Y-107912898D01*
X171838357Y-107912900D01*
X171659121Y-108038402D01*
X171509343Y-108188181D01*
X171448020Y-108221666D01*
X171421662Y-108224500D01*
X169013197Y-108224500D01*
X168946158Y-108204815D01*
X168900403Y-108152011D01*
X168890723Y-108119897D01*
X168890498Y-108118475D01*
X168875646Y-108024696D01*
X168818050Y-107911658D01*
X168818046Y-107911654D01*
X168818045Y-107911652D01*
X168728347Y-107821954D01*
X168728344Y-107821952D01*
X168728342Y-107821950D01*
X168651517Y-107782805D01*
X168615301Y-107764352D01*
X168521524Y-107749500D01*
X166758482Y-107749500D01*
X166677519Y-107762323D01*
X166664696Y-107764354D01*
X166551658Y-107821950D01*
X166551657Y-107821951D01*
X166551652Y-107821954D01*
X166461954Y-107911652D01*
X166461951Y-107911657D01*
X166461950Y-107911658D01*
X166446089Y-107942787D01*
X166404352Y-108024698D01*
X166389500Y-108118475D01*
X166389500Y-108268138D01*
X166369815Y-108335177D01*
X166317011Y-108380932D01*
X166247853Y-108390876D01*
X166184297Y-108361851D01*
X166163925Y-108339261D01*
X166061597Y-108193121D01*
X165911819Y-108043343D01*
X165878334Y-107982020D01*
X165875500Y-107955662D01*
X165875500Y-107629584D01*
X165895185Y-107562545D01*
X165911819Y-107541903D01*
X166342903Y-107110819D01*
X166404226Y-107077334D01*
X166430584Y-107074500D01*
X173939381Y-107074500D01*
X173939382Y-107074499D01*
X174089205Y-107044698D01*
X174230337Y-106986239D01*
X174357352Y-106901370D01*
X175202370Y-106056353D01*
X175286388Y-105930609D01*
X175340001Y-105885804D01*
X175389491Y-105875500D01*
X175646381Y-105875500D01*
X175646382Y-105875499D01*
X175796205Y-105845698D01*
X175937337Y-105787239D01*
X176064352Y-105702370D01*
X176847903Y-104918817D01*
X176909226Y-104885333D01*
X176935584Y-104882499D01*
X177287015Y-104882499D01*
X177354054Y-104902184D01*
G37*
%TD.AperFunction*%
%TA.AperFunction,Conductor*%
G36*
X164464874Y-98799211D02*
G01*
X164520051Y-98842074D01*
X164543296Y-98907963D01*
X164539680Y-98945041D01*
X164527866Y-98991690D01*
X164527864Y-98991702D01*
X164508700Y-99222993D01*
X164508700Y-99223006D01*
X164527864Y-99454297D01*
X164527866Y-99454308D01*
X164584842Y-99679300D01*
X164678075Y-99891848D01*
X164805016Y-100086147D01*
X164805019Y-100086151D01*
X164805021Y-100086153D01*
X164962216Y-100256913D01*
X164962219Y-100256915D01*
X164962222Y-100256918D01*
X165145365Y-100399464D01*
X165145371Y-100399468D01*
X165145374Y-100399470D01*
X165349497Y-100509936D01*
X165463487Y-100549068D01*
X165569015Y-100585297D01*
X165569017Y-100585297D01*
X165569019Y-100585298D01*
X165797951Y-100623500D01*
X165797952Y-100623500D01*
X166030048Y-100623500D01*
X166030049Y-100623500D01*
X166258981Y-100585298D01*
X166478503Y-100509936D01*
X166682626Y-100399470D01*
X166685515Y-100397222D01*
X166829538Y-100285124D01*
X166865784Y-100256913D01*
X167022979Y-100086153D01*
X167149924Y-99891849D01*
X167243157Y-99679300D01*
X167280294Y-99532651D01*
X167315834Y-99472495D01*
X167378254Y-99441103D01*
X167447738Y-99448441D01*
X167502223Y-99492180D01*
X167524412Y-99558433D01*
X167524500Y-99563091D01*
X167524500Y-102876384D01*
X167554300Y-103026197D01*
X167554302Y-103026205D01*
X167612759Y-103167334D01*
X167612764Y-103167343D01*
X167697629Y-103294351D01*
X167697632Y-103294355D01*
X169691945Y-105288667D01*
X169718825Y-105328895D01*
X169728415Y-105352047D01*
X169735884Y-105421516D01*
X169704609Y-105483995D01*
X169644521Y-105519648D01*
X169613854Y-105523500D01*
X166234585Y-105523500D01*
X166167546Y-105503815D01*
X166146904Y-105487181D01*
X165893928Y-105234205D01*
X165860443Y-105172882D01*
X165865427Y-105103190D01*
X165907299Y-105047257D01*
X165970802Y-105022996D01*
X166140599Y-105008141D01*
X166140610Y-105008139D01*
X166360317Y-104949269D01*
X166360331Y-104949264D01*
X166566478Y-104853136D01*
X166639471Y-104802024D01*
X166084234Y-104246787D01*
X166126292Y-104235518D01*
X166251708Y-104163110D01*
X166354110Y-104060708D01*
X166426518Y-103935292D01*
X166437787Y-103893234D01*
X166993024Y-104448471D01*
X167044136Y-104375478D01*
X167140264Y-104169331D01*
X167140269Y-104169317D01*
X167199139Y-103949610D01*
X167199141Y-103949599D01*
X167218966Y-103723002D01*
X167218966Y-103722997D01*
X167199141Y-103496400D01*
X167199139Y-103496389D01*
X167140269Y-103276682D01*
X167140264Y-103276668D01*
X167044136Y-103070521D01*
X167044132Y-103070513D01*
X166993025Y-102997526D01*
X166437787Y-103552764D01*
X166426518Y-103510708D01*
X166354110Y-103385292D01*
X166251708Y-103282890D01*
X166126292Y-103210482D01*
X166084234Y-103199212D01*
X166639472Y-102643974D01*
X166566478Y-102592863D01*
X166360331Y-102496735D01*
X166360317Y-102496730D01*
X166140610Y-102437860D01*
X166140599Y-102437858D01*
X165914002Y-102418034D01*
X165913998Y-102418034D01*
X165687400Y-102437858D01*
X165687389Y-102437860D01*
X165467682Y-102496730D01*
X165467673Y-102496734D01*
X165261516Y-102592866D01*
X165261512Y-102592868D01*
X165093180Y-102710736D01*
X165026974Y-102733063D01*
X164959207Y-102716053D01*
X164918955Y-102678052D01*
X164838770Y-102558046D01*
X164107419Y-101826695D01*
X164073934Y-101765372D01*
X164071100Y-101739014D01*
X164071100Y-101181601D01*
X164071100Y-101181600D01*
X164054369Y-101075970D01*
X164054369Y-101037181D01*
X164066100Y-100963119D01*
X164066099Y-99900082D01*
X164066099Y-99900078D01*
X164059895Y-99860915D01*
X164054369Y-99826019D01*
X164054369Y-99787228D01*
X164071100Y-99681600D01*
X164071100Y-99059711D01*
X164056929Y-98961146D01*
X164066873Y-98891988D01*
X164112628Y-98839184D01*
X164179667Y-98819500D01*
X164261981Y-98819500D01*
X164261981Y-98819499D01*
X164395284Y-98792984D01*
X164464874Y-98799211D01*
G37*
%TD.AperFunction*%
%TA.AperFunction,Conductor*%
G36*
X169280703Y-99508870D02*
G01*
X169314061Y-99555131D01*
X169366741Y-99682314D01*
X169366748Y-99682327D01*
X169451613Y-99809335D01*
X169451616Y-99809339D01*
X171101630Y-101459352D01*
X171163600Y-101521322D01*
X171209649Y-101567371D01*
X171336656Y-101652235D01*
X171336665Y-101652240D01*
X171368636Y-101665482D01*
X171477795Y-101710698D01*
X171620149Y-101739014D01*
X171627615Y-101740499D01*
X171627619Y-101740500D01*
X171627620Y-101740500D01*
X175151381Y-101740500D01*
X175151382Y-101740499D01*
X175301205Y-101710698D01*
X175442337Y-101652239D01*
X175569352Y-101567370D01*
X176082899Y-101053821D01*
X176144222Y-101020337D01*
X176213913Y-101025321D01*
X176269847Y-101067192D01*
X176294108Y-101130696D01*
X176309793Y-101309975D01*
X176309793Y-101309979D01*
X176366422Y-101521322D01*
X176366424Y-101521326D01*
X176366425Y-101521330D01*
X176401366Y-101596262D01*
X176458897Y-101719638D01*
X176473504Y-101740499D01*
X176584402Y-101898877D01*
X176739123Y-102053598D01*
X176885263Y-102155926D01*
X176928887Y-102210502D01*
X176936079Y-102280001D01*
X176904557Y-102342355D01*
X176844327Y-102377769D01*
X176814139Y-102381500D01*
X176664482Y-102381500D01*
X176583519Y-102394323D01*
X176570696Y-102396354D01*
X176457658Y-102453950D01*
X176457657Y-102453951D01*
X176457652Y-102453954D01*
X176367954Y-102543652D01*
X176367951Y-102543657D01*
X176367950Y-102543658D01*
X176356937Y-102565273D01*
X176310352Y-102656698D01*
X176295500Y-102750475D01*
X176295500Y-103226414D01*
X176275815Y-103293453D01*
X176259181Y-103314095D01*
X175415095Y-104158181D01*
X175353772Y-104191666D01*
X175327414Y-104194500D01*
X174923637Y-104194500D01*
X174912133Y-104193677D01*
X174912125Y-104193801D01*
X174907710Y-104193485D01*
X174907709Y-104193485D01*
X174792292Y-104193485D01*
X174792288Y-104193485D01*
X174787879Y-104193801D01*
X174787870Y-104193677D01*
X174776366Y-104194500D01*
X174423634Y-104194500D01*
X174412129Y-104193677D01*
X174412121Y-104193801D01*
X174407711Y-104193485D01*
X174407708Y-104193485D01*
X174292291Y-104193485D01*
X174292289Y-104193485D01*
X174287875Y-104193801D01*
X174287866Y-104193677D01*
X174276363Y-104194500D01*
X173850000Y-104194500D01*
X173812516Y-104200436D01*
X173743224Y-104191481D01*
X173689773Y-104146484D01*
X173669134Y-104079732D01*
X173673346Y-104045869D01*
X173699140Y-103949606D01*
X173699141Y-103949599D01*
X173718966Y-103723002D01*
X173718966Y-103722997D01*
X173699141Y-103496400D01*
X173699139Y-103496389D01*
X173640269Y-103276682D01*
X173640264Y-103276668D01*
X173544136Y-103070521D01*
X173544132Y-103070513D01*
X173493025Y-102997526D01*
X172937787Y-103552764D01*
X172926518Y-103510708D01*
X172854110Y-103385292D01*
X172751708Y-103282890D01*
X172626292Y-103210482D01*
X172584234Y-103199212D01*
X173139472Y-102643974D01*
X173066478Y-102592863D01*
X172860331Y-102496735D01*
X172860317Y-102496730D01*
X172640610Y-102437860D01*
X172640599Y-102437858D01*
X172414002Y-102418034D01*
X172413998Y-102418034D01*
X172187400Y-102437858D01*
X172187389Y-102437860D01*
X171967682Y-102496730D01*
X171967673Y-102496734D01*
X171761516Y-102592866D01*
X171761512Y-102592868D01*
X171688526Y-102643973D01*
X171688526Y-102643974D01*
X172243765Y-103199212D01*
X172201708Y-103210482D01*
X172076292Y-103282890D01*
X171973890Y-103385292D01*
X171901482Y-103510708D01*
X171890212Y-103552764D01*
X171334974Y-102997526D01*
X171334973Y-102997526D01*
X171283868Y-103070512D01*
X171283866Y-103070516D01*
X171187734Y-103276673D01*
X171187730Y-103276682D01*
X171128860Y-103496389D01*
X171128858Y-103496400D01*
X171109034Y-103722997D01*
X171109034Y-103723002D01*
X171128858Y-103949599D01*
X171128860Y-103949610D01*
X171187730Y-104169317D01*
X171187735Y-104169331D01*
X171269631Y-104344958D01*
X171279742Y-104411529D01*
X171332656Y-104448269D01*
X171334974Y-104448472D01*
X171890212Y-103893234D01*
X171901482Y-103935292D01*
X171973890Y-104060708D01*
X172076292Y-104163110D01*
X172201708Y-104235518D01*
X172243765Y-104246787D01*
X171688526Y-104802025D01*
X171761513Y-104853132D01*
X171761521Y-104853136D01*
X171967668Y-104949264D01*
X171967682Y-104949269D01*
X172187389Y-105008139D01*
X172187400Y-105008141D01*
X172413998Y-105027966D01*
X172414002Y-105027966D01*
X172640599Y-105008141D01*
X172640610Y-105008139D01*
X172860317Y-104949269D01*
X172860326Y-104949265D01*
X173066483Y-104853133D01*
X173066489Y-104853129D01*
X173249376Y-104725070D01*
X173315582Y-104702742D01*
X173383349Y-104719752D01*
X173431163Y-104770699D01*
X173444500Y-104826644D01*
X173444500Y-105171889D01*
X173460923Y-105286123D01*
X173460926Y-105286135D01*
X173483955Y-105364565D01*
X173483955Y-105434435D01*
X173446181Y-105493213D01*
X173382625Y-105522238D01*
X173364978Y-105523500D01*
X171254146Y-105523500D01*
X171187107Y-105503815D01*
X171141352Y-105451011D01*
X171131408Y-105381853D01*
X171139585Y-105352048D01*
X171179696Y-105255209D01*
X171179698Y-105255205D01*
X171209500Y-105105380D01*
X171209500Y-104857620D01*
X171179698Y-104707795D01*
X171125106Y-104576000D01*
X171118391Y-104513537D01*
X171064183Y-104479305D01*
X171054146Y-104466252D01*
X171053044Y-104464603D01*
X171036370Y-104439648D01*
X170928352Y-104331630D01*
X169111819Y-102515097D01*
X169078334Y-102453774D01*
X169075500Y-102427416D01*
X169075500Y-99602583D01*
X169095185Y-99535544D01*
X169147989Y-99489789D01*
X169217147Y-99479845D01*
X169280703Y-99508870D01*
G37*
%TD.AperFunction*%
%TA.AperFunction,Conductor*%
G36*
X180618333Y-102180901D02*
G01*
X180662680Y-102209402D01*
X181657829Y-103204551D01*
X181689922Y-103260136D01*
X181700424Y-103299328D01*
X181700424Y-103299329D01*
X181792897Y-103497638D01*
X181802049Y-103510708D01*
X181918402Y-103676877D01*
X182073123Y-103831598D01*
X182241646Y-103949599D01*
X182252361Y-103957102D01*
X182403583Y-104027618D01*
X182456022Y-104073790D01*
X182475174Y-104140984D01*
X182454958Y-104207865D01*
X182403583Y-104252382D01*
X182252361Y-104322898D01*
X182252357Y-104322900D01*
X182073121Y-104448402D01*
X181923343Y-104598181D01*
X181862020Y-104631666D01*
X181835662Y-104634500D01*
X178920500Y-104634500D01*
X178853461Y-104614815D01*
X178807706Y-104562011D01*
X178796500Y-104510500D01*
X178796500Y-104235518D01*
X178796499Y-103951582D01*
X178816183Y-103884544D01*
X178832813Y-103863907D01*
X180487322Y-102209399D01*
X180548641Y-102175917D01*
X180618333Y-102180901D01*
G37*
%TD.AperFunction*%
%TA.AperFunction,Conductor*%
G36*
X154936927Y-92261308D02*
G01*
X154992861Y-92303179D01*
X155017278Y-92368644D01*
X155012671Y-92412083D01*
X155002402Y-92447429D01*
X155002401Y-92447432D01*
X154999500Y-92484298D01*
X154999500Y-93515701D01*
X155002401Y-93552567D01*
X155002402Y-93552573D01*
X155048254Y-93710393D01*
X155048255Y-93710396D01*
X155126594Y-93842862D01*
X155131919Y-93851865D01*
X155188182Y-93908128D01*
X155221666Y-93969449D01*
X155224500Y-93995808D01*
X155224500Y-94579416D01*
X155204815Y-94646455D01*
X155188181Y-94667097D01*
X154897097Y-94958181D01*
X154835774Y-94991666D01*
X154809416Y-94994500D01*
X153733615Y-94994500D01*
X153583802Y-95024300D01*
X153583794Y-95024302D01*
X153442665Y-95082759D01*
X153442656Y-95082764D01*
X153315648Y-95167629D01*
X153315644Y-95167632D01*
X153207632Y-95275644D01*
X153207629Y-95275648D01*
X153122764Y-95402656D01*
X153122759Y-95402665D01*
X153064302Y-95543794D01*
X153064300Y-95543802D01*
X153034500Y-95693615D01*
X153034500Y-95846384D01*
X153064300Y-95996197D01*
X153064302Y-95996205D01*
X153122759Y-96137334D01*
X153122764Y-96137343D01*
X153207629Y-96264351D01*
X153207632Y-96264355D01*
X153315644Y-96372367D01*
X153315648Y-96372370D01*
X153442656Y-96457235D01*
X153442662Y-96457238D01*
X153442663Y-96457239D01*
X153583795Y-96515698D01*
X153733615Y-96545499D01*
X153733619Y-96545500D01*
X153733620Y-96545500D01*
X155258381Y-96545500D01*
X155258382Y-96545499D01*
X155408205Y-96515698D01*
X155549337Y-96457239D01*
X155676352Y-96372370D01*
X156602370Y-95446352D01*
X156687239Y-95319337D01*
X156745698Y-95178205D01*
X156775500Y-95028380D01*
X156775500Y-94875620D01*
X156775500Y-93995808D01*
X156795185Y-93928769D01*
X156811814Y-93908131D01*
X156868081Y-93851865D01*
X156893268Y-93809276D01*
X156944337Y-93761593D01*
X157013078Y-93749089D01*
X157077668Y-93775734D01*
X157106732Y-93809276D01*
X157131917Y-93851862D01*
X157131923Y-93851870D01*
X157248129Y-93968076D01*
X157248133Y-93968079D01*
X157248135Y-93968081D01*
X157389602Y-94051744D01*
X157414474Y-94058970D01*
X157547426Y-94097597D01*
X157547429Y-94097597D01*
X157547431Y-94097598D01*
X157584306Y-94100500D01*
X157584314Y-94100500D01*
X158415686Y-94100500D01*
X158415694Y-94100500D01*
X158452569Y-94097598D01*
X158452571Y-94097597D01*
X158452573Y-94097597D01*
X158565905Y-94064671D01*
X158635774Y-94064870D01*
X158694444Y-94102812D01*
X158723288Y-94166450D01*
X158724500Y-94183747D01*
X158724500Y-94643552D01*
X158706826Y-94703757D01*
X158708312Y-94704569D01*
X158706183Y-94708465D01*
X158646469Y-94839221D01*
X158646464Y-94839235D01*
X158613947Y-94949974D01*
X158613945Y-94949980D01*
X158593485Y-95092291D01*
X158593485Y-95207706D01*
X158593801Y-95212124D01*
X158593677Y-95212132D01*
X158594500Y-95223636D01*
X158594500Y-95576365D01*
X158593677Y-95587870D01*
X158593801Y-95587879D01*
X158593485Y-95592296D01*
X158593485Y-95707708D01*
X158613945Y-95850019D01*
X158613947Y-95850025D01*
X158646464Y-95960764D01*
X158646469Y-95960778D01*
X158706186Y-96091540D01*
X158706195Y-96091556D01*
X158768587Y-96188639D01*
X158768598Y-96188655D01*
X158862742Y-96297303D01*
X158862745Y-96297306D01*
X158949965Y-96372884D01*
X158949973Y-96372890D01*
X159070921Y-96450619D01*
X159070927Y-96450622D01*
X159175914Y-96498568D01*
X159313869Y-96539075D01*
X159428111Y-96555500D01*
X159428114Y-96555500D01*
X160025045Y-96555500D01*
X160092084Y-96575185D01*
X160128147Y-96610610D01*
X160197626Y-96714593D01*
X160197632Y-96714601D01*
X161367398Y-97884367D01*
X161367402Y-97884370D01*
X161494410Y-97969235D01*
X161494416Y-97969238D01*
X161494417Y-97969239D01*
X161635549Y-98027698D01*
X161658420Y-98032247D01*
X161691777Y-98038883D01*
X161753688Y-98071268D01*
X161788262Y-98131984D01*
X161784523Y-98201753D01*
X161743656Y-98258425D01*
X161678638Y-98284006D01*
X161667586Y-98284500D01*
X154355615Y-98284500D01*
X154205802Y-98314300D01*
X154205794Y-98314302D01*
X154064665Y-98372759D01*
X154064656Y-98372764D01*
X153937648Y-98457629D01*
X153937644Y-98457632D01*
X153365795Y-99029483D01*
X153175648Y-99219630D01*
X153121638Y-99273640D01*
X153067628Y-99327649D01*
X152982764Y-99454656D01*
X152982759Y-99454665D01*
X152924302Y-99595794D01*
X152924300Y-99595802D01*
X152894500Y-99745615D01*
X152894500Y-101227416D01*
X152874815Y-101294455D01*
X152858181Y-101315097D01*
X152498181Y-101675097D01*
X152436858Y-101708582D01*
X152367166Y-101703598D01*
X152311233Y-101661726D01*
X152286816Y-101596262D01*
X152286500Y-101587416D01*
X152286500Y-98434619D01*
X152286499Y-98434615D01*
X152256699Y-98284802D01*
X152256698Y-98284795D01*
X152198239Y-98143663D01*
X152198238Y-98143660D01*
X152113373Y-98016651D01*
X152113367Y-98016643D01*
X149636819Y-95540095D01*
X149603334Y-95478772D01*
X149600500Y-95452414D01*
X149600500Y-95084313D01*
X149600499Y-95084298D01*
X149600378Y-95082764D01*
X149597598Y-95047431D01*
X149592064Y-95028384D01*
X149556467Y-94905858D01*
X149551744Y-94889602D01*
X149468081Y-94748135D01*
X149468079Y-94748133D01*
X149468076Y-94748129D01*
X149351870Y-94631923D01*
X149351862Y-94631917D01*
X149309276Y-94606732D01*
X149261593Y-94555663D01*
X149249089Y-94486922D01*
X149275734Y-94422332D01*
X149309276Y-94393268D01*
X149311425Y-94391996D01*
X149351865Y-94368081D01*
X149468081Y-94251865D01*
X149551744Y-94110398D01*
X149597598Y-93952569D01*
X149600500Y-93915694D01*
X149600500Y-93084306D01*
X149597598Y-93047431D01*
X149585661Y-93006343D01*
X149549568Y-92882110D01*
X149552341Y-92881304D01*
X149546886Y-92823997D01*
X149578920Y-92761904D01*
X149639439Y-92726987D01*
X149668638Y-92723500D01*
X154127381Y-92723500D01*
X154127382Y-92723499D01*
X154277205Y-92693698D01*
X154418337Y-92635239D01*
X154545352Y-92550370D01*
X154805913Y-92289808D01*
X154867236Y-92256324D01*
X154936927Y-92261308D01*
G37*
%TD.AperFunction*%
%TA.AperFunction,Conductor*%
G36*
X174215084Y-91484151D02*
G01*
X174259432Y-91512652D01*
X176824145Y-94077367D01*
X176824149Y-94077370D01*
X176910092Y-94134795D01*
X176951164Y-94162238D01*
X176951167Y-94162240D01*
X176961331Y-94166450D01*
X177092297Y-94220698D01*
X177211958Y-94244500D01*
X177242117Y-94250499D01*
X177242121Y-94250500D01*
X177242122Y-94250500D01*
X178976381Y-94250500D01*
X178976382Y-94250499D01*
X179126205Y-94220698D01*
X179267337Y-94162239D01*
X179394352Y-94077370D01*
X179502370Y-93969352D01*
X179548959Y-93899627D01*
X179590624Y-93837272D01*
X179592650Y-93838626D01*
X179634075Y-93796433D01*
X179702208Y-93780954D01*
X179767894Y-93804768D01*
X179810278Y-93860314D01*
X179818500Y-93904714D01*
X179818500Y-100633415D01*
X179798815Y-100700454D01*
X179782181Y-100721096D01*
X178958967Y-101544309D01*
X178897644Y-101577794D01*
X178827952Y-101572810D01*
X178772019Y-101530938D01*
X178747602Y-101465474D01*
X178751511Y-101424534D01*
X178782207Y-101309977D01*
X178801277Y-101092000D01*
X178782207Y-100874023D01*
X178731499Y-100684777D01*
X178725577Y-100662677D01*
X178725576Y-100662676D01*
X178725575Y-100662670D01*
X178633102Y-100464362D01*
X178633100Y-100464359D01*
X178633099Y-100464357D01*
X178507599Y-100285124D01*
X178443615Y-100221140D01*
X178352877Y-100130402D01*
X178173639Y-100004898D01*
X178022414Y-99934381D01*
X177969977Y-99888210D01*
X177950825Y-99821016D01*
X177971041Y-99754135D01*
X178022414Y-99709618D01*
X178173639Y-99639102D01*
X178352877Y-99513598D01*
X178507598Y-99358877D01*
X178633102Y-99179639D01*
X178725575Y-98981330D01*
X178782207Y-98769977D01*
X178801277Y-98552000D01*
X178800268Y-98540472D01*
X178794747Y-98477359D01*
X178782207Y-98334023D01*
X178725575Y-98122670D01*
X178633102Y-97924362D01*
X178633100Y-97924359D01*
X178633099Y-97924357D01*
X178507599Y-97745124D01*
X178433891Y-97671416D01*
X178352877Y-97590402D01*
X178173639Y-97464898D01*
X178022414Y-97394381D01*
X177969977Y-97348210D01*
X177950825Y-97281016D01*
X177971041Y-97214135D01*
X178022414Y-97169618D01*
X178173639Y-97099102D01*
X178352877Y-96973598D01*
X178507598Y-96818877D01*
X178633102Y-96639639D01*
X178725575Y-96441330D01*
X178782207Y-96229977D01*
X178801277Y-96012000D01*
X178799894Y-95996197D01*
X178796795Y-95960767D01*
X178782207Y-95794023D01*
X178726968Y-95587870D01*
X178725577Y-95582677D01*
X178725576Y-95582676D01*
X178725575Y-95582670D01*
X178633102Y-95384362D01*
X178633100Y-95384359D01*
X178633099Y-95384357D01*
X178507599Y-95205124D01*
X178464277Y-95161802D01*
X178352877Y-95050402D01*
X178173639Y-94924898D01*
X178173640Y-94924898D01*
X178173638Y-94924897D01*
X178017750Y-94852206D01*
X177975330Y-94832425D01*
X177975326Y-94832424D01*
X177975322Y-94832422D01*
X177763977Y-94775793D01*
X177546002Y-94756723D01*
X177545998Y-94756723D01*
X177400682Y-94769436D01*
X177328023Y-94775793D01*
X177328020Y-94775793D01*
X177116677Y-94832422D01*
X177116670Y-94832424D01*
X177116670Y-94832425D01*
X177102096Y-94839221D01*
X176918361Y-94924898D01*
X176918357Y-94924900D01*
X176739121Y-95050402D01*
X176584402Y-95205121D01*
X176458900Y-95384357D01*
X176458898Y-95384361D01*
X176366426Y-95582668D01*
X176366422Y-95582677D01*
X176309793Y-95794020D01*
X176309793Y-95794023D01*
X176295205Y-95960767D01*
X176295158Y-95961307D01*
X176269706Y-96026376D01*
X176213115Y-96067355D01*
X176171630Y-96074500D01*
X174375582Y-96074500D01*
X174308543Y-96054815D01*
X174262788Y-96002011D01*
X174252844Y-95932853D01*
X174281869Y-95869297D01*
X174300656Y-95851697D01*
X174324562Y-95833567D01*
X174415920Y-95713095D01*
X174471386Y-95572443D01*
X174482000Y-95484053D01*
X174482000Y-95341000D01*
X173356000Y-95341000D01*
X173288961Y-95321315D01*
X173243206Y-95268511D01*
X173232000Y-95217000D01*
X173232000Y-94965000D01*
X173251685Y-94897961D01*
X173304489Y-94852206D01*
X173356000Y-94841000D01*
X174482000Y-94841000D01*
X174482000Y-94697946D01*
X174471386Y-94609556D01*
X174415920Y-94468904D01*
X174324564Y-94348435D01*
X174204090Y-94257075D01*
X174199719Y-94254618D01*
X174150932Y-94204603D01*
X174136929Y-94136150D01*
X174162158Y-94070995D01*
X174197374Y-94039801D01*
X174333859Y-93959085D01*
X174333863Y-93959082D01*
X174333865Y-93959081D01*
X174450081Y-93842865D01*
X174533744Y-93701398D01*
X174579598Y-93543569D01*
X174582500Y-93506694D01*
X174582500Y-92675306D01*
X174579598Y-92638431D01*
X174578669Y-92635235D01*
X174533745Y-92480606D01*
X174533744Y-92480603D01*
X174533744Y-92480602D01*
X174450081Y-92339135D01*
X174450079Y-92339133D01*
X174450076Y-92339129D01*
X174333870Y-92222923D01*
X174333862Y-92222917D01*
X174255681Y-92176681D01*
X174192398Y-92139256D01*
X174192397Y-92139255D01*
X174192396Y-92139255D01*
X174192393Y-92139254D01*
X174034573Y-92093402D01*
X174034567Y-92093401D01*
X173997701Y-92090500D01*
X173997694Y-92090500D01*
X173553812Y-92090500D01*
X173486773Y-92070815D01*
X173441018Y-92018011D01*
X173431074Y-91948853D01*
X173460099Y-91885297D01*
X173518877Y-91847523D01*
X173529621Y-91844883D01*
X173583817Y-91834102D01*
X173651205Y-91820698D01*
X173792337Y-91762239D01*
X173919352Y-91677370D01*
X174084073Y-91512649D01*
X174145393Y-91479167D01*
X174215084Y-91484151D01*
G37*
%TD.AperFunction*%
%TA.AperFunction,Conductor*%
G36*
X157478062Y-83795185D02*
G01*
X157523817Y-83847989D01*
X157533761Y-83917147D01*
X157530099Y-83934095D01*
X157502402Y-84029426D01*
X157502401Y-84029432D01*
X157499500Y-84066298D01*
X157499500Y-85097701D01*
X157502401Y-85134567D01*
X157502402Y-85134573D01*
X157548254Y-85292393D01*
X157548255Y-85292396D01*
X157548256Y-85292398D01*
X157557468Y-85307975D01*
X157631917Y-85433862D01*
X157631923Y-85433870D01*
X157748129Y-85550076D01*
X157748133Y-85550079D01*
X157748135Y-85550081D01*
X157889602Y-85633744D01*
X157912144Y-85640293D01*
X158047426Y-85679597D01*
X158047429Y-85679597D01*
X158047431Y-85679598D01*
X158084306Y-85682500D01*
X158084314Y-85682500D01*
X158915686Y-85682500D01*
X158915694Y-85682500D01*
X158952569Y-85679598D01*
X158952571Y-85679597D01*
X158952573Y-85679597D01*
X158994191Y-85667505D01*
X159110398Y-85633744D01*
X159251865Y-85550081D01*
X159368081Y-85433865D01*
X159393268Y-85391276D01*
X159444337Y-85343593D01*
X159513078Y-85331089D01*
X159577668Y-85357734D01*
X159606732Y-85391276D01*
X159631917Y-85433862D01*
X159631923Y-85433870D01*
X159637984Y-85439931D01*
X159671469Y-85501254D01*
X159666485Y-85570946D01*
X159637984Y-85615293D01*
X157565097Y-87688181D01*
X157503774Y-87721666D01*
X157477416Y-87724500D01*
X155423619Y-87724500D01*
X155376715Y-87733829D01*
X155340079Y-87741117D01*
X155315889Y-87743500D01*
X154054452Y-87743500D01*
X153987413Y-87723815D01*
X153941658Y-87671011D01*
X153931978Y-87638895D01*
X153930569Y-87630000D01*
X153928146Y-87614696D01*
X153870550Y-87501658D01*
X153870546Y-87501654D01*
X153870545Y-87501652D01*
X153780847Y-87411954D01*
X153780844Y-87411952D01*
X153780842Y-87411950D01*
X153683503Y-87362353D01*
X153667801Y-87354352D01*
X153574024Y-87339500D01*
X151810982Y-87339500D01*
X151730019Y-87352323D01*
X151717196Y-87354354D01*
X151604158Y-87411950D01*
X151604157Y-87411951D01*
X151604152Y-87411954D01*
X151514454Y-87501652D01*
X151514451Y-87501657D01*
X151514450Y-87501658D01*
X151498549Y-87532865D01*
X151456852Y-87614698D01*
X151442000Y-87708475D01*
X151442000Y-89471518D01*
X151447320Y-89505104D01*
X151438364Y-89574397D01*
X151393367Y-89627848D01*
X151326615Y-89648487D01*
X151324846Y-89648500D01*
X148621837Y-89648500D01*
X148554798Y-89628815D01*
X148509043Y-89576011D01*
X148499099Y-89506853D01*
X148528124Y-89443297D01*
X148534156Y-89436819D01*
X148552475Y-89418500D01*
X148574098Y-89396877D01*
X148699602Y-89217639D01*
X148792075Y-89019330D01*
X148848707Y-88807977D01*
X148867777Y-88590000D01*
X148848707Y-88372023D01*
X148792075Y-88160670D01*
X148699602Y-87962362D01*
X148699600Y-87962359D01*
X148699599Y-87962357D01*
X148574097Y-87783121D01*
X148424319Y-87633343D01*
X148390834Y-87572020D01*
X148388000Y-87545662D01*
X148388000Y-86140809D01*
X148407685Y-86073770D01*
X148424319Y-86053128D01*
X148535576Y-85941870D01*
X148535581Y-85941865D01*
X148560768Y-85899276D01*
X148611837Y-85851593D01*
X148680578Y-85839089D01*
X148745168Y-85865734D01*
X148774232Y-85899276D01*
X148799417Y-85941862D01*
X148799423Y-85941870D01*
X148915629Y-86058076D01*
X148915633Y-86058079D01*
X148915635Y-86058081D01*
X149057102Y-86141744D01*
X149098724Y-86153836D01*
X149214926Y-86187597D01*
X149214929Y-86187597D01*
X149214931Y-86187598D01*
X149251806Y-86190500D01*
X149251814Y-86190500D01*
X150083186Y-86190500D01*
X150083194Y-86190500D01*
X150120069Y-86187598D01*
X150120071Y-86187597D01*
X150120073Y-86187597D01*
X150175977Y-86171355D01*
X150277898Y-86141744D01*
X150419365Y-86058081D01*
X150535581Y-85941865D01*
X150541082Y-85932564D01*
X150544741Y-85926378D01*
X150595811Y-85878695D01*
X150651472Y-85865500D01*
X150683528Y-85865500D01*
X150750567Y-85885185D01*
X150790259Y-85926378D01*
X150799414Y-85941859D01*
X150799423Y-85941870D01*
X150915629Y-86058076D01*
X150915633Y-86058079D01*
X150915635Y-86058081D01*
X151057102Y-86141744D01*
X151098724Y-86153836D01*
X151214926Y-86187597D01*
X151214929Y-86187597D01*
X151214931Y-86187598D01*
X151251806Y-86190500D01*
X151251814Y-86190500D01*
X152083186Y-86190500D01*
X152083194Y-86190500D01*
X152120069Y-86187598D01*
X152120071Y-86187597D01*
X152120073Y-86187597D01*
X152175977Y-86171355D01*
X152277898Y-86141744D01*
X152419365Y-86058081D01*
X152535581Y-85941865D01*
X152558445Y-85903205D01*
X152616301Y-85805374D01*
X152667369Y-85757690D01*
X152736111Y-85745186D01*
X152800701Y-85771831D01*
X152831118Y-85807719D01*
X152833575Y-85812090D01*
X152924935Y-85932564D01*
X153045404Y-86023920D01*
X153186056Y-86079386D01*
X153274446Y-86090000D01*
X153417500Y-86090000D01*
X153917500Y-86090000D01*
X154060554Y-86090000D01*
X154148943Y-86079386D01*
X154289595Y-86023920D01*
X154410064Y-85932564D01*
X154501420Y-85812095D01*
X154556886Y-85671443D01*
X154567500Y-85583053D01*
X154567500Y-85340000D01*
X153917500Y-85340000D01*
X153917500Y-86090000D01*
X153417500Y-86090000D01*
X153417500Y-84964000D01*
X153437185Y-84896961D01*
X153489989Y-84851206D01*
X153541500Y-84840000D01*
X154567500Y-84840000D01*
X154567500Y-84596946D01*
X154556886Y-84508556D01*
X154501420Y-84367904D01*
X154410064Y-84247435D01*
X154289595Y-84156079D01*
X154148943Y-84100613D01*
X154060544Y-84089998D01*
X154056855Y-84089778D01*
X154056958Y-84088054D01*
X153996546Y-84070315D01*
X153950791Y-84017511D01*
X153940847Y-83948353D01*
X153969872Y-83884797D01*
X153975904Y-83878319D01*
X154042404Y-83811819D01*
X154103727Y-83778334D01*
X154130085Y-83775500D01*
X157411023Y-83775500D01*
X157478062Y-83795185D01*
G37*
%TD.AperFunction*%
%TA.AperFunction,Conductor*%
G36*
X157673039Y-72656185D02*
G01*
X157718794Y-72708989D01*
X157730000Y-72760500D01*
X157730000Y-79730000D01*
X173970000Y-79730000D01*
X173970000Y-78197052D01*
X178497379Y-78197052D01*
X178497379Y-78197059D01*
X178517574Y-78376305D01*
X178517575Y-78376310D01*
X178577155Y-78546579D01*
X178628952Y-78629013D01*
X178673128Y-78699318D01*
X178800682Y-78826872D01*
X178953422Y-78922845D01*
X179123689Y-78982424D01*
X179123694Y-78982425D01*
X179302940Y-79002621D01*
X179302944Y-79002621D01*
X179302948Y-79002621D01*
X179482193Y-78982425D01*
X179482196Y-78982424D01*
X179482199Y-78982424D01*
X179652466Y-78922845D01*
X179805206Y-78826872D01*
X179932760Y-78699318D01*
X180000279Y-78591861D01*
X180034101Y-78561946D01*
X180182471Y-78561946D01*
X180185515Y-78563299D01*
X180223887Y-78621688D01*
X180224599Y-78691554D01*
X180222314Y-78698788D01*
X180214633Y-78720739D01*
X180214630Y-78720750D01*
X180194435Y-78899996D01*
X180194435Y-78900003D01*
X180214630Y-79079249D01*
X180214631Y-79079254D01*
X180274211Y-79249523D01*
X180370184Y-79402262D01*
X180497738Y-79529816D01*
X180650478Y-79625789D01*
X180820745Y-79685368D01*
X180820750Y-79685369D01*
X180999996Y-79705565D01*
X181000000Y-79705565D01*
X181000004Y-79705565D01*
X181179249Y-79685369D01*
X181179252Y-79685368D01*
X181179255Y-79685368D01*
X181349522Y-79625789D01*
X181502262Y-79529816D01*
X181629816Y-79402262D01*
X181725789Y-79249522D01*
X181785368Y-79079255D01*
X181793583Y-79006343D01*
X181805565Y-78900003D01*
X181805565Y-78899996D01*
X181785369Y-78720750D01*
X181785368Y-78720748D01*
X181785368Y-78720745D01*
X181777685Y-78698790D01*
X181774123Y-78629013D01*
X181808851Y-78568385D01*
X181823695Y-78560667D01*
X181756633Y-78554494D01*
X181733448Y-78536388D01*
X181873358Y-78536388D01*
X181940419Y-78542560D01*
X181995488Y-78585563D01*
X181999720Y-78591862D01*
X182067238Y-78699316D01*
X182067240Y-78699318D01*
X182194794Y-78826872D01*
X182347534Y-78922845D01*
X182517801Y-78982424D01*
X182517806Y-78982425D01*
X182697052Y-79002621D01*
X182697056Y-79002621D01*
X182697060Y-79002621D01*
X182876305Y-78982425D01*
X182876308Y-78982424D01*
X182876311Y-78982424D01*
X183046578Y-78922845D01*
X183199318Y-78826872D01*
X183326872Y-78699318D01*
X183422845Y-78546578D01*
X183482424Y-78376311D01*
X183482425Y-78376305D01*
X183502621Y-78197059D01*
X183502621Y-78197052D01*
X183482425Y-78017806D01*
X183482424Y-78017801D01*
X183422845Y-77847534D01*
X183326872Y-77694794D01*
X183199318Y-77567240D01*
X183199316Y-77567238D01*
X183091862Y-77499720D01*
X183045572Y-77447386D01*
X183035108Y-77379527D01*
X183033756Y-77382571D01*
X182975366Y-77420943D01*
X182905500Y-77421655D01*
X182898266Y-77419370D01*
X182876313Y-77411688D01*
X182876305Y-77411686D01*
X182697060Y-77391491D01*
X182697052Y-77391491D01*
X182517806Y-77411686D01*
X182517801Y-77411687D01*
X182347532Y-77471267D01*
X182194793Y-77567240D01*
X182067240Y-77694793D01*
X181971267Y-77847532D01*
X181911687Y-78017801D01*
X181911686Y-78017806D01*
X181891491Y-78197052D01*
X181891491Y-78197059D01*
X181911686Y-78376305D01*
X181911688Y-78376313D01*
X181919370Y-78398266D01*
X181922931Y-78468044D01*
X181888202Y-78528672D01*
X181873358Y-78536388D01*
X181733448Y-78536388D01*
X181701566Y-78511490D01*
X181697334Y-78505192D01*
X181645768Y-78423126D01*
X181629816Y-78397738D01*
X181502262Y-78270184D01*
X181349523Y-78174211D01*
X181179254Y-78114631D01*
X181179249Y-78114630D01*
X181000004Y-78094435D01*
X180999996Y-78094435D01*
X180820750Y-78114630D01*
X180820745Y-78114631D01*
X180650476Y-78174211D01*
X180497737Y-78270184D01*
X180370184Y-78397737D01*
X180370182Y-78397740D01*
X180302664Y-78505193D01*
X180250329Y-78551484D01*
X180182471Y-78561946D01*
X180034101Y-78561946D01*
X180052613Y-78545572D01*
X180120470Y-78535108D01*
X180117427Y-78533756D01*
X180079056Y-78475365D01*
X180078344Y-78405499D01*
X180080631Y-78398262D01*
X180088310Y-78376316D01*
X180088311Y-78376313D01*
X180088312Y-78376311D01*
X180088313Y-78376305D01*
X180108509Y-78197059D01*
X180108509Y-78197052D01*
X180088313Y-78017806D01*
X180088312Y-78017801D01*
X180028733Y-77847534D01*
X179932760Y-77694794D01*
X179805206Y-77567240D01*
X179697749Y-77499720D01*
X179652467Y-77471267D01*
X179482198Y-77411687D01*
X179482193Y-77411686D01*
X179302948Y-77391491D01*
X179302940Y-77391491D01*
X179123694Y-77411686D01*
X179123683Y-77411689D01*
X179101732Y-77419370D01*
X179031953Y-77422931D01*
X178971326Y-77388201D01*
X178963610Y-77373358D01*
X178957439Y-77440418D01*
X178914437Y-77495487D01*
X178908137Y-77499720D01*
X178800684Y-77567238D01*
X178800681Y-77567240D01*
X178673128Y-77694793D01*
X178577155Y-77847532D01*
X178517575Y-78017801D01*
X178517574Y-78017806D01*
X178497379Y-78197052D01*
X173970000Y-78197052D01*
X173970000Y-76499996D01*
X177794435Y-76499996D01*
X177794435Y-76500003D01*
X177814630Y-76679249D01*
X177814631Y-76679254D01*
X177874211Y-76849523D01*
X177934901Y-76946110D01*
X177970184Y-77002262D01*
X178097738Y-77129816D01*
X178250478Y-77225789D01*
X178388609Y-77274123D01*
X178420745Y-77285368D01*
X178420750Y-77285369D01*
X178599996Y-77305565D01*
X178600000Y-77305565D01*
X178600004Y-77305565D01*
X178779249Y-77285369D01*
X178779251Y-77285368D01*
X178779255Y-77285368D01*
X178801206Y-77277686D01*
X178870985Y-77274123D01*
X178931613Y-77308850D01*
X178939331Y-77323696D01*
X178945506Y-77256632D01*
X178988510Y-77201565D01*
X178994795Y-77197342D01*
X179102262Y-77129816D01*
X179229816Y-77002262D01*
X179325789Y-76849522D01*
X179385368Y-76679255D01*
X179405565Y-76500000D01*
X179405565Y-76499996D01*
X182594435Y-76499996D01*
X182594435Y-76500003D01*
X182614630Y-76679249D01*
X182614631Y-76679254D01*
X182674211Y-76849523D01*
X182734901Y-76946110D01*
X182770184Y-77002262D01*
X182897738Y-77129816D01*
X182975789Y-77178859D01*
X183005192Y-77197334D01*
X183051483Y-77249669D01*
X183061946Y-77317527D01*
X183063299Y-77314484D01*
X183121689Y-77276112D01*
X183191555Y-77275400D01*
X183198782Y-77277683D01*
X183220745Y-77285368D01*
X183220748Y-77285368D01*
X183220750Y-77285369D01*
X183399996Y-77305565D01*
X183400000Y-77305565D01*
X183400004Y-77305565D01*
X183579249Y-77285369D01*
X183579252Y-77285368D01*
X183579255Y-77285368D01*
X183749522Y-77225789D01*
X183902262Y-77129816D01*
X184029816Y-77002262D01*
X184125789Y-76849522D01*
X184185368Y-76679255D01*
X184205565Y-76500000D01*
X184199931Y-76450000D01*
X188386551Y-76450000D01*
X188406317Y-76701151D01*
X188465126Y-76946110D01*
X188561533Y-77178859D01*
X188693160Y-77393653D01*
X188693161Y-77393656D01*
X188733100Y-77440418D01*
X188856776Y-77585224D01*
X188969521Y-77681517D01*
X189048343Y-77748838D01*
X189048346Y-77748839D01*
X189263140Y-77880466D01*
X189282155Y-77888342D01*
X189495889Y-77976873D01*
X189740852Y-78035683D01*
X189992000Y-78055449D01*
X190243148Y-78035683D01*
X190488111Y-77976873D01*
X190720859Y-77880466D01*
X190935659Y-77748836D01*
X191127224Y-77585224D01*
X191290836Y-77393659D01*
X191422466Y-77178859D01*
X191518873Y-76946111D01*
X191577683Y-76701148D01*
X191597449Y-76450000D01*
X191577683Y-76198852D01*
X191518873Y-75953889D01*
X191422466Y-75721140D01*
X191290839Y-75506346D01*
X191290838Y-75506343D01*
X191227991Y-75432759D01*
X191127224Y-75314776D01*
X190937185Y-75152467D01*
X190935656Y-75151161D01*
X190935653Y-75151160D01*
X190720859Y-75019533D01*
X190488110Y-74923126D01*
X190243151Y-74864317D01*
X189992000Y-74844551D01*
X189740848Y-74864317D01*
X189495889Y-74923126D01*
X189263140Y-75019533D01*
X189048346Y-75151160D01*
X189048343Y-75151161D01*
X188856776Y-75314776D01*
X188693161Y-75506343D01*
X188693160Y-75506346D01*
X188561533Y-75721140D01*
X188465126Y-75953889D01*
X188406317Y-76198848D01*
X188386551Y-76450000D01*
X184199931Y-76450000D01*
X184185369Y-76320750D01*
X184185368Y-76320745D01*
X184125788Y-76150476D01*
X184029815Y-75997737D01*
X183902262Y-75870184D01*
X183749523Y-75774211D01*
X183579254Y-75714631D01*
X183579249Y-75714630D01*
X183400004Y-75694435D01*
X183399996Y-75694435D01*
X183220750Y-75714630D01*
X183220739Y-75714633D01*
X183198788Y-75722314D01*
X183129009Y-75725875D01*
X183068382Y-75691145D01*
X183060666Y-75676302D01*
X183054495Y-75743362D01*
X183011493Y-75798431D01*
X183005193Y-75802664D01*
X182897740Y-75870182D01*
X182897737Y-75870184D01*
X182770184Y-75997737D01*
X182674211Y-76150476D01*
X182614631Y-76320745D01*
X182614630Y-76320750D01*
X182594435Y-76499996D01*
X179405565Y-76499996D01*
X179399931Y-76450000D01*
X179385369Y-76320750D01*
X179385368Y-76320745D01*
X179325788Y-76150476D01*
X179229815Y-75997737D01*
X179102260Y-75870182D01*
X178994806Y-75802664D01*
X178948516Y-75750330D01*
X178938052Y-75682471D01*
X178936700Y-75685515D01*
X178878310Y-75723887D01*
X178808444Y-75724599D01*
X178801210Y-75722314D01*
X178779257Y-75714632D01*
X178779249Y-75714630D01*
X178600004Y-75694435D01*
X178599996Y-75694435D01*
X178420750Y-75714630D01*
X178420745Y-75714631D01*
X178250476Y-75774211D01*
X178097737Y-75870184D01*
X177970184Y-75997737D01*
X177874211Y-76150476D01*
X177814631Y-76320745D01*
X177814630Y-76320750D01*
X177794435Y-76499996D01*
X173970000Y-76499996D01*
X173970000Y-74802940D01*
X178497379Y-74802940D01*
X178497379Y-74802947D01*
X178517574Y-74982193D01*
X178517575Y-74982198D01*
X178577155Y-75152467D01*
X178673128Y-75305206D01*
X178800682Y-75432760D01*
X178883848Y-75485016D01*
X178908136Y-75500278D01*
X178954427Y-75552613D01*
X178964890Y-75620471D01*
X178966243Y-75617428D01*
X179024633Y-75579056D01*
X179094499Y-75578344D01*
X179101726Y-75580627D01*
X179123689Y-75588312D01*
X179123692Y-75588312D01*
X179123694Y-75588313D01*
X179302940Y-75608509D01*
X179302944Y-75608509D01*
X179302948Y-75608509D01*
X179482193Y-75588313D01*
X179482196Y-75588312D01*
X179482199Y-75588312D01*
X179652466Y-75528733D01*
X179805206Y-75432760D01*
X179932760Y-75305206D01*
X180028733Y-75152466D01*
X180088312Y-74982199D01*
X180095100Y-74921954D01*
X180108509Y-74802947D01*
X180108509Y-74802940D01*
X180088313Y-74623694D01*
X180088312Y-74623692D01*
X180088312Y-74623689D01*
X180080629Y-74601734D01*
X180077067Y-74531957D01*
X180111795Y-74471329D01*
X180126639Y-74463611D01*
X180059577Y-74457438D01*
X180036392Y-74439332D01*
X180176302Y-74439332D01*
X180243363Y-74445504D01*
X180298432Y-74488507D01*
X180302664Y-74494806D01*
X180370182Y-74602260D01*
X180370184Y-74602262D01*
X180497738Y-74729816D01*
X180650478Y-74825789D01*
X180820745Y-74885368D01*
X180820750Y-74885369D01*
X180999996Y-74905565D01*
X181000000Y-74905565D01*
X181000004Y-74905565D01*
X181179249Y-74885369D01*
X181179252Y-74885368D01*
X181179255Y-74885368D01*
X181349522Y-74825789D01*
X181502262Y-74729816D01*
X181629816Y-74602262D01*
X181697335Y-74494805D01*
X181731157Y-74464890D01*
X181879527Y-74464890D01*
X181882571Y-74466243D01*
X181920943Y-74524632D01*
X181921655Y-74594498D01*
X181919370Y-74601732D01*
X181911689Y-74623683D01*
X181911686Y-74623694D01*
X181891491Y-74802940D01*
X181891491Y-74802947D01*
X181911686Y-74982193D01*
X181911687Y-74982198D01*
X181971267Y-75152467D01*
X182067240Y-75305206D01*
X182194794Y-75432760D01*
X182285136Y-75489526D01*
X182311900Y-75506343D01*
X182347534Y-75528733D01*
X182485665Y-75577067D01*
X182517801Y-75588312D01*
X182517806Y-75588313D01*
X182697052Y-75608509D01*
X182697056Y-75608509D01*
X182697060Y-75608509D01*
X182876305Y-75588313D01*
X182876307Y-75588312D01*
X182876311Y-75588312D01*
X182898262Y-75580630D01*
X182968041Y-75577067D01*
X183028669Y-75611794D01*
X183036387Y-75626640D01*
X183042562Y-75559576D01*
X183085566Y-75504509D01*
X183091851Y-75500286D01*
X183199318Y-75432760D01*
X183326872Y-75305206D01*
X183422845Y-75152466D01*
X183482424Y-74982199D01*
X183489212Y-74921954D01*
X183502621Y-74802947D01*
X183502621Y-74802940D01*
X183482425Y-74623694D01*
X183482424Y-74623689D01*
X183454960Y-74545201D01*
X183422845Y-74453422D01*
X183420394Y-74449522D01*
X183371048Y-74370988D01*
X183326872Y-74300682D01*
X183199318Y-74173128D01*
X183046579Y-74077155D01*
X182876310Y-74017575D01*
X182876305Y-74017574D01*
X182697060Y-73997379D01*
X182697052Y-73997379D01*
X182517806Y-74017574D01*
X182517801Y-74017575D01*
X182347532Y-74077155D01*
X182194793Y-74173128D01*
X182067240Y-74300681D01*
X182067238Y-74300684D01*
X181999720Y-74408137D01*
X181947385Y-74454428D01*
X181879527Y-74464890D01*
X181731157Y-74464890D01*
X181749669Y-74448516D01*
X181817526Y-74438052D01*
X181814483Y-74436700D01*
X181776112Y-74378309D01*
X181775400Y-74308443D01*
X181777687Y-74301206D01*
X181785366Y-74279260D01*
X181785367Y-74279257D01*
X181785368Y-74279255D01*
X181785369Y-74279249D01*
X181805565Y-74100003D01*
X181805565Y-74099996D01*
X181785369Y-73920750D01*
X181785368Y-73920745D01*
X181725788Y-73750476D01*
X181629815Y-73597737D01*
X181502262Y-73470184D01*
X181349523Y-73374211D01*
X181179254Y-73314631D01*
X181179249Y-73314630D01*
X181000004Y-73294435D01*
X180999996Y-73294435D01*
X180820750Y-73314630D01*
X180820745Y-73314631D01*
X180650476Y-73374211D01*
X180497737Y-73470184D01*
X180370184Y-73597737D01*
X180274211Y-73750476D01*
X180214631Y-73920745D01*
X180214630Y-73920750D01*
X180194435Y-74099996D01*
X180194435Y-74100003D01*
X180214630Y-74279249D01*
X180214632Y-74279257D01*
X180222314Y-74301210D01*
X180225875Y-74370988D01*
X180191146Y-74431616D01*
X180176302Y-74439332D01*
X180036392Y-74439332D01*
X180004510Y-74414434D01*
X180000278Y-74408136D01*
X179976936Y-74370988D01*
X179932760Y-74300682D01*
X179805206Y-74173128D01*
X179652467Y-74077155D01*
X179482198Y-74017575D01*
X179482193Y-74017574D01*
X179302948Y-73997379D01*
X179302940Y-73997379D01*
X179123694Y-74017574D01*
X179123689Y-74017575D01*
X178953420Y-74077155D01*
X178800681Y-74173128D01*
X178673128Y-74300681D01*
X178577155Y-74453420D01*
X178517575Y-74623689D01*
X178517574Y-74623694D01*
X178497379Y-74802940D01*
X173970000Y-74802940D01*
X173970000Y-72760500D01*
X173989685Y-72693461D01*
X174042489Y-72647706D01*
X174094000Y-72636500D01*
X192260108Y-72636500D01*
X192322249Y-72636500D01*
X192329736Y-72636726D01*
X192619796Y-72654271D01*
X192634657Y-72656075D01*
X192838662Y-72693461D01*
X192916798Y-72707780D01*
X192931335Y-72711363D01*
X193205172Y-72796695D01*
X193219163Y-72802000D01*
X193480743Y-72919727D01*
X193493989Y-72926680D01*
X193739465Y-73075075D01*
X193751776Y-73083573D01*
X193977573Y-73260473D01*
X193988781Y-73270403D01*
X194191596Y-73473218D01*
X194201526Y-73484426D01*
X194321481Y-73637538D01*
X194378422Y-73710217D01*
X194386928Y-73722540D01*
X194535316Y-73968004D01*
X194542275Y-73981263D01*
X194659997Y-74242831D01*
X194665306Y-74256832D01*
X194750635Y-74530663D01*
X194754219Y-74545201D01*
X194805923Y-74827340D01*
X194807728Y-74842205D01*
X194825274Y-75132263D01*
X194825500Y-75139750D01*
X194825500Y-108756249D01*
X194825274Y-108763736D01*
X194807728Y-109053794D01*
X194805923Y-109068659D01*
X194754219Y-109350798D01*
X194750635Y-109365336D01*
X194665306Y-109639167D01*
X194659997Y-109653168D01*
X194542275Y-109914736D01*
X194535316Y-109927995D01*
X194386928Y-110173459D01*
X194378422Y-110185782D01*
X194201526Y-110411573D01*
X194191596Y-110422781D01*
X193988781Y-110625596D01*
X193977573Y-110635526D01*
X193751782Y-110812422D01*
X193739459Y-110820928D01*
X193493995Y-110969316D01*
X193480736Y-110976275D01*
X193219168Y-111093997D01*
X193205167Y-111099306D01*
X192931336Y-111184635D01*
X192916798Y-111188219D01*
X192634659Y-111239923D01*
X192619794Y-111241728D01*
X192329736Y-111259274D01*
X192322249Y-111259500D01*
X133051751Y-111259500D01*
X133044264Y-111259274D01*
X132754205Y-111241728D01*
X132739340Y-111239923D01*
X132457201Y-111188219D01*
X132442663Y-111184635D01*
X132168832Y-111099306D01*
X132154831Y-111093997D01*
X131893263Y-110976275D01*
X131880004Y-110969316D01*
X131857120Y-110955482D01*
X131634537Y-110820926D01*
X131622217Y-110812422D01*
X131579258Y-110778766D01*
X131408590Y-110645056D01*
X131396426Y-110635526D01*
X131385218Y-110625596D01*
X131182403Y-110422781D01*
X131172473Y-110411573D01*
X131069831Y-110280560D01*
X130995573Y-110185776D01*
X130987075Y-110173465D01*
X130838680Y-109927989D01*
X130831727Y-109914743D01*
X130714000Y-109653163D01*
X130708693Y-109639167D01*
X130705100Y-109627638D01*
X130623363Y-109365335D01*
X130619780Y-109350798D01*
X130568076Y-109068659D01*
X130566271Y-109053794D01*
X130548726Y-108763736D01*
X130548500Y-108756249D01*
X130548500Y-107949994D01*
X133724459Y-107949994D01*
X133724459Y-107950005D01*
X133744985Y-108197729D01*
X133744987Y-108197738D01*
X133806012Y-108438717D01*
X133905866Y-108666364D01*
X134006164Y-108819882D01*
X134664987Y-108161059D01*
X134670489Y-108181591D01*
X134749481Y-108318408D01*
X134861192Y-108430119D01*
X134998009Y-108509111D01*
X135018540Y-108514612D01*
X134359542Y-109173609D01*
X134406368Y-109210055D01*
X134406370Y-109210056D01*
X134624985Y-109328364D01*
X134624996Y-109328369D01*
X134860106Y-109409083D01*
X135105307Y-109450000D01*
X135353893Y-109450000D01*
X135599093Y-109409083D01*
X135834203Y-109328369D01*
X135834214Y-109328364D01*
X136052828Y-109210057D01*
X136052831Y-109210055D01*
X136099656Y-109173609D01*
X135926045Y-108999998D01*
X143544518Y-108999998D01*
X143544518Y-109000001D01*
X143564422Y-109278299D01*
X143623637Y-109550500D01*
X143623729Y-109550923D01*
X143664688Y-109660738D01*
X143721231Y-109812338D01*
X143721233Y-109812342D01*
X143854940Y-110057207D01*
X143854945Y-110057215D01*
X144022138Y-110280560D01*
X144022154Y-110280578D01*
X144219421Y-110477845D01*
X144219439Y-110477861D01*
X144442784Y-110645054D01*
X144442792Y-110645059D01*
X144687657Y-110778766D01*
X144687661Y-110778768D01*
X144687663Y-110778769D01*
X144949077Y-110876271D01*
X145085391Y-110905924D01*
X145221700Y-110935577D01*
X145221702Y-110935577D01*
X145221706Y-110935578D01*
X145469014Y-110953265D01*
X145499999Y-110955482D01*
X145500000Y-110955482D01*
X145500001Y-110955482D01*
X145527881Y-110953487D01*
X145778294Y-110935578D01*
X146050923Y-110876271D01*
X146312337Y-110778769D01*
X146557213Y-110645056D01*
X146780568Y-110477855D01*
X146977855Y-110280568D01*
X147145056Y-110057213D01*
X147278769Y-109812337D01*
X147376271Y-109550923D01*
X147435578Y-109278294D01*
X147455482Y-109000000D01*
X147435578Y-108721706D01*
X147429574Y-108694108D01*
X147402722Y-108570668D01*
X147376271Y-108449077D01*
X147278769Y-108187663D01*
X147275453Y-108181591D01*
X147145059Y-107942792D01*
X147145054Y-107942784D01*
X146977861Y-107719439D01*
X146977845Y-107719421D01*
X146780578Y-107522154D01*
X146780560Y-107522138D01*
X146557215Y-107354945D01*
X146557207Y-107354940D01*
X146312342Y-107221233D01*
X146312338Y-107221231D01*
X146203441Y-107180615D01*
X146050923Y-107123729D01*
X146050919Y-107123728D01*
X146050916Y-107123727D01*
X145778299Y-107064422D01*
X145500001Y-107044518D01*
X145499999Y-107044518D01*
X145221700Y-107064422D01*
X144949083Y-107123727D01*
X144949078Y-107123728D01*
X144949077Y-107123729D01*
X144885875Y-107147301D01*
X144687661Y-107221231D01*
X144687657Y-107221233D01*
X144442792Y-107354940D01*
X144442784Y-107354945D01*
X144219439Y-107522138D01*
X144219421Y-107522154D01*
X144022154Y-107719421D01*
X144022138Y-107719439D01*
X143854945Y-107942784D01*
X143854940Y-107942792D01*
X143721233Y-108187657D01*
X143721231Y-108187661D01*
X143623727Y-108449083D01*
X143564422Y-108721700D01*
X143544518Y-108999998D01*
X135926045Y-108999998D01*
X135440659Y-108514612D01*
X135461191Y-108509111D01*
X135598008Y-108430119D01*
X135709719Y-108318408D01*
X135788711Y-108181591D01*
X135794212Y-108161060D01*
X136453034Y-108819882D01*
X136553331Y-108666369D01*
X136653187Y-108438717D01*
X136714212Y-108197738D01*
X136714214Y-108197729D01*
X136734741Y-107950005D01*
X136734741Y-107949994D01*
X136714214Y-107702270D01*
X136714212Y-107702261D01*
X136653187Y-107461282D01*
X136553331Y-107233630D01*
X136453034Y-107080116D01*
X135794212Y-107738939D01*
X135788711Y-107718409D01*
X135709719Y-107581592D01*
X135598008Y-107469881D01*
X135461191Y-107390889D01*
X135440660Y-107385387D01*
X136099657Y-106726390D01*
X136099656Y-106726389D01*
X136052829Y-106689943D01*
X135834214Y-106571635D01*
X135834203Y-106571630D01*
X135599093Y-106490916D01*
X135353893Y-106450000D01*
X135105307Y-106450000D01*
X134860106Y-106490916D01*
X134624996Y-106571630D01*
X134624990Y-106571632D01*
X134406361Y-106689949D01*
X134359542Y-106726388D01*
X134359542Y-106726390D01*
X135018540Y-107385387D01*
X134998009Y-107390889D01*
X134861192Y-107469881D01*
X134749481Y-107581592D01*
X134670489Y-107718409D01*
X134664987Y-107738939D01*
X134006164Y-107080116D01*
X133905867Y-107233632D01*
X133806012Y-107461282D01*
X133744987Y-107702261D01*
X133744985Y-107702270D01*
X133724459Y-107949994D01*
X130548500Y-107949994D01*
X130548500Y-104450000D01*
X133624151Y-104450000D01*
X133643917Y-104701151D01*
X133702726Y-104946110D01*
X133799133Y-105178859D01*
X133930760Y-105393653D01*
X133930761Y-105393656D01*
X133954556Y-105421516D01*
X134094376Y-105585224D01*
X134231533Y-105702367D01*
X134285943Y-105748838D01*
X134285946Y-105748839D01*
X134500740Y-105880466D01*
X134672822Y-105951744D01*
X134733489Y-105976873D01*
X134978452Y-106035683D01*
X135229600Y-106055449D01*
X135480748Y-106035683D01*
X135725711Y-105976873D01*
X135958459Y-105880466D01*
X136173259Y-105748836D01*
X136364824Y-105585224D01*
X136528436Y-105393659D01*
X136660066Y-105178859D01*
X136756473Y-104946111D01*
X136815283Y-104701148D01*
X136835049Y-104450000D01*
X136815283Y-104198852D01*
X136756473Y-103953889D01*
X136741637Y-103918071D01*
X136660066Y-103721140D01*
X136528439Y-103506346D01*
X136528438Y-103506343D01*
X136461158Y-103427569D01*
X136364824Y-103314776D01*
X136198826Y-103173000D01*
X136173256Y-103151161D01*
X136173253Y-103151160D01*
X135958459Y-103019533D01*
X135725710Y-102923126D01*
X135480751Y-102864317D01*
X135229600Y-102844551D01*
X134978448Y-102864317D01*
X134733489Y-102923126D01*
X134500740Y-103019533D01*
X134285946Y-103151160D01*
X134285943Y-103151161D01*
X134094376Y-103314776D01*
X133930761Y-103506343D01*
X133930760Y-103506346D01*
X133799133Y-103721140D01*
X133702726Y-103953889D01*
X133643917Y-104198848D01*
X133624151Y-104450000D01*
X130548500Y-104450000D01*
X130548500Y-100950000D01*
X133624151Y-100950000D01*
X133643917Y-101201151D01*
X133702726Y-101446110D01*
X133799133Y-101678859D01*
X133930760Y-101893653D01*
X133930761Y-101893656D01*
X133986204Y-101958571D01*
X134094376Y-102085224D01*
X134239770Y-102209402D01*
X134285943Y-102248838D01*
X134285946Y-102248839D01*
X134500740Y-102380466D01*
X134700624Y-102463260D01*
X134733489Y-102476873D01*
X134978452Y-102535683D01*
X135229600Y-102555449D01*
X135480748Y-102535683D01*
X135725711Y-102476873D01*
X135958459Y-102380466D01*
X136173259Y-102248836D01*
X136364824Y-102085224D01*
X136528436Y-101893659D01*
X136660066Y-101678859D01*
X136756473Y-101446111D01*
X136815283Y-101201148D01*
X136835049Y-100950000D01*
X136815283Y-100698852D01*
X136756473Y-100453889D01*
X136705157Y-100330000D01*
X136660066Y-100221140D01*
X136528439Y-100006346D01*
X136528438Y-100006343D01*
X136438184Y-99900670D01*
X136364824Y-99814776D01*
X136206202Y-99679300D01*
X136173256Y-99651161D01*
X136173253Y-99651160D01*
X135958459Y-99519533D01*
X135725710Y-99423126D01*
X135480751Y-99364317D01*
X135229600Y-99344551D01*
X134978448Y-99364317D01*
X134733489Y-99423126D01*
X134500740Y-99519533D01*
X134285946Y-99651160D01*
X134285943Y-99651161D01*
X134094376Y-99814776D01*
X133930761Y-100006343D01*
X133930760Y-100006346D01*
X133799133Y-100221140D01*
X133702726Y-100453889D01*
X133643917Y-100698848D01*
X133624151Y-100950000D01*
X130548500Y-100950000D01*
X130548500Y-97450000D01*
X133624151Y-97450000D01*
X133643917Y-97701151D01*
X133702726Y-97946110D01*
X133799133Y-98178859D01*
X133930760Y-98393653D01*
X133930761Y-98393656D01*
X133951244Y-98417638D01*
X134094376Y-98585224D01*
X134197862Y-98673609D01*
X134285943Y-98748838D01*
X134285946Y-98748839D01*
X134500740Y-98880466D01*
X134715870Y-98969575D01*
X134733489Y-98976873D01*
X134978452Y-99035683D01*
X135229600Y-99055449D01*
X135480748Y-99035683D01*
X135725711Y-98976873D01*
X135958459Y-98880466D01*
X136173259Y-98748836D01*
X136364824Y-98585224D01*
X136528436Y-98393659D01*
X136660066Y-98178859D01*
X136756473Y-97946111D01*
X136815283Y-97701148D01*
X136835049Y-97450000D01*
X136815283Y-97198852D01*
X136756473Y-96953889D01*
X136700551Y-96818881D01*
X136660066Y-96721140D01*
X136534169Y-96515697D01*
X136528438Y-96506345D01*
X136528438Y-96506343D01*
X136486499Y-96457239D01*
X136364824Y-96314776D01*
X136220941Y-96191888D01*
X136173256Y-96151161D01*
X136173253Y-96151160D01*
X135958459Y-96019533D01*
X135725710Y-95923126D01*
X135480751Y-95864317D01*
X135229600Y-95844551D01*
X134978448Y-95864317D01*
X134733489Y-95923126D01*
X134500740Y-96019533D01*
X134285946Y-96151160D01*
X134285943Y-96151161D01*
X134094376Y-96314776D01*
X133930761Y-96506343D01*
X133930760Y-96506346D01*
X133799133Y-96721140D01*
X133702726Y-96953889D01*
X133643917Y-97198848D01*
X133624151Y-97450000D01*
X130548500Y-97450000D01*
X130548500Y-93950000D01*
X133624151Y-93950000D01*
X133643917Y-94201151D01*
X133702726Y-94446110D01*
X133799133Y-94678859D01*
X133930760Y-94893653D01*
X133930761Y-94893656D01*
X133957446Y-94924900D01*
X134094376Y-95085224D01*
X134203243Y-95178205D01*
X134285943Y-95248838D01*
X134285945Y-95248838D01*
X134287844Y-95250002D01*
X134500740Y-95380466D01*
X134712007Y-95467975D01*
X134733489Y-95476873D01*
X134978452Y-95535683D01*
X135229600Y-95555449D01*
X135480748Y-95535683D01*
X135725711Y-95476873D01*
X135958459Y-95380466D01*
X136173259Y-95248836D01*
X136364824Y-95085224D01*
X136528436Y-94893659D01*
X136660066Y-94678859D01*
X136756473Y-94446111D01*
X136815283Y-94201148D01*
X136835049Y-93950000D01*
X136815283Y-93698852D01*
X136756473Y-93453889D01*
X136708321Y-93337639D01*
X136660066Y-93221140D01*
X136528439Y-93006346D01*
X136528438Y-93006343D01*
X136491475Y-92963066D01*
X136364824Y-92814776D01*
X136201526Y-92675306D01*
X136173256Y-92651161D01*
X136173253Y-92651160D01*
X135958459Y-92519533D01*
X135725710Y-92423126D01*
X135480751Y-92364317D01*
X135229600Y-92344551D01*
X134978448Y-92364317D01*
X134733489Y-92423126D01*
X134500740Y-92519533D01*
X134285946Y-92651160D01*
X134285943Y-92651161D01*
X134094376Y-92814776D01*
X133930761Y-93006343D01*
X133930760Y-93006346D01*
X133799133Y-93221140D01*
X133702726Y-93453889D01*
X133643917Y-93698848D01*
X133624151Y-93950000D01*
X130548500Y-93950000D01*
X130548500Y-90450000D01*
X133624151Y-90450000D01*
X133643917Y-90701151D01*
X133702726Y-90946110D01*
X133799133Y-91178859D01*
X133930760Y-91393653D01*
X133930761Y-91393656D01*
X133971183Y-91440984D01*
X134094376Y-91585224D01*
X134205654Y-91680264D01*
X134285943Y-91748838D01*
X134285946Y-91748839D01*
X134500740Y-91880466D01*
X134651910Y-91943082D01*
X134733489Y-91976873D01*
X134978452Y-92035683D01*
X135229600Y-92055449D01*
X135480748Y-92035683D01*
X135725711Y-91976873D01*
X135958459Y-91880466D01*
X136173259Y-91748836D01*
X136364824Y-91585224D01*
X136528436Y-91393659D01*
X136660066Y-91178859D01*
X136756473Y-90946111D01*
X136815283Y-90701148D01*
X136835049Y-90450000D01*
X136815283Y-90198852D01*
X136756473Y-89953889D01*
X136714892Y-89853502D01*
X136660066Y-89721140D01*
X136528439Y-89506346D01*
X136528438Y-89506343D01*
X136474591Y-89443297D01*
X136364824Y-89314776D01*
X136188676Y-89164331D01*
X136173256Y-89151161D01*
X136173253Y-89151160D01*
X135958459Y-89019533D01*
X135725710Y-88923126D01*
X135480751Y-88864317D01*
X135229600Y-88844551D01*
X134978448Y-88864317D01*
X134733489Y-88923126D01*
X134500740Y-89019533D01*
X134285946Y-89151160D01*
X134285943Y-89151161D01*
X134094376Y-89314776D01*
X133930761Y-89506343D01*
X133930760Y-89506346D01*
X133799133Y-89721140D01*
X133702726Y-89953889D01*
X133643917Y-90198848D01*
X133624151Y-90450000D01*
X130548500Y-90450000D01*
X130548500Y-86950000D01*
X133624151Y-86950000D01*
X133643917Y-87201151D01*
X133702726Y-87446110D01*
X133799133Y-87678859D01*
X133930760Y-87893653D01*
X133930761Y-87893656D01*
X133930764Y-87893659D01*
X134094376Y-88085224D01*
X134242666Y-88211875D01*
X134285943Y-88248838D01*
X134285946Y-88248839D01*
X134500740Y-88380466D01*
X134636939Y-88436881D01*
X134733489Y-88476873D01*
X134978452Y-88535683D01*
X135229600Y-88555449D01*
X135480748Y-88535683D01*
X135725711Y-88476873D01*
X135958459Y-88380466D01*
X136173259Y-88248836D01*
X136364824Y-88085224D01*
X136528436Y-87893659D01*
X136660066Y-87678859D01*
X136756473Y-87446111D01*
X136815283Y-87201148D01*
X136835049Y-86950000D01*
X136815283Y-86698852D01*
X136756473Y-86453889D01*
X136730223Y-86390515D01*
X136660066Y-86221140D01*
X136528439Y-86006346D01*
X136528438Y-86006343D01*
X136479027Y-85948491D01*
X136364824Y-85814776D01*
X136197003Y-85671443D01*
X136173256Y-85651161D01*
X136173253Y-85651160D01*
X135958459Y-85519533D01*
X135725710Y-85423126D01*
X135480751Y-85364317D01*
X135229600Y-85344551D01*
X134978448Y-85364317D01*
X134733489Y-85423126D01*
X134500740Y-85519533D01*
X134285946Y-85651160D01*
X134285943Y-85651161D01*
X134094376Y-85814776D01*
X133930761Y-86006343D01*
X133930760Y-86006346D01*
X133799133Y-86221140D01*
X133702726Y-86453889D01*
X133643917Y-86698848D01*
X133624151Y-86950000D01*
X130548500Y-86950000D01*
X130548500Y-85089997D01*
X140984723Y-85089997D01*
X140984723Y-85090002D01*
X140993141Y-85186222D01*
X141003481Y-85304416D01*
X141003793Y-85307975D01*
X141003793Y-85307979D01*
X141060422Y-85519322D01*
X141060424Y-85519326D01*
X141060425Y-85519330D01*
X141103660Y-85612047D01*
X141152897Y-85717638D01*
X141152898Y-85717639D01*
X141278402Y-85896877D01*
X141433123Y-86051598D01*
X141612361Y-86177102D01*
X141810670Y-86269575D01*
X141891766Y-86291304D01*
X141951425Y-86327668D01*
X141981955Y-86390515D01*
X141973661Y-86459891D01*
X141929176Y-86513769D01*
X141904466Y-86526706D01*
X141725207Y-86596150D01*
X141725201Y-86596153D01*
X141544002Y-86708346D01*
X141544000Y-86708348D01*
X141386500Y-86851928D01*
X141258061Y-87022008D01*
X141163067Y-87212781D01*
X141163062Y-87212794D01*
X141115487Y-87379999D01*
X141115488Y-87380000D01*
X141806988Y-87380000D01*
X141774075Y-87437007D01*
X141740000Y-87564174D01*
X141740000Y-87695826D01*
X141774075Y-87822993D01*
X141806988Y-87880000D01*
X141115488Y-87880000D01*
X141163062Y-88047205D01*
X141163067Y-88047218D01*
X141258061Y-88237991D01*
X141386500Y-88408071D01*
X141544000Y-88551651D01*
X141544002Y-88551653D01*
X141725201Y-88663846D01*
X141725210Y-88663850D01*
X141904465Y-88733293D01*
X141959867Y-88775866D01*
X141983458Y-88841632D01*
X141967747Y-88909713D01*
X141917723Y-88958492D01*
X141891766Y-88968695D01*
X141810675Y-88990423D01*
X141810668Y-88990426D01*
X141612361Y-89082898D01*
X141612357Y-89082900D01*
X141433121Y-89208402D01*
X141278402Y-89363121D01*
X141152900Y-89542357D01*
X141152898Y-89542361D01*
X141060426Y-89740668D01*
X141060422Y-89740677D01*
X141003793Y-89952020D01*
X141003793Y-89952024D01*
X140984723Y-90169997D01*
X140984723Y-90170002D01*
X141003793Y-90387975D01*
X141003793Y-90387979D01*
X141060422Y-90599322D01*
X141060424Y-90599326D01*
X141060425Y-90599330D01*
X141088392Y-90659306D01*
X141152897Y-90797638D01*
X141152898Y-90797639D01*
X141278402Y-90976877D01*
X141433123Y-91131598D01*
X141612360Y-91257101D01*
X141612361Y-91257102D01*
X141763583Y-91327618D01*
X141816022Y-91373790D01*
X141835174Y-91440984D01*
X141814958Y-91507865D01*
X141763583Y-91552382D01*
X141612361Y-91622898D01*
X141612357Y-91622900D01*
X141433121Y-91748402D01*
X141278402Y-91903121D01*
X141152900Y-92082357D01*
X141152898Y-92082361D01*
X141060426Y-92280668D01*
X141060422Y-92280677D01*
X141003793Y-92492020D01*
X141003793Y-92492024D01*
X140984723Y-92709997D01*
X140984723Y-92710002D01*
X141003793Y-92927975D01*
X141003793Y-92927979D01*
X141060422Y-93139322D01*
X141060424Y-93139326D01*
X141060425Y-93139330D01*
X141069168Y-93158079D01*
X141152897Y-93337638D01*
X141152898Y-93337639D01*
X141278402Y-93516877D01*
X141433123Y-93671598D01*
X141610944Y-93796110D01*
X141612361Y-93797102D01*
X141763583Y-93867618D01*
X141816022Y-93913790D01*
X141835174Y-93980984D01*
X141814958Y-94047865D01*
X141763583Y-94092382D01*
X141612361Y-94162898D01*
X141612357Y-94162900D01*
X141433121Y-94288402D01*
X141278402Y-94443121D01*
X141152900Y-94622357D01*
X141152898Y-94622361D01*
X141060426Y-94820668D01*
X141060422Y-94820677D01*
X141003793Y-95032020D01*
X141003793Y-95032023D01*
X141002445Y-95047431D01*
X140984723Y-95249997D01*
X140984723Y-95250002D01*
X140990962Y-95321315D01*
X141002431Y-95452414D01*
X141003793Y-95467975D01*
X141003793Y-95467979D01*
X141060422Y-95679322D01*
X141060424Y-95679326D01*
X141060425Y-95679330D01*
X141076170Y-95713095D01*
X141152897Y-95877638D01*
X141152898Y-95877639D01*
X141278402Y-96056877D01*
X141433123Y-96211598D01*
X141612360Y-96337101D01*
X141612361Y-96337102D01*
X141763583Y-96407618D01*
X141816022Y-96453790D01*
X141835174Y-96520984D01*
X141814958Y-96587865D01*
X141763583Y-96632382D01*
X141612361Y-96702898D01*
X141612357Y-96702900D01*
X141433121Y-96828402D01*
X141278402Y-96983121D01*
X141152900Y-97162357D01*
X141152898Y-97162361D01*
X141060426Y-97360668D01*
X141060422Y-97360677D01*
X141003793Y-97572020D01*
X141003793Y-97572024D01*
X140984723Y-97789997D01*
X140984723Y-97790002D01*
X140987155Y-97817795D01*
X140998380Y-97946110D01*
X141003793Y-98007975D01*
X141003793Y-98007979D01*
X141060422Y-98219322D01*
X141060424Y-98219326D01*
X141060425Y-98219330D01*
X141090952Y-98284795D01*
X141152897Y-98417638D01*
X141164788Y-98434620D01*
X141278402Y-98596877D01*
X141433123Y-98751598D01*
X141603499Y-98870897D01*
X141612361Y-98877102D01*
X141763583Y-98947618D01*
X141816022Y-98993790D01*
X141835174Y-99060984D01*
X141814958Y-99127865D01*
X141763583Y-99172382D01*
X141612361Y-99242898D01*
X141612357Y-99242900D01*
X141433121Y-99368402D01*
X141278402Y-99523121D01*
X141152900Y-99702357D01*
X141152898Y-99702361D01*
X141060426Y-99900668D01*
X141060422Y-99900677D01*
X141003793Y-100112020D01*
X141003793Y-100112024D01*
X140984723Y-100329997D01*
X140984723Y-100330002D01*
X141003793Y-100547975D01*
X141003793Y-100547979D01*
X141060422Y-100759322D01*
X141060424Y-100759326D01*
X141060425Y-100759330D01*
X141072067Y-100784296D01*
X141152897Y-100957638D01*
X141152898Y-100957639D01*
X141278402Y-101136877D01*
X141433123Y-101291598D01*
X141612360Y-101417101D01*
X141612361Y-101417102D01*
X141763583Y-101487618D01*
X141816022Y-101533790D01*
X141835174Y-101600984D01*
X141814958Y-101667865D01*
X141763583Y-101712382D01*
X141612361Y-101782898D01*
X141612357Y-101782900D01*
X141433121Y-101908402D01*
X141278402Y-102063121D01*
X141152900Y-102242357D01*
X141152898Y-102242361D01*
X141084238Y-102389603D01*
X141066606Y-102427416D01*
X141060426Y-102440668D01*
X141060422Y-102440677D01*
X141003793Y-102652020D01*
X141003793Y-102652024D01*
X140984723Y-102869997D01*
X140984723Y-102870002D01*
X140989371Y-102923126D01*
X141002265Y-103070516D01*
X141003793Y-103087975D01*
X141003793Y-103087979D01*
X141060422Y-103299322D01*
X141060424Y-103299326D01*
X141060425Y-103299330D01*
X141067310Y-103314095D01*
X141152897Y-103497638D01*
X141162049Y-103510708D01*
X141278402Y-103676877D01*
X141433123Y-103831598D01*
X141612361Y-103957102D01*
X141810670Y-104049575D01*
X141891766Y-104071304D01*
X141951425Y-104107668D01*
X141981955Y-104170515D01*
X141973661Y-104239891D01*
X141929176Y-104293769D01*
X141904466Y-104306706D01*
X141725207Y-104376150D01*
X141725201Y-104376153D01*
X141544002Y-104488346D01*
X141544000Y-104488348D01*
X141386500Y-104631928D01*
X141258061Y-104802008D01*
X141163067Y-104992781D01*
X141163062Y-104992794D01*
X141115487Y-105159999D01*
X141115488Y-105160000D01*
X141806988Y-105160000D01*
X141774075Y-105217007D01*
X141740000Y-105344174D01*
X141740000Y-105475826D01*
X141774075Y-105602993D01*
X141806988Y-105660000D01*
X141115488Y-105660000D01*
X141163062Y-105827205D01*
X141163067Y-105827218D01*
X141258061Y-106017991D01*
X141386500Y-106188071D01*
X141544000Y-106331651D01*
X141544002Y-106331653D01*
X141725201Y-106443846D01*
X141725207Y-106443849D01*
X141923941Y-106520838D01*
X141990000Y-106533186D01*
X141990000Y-105843012D01*
X142047007Y-105875925D01*
X142174174Y-105910000D01*
X142305826Y-105910000D01*
X142432993Y-105875925D01*
X142490000Y-105843012D01*
X142490000Y-106533185D01*
X142556058Y-106520838D01*
X142754792Y-106443849D01*
X142754798Y-106443846D01*
X142935997Y-106331653D01*
X142935999Y-106331651D01*
X143093499Y-106188071D01*
X143221938Y-106017991D01*
X143316932Y-105827218D01*
X143316937Y-105827205D01*
X143364512Y-105660000D01*
X142673012Y-105660000D01*
X142705925Y-105602993D01*
X142740000Y-105475826D01*
X142740000Y-105344174D01*
X142705925Y-105217007D01*
X142673012Y-105160000D01*
X143364512Y-105160000D01*
X143364512Y-105159999D01*
X143316937Y-104992794D01*
X143316932Y-104992781D01*
X143221938Y-104802008D01*
X143093499Y-104631928D01*
X142935999Y-104488348D01*
X142935997Y-104488346D01*
X142754798Y-104376153D01*
X142754792Y-104376150D01*
X142575533Y-104306706D01*
X142520132Y-104264133D01*
X142496541Y-104198366D01*
X142512252Y-104130286D01*
X142562276Y-104081507D01*
X142588231Y-104071305D01*
X142640153Y-104057393D01*
X142669320Y-104049578D01*
X142669321Y-104049577D01*
X142669330Y-104049575D01*
X142867639Y-103957102D01*
X143046877Y-103831598D01*
X143201598Y-103676877D01*
X143327102Y-103497639D01*
X143419575Y-103299330D01*
X143476207Y-103087977D01*
X143492805Y-102898254D01*
X143495277Y-102870002D01*
X143495277Y-102869997D01*
X143491445Y-102826195D01*
X143476207Y-102652023D01*
X143425561Y-102463010D01*
X143419577Y-102440677D01*
X143419576Y-102440676D01*
X143419575Y-102440670D01*
X143327102Y-102242362D01*
X143327100Y-102242359D01*
X143327099Y-102242357D01*
X143201599Y-102063124D01*
X143147997Y-102009522D01*
X143046877Y-101908402D01*
X142867639Y-101782898D01*
X142716414Y-101712381D01*
X142663977Y-101666210D01*
X142644825Y-101599016D01*
X142665041Y-101532135D01*
X142716414Y-101487618D01*
X142867639Y-101417102D01*
X143046877Y-101291598D01*
X143201598Y-101136877D01*
X143327102Y-100957639D01*
X143419575Y-100759330D01*
X143476207Y-100547977D01*
X143495277Y-100330000D01*
X143476207Y-100112023D01*
X143419575Y-99900670D01*
X143327102Y-99702362D01*
X143327100Y-99702359D01*
X143327099Y-99702357D01*
X143201599Y-99523124D01*
X143126916Y-99448441D01*
X143046877Y-99368402D01*
X142867639Y-99242898D01*
X142716414Y-99172381D01*
X142663977Y-99126210D01*
X142644825Y-99059016D01*
X142665041Y-98992135D01*
X142716414Y-98947618D01*
X142867639Y-98877102D01*
X143046877Y-98751598D01*
X143201598Y-98596877D01*
X143327102Y-98417639D01*
X143419575Y-98219330D01*
X143476207Y-98007977D01*
X143495277Y-97790000D01*
X143476207Y-97572023D01*
X143428608Y-97394382D01*
X143419577Y-97360677D01*
X143419576Y-97360676D01*
X143419575Y-97360670D01*
X143327102Y-97162362D01*
X143327100Y-97162359D01*
X143327099Y-97162357D01*
X143201599Y-96983124D01*
X143172364Y-96953889D01*
X143046877Y-96828402D01*
X142867639Y-96702898D01*
X142716414Y-96632381D01*
X142663977Y-96586210D01*
X142644825Y-96519016D01*
X142665041Y-96452135D01*
X142716414Y-96407618D01*
X142867639Y-96337102D01*
X143046877Y-96211598D01*
X143201598Y-96056877D01*
X143327102Y-95877639D01*
X143419575Y-95679330D01*
X143476207Y-95467977D01*
X143495277Y-95250000D01*
X143495175Y-95248839D01*
X143491577Y-95207708D01*
X143487560Y-95161799D01*
X143501326Y-95093302D01*
X143523404Y-95063316D01*
X145826904Y-92759819D01*
X145888227Y-92726334D01*
X145914585Y-92723500D01*
X147180415Y-92723500D01*
X147247454Y-92743185D01*
X147293209Y-92795989D01*
X147303153Y-92865147D01*
X147274128Y-92928703D01*
X147268096Y-92935181D01*
X146804658Y-93398620D01*
X146444648Y-93758630D01*
X146407168Y-93796110D01*
X146336628Y-93866649D01*
X146251764Y-93993656D01*
X146251759Y-93993665D01*
X146193303Y-94134793D01*
X146193302Y-94134795D01*
X146163500Y-94284615D01*
X146163500Y-98120384D01*
X146193300Y-98270197D01*
X146193302Y-98270205D01*
X146251759Y-98411334D01*
X146251764Y-98411343D01*
X146336629Y-98538351D01*
X146336632Y-98538355D01*
X148159181Y-100360903D01*
X148192666Y-100422226D01*
X148195500Y-100448584D01*
X148195500Y-102059431D01*
X148175815Y-102126470D01*
X148153311Y-102151062D01*
X148153651Y-102151402D01*
X148031923Y-102273129D01*
X148031917Y-102273137D01*
X147948255Y-102414603D01*
X147948254Y-102414606D01*
X147902402Y-102572426D01*
X147902401Y-102572432D01*
X147899500Y-102609298D01*
X147899500Y-103390701D01*
X147902401Y-103427567D01*
X147902402Y-103427573D01*
X147948254Y-103585393D01*
X147948255Y-103585396D01*
X148031917Y-103726862D01*
X148031923Y-103726870D01*
X148148129Y-103843076D01*
X148148133Y-103843079D01*
X148148135Y-103843081D01*
X148232997Y-103893268D01*
X148275270Y-103918268D01*
X148322953Y-103969337D01*
X148335457Y-104038078D01*
X148308812Y-104102668D01*
X148275270Y-104131732D01*
X148148137Y-104206917D01*
X148148129Y-104206923D01*
X148031923Y-104323129D01*
X148031917Y-104323137D01*
X147948255Y-104464603D01*
X147948254Y-104464606D01*
X147902402Y-104622426D01*
X147902401Y-104622432D01*
X147899500Y-104659298D01*
X147899500Y-105440701D01*
X147902401Y-105477567D01*
X147902402Y-105477573D01*
X147948254Y-105635393D01*
X147948255Y-105635396D01*
X147948256Y-105635398D01*
X147957601Y-105651200D01*
X148031917Y-105776862D01*
X148031923Y-105776870D01*
X148148129Y-105893076D01*
X148148133Y-105893079D01*
X148148135Y-105893081D01*
X148289602Y-105976744D01*
X148331224Y-105988836D01*
X148447426Y-106022597D01*
X148447429Y-106022597D01*
X148447431Y-106022598D01*
X148484306Y-106025500D01*
X148484314Y-106025500D01*
X149515686Y-106025500D01*
X149515694Y-106025500D01*
X149552569Y-106022598D01*
X149552571Y-106022597D01*
X149552573Y-106022597D01*
X149628630Y-106000500D01*
X149710398Y-105976744D01*
X149810121Y-105917767D01*
X149873242Y-105900500D01*
X150669031Y-105900500D01*
X150732151Y-105917767D01*
X150789602Y-105951744D01*
X150831224Y-105963836D01*
X150947426Y-105997597D01*
X150947429Y-105997597D01*
X150947431Y-105997598D01*
X150984306Y-106000500D01*
X150984314Y-106000500D01*
X152015686Y-106000500D01*
X152015694Y-106000500D01*
X152052569Y-105997598D01*
X152052571Y-105997597D01*
X152052573Y-105997597D01*
X152123904Y-105976873D01*
X152210398Y-105951744D01*
X152351865Y-105868081D01*
X152468081Y-105751865D01*
X152551744Y-105610398D01*
X152597598Y-105452569D01*
X152600500Y-105415694D01*
X152600500Y-104584306D01*
X152597598Y-104547431D01*
X152586868Y-104510500D01*
X152551745Y-104389606D01*
X152551744Y-104389603D01*
X152551744Y-104389602D01*
X152468081Y-104248135D01*
X152468079Y-104248133D01*
X152468076Y-104248129D01*
X152351870Y-104131923D01*
X152351862Y-104131917D01*
X152309276Y-104106732D01*
X152261593Y-104055663D01*
X152249089Y-103986922D01*
X152275734Y-103922332D01*
X152309276Y-103893268D01*
X152324027Y-103884544D01*
X152351865Y-103868081D01*
X152468081Y-103751865D01*
X152551744Y-103610398D01*
X152597598Y-103452569D01*
X152600500Y-103415694D01*
X152600500Y-103242621D01*
X152620185Y-103175582D01*
X152672989Y-103129827D01*
X152742147Y-103119883D01*
X152748669Y-103121000D01*
X152831618Y-103137499D01*
X152831619Y-103137500D01*
X152831620Y-103137500D01*
X152984381Y-103137500D01*
X152984382Y-103137499D01*
X153134205Y-103107698D01*
X153275337Y-103049239D01*
X153402352Y-102964370D01*
X153814819Y-102551903D01*
X153876142Y-102518418D01*
X153945833Y-102523402D01*
X154001767Y-102565273D01*
X154026184Y-102630738D01*
X154026500Y-102639584D01*
X154026500Y-106048008D01*
X154035767Y-106134197D01*
X154046928Y-106185500D01*
X154046974Y-106185710D01*
X154069690Y-106257360D01*
X154069691Y-106257361D01*
X154069691Y-106257362D01*
X154136751Y-106365059D01*
X154182498Y-106417854D01*
X154182502Y-106417857D01*
X154182505Y-106417861D01*
X154260077Y-106487042D01*
X154260078Y-106487042D01*
X154260079Y-106487043D01*
X154374712Y-106541388D01*
X154374714Y-106541388D01*
X154374715Y-106541389D01*
X154441754Y-106561074D01*
X154441758Y-106561074D01*
X154441760Y-106561075D01*
X154457550Y-106563345D01*
X154556000Y-106577500D01*
X161046416Y-106577500D01*
X161113455Y-106597185D01*
X161159210Y-106649989D01*
X161169154Y-106719147D01*
X161140129Y-106782703D01*
X161134097Y-106789181D01*
X160206685Y-107716591D01*
X160145362Y-107750076D01*
X160108198Y-107752438D01*
X160020004Y-107744723D01*
X160019998Y-107744723D01*
X159874682Y-107757436D01*
X159802023Y-107763793D01*
X159802020Y-107763793D01*
X159590677Y-107820422D01*
X159590670Y-107820424D01*
X159590670Y-107820425D01*
X159587391Y-107821954D01*
X159392361Y-107912898D01*
X159392357Y-107912900D01*
X159213121Y-108038402D01*
X159058402Y-108193121D01*
X158932900Y-108372357D01*
X158932898Y-108372361D01*
X158840426Y-108570668D01*
X158840422Y-108570677D01*
X158783793Y-108782020D01*
X158783793Y-108782023D01*
X158780481Y-108819882D01*
X158777479Y-108854200D01*
X158764723Y-109000000D01*
X158780603Y-109181519D01*
X158783793Y-109217975D01*
X158783793Y-109217979D01*
X158840422Y-109429322D01*
X158840424Y-109429326D01*
X158840425Y-109429330D01*
X158850064Y-109450000D01*
X158932897Y-109627638D01*
X158956074Y-109660738D01*
X159058402Y-109806877D01*
X159213123Y-109961598D01*
X159392361Y-110087102D01*
X159590670Y-110179575D01*
X159590676Y-110179576D01*
X159590677Y-110179577D01*
X159613835Y-110185782D01*
X159802023Y-110236207D01*
X159984926Y-110252208D01*
X160019998Y-110255277D01*
X160020000Y-110255277D01*
X160020002Y-110255277D01*
X160048254Y-110252805D01*
X160237977Y-110236207D01*
X160449330Y-110179575D01*
X160647639Y-110087102D01*
X160826877Y-109961598D01*
X160981598Y-109806877D01*
X161107102Y-109627639D01*
X161177618Y-109476414D01*
X161223790Y-109423977D01*
X161290984Y-109404825D01*
X161357865Y-109425041D01*
X161402381Y-109476414D01*
X161472898Y-109627639D01*
X161598402Y-109806877D01*
X161753123Y-109961598D01*
X161932361Y-110087102D01*
X162130670Y-110179575D01*
X162130676Y-110179576D01*
X162130677Y-110179577D01*
X162153835Y-110185782D01*
X162342023Y-110236207D01*
X162524926Y-110252208D01*
X162559998Y-110255277D01*
X162560000Y-110255277D01*
X162560002Y-110255277D01*
X162588254Y-110252805D01*
X162777977Y-110236207D01*
X162989330Y-110179575D01*
X163187639Y-110087102D01*
X163366877Y-109961598D01*
X163521598Y-109806877D01*
X163647102Y-109627639D01*
X163717618Y-109476414D01*
X163763790Y-109423977D01*
X163830984Y-109404825D01*
X163897865Y-109425041D01*
X163942381Y-109476414D01*
X164012898Y-109627639D01*
X164138402Y-109806877D01*
X164293123Y-109961598D01*
X164472361Y-110087102D01*
X164670670Y-110179575D01*
X164670676Y-110179576D01*
X164670677Y-110179577D01*
X164693835Y-110185782D01*
X164882023Y-110236207D01*
X165064926Y-110252208D01*
X165099998Y-110255277D01*
X165100000Y-110255277D01*
X165100002Y-110255277D01*
X165128254Y-110252805D01*
X165317977Y-110236207D01*
X165529330Y-110179575D01*
X165727639Y-110087102D01*
X165906877Y-109961598D01*
X166061598Y-109806877D01*
X166163928Y-109660734D01*
X166218502Y-109617112D01*
X166288000Y-109609918D01*
X166350355Y-109641441D01*
X166385769Y-109701670D01*
X166389500Y-109731859D01*
X166389500Y-109881517D01*
X166400292Y-109949657D01*
X166404354Y-109975304D01*
X166461950Y-110088342D01*
X166461952Y-110088344D01*
X166461954Y-110088347D01*
X166551652Y-110178045D01*
X166551654Y-110178046D01*
X166551658Y-110178050D01*
X166664694Y-110235645D01*
X166664698Y-110235647D01*
X166758475Y-110250499D01*
X166758481Y-110250500D01*
X168521518Y-110250499D01*
X168615304Y-110235646D01*
X168728342Y-110178050D01*
X168818050Y-110088342D01*
X168875646Y-109975304D01*
X168875646Y-109975302D01*
X168875647Y-109975301D01*
X168890725Y-109880102D01*
X168920654Y-109816968D01*
X168979965Y-109780036D01*
X169013198Y-109775500D01*
X171421662Y-109775500D01*
X171488701Y-109795185D01*
X171509343Y-109811818D01*
X171659123Y-109961598D01*
X171838361Y-110087102D01*
X172036670Y-110179575D01*
X172036676Y-110179576D01*
X172036677Y-110179577D01*
X172059835Y-110185782D01*
X172248023Y-110236207D01*
X172430926Y-110252208D01*
X172465998Y-110255277D01*
X172466000Y-110255277D01*
X172466002Y-110255277D01*
X172494254Y-110252805D01*
X172683977Y-110236207D01*
X172895330Y-110179575D01*
X173093639Y-110087102D01*
X173272877Y-109961598D01*
X173427598Y-109806877D01*
X173553102Y-109627639D01*
X173623618Y-109476414D01*
X173669790Y-109423977D01*
X173736984Y-109404825D01*
X173803865Y-109425041D01*
X173848381Y-109476414D01*
X173918898Y-109627639D01*
X174044402Y-109806877D01*
X174199123Y-109961598D01*
X174378361Y-110087102D01*
X174576670Y-110179575D01*
X174576676Y-110179576D01*
X174576677Y-110179577D01*
X174599835Y-110185782D01*
X174788023Y-110236207D01*
X174970926Y-110252208D01*
X175005998Y-110255277D01*
X175006000Y-110255277D01*
X175006002Y-110255277D01*
X175034254Y-110252805D01*
X175223977Y-110236207D01*
X175435330Y-110179575D01*
X175633639Y-110087102D01*
X175812877Y-109961598D01*
X175967598Y-109806877D01*
X176069926Y-109660736D01*
X176124502Y-109617113D01*
X176194000Y-109609919D01*
X176256355Y-109641442D01*
X176291769Y-109701672D01*
X176295500Y-109731860D01*
X176295500Y-109881517D01*
X176306292Y-109949657D01*
X176310354Y-109975304D01*
X176367950Y-110088342D01*
X176367952Y-110088344D01*
X176367954Y-110088347D01*
X176457652Y-110178045D01*
X176457654Y-110178046D01*
X176457658Y-110178050D01*
X176570694Y-110235645D01*
X176570698Y-110235647D01*
X176664475Y-110250499D01*
X176664481Y-110250500D01*
X178427518Y-110250499D01*
X178521304Y-110235646D01*
X178634342Y-110178050D01*
X178724050Y-110088342D01*
X178781646Y-109975304D01*
X178781646Y-109975302D01*
X178781647Y-109975301D01*
X178796499Y-109881524D01*
X178796500Y-109881519D01*
X178796499Y-108118482D01*
X178781646Y-108024696D01*
X178724050Y-107911658D01*
X178724046Y-107911654D01*
X178724045Y-107911652D01*
X178634347Y-107821954D01*
X178634344Y-107821952D01*
X178634342Y-107821950D01*
X178557517Y-107782805D01*
X178521301Y-107764352D01*
X178427524Y-107749500D01*
X178427519Y-107749500D01*
X177212183Y-107749500D01*
X177145144Y-107729815D01*
X177099389Y-107677011D01*
X177089445Y-107607853D01*
X177118470Y-107544297D01*
X177124502Y-107537819D01*
X177307377Y-107354945D01*
X177943848Y-106718475D01*
X188391500Y-106718475D01*
X188391500Y-109181517D01*
X188397275Y-109217977D01*
X188406354Y-109275304D01*
X188463950Y-109388342D01*
X188463952Y-109388344D01*
X188463954Y-109388347D01*
X188553652Y-109478045D01*
X188553654Y-109478046D01*
X188553658Y-109478050D01*
X188666694Y-109535645D01*
X188666698Y-109535647D01*
X188760475Y-109550499D01*
X188760481Y-109550500D01*
X191223518Y-109550499D01*
X191317304Y-109535646D01*
X191430342Y-109478050D01*
X191520050Y-109388342D01*
X191577646Y-109275304D01*
X191577646Y-109275302D01*
X191577647Y-109275301D01*
X191592499Y-109181524D01*
X191592500Y-109181519D01*
X191592499Y-106718482D01*
X191577646Y-106624696D01*
X191520050Y-106511658D01*
X191520046Y-106511654D01*
X191520045Y-106511652D01*
X191430347Y-106421954D01*
X191430344Y-106421952D01*
X191430342Y-106421950D01*
X191353517Y-106382805D01*
X191317301Y-106364352D01*
X191223524Y-106349500D01*
X188760482Y-106349500D01*
X188679519Y-106362323D01*
X188666696Y-106364354D01*
X188553658Y-106421950D01*
X188553657Y-106421951D01*
X188553652Y-106421954D01*
X188463954Y-106511652D01*
X188463951Y-106511657D01*
X188463950Y-106511658D01*
X188452981Y-106533186D01*
X188406352Y-106624698D01*
X188391500Y-106718475D01*
X177943848Y-106718475D01*
X178440504Y-106221819D01*
X178501827Y-106188334D01*
X178528185Y-106185500D01*
X181835662Y-106185500D01*
X181902701Y-106205185D01*
X181923343Y-106221818D01*
X182073123Y-106371598D01*
X182252361Y-106497102D01*
X182450670Y-106589575D01*
X182662023Y-106646207D01*
X182844926Y-106662208D01*
X182879998Y-106665277D01*
X182880000Y-106665277D01*
X182880002Y-106665277D01*
X182908254Y-106662805D01*
X183097977Y-106646207D01*
X183309330Y-106589575D01*
X183507639Y-106497102D01*
X183686877Y-106371598D01*
X183841598Y-106216877D01*
X183967102Y-106037639D01*
X184059575Y-105839330D01*
X184116207Y-105627977D01*
X184135277Y-105410000D01*
X184133847Y-105393659D01*
X184124662Y-105288667D01*
X184116207Y-105192023D01*
X184070916Y-105022996D01*
X184059577Y-104980677D01*
X184059576Y-104980676D01*
X184059575Y-104980670D01*
X183967102Y-104782362D01*
X183967100Y-104782359D01*
X183967099Y-104782357D01*
X183841599Y-104603124D01*
X183785901Y-104547426D01*
X183688475Y-104450000D01*
X188386551Y-104450000D01*
X188406317Y-104701151D01*
X188465126Y-104946110D01*
X188561533Y-105178859D01*
X188693160Y-105393653D01*
X188693161Y-105393656D01*
X188716956Y-105421516D01*
X188856776Y-105585224D01*
X188993933Y-105702367D01*
X189048343Y-105748838D01*
X189048346Y-105748839D01*
X189263140Y-105880466D01*
X189435222Y-105951744D01*
X189495889Y-105976873D01*
X189740852Y-106035683D01*
X189992000Y-106055449D01*
X190243148Y-106035683D01*
X190488111Y-105976873D01*
X190720859Y-105880466D01*
X190935659Y-105748836D01*
X191127224Y-105585224D01*
X191290836Y-105393659D01*
X191422466Y-105178859D01*
X191518873Y-104946111D01*
X191577683Y-104701148D01*
X191597449Y-104450000D01*
X191577683Y-104198852D01*
X191518873Y-103953889D01*
X191504037Y-103918071D01*
X191422466Y-103721140D01*
X191290839Y-103506346D01*
X191290838Y-103506343D01*
X191223558Y-103427569D01*
X191127224Y-103314776D01*
X190961226Y-103173000D01*
X190935656Y-103151161D01*
X190935653Y-103151160D01*
X190720859Y-103019533D01*
X190488110Y-102923126D01*
X190243151Y-102864317D01*
X189992000Y-102844551D01*
X189740848Y-102864317D01*
X189495889Y-102923126D01*
X189263140Y-103019533D01*
X189048346Y-103151160D01*
X189048343Y-103151161D01*
X188856776Y-103314776D01*
X188693161Y-103506343D01*
X188693160Y-103506346D01*
X188561533Y-103721140D01*
X188465126Y-103953889D01*
X188406317Y-104198848D01*
X188386551Y-104450000D01*
X183688475Y-104450000D01*
X183686877Y-104448402D01*
X183507639Y-104322898D01*
X183356414Y-104252381D01*
X183303977Y-104206210D01*
X183284825Y-104139016D01*
X183305041Y-104072135D01*
X183356414Y-104027618D01*
X183507639Y-103957102D01*
X183686877Y-103831598D01*
X183841598Y-103676877D01*
X183967102Y-103497639D01*
X184059575Y-103299330D01*
X184116207Y-103087977D01*
X184132805Y-102898254D01*
X184135277Y-102870002D01*
X184135277Y-102869997D01*
X184131445Y-102826195D01*
X184116207Y-102652023D01*
X184065561Y-102463010D01*
X184059577Y-102440677D01*
X184059576Y-102440676D01*
X184059575Y-102440670D01*
X183967102Y-102242362D01*
X183967100Y-102242359D01*
X183967099Y-102242357D01*
X183841599Y-102063124D01*
X183787997Y-102009522D01*
X183686877Y-101908402D01*
X183507639Y-101782898D01*
X183356414Y-101712381D01*
X183303977Y-101666210D01*
X183284825Y-101599016D01*
X183305041Y-101532135D01*
X183356414Y-101487618D01*
X183507639Y-101417102D01*
X183686877Y-101291598D01*
X183841598Y-101136877D01*
X183967102Y-100957639D01*
X183970664Y-100950000D01*
X188386551Y-100950000D01*
X188406317Y-101201151D01*
X188465126Y-101446110D01*
X188561533Y-101678859D01*
X188693160Y-101893653D01*
X188693161Y-101893656D01*
X188748604Y-101958571D01*
X188856776Y-102085224D01*
X189002170Y-102209402D01*
X189048343Y-102248838D01*
X189048346Y-102248839D01*
X189263140Y-102380466D01*
X189463024Y-102463260D01*
X189495889Y-102476873D01*
X189740852Y-102535683D01*
X189992000Y-102555449D01*
X190243148Y-102535683D01*
X190488111Y-102476873D01*
X190720859Y-102380466D01*
X190935659Y-102248836D01*
X191127224Y-102085224D01*
X191290836Y-101893659D01*
X191422466Y-101678859D01*
X191518873Y-101446111D01*
X191577683Y-101201148D01*
X191597449Y-100950000D01*
X191577683Y-100698852D01*
X191518873Y-100453889D01*
X191467557Y-100330000D01*
X191422466Y-100221140D01*
X191290839Y-100006346D01*
X191290838Y-100006343D01*
X191200584Y-99900670D01*
X191127224Y-99814776D01*
X190968602Y-99679300D01*
X190935656Y-99651161D01*
X190935653Y-99651160D01*
X190720859Y-99519533D01*
X190488110Y-99423126D01*
X190243151Y-99364317D01*
X189992000Y-99344551D01*
X189740848Y-99364317D01*
X189495889Y-99423126D01*
X189263140Y-99519533D01*
X189048346Y-99651160D01*
X189048343Y-99651161D01*
X188856776Y-99814776D01*
X188693161Y-100006343D01*
X188693160Y-100006346D01*
X188561533Y-100221140D01*
X188465126Y-100453889D01*
X188406317Y-100698848D01*
X188386551Y-100950000D01*
X183970664Y-100950000D01*
X184059575Y-100759330D01*
X184116207Y-100547977D01*
X184135277Y-100330000D01*
X184116207Y-100112023D01*
X184059575Y-99900670D01*
X183967102Y-99702362D01*
X183967100Y-99702359D01*
X183967099Y-99702357D01*
X183841599Y-99523124D01*
X183766916Y-99448441D01*
X183686877Y-99368402D01*
X183507639Y-99242898D01*
X183507640Y-99242898D01*
X183507638Y-99242897D01*
X183408484Y-99196661D01*
X183309330Y-99150425D01*
X183309327Y-99150424D01*
X183309325Y-99150423D01*
X183228233Y-99128695D01*
X183168573Y-99092330D01*
X183138044Y-99029483D01*
X183146339Y-98960107D01*
X183190824Y-98906229D01*
X183215534Y-98893293D01*
X183394789Y-98823850D01*
X183394798Y-98823846D01*
X183575997Y-98711653D01*
X183575999Y-98711651D01*
X183733499Y-98568071D01*
X183861938Y-98397991D01*
X183956932Y-98207218D01*
X183956937Y-98207205D01*
X184004512Y-98040000D01*
X183313012Y-98040000D01*
X183345925Y-97982993D01*
X183380000Y-97855826D01*
X183380000Y-97724174D01*
X183345925Y-97597007D01*
X183313012Y-97540000D01*
X184004512Y-97540000D01*
X184004512Y-97539999D01*
X183978903Y-97449994D01*
X188486859Y-97449994D01*
X188486859Y-97450005D01*
X188507385Y-97697729D01*
X188507387Y-97697738D01*
X188568412Y-97938717D01*
X188668266Y-98166364D01*
X188768564Y-98319882D01*
X189427387Y-97661059D01*
X189432889Y-97681591D01*
X189511881Y-97818408D01*
X189623592Y-97930119D01*
X189760409Y-98009111D01*
X189780940Y-98014612D01*
X189121942Y-98673609D01*
X189168768Y-98710055D01*
X189168770Y-98710056D01*
X189387385Y-98828364D01*
X189387396Y-98828369D01*
X189622506Y-98909083D01*
X189867707Y-98950000D01*
X190116293Y-98950000D01*
X190361493Y-98909083D01*
X190596603Y-98828369D01*
X190596614Y-98828364D01*
X190815228Y-98710057D01*
X190815231Y-98710055D01*
X190862056Y-98673609D01*
X190203059Y-98014612D01*
X190223591Y-98009111D01*
X190360408Y-97930119D01*
X190472119Y-97818408D01*
X190551111Y-97681591D01*
X190556612Y-97661060D01*
X191215434Y-98319882D01*
X191315731Y-98166369D01*
X191415587Y-97938717D01*
X191476612Y-97697738D01*
X191476614Y-97697729D01*
X191497141Y-97450005D01*
X191497141Y-97449994D01*
X191476614Y-97202270D01*
X191476612Y-97202261D01*
X191415587Y-96961282D01*
X191315731Y-96733630D01*
X191215434Y-96580116D01*
X190556612Y-97238939D01*
X190551111Y-97218409D01*
X190472119Y-97081592D01*
X190360408Y-96969881D01*
X190223591Y-96890889D01*
X190203060Y-96885387D01*
X190862057Y-96226390D01*
X190862056Y-96226389D01*
X190815229Y-96189943D01*
X190596614Y-96071635D01*
X190596603Y-96071630D01*
X190361493Y-95990916D01*
X190116293Y-95950000D01*
X189867707Y-95950000D01*
X189622506Y-95990916D01*
X189387396Y-96071630D01*
X189387390Y-96071632D01*
X189168761Y-96189949D01*
X189121942Y-96226388D01*
X189121942Y-96226390D01*
X189780940Y-96885387D01*
X189760409Y-96890889D01*
X189623592Y-96969881D01*
X189511881Y-97081592D01*
X189432889Y-97218409D01*
X189427387Y-97238939D01*
X188768564Y-96580116D01*
X188668267Y-96733632D01*
X188568412Y-96961282D01*
X188507387Y-97202261D01*
X188507385Y-97202270D01*
X188486859Y-97449994D01*
X183978903Y-97449994D01*
X183956937Y-97372794D01*
X183956932Y-97372781D01*
X183861938Y-97182008D01*
X183733499Y-97011928D01*
X183575999Y-96868348D01*
X183575997Y-96868346D01*
X183394798Y-96756153D01*
X183394792Y-96756150D01*
X183215533Y-96686706D01*
X183160132Y-96644133D01*
X183136541Y-96578366D01*
X183152252Y-96510286D01*
X183202276Y-96461507D01*
X183228231Y-96451305D01*
X183292775Y-96434011D01*
X183309320Y-96429578D01*
X183309321Y-96429577D01*
X183309330Y-96429575D01*
X183507639Y-96337102D01*
X183686877Y-96211598D01*
X183841598Y-96056877D01*
X183967102Y-95877639D01*
X184059575Y-95679330D01*
X184116207Y-95467977D01*
X184135277Y-95250000D01*
X184135175Y-95248839D01*
X184128071Y-95167630D01*
X184116207Y-95032023D01*
X184068025Y-94852206D01*
X184059577Y-94820677D01*
X184059576Y-94820676D01*
X184059575Y-94820670D01*
X183967102Y-94622362D01*
X183967100Y-94622359D01*
X183967099Y-94622357D01*
X183841599Y-94443124D01*
X183766551Y-94368076D01*
X183686877Y-94288402D01*
X183507639Y-94162898D01*
X183356414Y-94092381D01*
X183303977Y-94046210D01*
X183284825Y-93979016D01*
X183293596Y-93950000D01*
X188386551Y-93950000D01*
X188406317Y-94201151D01*
X188465126Y-94446110D01*
X188561533Y-94678859D01*
X188693160Y-94893653D01*
X188693161Y-94893656D01*
X188719846Y-94924900D01*
X188856776Y-95085224D01*
X188965643Y-95178205D01*
X189048343Y-95248838D01*
X189048345Y-95248838D01*
X189050244Y-95250002D01*
X189263140Y-95380466D01*
X189474407Y-95467975D01*
X189495889Y-95476873D01*
X189740852Y-95535683D01*
X189992000Y-95555449D01*
X190243148Y-95535683D01*
X190488111Y-95476873D01*
X190720859Y-95380466D01*
X190935659Y-95248836D01*
X191127224Y-95085224D01*
X191290836Y-94893659D01*
X191422466Y-94678859D01*
X191518873Y-94446111D01*
X191577683Y-94201148D01*
X191597449Y-93950000D01*
X191577683Y-93698852D01*
X191518873Y-93453889D01*
X191470721Y-93337639D01*
X191422466Y-93221140D01*
X191290839Y-93006346D01*
X191290838Y-93006343D01*
X191253875Y-92963066D01*
X191127224Y-92814776D01*
X190963926Y-92675306D01*
X190935656Y-92651161D01*
X190935653Y-92651160D01*
X190720859Y-92519533D01*
X190488110Y-92423126D01*
X190243151Y-92364317D01*
X189992000Y-92344551D01*
X189740848Y-92364317D01*
X189495889Y-92423126D01*
X189263140Y-92519533D01*
X189048346Y-92651160D01*
X189048343Y-92651161D01*
X188856776Y-92814776D01*
X188693161Y-93006343D01*
X188693160Y-93006346D01*
X188561533Y-93221140D01*
X188465126Y-93453889D01*
X188406317Y-93698848D01*
X188386551Y-93950000D01*
X183293596Y-93950000D01*
X183305041Y-93912135D01*
X183356414Y-93867618D01*
X183507639Y-93797102D01*
X183686877Y-93671598D01*
X183841598Y-93516877D01*
X183967102Y-93337639D01*
X184059575Y-93139330D01*
X184116207Y-92927977D01*
X184135277Y-92710000D01*
X184134358Y-92699500D01*
X184129015Y-92638426D01*
X184116207Y-92492023D01*
X184075239Y-92339129D01*
X184059577Y-92280677D01*
X184059576Y-92280676D01*
X184059575Y-92280670D01*
X183967102Y-92082362D01*
X183967100Y-92082359D01*
X183967099Y-92082357D01*
X183841599Y-91903124D01*
X183783358Y-91844883D01*
X183686877Y-91748402D01*
X183507639Y-91622898D01*
X183356414Y-91552381D01*
X183303977Y-91506210D01*
X183284825Y-91439016D01*
X183305041Y-91372135D01*
X183356414Y-91327618D01*
X183507639Y-91257102D01*
X183686877Y-91131598D01*
X183841598Y-90976877D01*
X183967102Y-90797639D01*
X184059575Y-90599330D01*
X184099588Y-90450000D01*
X188386551Y-90450000D01*
X188406317Y-90701151D01*
X188465126Y-90946110D01*
X188561533Y-91178859D01*
X188693160Y-91393653D01*
X188693161Y-91393656D01*
X188733583Y-91440984D01*
X188856776Y-91585224D01*
X188968054Y-91680264D01*
X189048343Y-91748838D01*
X189048346Y-91748839D01*
X189263140Y-91880466D01*
X189414310Y-91943082D01*
X189495889Y-91976873D01*
X189740852Y-92035683D01*
X189992000Y-92055449D01*
X190243148Y-92035683D01*
X190488111Y-91976873D01*
X190720859Y-91880466D01*
X190935659Y-91748836D01*
X191127224Y-91585224D01*
X191290836Y-91393659D01*
X191422466Y-91178859D01*
X191518873Y-90946111D01*
X191577683Y-90701148D01*
X191597449Y-90450000D01*
X191577683Y-90198852D01*
X191518873Y-89953889D01*
X191477292Y-89853502D01*
X191422466Y-89721140D01*
X191290839Y-89506346D01*
X191290838Y-89506343D01*
X191236991Y-89443297D01*
X191127224Y-89314776D01*
X190951076Y-89164331D01*
X190935656Y-89151161D01*
X190935653Y-89151160D01*
X190720859Y-89019533D01*
X190488110Y-88923126D01*
X190243151Y-88864317D01*
X189992000Y-88844551D01*
X189740848Y-88864317D01*
X189495889Y-88923126D01*
X189263140Y-89019533D01*
X189048346Y-89151160D01*
X189048343Y-89151161D01*
X188856776Y-89314776D01*
X188693161Y-89506343D01*
X188693160Y-89506346D01*
X188561533Y-89721140D01*
X188465126Y-89953889D01*
X188406317Y-90198848D01*
X188386551Y-90450000D01*
X184099588Y-90450000D01*
X184116207Y-90387977D01*
X184135277Y-90170000D01*
X184133303Y-90147441D01*
X184127683Y-90083200D01*
X184116207Y-89952023D01*
X184059575Y-89740670D01*
X183967102Y-89542362D01*
X183967100Y-89542359D01*
X183967099Y-89542357D01*
X183841599Y-89363124D01*
X183772974Y-89294499D01*
X183686877Y-89208402D01*
X183507639Y-89082898D01*
X183356414Y-89012381D01*
X183303977Y-88966210D01*
X183284825Y-88899016D01*
X183305041Y-88832135D01*
X183356414Y-88787618D01*
X183507639Y-88717102D01*
X183686877Y-88591598D01*
X183841598Y-88436877D01*
X183967102Y-88257639D01*
X184059575Y-88059330D01*
X184116207Y-87847977D01*
X184135277Y-87630000D01*
X184116207Y-87412023D01*
X184068864Y-87235337D01*
X184059577Y-87200677D01*
X184059576Y-87200676D01*
X184059575Y-87200670D01*
X183967102Y-87002362D01*
X183967100Y-87002359D01*
X183967099Y-87002357D01*
X183930438Y-86950000D01*
X188386551Y-86950000D01*
X188406317Y-87201151D01*
X188465126Y-87446110D01*
X188561533Y-87678859D01*
X188693160Y-87893653D01*
X188693161Y-87893656D01*
X188693164Y-87893659D01*
X188856776Y-88085224D01*
X189005066Y-88211875D01*
X189048343Y-88248838D01*
X189048346Y-88248839D01*
X189263140Y-88380466D01*
X189399339Y-88436881D01*
X189495889Y-88476873D01*
X189740852Y-88535683D01*
X189992000Y-88555449D01*
X190243148Y-88535683D01*
X190488111Y-88476873D01*
X190720859Y-88380466D01*
X190935659Y-88248836D01*
X191127224Y-88085224D01*
X191290836Y-87893659D01*
X191422466Y-87678859D01*
X191518873Y-87446111D01*
X191577683Y-87201148D01*
X191597449Y-86950000D01*
X191577683Y-86698852D01*
X191518873Y-86453889D01*
X191492623Y-86390515D01*
X191422466Y-86221140D01*
X191290839Y-86006346D01*
X191290838Y-86006343D01*
X191241427Y-85948491D01*
X191127224Y-85814776D01*
X190959403Y-85671443D01*
X190935656Y-85651161D01*
X190935653Y-85651160D01*
X190720859Y-85519533D01*
X190488110Y-85423126D01*
X190243151Y-85364317D01*
X189992000Y-85344551D01*
X189740848Y-85364317D01*
X189495889Y-85423126D01*
X189263140Y-85519533D01*
X189048346Y-85651160D01*
X189048343Y-85651161D01*
X188856776Y-85814776D01*
X188693161Y-86006343D01*
X188693160Y-86006346D01*
X188561533Y-86221140D01*
X188465126Y-86453889D01*
X188406317Y-86698848D01*
X188386551Y-86950000D01*
X183930438Y-86950000D01*
X183841599Y-86823124D01*
X183841113Y-86822638D01*
X183686877Y-86668402D01*
X183507639Y-86542898D01*
X183356414Y-86472381D01*
X183303977Y-86426210D01*
X183284825Y-86359016D01*
X183305041Y-86292135D01*
X183356414Y-86247618D01*
X183507639Y-86177102D01*
X183686877Y-86051598D01*
X183841598Y-85896877D01*
X183967102Y-85717639D01*
X184059575Y-85519330D01*
X184116207Y-85307977D01*
X184135277Y-85090000D01*
X184116207Y-84872023D01*
X184059575Y-84660670D01*
X183967102Y-84462362D01*
X183967100Y-84462359D01*
X183967099Y-84462357D01*
X183841599Y-84283124D01*
X183796604Y-84238129D01*
X183686877Y-84128402D01*
X183540733Y-84026071D01*
X183497112Y-83971497D01*
X183489919Y-83901998D01*
X183521441Y-83839644D01*
X183581671Y-83804230D01*
X183611859Y-83800499D01*
X183761518Y-83800499D01*
X183855304Y-83785646D01*
X183968342Y-83728050D01*
X184058050Y-83638342D01*
X184115646Y-83525304D01*
X184115646Y-83525302D01*
X184115647Y-83525301D01*
X184127573Y-83450000D01*
X188386551Y-83450000D01*
X188406317Y-83701151D01*
X188465126Y-83946110D01*
X188561533Y-84178859D01*
X188693160Y-84393653D01*
X188693161Y-84393656D01*
X188693164Y-84393659D01*
X188856776Y-84585224D01*
X188960262Y-84673609D01*
X189048343Y-84748838D01*
X189048346Y-84748839D01*
X189263140Y-84880466D01*
X189464811Y-84964000D01*
X189495889Y-84976873D01*
X189740852Y-85035683D01*
X189992000Y-85055449D01*
X190243148Y-85035683D01*
X190488111Y-84976873D01*
X190720859Y-84880466D01*
X190935659Y-84748836D01*
X191127224Y-84585224D01*
X191290836Y-84393659D01*
X191422466Y-84178859D01*
X191518873Y-83946111D01*
X191577683Y-83701148D01*
X191597449Y-83450000D01*
X191577683Y-83198852D01*
X191518873Y-82953889D01*
X191489183Y-82882211D01*
X191422466Y-82721140D01*
X191290839Y-82506346D01*
X191290838Y-82506343D01*
X191212468Y-82414584D01*
X191127224Y-82314776D01*
X190989085Y-82196794D01*
X190935656Y-82151161D01*
X190935653Y-82151160D01*
X190720859Y-82019533D01*
X190488110Y-81923126D01*
X190243151Y-81864317D01*
X189992000Y-81844551D01*
X189740848Y-81864317D01*
X189495889Y-81923126D01*
X189263140Y-82019533D01*
X189048346Y-82151160D01*
X189048343Y-82151161D01*
X188856776Y-82314776D01*
X188693161Y-82506343D01*
X188693160Y-82506346D01*
X188561533Y-82721140D01*
X188465126Y-82953889D01*
X188406317Y-83198848D01*
X188386551Y-83450000D01*
X184127573Y-83450000D01*
X184130499Y-83431524D01*
X184130500Y-83431519D01*
X184130499Y-81668482D01*
X184115646Y-81574696D01*
X184058050Y-81461658D01*
X184058046Y-81461654D01*
X184058045Y-81461652D01*
X183968347Y-81371954D01*
X183968344Y-81371952D01*
X183968342Y-81371950D01*
X183891517Y-81332805D01*
X183855301Y-81314352D01*
X183761524Y-81299500D01*
X183761519Y-81299500D01*
X182777584Y-81299500D01*
X182710545Y-81279815D01*
X182689903Y-81263181D01*
X181596355Y-80169632D01*
X181596351Y-80169629D01*
X181469343Y-80084764D01*
X181469334Y-80084759D01*
X181328205Y-80026302D01*
X181328197Y-80026300D01*
X181178384Y-79996500D01*
X181178380Y-79996500D01*
X173784380Y-79996500D01*
X171145381Y-79996500D01*
X170992620Y-79996500D01*
X170992615Y-79996500D01*
X170842802Y-80026300D01*
X170842794Y-80026302D01*
X170701665Y-80084759D01*
X170701656Y-80084764D01*
X170574648Y-80169629D01*
X170574644Y-80169632D01*
X169317898Y-81426380D01*
X168923648Y-81820630D01*
X168879961Y-81864317D01*
X168815628Y-81928649D01*
X168730764Y-82055656D01*
X168730759Y-82055665D01*
X168672302Y-82196794D01*
X168672300Y-82196802D01*
X168642500Y-82346615D01*
X168642500Y-82791745D01*
X168622815Y-82858784D01*
X168606181Y-82879426D01*
X168589954Y-82895652D01*
X168589951Y-82895657D01*
X168532352Y-83008698D01*
X168517500Y-83102475D01*
X168517500Y-86315517D01*
X168526877Y-86374723D01*
X168532354Y-86409304D01*
X168589950Y-86522342D01*
X168589952Y-86522344D01*
X168589954Y-86522347D01*
X168679652Y-86612045D01*
X168679654Y-86612046D01*
X168679658Y-86612050D01*
X168792694Y-86669645D01*
X168792698Y-86669647D01*
X168886475Y-86684499D01*
X168886481Y-86684500D01*
X169949518Y-86684499D01*
X170043304Y-86669646D01*
X170156342Y-86612050D01*
X170246050Y-86522342D01*
X170303646Y-86409304D01*
X170303646Y-86409302D01*
X170303647Y-86409301D01*
X170318499Y-86315524D01*
X170318500Y-86315519D01*
X170318499Y-83102482D01*
X170303646Y-83008696D01*
X170246050Y-82895658D01*
X170246046Y-82895654D01*
X170246045Y-82895652D01*
X170231738Y-82881345D01*
X170198253Y-82820022D01*
X170203237Y-82750330D01*
X170231736Y-82705985D01*
X171353903Y-81583819D01*
X171415226Y-81550334D01*
X171441584Y-81547500D01*
X173631620Y-81547500D01*
X180729416Y-81547500D01*
X180796455Y-81567185D01*
X180817097Y-81583819D01*
X181593181Y-82359903D01*
X181626666Y-82421226D01*
X181629500Y-82447584D01*
X181629500Y-83431517D01*
X181639452Y-83494352D01*
X181644354Y-83525304D01*
X181701950Y-83638342D01*
X181701952Y-83638344D01*
X181701954Y-83638347D01*
X181791652Y-83728045D01*
X181791654Y-83728046D01*
X181791658Y-83728050D01*
X181904694Y-83785645D01*
X181904698Y-83785647D01*
X181998475Y-83800499D01*
X181998481Y-83800500D01*
X182148140Y-83800499D01*
X182215177Y-83820183D01*
X182260932Y-83872987D01*
X182270876Y-83942145D01*
X182241851Y-84005701D01*
X182219262Y-84026074D01*
X182073118Y-84128405D01*
X181918402Y-84283121D01*
X181792900Y-84462357D01*
X181792898Y-84462361D01*
X181700426Y-84660668D01*
X181700422Y-84660677D01*
X181643793Y-84872020D01*
X181643793Y-84872024D01*
X181624723Y-85089997D01*
X181624723Y-85090002D01*
X181633141Y-85186222D01*
X181643481Y-85304416D01*
X181643793Y-85307975D01*
X181643793Y-85307979D01*
X181700422Y-85519322D01*
X181700424Y-85519326D01*
X181700425Y-85519330D01*
X181743660Y-85612047D01*
X181792897Y-85717638D01*
X181792898Y-85717639D01*
X181918402Y-85896877D01*
X182073123Y-86051598D01*
X182252360Y-86177101D01*
X182252361Y-86177102D01*
X182403583Y-86247618D01*
X182456022Y-86293790D01*
X182475174Y-86360984D01*
X182454958Y-86427865D01*
X182403583Y-86472382D01*
X182252361Y-86542898D01*
X182252357Y-86542900D01*
X182073121Y-86668402D01*
X181918402Y-86823121D01*
X181792900Y-87002357D01*
X181792898Y-87002361D01*
X181700426Y-87200668D01*
X181700422Y-87200677D01*
X181643793Y-87412020D01*
X181643793Y-87412024D01*
X181624723Y-87629997D01*
X181624723Y-87630002D01*
X181632931Y-87723815D01*
X181639451Y-87798352D01*
X181643793Y-87847975D01*
X181643793Y-87847979D01*
X181700422Y-88059322D01*
X181700424Y-88059326D01*
X181700425Y-88059330D01*
X181746661Y-88158484D01*
X181792897Y-88257638D01*
X181792898Y-88257639D01*
X181918402Y-88436877D01*
X182073123Y-88591598D01*
X182252360Y-88717101D01*
X182252361Y-88717102D01*
X182403583Y-88787618D01*
X182456022Y-88833790D01*
X182475174Y-88900984D01*
X182454958Y-88967865D01*
X182403583Y-89012382D01*
X182252361Y-89082898D01*
X182252357Y-89082900D01*
X182073121Y-89208402D01*
X181918402Y-89363121D01*
X181792900Y-89542357D01*
X181792898Y-89542361D01*
X181700426Y-89740668D01*
X181700422Y-89740677D01*
X181643793Y-89952020D01*
X181643793Y-89952024D01*
X181624723Y-90169997D01*
X181624723Y-90170002D01*
X181643793Y-90387975D01*
X181643793Y-90387979D01*
X181700422Y-90599322D01*
X181700424Y-90599326D01*
X181700425Y-90599330D01*
X181728392Y-90659306D01*
X181792897Y-90797638D01*
X181792898Y-90797639D01*
X181918402Y-90976877D01*
X182073123Y-91131598D01*
X182252360Y-91257101D01*
X182252361Y-91257102D01*
X182403583Y-91327618D01*
X182456022Y-91373790D01*
X182475174Y-91440984D01*
X182454958Y-91507865D01*
X182403583Y-91552382D01*
X182252361Y-91622898D01*
X182252357Y-91622900D01*
X182073121Y-91748402D01*
X181918402Y-91903121D01*
X181792900Y-92082357D01*
X181792898Y-92082361D01*
X181700426Y-92280668D01*
X181700422Y-92280677D01*
X181643793Y-92492020D01*
X181643793Y-92492024D01*
X181624723Y-92709997D01*
X181624723Y-92710002D01*
X181643793Y-92927975D01*
X181643793Y-92927979D01*
X181700422Y-93139322D01*
X181700424Y-93139326D01*
X181700425Y-93139330D01*
X181709168Y-93158079D01*
X181792897Y-93337638D01*
X181792898Y-93337639D01*
X181918402Y-93516877D01*
X182073123Y-93671598D01*
X182250944Y-93796110D01*
X182252361Y-93797102D01*
X182403583Y-93867618D01*
X182456022Y-93913790D01*
X182475174Y-93980984D01*
X182454958Y-94047865D01*
X182403583Y-94092382D01*
X182252361Y-94162898D01*
X182252357Y-94162900D01*
X182073121Y-94288402D01*
X181918402Y-94443121D01*
X181792900Y-94622357D01*
X181792898Y-94622361D01*
X181700426Y-94820668D01*
X181700422Y-94820677D01*
X181643793Y-95032020D01*
X181643793Y-95032023D01*
X181642445Y-95047431D01*
X181624723Y-95249997D01*
X181624723Y-95250002D01*
X181630962Y-95321315D01*
X181642431Y-95452414D01*
X181643793Y-95467975D01*
X181643793Y-95467979D01*
X181700422Y-95679322D01*
X181700424Y-95679326D01*
X181700425Y-95679330D01*
X181716170Y-95713095D01*
X181792897Y-95877638D01*
X181792898Y-95877639D01*
X181918402Y-96056877D01*
X182073123Y-96211598D01*
X182252361Y-96337102D01*
X182450670Y-96429575D01*
X182531766Y-96451304D01*
X182591425Y-96487668D01*
X182621955Y-96550515D01*
X182613661Y-96619891D01*
X182569176Y-96673769D01*
X182544466Y-96686706D01*
X182365207Y-96756150D01*
X182365201Y-96756153D01*
X182184002Y-96868346D01*
X182184000Y-96868348D01*
X182026500Y-97011928D01*
X181898061Y-97182008D01*
X181803067Y-97372781D01*
X181803062Y-97372794D01*
X181755487Y-97539999D01*
X181755488Y-97540000D01*
X182446988Y-97540000D01*
X182414075Y-97597007D01*
X182380000Y-97724174D01*
X182380000Y-97855826D01*
X182414075Y-97982993D01*
X182446988Y-98040000D01*
X181755488Y-98040000D01*
X181803062Y-98207205D01*
X181803067Y-98207218D01*
X181898061Y-98397991D01*
X182026500Y-98568071D01*
X182184000Y-98711651D01*
X182184002Y-98711653D01*
X182365201Y-98823846D01*
X182365210Y-98823850D01*
X182544465Y-98893293D01*
X182599867Y-98935866D01*
X182623458Y-99001632D01*
X182607747Y-99069713D01*
X182557723Y-99118492D01*
X182531766Y-99128695D01*
X182450675Y-99150423D01*
X182450668Y-99150426D01*
X182252361Y-99242898D01*
X182252357Y-99242900D01*
X182073121Y-99368402D01*
X181918402Y-99523121D01*
X181792900Y-99702357D01*
X181792898Y-99702361D01*
X181700426Y-99900668D01*
X181700422Y-99900677D01*
X181643793Y-100112020D01*
X181643793Y-100112024D01*
X181624723Y-100329997D01*
X181624723Y-100330002D01*
X181643793Y-100547975D01*
X181643793Y-100547979D01*
X181688398Y-100714446D01*
X181686735Y-100784296D01*
X181647572Y-100842158D01*
X181583344Y-100869662D01*
X181514442Y-100858075D01*
X181480942Y-100834220D01*
X181405819Y-100759097D01*
X181372334Y-100697774D01*
X181369500Y-100671416D01*
X181369500Y-90347619D01*
X181369499Y-90347615D01*
X181359968Y-90299698D01*
X181339698Y-90197795D01*
X181281239Y-90056663D01*
X181281238Y-90056662D01*
X181281235Y-90056656D01*
X181196371Y-89929649D01*
X181149575Y-89882853D01*
X181088352Y-89821630D01*
X180249575Y-88982853D01*
X179399355Y-88132632D01*
X179399351Y-88132629D01*
X179272343Y-88047764D01*
X179272334Y-88047759D01*
X179131205Y-87989302D01*
X179131197Y-87989300D01*
X178981384Y-87959500D01*
X178981380Y-87959500D01*
X178590338Y-87959500D01*
X178523299Y-87939815D01*
X178502657Y-87923182D01*
X178428153Y-87848678D01*
X178352877Y-87773402D01*
X178173639Y-87647898D01*
X178022414Y-87577381D01*
X177969977Y-87531210D01*
X177950825Y-87464016D01*
X177971041Y-87397135D01*
X178022414Y-87352618D01*
X178173639Y-87282102D01*
X178352877Y-87156598D01*
X178507598Y-87001877D01*
X178633102Y-86822639D01*
X178725575Y-86624330D01*
X178782207Y-86412977D01*
X178801277Y-86195000D01*
X178800883Y-86190500D01*
X178790671Y-86073770D01*
X178782207Y-85977023D01*
X178725575Y-85765670D01*
X178633102Y-85567362D01*
X178633100Y-85567359D01*
X178633099Y-85567357D01*
X178507599Y-85388124D01*
X178450564Y-85331089D01*
X178352877Y-85233402D01*
X178173639Y-85107898D01*
X178022414Y-85037381D01*
X177969977Y-84991210D01*
X177950825Y-84924016D01*
X177971041Y-84857135D01*
X178022414Y-84812618D01*
X178173639Y-84742102D01*
X178352877Y-84616598D01*
X178507598Y-84461877D01*
X178633102Y-84282639D01*
X178725575Y-84084330D01*
X178782207Y-83872977D01*
X178801277Y-83655000D01*
X178782207Y-83437023D01*
X178725575Y-83225670D01*
X178633102Y-83027362D01*
X178633100Y-83027359D01*
X178633099Y-83027357D01*
X178507599Y-82848124D01*
X178433269Y-82773794D01*
X178352877Y-82693402D01*
X178173639Y-82567898D01*
X178173640Y-82567898D01*
X178173638Y-82567897D01*
X178041640Y-82506346D01*
X177975330Y-82475425D01*
X177975326Y-82475424D01*
X177975322Y-82475422D01*
X177763977Y-82418793D01*
X177546002Y-82399723D01*
X177545998Y-82399723D01*
X177400682Y-82412436D01*
X177328023Y-82418793D01*
X177328020Y-82418793D01*
X177116677Y-82475422D01*
X177116668Y-82475426D01*
X176918361Y-82567898D01*
X176918357Y-82567900D01*
X176739121Y-82693402D01*
X176584402Y-82848121D01*
X176458900Y-83027357D01*
X176458898Y-83027361D01*
X176366426Y-83225668D01*
X176366422Y-83225677D01*
X176309793Y-83437020D01*
X176309793Y-83437024D01*
X176290723Y-83654997D01*
X176290723Y-83655002D01*
X176309793Y-83872975D01*
X176309793Y-83872979D01*
X176366422Y-84084322D01*
X176366424Y-84084326D01*
X176366425Y-84084330D01*
X176410505Y-84178859D01*
X176458897Y-84282638D01*
X176467424Y-84294815D01*
X176584402Y-84461877D01*
X176739123Y-84616598D01*
X176918360Y-84742101D01*
X176918361Y-84742102D01*
X177069583Y-84812618D01*
X177122022Y-84858790D01*
X177141174Y-84925984D01*
X177120958Y-84992865D01*
X177069583Y-85037382D01*
X176918361Y-85107898D01*
X176918357Y-85107900D01*
X176739121Y-85233402D01*
X176584402Y-85388121D01*
X176458900Y-85567357D01*
X176458898Y-85567361D01*
X176419820Y-85651164D01*
X176372156Y-85753381D01*
X176366426Y-85765668D01*
X176366422Y-85765677D01*
X176309793Y-85977020D01*
X176309793Y-85977024D01*
X176290723Y-86194997D01*
X176290723Y-86195002D01*
X176299148Y-86291304D01*
X176309471Y-86409302D01*
X176309793Y-86412975D01*
X176309793Y-86412979D01*
X176366422Y-86624322D01*
X176366424Y-86624326D01*
X176366425Y-86624330D01*
X176386976Y-86668402D01*
X176458897Y-86822638D01*
X176479406Y-86851928D01*
X176584402Y-87001877D01*
X176739123Y-87156598D01*
X176851577Y-87235339D01*
X176918361Y-87282102D01*
X177069583Y-87352618D01*
X177122022Y-87398790D01*
X177141174Y-87465984D01*
X177120958Y-87532865D01*
X177069583Y-87577382D01*
X176918361Y-87647898D01*
X176918357Y-87647900D01*
X176739121Y-87773402D01*
X176584402Y-87928121D01*
X176458900Y-88107357D01*
X176458898Y-88107361D01*
X176366426Y-88305668D01*
X176366422Y-88305677D01*
X176309793Y-88517020D01*
X176309793Y-88517024D01*
X176303409Y-88590000D01*
X176290723Y-88735000D01*
X176307181Y-88923126D01*
X176309793Y-88952975D01*
X176309793Y-88952979D01*
X176366422Y-89164322D01*
X176366424Y-89164326D01*
X176366425Y-89164330D01*
X176409387Y-89256462D01*
X176458897Y-89362638D01*
X176481090Y-89394332D01*
X176584402Y-89541877D01*
X176739123Y-89696598D01*
X176885263Y-89798926D01*
X176928887Y-89853502D01*
X176936081Y-89923000D01*
X176904558Y-89985355D01*
X176844328Y-90020769D01*
X176814140Y-90024500D01*
X176664482Y-90024500D01*
X176583519Y-90037323D01*
X176570696Y-90039354D01*
X176457658Y-90096950D01*
X176457657Y-90096951D01*
X176457652Y-90096954D01*
X176367954Y-90186652D01*
X176367951Y-90186657D01*
X176367950Y-90186658D01*
X176348751Y-90224337D01*
X176310352Y-90299698D01*
X176295500Y-90393475D01*
X176295500Y-91055913D01*
X176275815Y-91122952D01*
X176223011Y-91168707D01*
X176153853Y-91178651D01*
X176090297Y-91149626D01*
X176083819Y-91143594D01*
X174237857Y-89297632D01*
X174237853Y-89297629D01*
X174110845Y-89212764D01*
X174110836Y-89212759D01*
X173969707Y-89154302D01*
X173969699Y-89154300D01*
X173819886Y-89124500D01*
X173819882Y-89124500D01*
X171448583Y-89124500D01*
X171381544Y-89104815D01*
X171335789Y-89052011D01*
X171325845Y-88982853D01*
X171354870Y-88919297D01*
X171360902Y-88912819D01*
X172565240Y-87708482D01*
X174102370Y-86171352D01*
X174187239Y-86044337D01*
X174245698Y-85903205D01*
X174275500Y-85753380D01*
X174275500Y-85600620D01*
X174275500Y-82923620D01*
X174245698Y-82773795D01*
X174187239Y-82632663D01*
X174187238Y-82632662D01*
X174187235Y-82632656D01*
X174102370Y-82505648D01*
X174102367Y-82505644D01*
X173994355Y-82397632D01*
X173994351Y-82397629D01*
X173867343Y-82312764D01*
X173867334Y-82312759D01*
X173726205Y-82254302D01*
X173726197Y-82254300D01*
X173576384Y-82224500D01*
X173576380Y-82224500D01*
X173423620Y-82224500D01*
X173423615Y-82224500D01*
X173273802Y-82254300D01*
X173273794Y-82254302D01*
X173132665Y-82312759D01*
X173132656Y-82312764D01*
X173005648Y-82397629D01*
X173005644Y-82397632D01*
X172897632Y-82505644D01*
X172897629Y-82505648D01*
X172812764Y-82632656D01*
X172812759Y-82632665D01*
X172754302Y-82773794D01*
X172754300Y-82773802D01*
X172724500Y-82923615D01*
X172724500Y-85304416D01*
X172704815Y-85371455D01*
X172688181Y-85392097D01*
X170265084Y-87815193D01*
X170203761Y-87848678D01*
X170134069Y-87843694D01*
X170121109Y-87837997D01*
X170043304Y-87798353D01*
X170043301Y-87798352D01*
X169949524Y-87783500D01*
X168886482Y-87783500D01*
X168805519Y-87796323D01*
X168792696Y-87798354D01*
X168679658Y-87855950D01*
X168679657Y-87855951D01*
X168679652Y-87855954D01*
X168589954Y-87945652D01*
X168589951Y-87945657D01*
X168589950Y-87945658D01*
X168581439Y-87962362D01*
X168532352Y-88058698D01*
X168517500Y-88152475D01*
X168517500Y-91243199D01*
X168497815Y-91310238D01*
X168445011Y-91355993D01*
X168428096Y-91362275D01*
X168283604Y-91404254D01*
X168283603Y-91404255D01*
X168142137Y-91487917D01*
X168142129Y-91487923D01*
X168025923Y-91604129D01*
X168025919Y-91604135D01*
X168000732Y-91646724D01*
X167949662Y-91694407D01*
X167880921Y-91706910D01*
X167816331Y-91680264D01*
X167787268Y-91646724D01*
X167775170Y-91626267D01*
X167762081Y-91604135D01*
X167762080Y-91604134D01*
X167758110Y-91597421D01*
X167761049Y-91595682D01*
X167741181Y-91545055D01*
X167754213Y-91477815D01*
X167763646Y-91459304D01*
X167763646Y-91459301D01*
X167763647Y-91459301D01*
X167778499Y-91365524D01*
X167778500Y-91365519D01*
X167778499Y-88152482D01*
X167763646Y-88058696D01*
X167706050Y-87945658D01*
X167706046Y-87945654D01*
X167706045Y-87945652D01*
X167616347Y-87855954D01*
X167616344Y-87855952D01*
X167616342Y-87855950D01*
X167536352Y-87815193D01*
X167503301Y-87798352D01*
X167409524Y-87783500D01*
X166346482Y-87783500D01*
X166265519Y-87796323D01*
X166252696Y-87798354D01*
X166139658Y-87855950D01*
X166139657Y-87855951D01*
X166139652Y-87855954D01*
X166049954Y-87945652D01*
X166049951Y-87945657D01*
X166049950Y-87945658D01*
X166041439Y-87962362D01*
X165992352Y-88058698D01*
X165977500Y-88152475D01*
X165977500Y-91365517D01*
X165983636Y-91404256D01*
X165992354Y-91459304D01*
X166016582Y-91506855D01*
X166029478Y-91575521D01*
X166012829Y-91626267D01*
X165942257Y-91745599D01*
X165942254Y-91745606D01*
X165896402Y-91903426D01*
X165896401Y-91903432D01*
X165893500Y-91940298D01*
X165893500Y-92292414D01*
X165873815Y-92359453D01*
X165857182Y-92380095D01*
X165763323Y-92473955D01*
X165762465Y-92473097D01*
X165710003Y-92508826D01*
X165640158Y-92510690D01*
X165584226Y-92478504D01*
X165149819Y-92044097D01*
X165116334Y-91982774D01*
X165113500Y-91956416D01*
X165113500Y-91676254D01*
X165133185Y-91609215D01*
X165149821Y-91588571D01*
X165166046Y-91572346D01*
X165166050Y-91572342D01*
X165223646Y-91459304D01*
X165223646Y-91459302D01*
X165223647Y-91459301D01*
X165238499Y-91365524D01*
X165238500Y-91365519D01*
X165238499Y-88152482D01*
X165223646Y-88058696D01*
X165166050Y-87945658D01*
X165166046Y-87945654D01*
X165166045Y-87945652D01*
X165076347Y-87855954D01*
X165076344Y-87855952D01*
X165076342Y-87855950D01*
X164996352Y-87815193D01*
X164963301Y-87798352D01*
X164869524Y-87783500D01*
X163806482Y-87783500D01*
X163712695Y-87798354D01*
X163648802Y-87830909D01*
X163580132Y-87843805D01*
X163515392Y-87817528D01*
X163504827Y-87808105D01*
X162025507Y-86328785D01*
X163538001Y-86328785D01*
X163538002Y-86328808D01*
X163540908Y-86353869D01*
X163540909Y-86353873D01*
X163586211Y-86456474D01*
X163586214Y-86456479D01*
X163665520Y-86535785D01*
X163665525Y-86535788D01*
X163768123Y-86581089D01*
X163793206Y-86583999D01*
X164087999Y-86583999D01*
X164588000Y-86583999D01*
X164882786Y-86583999D01*
X164882808Y-86583997D01*
X164907869Y-86581091D01*
X164907873Y-86581090D01*
X165010474Y-86535788D01*
X165010479Y-86535785D01*
X165089785Y-86456479D01*
X165089788Y-86456474D01*
X165135089Y-86353877D01*
X165135089Y-86353875D01*
X165137999Y-86328794D01*
X165138000Y-86328791D01*
X165138000Y-84959000D01*
X164588000Y-84959000D01*
X164588000Y-86583999D01*
X164087999Y-86583999D01*
X164088000Y-86583998D01*
X164088000Y-84959000D01*
X163538001Y-84959000D01*
X163538001Y-86328785D01*
X162025507Y-86328785D01*
X161337015Y-85640293D01*
X161303530Y-85578970D01*
X161308514Y-85509278D01*
X161337016Y-85464930D01*
X161368076Y-85433870D01*
X161368081Y-85433865D01*
X161451744Y-85292398D01*
X161497598Y-85134569D01*
X161500500Y-85097694D01*
X161500500Y-84066306D01*
X161497598Y-84029431D01*
X161491694Y-84009111D01*
X161460575Y-83901998D01*
X161451744Y-83871602D01*
X161368081Y-83730135D01*
X161368079Y-83730133D01*
X161368076Y-83730129D01*
X161311819Y-83673872D01*
X161278334Y-83612549D01*
X161275500Y-83586191D01*
X161275500Y-83089205D01*
X163538000Y-83089205D01*
X163538000Y-84459000D01*
X164088000Y-84459000D01*
X164588000Y-84459000D01*
X165137999Y-84459000D01*
X165137999Y-83089214D01*
X165137997Y-83089191D01*
X165135091Y-83064130D01*
X165135090Y-83064126D01*
X165089788Y-82961525D01*
X165089785Y-82961520D01*
X165010479Y-82882214D01*
X165010474Y-82882211D01*
X164907876Y-82836910D01*
X164882794Y-82834000D01*
X164588000Y-82834000D01*
X164588000Y-84459000D01*
X164088000Y-84459000D01*
X164088000Y-82834000D01*
X163793214Y-82834000D01*
X163793191Y-82834002D01*
X163768130Y-82836908D01*
X163768126Y-82836909D01*
X163665525Y-82882211D01*
X163665520Y-82882214D01*
X163586214Y-82961520D01*
X163586211Y-82961525D01*
X163540910Y-83064122D01*
X163540910Y-83064124D01*
X163538000Y-83089205D01*
X161275500Y-83089205D01*
X161275500Y-82249500D01*
X161295185Y-82182461D01*
X161347989Y-82136706D01*
X161399500Y-82125500D01*
X161666028Y-82125500D01*
X161733067Y-82145185D01*
X161772759Y-82186378D01*
X161781914Y-82201859D01*
X161781923Y-82201870D01*
X161898129Y-82318076D01*
X161898133Y-82318079D01*
X161898135Y-82318081D01*
X162039602Y-82401744D01*
X162081224Y-82413836D01*
X162197426Y-82447597D01*
X162197429Y-82447597D01*
X162197431Y-82447598D01*
X162234306Y-82450500D01*
X162234314Y-82450500D01*
X163065686Y-82450500D01*
X163065694Y-82450500D01*
X163102569Y-82447598D01*
X163102571Y-82447597D01*
X163102573Y-82447597D01*
X163144191Y-82435505D01*
X163260398Y-82401744D01*
X163401865Y-82318081D01*
X163518081Y-82201865D01*
X163518085Y-82201859D01*
X163527241Y-82186378D01*
X163578311Y-82138695D01*
X163633972Y-82125500D01*
X163666028Y-82125500D01*
X163733067Y-82145185D01*
X163772759Y-82186378D01*
X163781914Y-82201859D01*
X163781923Y-82201870D01*
X163898129Y-82318076D01*
X163898133Y-82318079D01*
X163898135Y-82318081D01*
X164039602Y-82401744D01*
X164081224Y-82413836D01*
X164197426Y-82447597D01*
X164197429Y-82447597D01*
X164197431Y-82447598D01*
X164234306Y-82450500D01*
X164234314Y-82450500D01*
X165065686Y-82450500D01*
X165065694Y-82450500D01*
X165102569Y-82447598D01*
X165102571Y-82447597D01*
X165102573Y-82447597D01*
X165144191Y-82435505D01*
X165260398Y-82401744D01*
X165401865Y-82318081D01*
X165518081Y-82201865D01*
X165518085Y-82201859D01*
X165527241Y-82186378D01*
X165578311Y-82138695D01*
X165633972Y-82125500D01*
X165978500Y-82125500D01*
X166045539Y-82145185D01*
X166091294Y-82197989D01*
X166102500Y-82249500D01*
X166102500Y-82791745D01*
X166082815Y-82858784D01*
X166066181Y-82879426D01*
X166049954Y-82895652D01*
X166049951Y-82895657D01*
X165992352Y-83008698D01*
X165977500Y-83102475D01*
X165977500Y-86315517D01*
X165986877Y-86374723D01*
X165992354Y-86409304D01*
X166049950Y-86522342D01*
X166049952Y-86522344D01*
X166049954Y-86522347D01*
X166139652Y-86612045D01*
X166139654Y-86612046D01*
X166139658Y-86612050D01*
X166252694Y-86669645D01*
X166252698Y-86669647D01*
X166346475Y-86684499D01*
X166346481Y-86684500D01*
X167409518Y-86684499D01*
X167503304Y-86669646D01*
X167616342Y-86612050D01*
X167706050Y-86522342D01*
X167763646Y-86409304D01*
X167763646Y-86409302D01*
X167763647Y-86409301D01*
X167778499Y-86315524D01*
X167778500Y-86315519D01*
X167778499Y-83102482D01*
X167763646Y-83008696D01*
X167706050Y-82895658D01*
X167706046Y-82895654D01*
X167706045Y-82895652D01*
X167689819Y-82879426D01*
X167656334Y-82818103D01*
X167653500Y-82791745D01*
X167653500Y-81751619D01*
X167653499Y-81751615D01*
X167645866Y-81713240D01*
X167623698Y-81601795D01*
X167565239Y-81460663D01*
X167542332Y-81426380D01*
X167480370Y-81333647D01*
X167480368Y-81333644D01*
X167480367Y-81333643D01*
X166894355Y-80747632D01*
X166894351Y-80747629D01*
X166767343Y-80662764D01*
X166767334Y-80662759D01*
X166626205Y-80604302D01*
X166626197Y-80604300D01*
X166476384Y-80574500D01*
X166476380Y-80574500D01*
X165633972Y-80574500D01*
X165566933Y-80554815D01*
X165527241Y-80513622D01*
X165518085Y-80498140D01*
X165518076Y-80498129D01*
X165401870Y-80381923D01*
X165401862Y-80381917D01*
X165260396Y-80298255D01*
X165260393Y-80298254D01*
X165102573Y-80252402D01*
X165102567Y-80252401D01*
X165065701Y-80249500D01*
X165065694Y-80249500D01*
X164234306Y-80249500D01*
X164234298Y-80249500D01*
X164197432Y-80252401D01*
X164197426Y-80252402D01*
X164039606Y-80298254D01*
X164039603Y-80298255D01*
X163898137Y-80381917D01*
X163898129Y-80381923D01*
X163781923Y-80498129D01*
X163781914Y-80498140D01*
X163772759Y-80513622D01*
X163721689Y-80561305D01*
X163666028Y-80574500D01*
X163633972Y-80574500D01*
X163566933Y-80554815D01*
X163527241Y-80513622D01*
X163518085Y-80498140D01*
X163518076Y-80498129D01*
X163401870Y-80381923D01*
X163401862Y-80381917D01*
X163260396Y-80298255D01*
X163260393Y-80298254D01*
X163102573Y-80252402D01*
X163102567Y-80252401D01*
X163065701Y-80249500D01*
X163065694Y-80249500D01*
X162234306Y-80249500D01*
X162234298Y-80249500D01*
X162197432Y-80252401D01*
X162197426Y-80252402D01*
X162039606Y-80298254D01*
X162039603Y-80298255D01*
X161898137Y-80381917D01*
X161898129Y-80381923D01*
X161781923Y-80498129D01*
X161781914Y-80498140D01*
X161772759Y-80513622D01*
X161721689Y-80561305D01*
X161666028Y-80574500D01*
X160889615Y-80574500D01*
X160739802Y-80604299D01*
X160739793Y-80604302D01*
X160598669Y-80662756D01*
X160598663Y-80662759D01*
X160598663Y-80662760D01*
X160471650Y-80747629D01*
X160471641Y-80747635D01*
X160116898Y-81102380D01*
X160005648Y-81213630D01*
X159970442Y-81248836D01*
X159897628Y-81321649D01*
X159812764Y-81448656D01*
X159812759Y-81448665D01*
X159754302Y-81589794D01*
X159754300Y-81589802D01*
X159724500Y-81739615D01*
X159724500Y-83586191D01*
X159704815Y-83653230D01*
X159688181Y-83673872D01*
X159631923Y-83730129D01*
X159631919Y-83730135D01*
X159606732Y-83772724D01*
X159555662Y-83820407D01*
X159486921Y-83832910D01*
X159422331Y-83806264D01*
X159393268Y-83772724D01*
X159392272Y-83771040D01*
X159368081Y-83730135D01*
X159368078Y-83730132D01*
X159368076Y-83730129D01*
X159251870Y-83613923D01*
X159251867Y-83613921D01*
X159251865Y-83613919D01*
X159221151Y-83595755D01*
X159200215Y-83583373D01*
X159152532Y-83532303D01*
X159140029Y-83463561D01*
X159160234Y-83407751D01*
X159187239Y-83367337D01*
X159245698Y-83226205D01*
X159275500Y-83076380D01*
X159275500Y-82923620D01*
X159245698Y-82773795D01*
X159187239Y-82632663D01*
X159187238Y-82632662D01*
X159187235Y-82632656D01*
X159102370Y-82505648D01*
X159102367Y-82505644D01*
X158994355Y-82397632D01*
X158994351Y-82397629D01*
X158867343Y-82312764D01*
X158867334Y-82312759D01*
X158726205Y-82254302D01*
X158726197Y-82254300D01*
X158576384Y-82224500D01*
X158576380Y-82224500D01*
X153681120Y-82224500D01*
X153681115Y-82224500D01*
X153531302Y-82254300D01*
X153531294Y-82254302D01*
X153390160Y-82312761D01*
X153263151Y-82397626D01*
X153263143Y-82397632D01*
X151707597Y-83953181D01*
X151646274Y-83986666D01*
X151619916Y-83989500D01*
X151251798Y-83989500D01*
X151214932Y-83992401D01*
X151214926Y-83992402D01*
X151057106Y-84038254D01*
X151057103Y-84038255D01*
X150915637Y-84121917D01*
X150915629Y-84121923D01*
X150799423Y-84238129D01*
X150799414Y-84238140D01*
X150790259Y-84253622D01*
X150739189Y-84301305D01*
X150683528Y-84314500D01*
X150651472Y-84314500D01*
X150584433Y-84294815D01*
X150544741Y-84253622D01*
X150535585Y-84238140D01*
X150535576Y-84238129D01*
X150419370Y-84121923D01*
X150419362Y-84121917D01*
X150277896Y-84038255D01*
X150277893Y-84038254D01*
X150120073Y-83992402D01*
X150120067Y-83992401D01*
X150083201Y-83989500D01*
X150083194Y-83989500D01*
X149251806Y-83989500D01*
X149251798Y-83989500D01*
X149214932Y-83992401D01*
X149214926Y-83992402D01*
X149057106Y-84038254D01*
X149057103Y-84038255D01*
X148915637Y-84121917D01*
X148915629Y-84121923D01*
X148799423Y-84238129D01*
X148799419Y-84238135D01*
X148774232Y-84280724D01*
X148723162Y-84328407D01*
X148654421Y-84340910D01*
X148589831Y-84314264D01*
X148560768Y-84280724D01*
X148559772Y-84279040D01*
X148535581Y-84238135D01*
X148535578Y-84238132D01*
X148535576Y-84238129D01*
X148419370Y-84121923D01*
X148419362Y-84121917D01*
X148277896Y-84038255D01*
X148277893Y-84038254D01*
X148120073Y-83992402D01*
X148120067Y-83992401D01*
X148083201Y-83989500D01*
X148083194Y-83989500D01*
X147251806Y-83989500D01*
X147251798Y-83989500D01*
X147214932Y-83992401D01*
X147214926Y-83992402D01*
X147057106Y-84038254D01*
X147057103Y-84038255D01*
X146915637Y-84121917D01*
X146915629Y-84121923D01*
X146799423Y-84238129D01*
X146799417Y-84238137D01*
X146715755Y-84379603D01*
X146715754Y-84379606D01*
X146669902Y-84537426D01*
X146669901Y-84537432D01*
X146667000Y-84574298D01*
X146667000Y-85605701D01*
X146669901Y-85642567D01*
X146669902Y-85642573D01*
X146715754Y-85800393D01*
X146715755Y-85800396D01*
X146762060Y-85878695D01*
X146799419Y-85941865D01*
X146800676Y-85943122D01*
X146801346Y-85944349D01*
X146804202Y-85948031D01*
X146803608Y-85948491D01*
X146834164Y-86004441D01*
X146837000Y-86030808D01*
X146837000Y-87545662D01*
X146817315Y-87612701D01*
X146800681Y-87633343D01*
X146650902Y-87783121D01*
X146525400Y-87962357D01*
X146525398Y-87962361D01*
X146432926Y-88160668D01*
X146432922Y-88160677D01*
X146376293Y-88372020D01*
X146376293Y-88372024D01*
X146357223Y-88589997D01*
X146357223Y-88590002D01*
X146376293Y-88807975D01*
X146376293Y-88807979D01*
X146432922Y-89019322D01*
X146432924Y-89019326D01*
X146432925Y-89019330D01*
X146462567Y-89082898D01*
X146525397Y-89217638D01*
X146525398Y-89217639D01*
X146650902Y-89396877D01*
X146650906Y-89396881D01*
X146690844Y-89436819D01*
X146724329Y-89498142D01*
X146719345Y-89567834D01*
X146677473Y-89623767D01*
X146612009Y-89648184D01*
X146603163Y-89648500D01*
X144449615Y-89648500D01*
X144313141Y-89675646D01*
X144313142Y-89675647D01*
X144299798Y-89678301D01*
X144299792Y-89678303D01*
X144158664Y-89736760D01*
X144034056Y-89820020D01*
X143967379Y-89840897D01*
X143899999Y-89822412D01*
X143853309Y-89770433D01*
X143842133Y-89701463D01*
X143870019Y-89637399D01*
X143877485Y-89629236D01*
X144154674Y-89352048D01*
X146144370Y-87362353D01*
X146197992Y-87282102D01*
X146229238Y-87235339D01*
X146229239Y-87235337D01*
X146287698Y-87094205D01*
X146296781Y-87048541D01*
X146306063Y-87001877D01*
X146317500Y-86944382D01*
X146317500Y-82414584D01*
X146337185Y-82347545D01*
X146353819Y-82326903D01*
X146842903Y-81837819D01*
X146904226Y-81804334D01*
X146930584Y-81801500D01*
X158318381Y-81801500D01*
X158318382Y-81801499D01*
X158468205Y-81771698D01*
X158609337Y-81713239D01*
X158736352Y-81628370D01*
X158844370Y-81520352D01*
X158929239Y-81393337D01*
X158987698Y-81252205D01*
X159017500Y-81102380D01*
X159017500Y-80949620D01*
X158987698Y-80799795D01*
X158942482Y-80690636D01*
X158929240Y-80658665D01*
X158929235Y-80658656D01*
X158844370Y-80531648D01*
X158844367Y-80531644D01*
X158736355Y-80423632D01*
X158736351Y-80423629D01*
X158609343Y-80338764D01*
X158609334Y-80338759D01*
X158468205Y-80280302D01*
X158468197Y-80280300D01*
X158318384Y-80250500D01*
X158318380Y-80250500D01*
X146634380Y-80250500D01*
X146481620Y-80250500D01*
X146481615Y-80250500D01*
X146331802Y-80280300D01*
X146331794Y-80280302D01*
X146190665Y-80338759D01*
X146190656Y-80338764D01*
X146063648Y-80423629D01*
X146063644Y-80423632D01*
X145273648Y-81213630D01*
X145047648Y-81439630D01*
X145010405Y-81476873D01*
X144939628Y-81547649D01*
X144854764Y-81674656D01*
X144854759Y-81674665D01*
X144796302Y-81815794D01*
X144796300Y-81815802D01*
X144766500Y-81965615D01*
X144766500Y-86495414D01*
X144746815Y-86562453D01*
X144730181Y-86583095D01*
X143469595Y-87843681D01*
X143408272Y-87877166D01*
X143381914Y-87880000D01*
X142673012Y-87880000D01*
X142705925Y-87822993D01*
X142740000Y-87695826D01*
X142740000Y-87564174D01*
X142705925Y-87437007D01*
X142673012Y-87380000D01*
X143364512Y-87380000D01*
X143364512Y-87379999D01*
X143316937Y-87212794D01*
X143316932Y-87212781D01*
X143221938Y-87022008D01*
X143093499Y-86851928D01*
X142935999Y-86708348D01*
X142935997Y-86708346D01*
X142754798Y-86596153D01*
X142754792Y-86596150D01*
X142575533Y-86526706D01*
X142520132Y-86484133D01*
X142496541Y-86418366D01*
X142512252Y-86350286D01*
X142562276Y-86301507D01*
X142588231Y-86291305D01*
X142632810Y-86279360D01*
X142669320Y-86269578D01*
X142669321Y-86269577D01*
X142669330Y-86269575D01*
X142867639Y-86177102D01*
X143046877Y-86051598D01*
X143201598Y-85896877D01*
X143327102Y-85717639D01*
X143419575Y-85519330D01*
X143476207Y-85307977D01*
X143495277Y-85090000D01*
X143476207Y-84872023D01*
X143419575Y-84660670D01*
X143327102Y-84462362D01*
X143327100Y-84462359D01*
X143327099Y-84462357D01*
X143201599Y-84283124D01*
X143156604Y-84238129D01*
X143046877Y-84128402D01*
X142900733Y-84026071D01*
X142857112Y-83971497D01*
X142849919Y-83901998D01*
X142881441Y-83839644D01*
X142941671Y-83804230D01*
X142971859Y-83800499D01*
X143121518Y-83800499D01*
X143215304Y-83785646D01*
X143328342Y-83728050D01*
X143418050Y-83638342D01*
X143475646Y-83525304D01*
X143475646Y-83525302D01*
X143475647Y-83525301D01*
X143490499Y-83431524D01*
X143490500Y-83431519D01*
X143490499Y-81668482D01*
X143475646Y-81574696D01*
X143418050Y-81461658D01*
X143418046Y-81461654D01*
X143418045Y-81461652D01*
X143328347Y-81371954D01*
X143328344Y-81371952D01*
X143328342Y-81371950D01*
X143251517Y-81332805D01*
X143215301Y-81314352D01*
X143121524Y-81299500D01*
X141358482Y-81299500D01*
X141277519Y-81312323D01*
X141264696Y-81314354D01*
X141151658Y-81371950D01*
X141151657Y-81371951D01*
X141151652Y-81371954D01*
X141061954Y-81461652D01*
X141061951Y-81461657D01*
X141004352Y-81574698D01*
X140989500Y-81668475D01*
X140989500Y-83431517D01*
X140999452Y-83494352D01*
X141004354Y-83525304D01*
X141061950Y-83638342D01*
X141061952Y-83638344D01*
X141061954Y-83638347D01*
X141151652Y-83728045D01*
X141151654Y-83728046D01*
X141151658Y-83728050D01*
X141264694Y-83785645D01*
X141264698Y-83785647D01*
X141358475Y-83800499D01*
X141358481Y-83800500D01*
X141508140Y-83800499D01*
X141575177Y-83820183D01*
X141620932Y-83872987D01*
X141630876Y-83942145D01*
X141601851Y-84005701D01*
X141579262Y-84026074D01*
X141433118Y-84128405D01*
X141278402Y-84283121D01*
X141152900Y-84462357D01*
X141152898Y-84462361D01*
X141060426Y-84660668D01*
X141060422Y-84660677D01*
X141003793Y-84872020D01*
X141003793Y-84872024D01*
X140984723Y-85089997D01*
X130548500Y-85089997D01*
X130548500Y-83449994D01*
X133724459Y-83449994D01*
X133724459Y-83450005D01*
X133744985Y-83697729D01*
X133744987Y-83697738D01*
X133806012Y-83938717D01*
X133905866Y-84166364D01*
X134006164Y-84319882D01*
X134664987Y-83661059D01*
X134670489Y-83681591D01*
X134749481Y-83818408D01*
X134861192Y-83930119D01*
X134998009Y-84009111D01*
X135018540Y-84014612D01*
X134359542Y-84673609D01*
X134406368Y-84710055D01*
X134406370Y-84710056D01*
X134624985Y-84828364D01*
X134624996Y-84828369D01*
X134860106Y-84909083D01*
X135105307Y-84950000D01*
X135353893Y-84950000D01*
X135599093Y-84909083D01*
X135834203Y-84828369D01*
X135834214Y-84828364D01*
X136052828Y-84710057D01*
X136052831Y-84710055D01*
X136099656Y-84673609D01*
X135440659Y-84014612D01*
X135461191Y-84009111D01*
X135598008Y-83930119D01*
X135709719Y-83818408D01*
X135788711Y-83681591D01*
X135794212Y-83661060D01*
X136453034Y-84319882D01*
X136553331Y-84166369D01*
X136653187Y-83938717D01*
X136714212Y-83697738D01*
X136714214Y-83697729D01*
X136734741Y-83450005D01*
X136734741Y-83449994D01*
X136714214Y-83202270D01*
X136714212Y-83202261D01*
X136653187Y-82961282D01*
X136553331Y-82733630D01*
X136453034Y-82580116D01*
X135794212Y-83238939D01*
X135788711Y-83218409D01*
X135709719Y-83081592D01*
X135598008Y-82969881D01*
X135461191Y-82890889D01*
X135440660Y-82885387D01*
X136099657Y-82226390D01*
X136099656Y-82226389D01*
X136052829Y-82189943D01*
X135834214Y-82071635D01*
X135834203Y-82071630D01*
X135599093Y-81990916D01*
X135353893Y-81950000D01*
X135105307Y-81950000D01*
X134860106Y-81990916D01*
X134624996Y-82071630D01*
X134624990Y-82071632D01*
X134406361Y-82189949D01*
X134359542Y-82226388D01*
X134359542Y-82226390D01*
X135018540Y-82885387D01*
X134998009Y-82890889D01*
X134861192Y-82969881D01*
X134749481Y-83081592D01*
X134670489Y-83218409D01*
X134664987Y-83238939D01*
X134006164Y-82580116D01*
X133905867Y-82733632D01*
X133806012Y-82961282D01*
X133744987Y-83202261D01*
X133744985Y-83202270D01*
X133724459Y-83449994D01*
X130548500Y-83449994D01*
X130548500Y-79950000D01*
X133624151Y-79950000D01*
X133643917Y-80201151D01*
X133702726Y-80446110D01*
X133799133Y-80678859D01*
X133930760Y-80893653D01*
X133930761Y-80893656D01*
X133930764Y-80893659D01*
X134094376Y-81085224D01*
X134242666Y-81211875D01*
X134285943Y-81248838D01*
X134285946Y-81248839D01*
X134500740Y-81380466D01*
X134733489Y-81476873D01*
X134978452Y-81535683D01*
X135229600Y-81555449D01*
X135480748Y-81535683D01*
X135725711Y-81476873D01*
X135958459Y-81380466D01*
X136173259Y-81248836D01*
X136364824Y-81085224D01*
X136528436Y-80893659D01*
X136660066Y-80678859D01*
X136756473Y-80446111D01*
X136815283Y-80201148D01*
X136835049Y-79950000D01*
X188386551Y-79950000D01*
X188406317Y-80201151D01*
X188465126Y-80446110D01*
X188561533Y-80678859D01*
X188693160Y-80893653D01*
X188693161Y-80893656D01*
X188693164Y-80893659D01*
X188856776Y-81085224D01*
X189005066Y-81211875D01*
X189048343Y-81248838D01*
X189048346Y-81248839D01*
X189263140Y-81380466D01*
X189495889Y-81476873D01*
X189740852Y-81535683D01*
X189992000Y-81555449D01*
X190243148Y-81535683D01*
X190488111Y-81476873D01*
X190720859Y-81380466D01*
X190935659Y-81248836D01*
X191127224Y-81085224D01*
X191290836Y-80893659D01*
X191422466Y-80678859D01*
X191518873Y-80446111D01*
X191577683Y-80201148D01*
X191597449Y-79950000D01*
X191577683Y-79698852D01*
X191518873Y-79453889D01*
X191422466Y-79221140D01*
X191290839Y-79006346D01*
X191290838Y-79006343D01*
X191253875Y-78963066D01*
X191127224Y-78814776D01*
X190982950Y-78691554D01*
X190935656Y-78651161D01*
X190935653Y-78651160D01*
X190720859Y-78519533D01*
X190488110Y-78423126D01*
X190243151Y-78364317D01*
X189992000Y-78344551D01*
X189740848Y-78364317D01*
X189495889Y-78423126D01*
X189263140Y-78519533D01*
X189048346Y-78651160D01*
X189048343Y-78651161D01*
X188856776Y-78814776D01*
X188693161Y-79006343D01*
X188693160Y-79006346D01*
X188561533Y-79221140D01*
X188465126Y-79453889D01*
X188406317Y-79698848D01*
X188386551Y-79950000D01*
X136835049Y-79950000D01*
X136815283Y-79698852D01*
X136756473Y-79453889D01*
X136660066Y-79221140D01*
X136528439Y-79006346D01*
X136528438Y-79006343D01*
X136491475Y-78963066D01*
X136364824Y-78814776D01*
X136220550Y-78691554D01*
X136173256Y-78651161D01*
X136173253Y-78651160D01*
X135958459Y-78519533D01*
X135725710Y-78423126D01*
X135480751Y-78364317D01*
X135229600Y-78344551D01*
X134978448Y-78364317D01*
X134733489Y-78423126D01*
X134500740Y-78519533D01*
X134285946Y-78651160D01*
X134285943Y-78651161D01*
X134094376Y-78814776D01*
X133930761Y-79006343D01*
X133930760Y-79006346D01*
X133799133Y-79221140D01*
X133702726Y-79453889D01*
X133643917Y-79698848D01*
X133624151Y-79950000D01*
X130548500Y-79950000D01*
X130548500Y-78197052D01*
X141997379Y-78197052D01*
X141997379Y-78197059D01*
X142017574Y-78376305D01*
X142017575Y-78376310D01*
X142077155Y-78546579D01*
X142128952Y-78629013D01*
X142173128Y-78699318D01*
X142300682Y-78826872D01*
X142453422Y-78922845D01*
X142623689Y-78982424D01*
X142623694Y-78982425D01*
X142802940Y-79002621D01*
X142802944Y-79002621D01*
X142802948Y-79002621D01*
X142982193Y-78982425D01*
X142982196Y-78982424D01*
X142982199Y-78982424D01*
X143152466Y-78922845D01*
X143305206Y-78826872D01*
X143432760Y-78699318D01*
X143500279Y-78591861D01*
X143534101Y-78561946D01*
X143682471Y-78561946D01*
X143685515Y-78563299D01*
X143723887Y-78621688D01*
X143724599Y-78691554D01*
X143722314Y-78698788D01*
X143714633Y-78720739D01*
X143714630Y-78720750D01*
X143694435Y-78899996D01*
X143694435Y-78900003D01*
X143714630Y-79079249D01*
X143714631Y-79079254D01*
X143774211Y-79249523D01*
X143870184Y-79402262D01*
X143997738Y-79529816D01*
X144150478Y-79625789D01*
X144320745Y-79685368D01*
X144320750Y-79685369D01*
X144499996Y-79705565D01*
X144500000Y-79705565D01*
X144500004Y-79705565D01*
X144679249Y-79685369D01*
X144679252Y-79685368D01*
X144679255Y-79685368D01*
X144849522Y-79625789D01*
X145002262Y-79529816D01*
X145129816Y-79402262D01*
X145225789Y-79249522D01*
X145285368Y-79079255D01*
X145293583Y-79006343D01*
X145305565Y-78900003D01*
X145305565Y-78899996D01*
X145285369Y-78720750D01*
X145285368Y-78720748D01*
X145285368Y-78720745D01*
X145277685Y-78698790D01*
X145274123Y-78629013D01*
X145308851Y-78568385D01*
X145323695Y-78560667D01*
X145256633Y-78554494D01*
X145233448Y-78536388D01*
X145373358Y-78536388D01*
X145440419Y-78542560D01*
X145495488Y-78585563D01*
X145499720Y-78591862D01*
X145567238Y-78699316D01*
X145567240Y-78699318D01*
X145694794Y-78826872D01*
X145847534Y-78922845D01*
X146017801Y-78982424D01*
X146017806Y-78982425D01*
X146197052Y-79002621D01*
X146197056Y-79002621D01*
X146197060Y-79002621D01*
X146376305Y-78982425D01*
X146376308Y-78982424D01*
X146376311Y-78982424D01*
X146546578Y-78922845D01*
X146699318Y-78826872D01*
X146826872Y-78699318D01*
X146922845Y-78546578D01*
X146982424Y-78376311D01*
X146982425Y-78376305D01*
X147002621Y-78197059D01*
X147002621Y-78197052D01*
X146982425Y-78017806D01*
X146982424Y-78017801D01*
X146922845Y-77847534D01*
X146826872Y-77694794D01*
X146699318Y-77567240D01*
X146699316Y-77567238D01*
X146591862Y-77499720D01*
X146545572Y-77447386D01*
X146535108Y-77379527D01*
X146533756Y-77382571D01*
X146475366Y-77420943D01*
X146405500Y-77421655D01*
X146398266Y-77419370D01*
X146376313Y-77411688D01*
X146376305Y-77411686D01*
X146197060Y-77391491D01*
X146197052Y-77391491D01*
X146017806Y-77411686D01*
X146017801Y-77411687D01*
X145847532Y-77471267D01*
X145694793Y-77567240D01*
X145567240Y-77694793D01*
X145471267Y-77847532D01*
X145411687Y-78017801D01*
X145411686Y-78017806D01*
X145391491Y-78197052D01*
X145391491Y-78197059D01*
X145411686Y-78376305D01*
X145411688Y-78376313D01*
X145419370Y-78398266D01*
X145422931Y-78468044D01*
X145388202Y-78528672D01*
X145373358Y-78536388D01*
X145233448Y-78536388D01*
X145201566Y-78511490D01*
X145197334Y-78505192D01*
X145145768Y-78423126D01*
X145129816Y-78397738D01*
X145002262Y-78270184D01*
X144849523Y-78174211D01*
X144679254Y-78114631D01*
X144679249Y-78114630D01*
X144500004Y-78094435D01*
X144499996Y-78094435D01*
X144320750Y-78114630D01*
X144320745Y-78114631D01*
X144150476Y-78174211D01*
X143997737Y-78270184D01*
X143870184Y-78397737D01*
X143870182Y-78397740D01*
X143802664Y-78505193D01*
X143750329Y-78551484D01*
X143682471Y-78561946D01*
X143534101Y-78561946D01*
X143552613Y-78545572D01*
X143620470Y-78535108D01*
X143617427Y-78533756D01*
X143579056Y-78475365D01*
X143578344Y-78405499D01*
X143580631Y-78398262D01*
X143588310Y-78376316D01*
X143588311Y-78376313D01*
X143588312Y-78376311D01*
X143588313Y-78376305D01*
X143608509Y-78197059D01*
X143608509Y-78197052D01*
X143588313Y-78017806D01*
X143588312Y-78017801D01*
X143528733Y-77847534D01*
X143432760Y-77694794D01*
X143305206Y-77567240D01*
X143197749Y-77499720D01*
X143152467Y-77471267D01*
X142982198Y-77411687D01*
X142982193Y-77411686D01*
X142802948Y-77391491D01*
X142802940Y-77391491D01*
X142623694Y-77411686D01*
X142623683Y-77411689D01*
X142601732Y-77419370D01*
X142531953Y-77422931D01*
X142471326Y-77388201D01*
X142463610Y-77373358D01*
X142457439Y-77440418D01*
X142414437Y-77495487D01*
X142408137Y-77499720D01*
X142300684Y-77567238D01*
X142300681Y-77567240D01*
X142173128Y-77694793D01*
X142077155Y-77847532D01*
X142017575Y-78017801D01*
X142017574Y-78017806D01*
X141997379Y-78197052D01*
X130548500Y-78197052D01*
X130548500Y-75218475D01*
X133629100Y-75218475D01*
X133629100Y-77681517D01*
X133639762Y-77748836D01*
X133643954Y-77775304D01*
X133701550Y-77888342D01*
X133701552Y-77888344D01*
X133701554Y-77888347D01*
X133791252Y-77978045D01*
X133791254Y-77978046D01*
X133791258Y-77978050D01*
X133904294Y-78035645D01*
X133904298Y-78035647D01*
X133998075Y-78050499D01*
X133998081Y-78050500D01*
X136461118Y-78050499D01*
X136554904Y-78035646D01*
X136667942Y-77978050D01*
X136757650Y-77888342D01*
X136815246Y-77775304D01*
X136815246Y-77775302D01*
X136815247Y-77775301D01*
X136830099Y-77681524D01*
X136830100Y-77681519D01*
X136830100Y-76499996D01*
X141294435Y-76499996D01*
X141294435Y-76500003D01*
X141314630Y-76679249D01*
X141314631Y-76679254D01*
X141374211Y-76849523D01*
X141434901Y-76946110D01*
X141470184Y-77002262D01*
X141597738Y-77129816D01*
X141750478Y-77225789D01*
X141888609Y-77274123D01*
X141920745Y-77285368D01*
X141920750Y-77285369D01*
X142099996Y-77305565D01*
X142100000Y-77305565D01*
X142100004Y-77305565D01*
X142279249Y-77285369D01*
X142279251Y-77285368D01*
X142279255Y-77285368D01*
X142301206Y-77277686D01*
X142370985Y-77274123D01*
X142431613Y-77308850D01*
X142439331Y-77323696D01*
X142445506Y-77256632D01*
X142488510Y-77201565D01*
X142494795Y-77197342D01*
X142602262Y-77129816D01*
X142729816Y-77002262D01*
X142825789Y-76849522D01*
X142885368Y-76679255D01*
X142905565Y-76500000D01*
X142905565Y-76499996D01*
X146094435Y-76499996D01*
X146094435Y-76500003D01*
X146114630Y-76679249D01*
X146114631Y-76679254D01*
X146174211Y-76849523D01*
X146234901Y-76946110D01*
X146270184Y-77002262D01*
X146397738Y-77129816D01*
X146475789Y-77178859D01*
X146505192Y-77197334D01*
X146551483Y-77249669D01*
X146561946Y-77317527D01*
X146563299Y-77314484D01*
X146621689Y-77276112D01*
X146691555Y-77275400D01*
X146698782Y-77277683D01*
X146720745Y-77285368D01*
X146720748Y-77285368D01*
X146720750Y-77285369D01*
X146899996Y-77305565D01*
X146900000Y-77305565D01*
X146900004Y-77305565D01*
X147079249Y-77285369D01*
X147079252Y-77285368D01*
X147079255Y-77285368D01*
X147249522Y-77225789D01*
X147402262Y-77129816D01*
X147529816Y-77002262D01*
X147625789Y-76849522D01*
X147685368Y-76679255D01*
X147705565Y-76500000D01*
X147699931Y-76450000D01*
X147685369Y-76320750D01*
X147685368Y-76320745D01*
X147625788Y-76150476D01*
X147529815Y-75997737D01*
X147402262Y-75870184D01*
X147249523Y-75774211D01*
X147079254Y-75714631D01*
X147079249Y-75714630D01*
X146900004Y-75694435D01*
X146899996Y-75694435D01*
X146720750Y-75714630D01*
X146720739Y-75714633D01*
X146698788Y-75722314D01*
X146629009Y-75725875D01*
X146568382Y-75691145D01*
X146560666Y-75676302D01*
X146554495Y-75743362D01*
X146511493Y-75798431D01*
X146505193Y-75802664D01*
X146397740Y-75870182D01*
X146397737Y-75870184D01*
X146270184Y-75997737D01*
X146174211Y-76150476D01*
X146114631Y-76320745D01*
X146114630Y-76320750D01*
X146094435Y-76499996D01*
X142905565Y-76499996D01*
X142899931Y-76450000D01*
X142885369Y-76320750D01*
X142885368Y-76320745D01*
X142825788Y-76150476D01*
X142729815Y-75997737D01*
X142602260Y-75870182D01*
X142494806Y-75802664D01*
X142448516Y-75750330D01*
X142438052Y-75682471D01*
X142436700Y-75685515D01*
X142378310Y-75723887D01*
X142308444Y-75724599D01*
X142301210Y-75722314D01*
X142279257Y-75714632D01*
X142279249Y-75714630D01*
X142100004Y-75694435D01*
X142099996Y-75694435D01*
X141920750Y-75714630D01*
X141920745Y-75714631D01*
X141750476Y-75774211D01*
X141597737Y-75870184D01*
X141470184Y-75997737D01*
X141374211Y-76150476D01*
X141314631Y-76320745D01*
X141314630Y-76320750D01*
X141294435Y-76499996D01*
X136830100Y-76499996D01*
X136830099Y-75218482D01*
X136815246Y-75124696D01*
X136757650Y-75011658D01*
X136757646Y-75011654D01*
X136757645Y-75011652D01*
X136667947Y-74921954D01*
X136667944Y-74921952D01*
X136667942Y-74921950D01*
X136591117Y-74882805D01*
X136554901Y-74864352D01*
X136461124Y-74849500D01*
X133998082Y-74849500D01*
X133917119Y-74862323D01*
X133904296Y-74864354D01*
X133791258Y-74921950D01*
X133791257Y-74921951D01*
X133791252Y-74921954D01*
X133701554Y-75011652D01*
X133701551Y-75011657D01*
X133701550Y-75011658D01*
X133697537Y-75019534D01*
X133643952Y-75124698D01*
X133629100Y-75218475D01*
X130548500Y-75218475D01*
X130548500Y-75139750D01*
X130548726Y-75132263D01*
X130557803Y-74982198D01*
X130566271Y-74842201D01*
X130568076Y-74827340D01*
X130568361Y-74825788D01*
X130572548Y-74802940D01*
X141997379Y-74802940D01*
X141997379Y-74802947D01*
X142017574Y-74982193D01*
X142017575Y-74982198D01*
X142077155Y-75152467D01*
X142173128Y-75305206D01*
X142300682Y-75432760D01*
X142383848Y-75485016D01*
X142408136Y-75500278D01*
X142454427Y-75552613D01*
X142464890Y-75620471D01*
X142466243Y-75617428D01*
X142524633Y-75579056D01*
X142594499Y-75578344D01*
X142601726Y-75580627D01*
X142623689Y-75588312D01*
X142623692Y-75588312D01*
X142623694Y-75588313D01*
X142802940Y-75608509D01*
X142802944Y-75608509D01*
X142802948Y-75608509D01*
X142982193Y-75588313D01*
X142982196Y-75588312D01*
X142982199Y-75588312D01*
X143152466Y-75528733D01*
X143305206Y-75432760D01*
X143432760Y-75305206D01*
X143528733Y-75152466D01*
X143588312Y-74982199D01*
X143595100Y-74921954D01*
X143608509Y-74802947D01*
X143608509Y-74802940D01*
X143588313Y-74623694D01*
X143588312Y-74623692D01*
X143588312Y-74623689D01*
X143580629Y-74601734D01*
X143577067Y-74531957D01*
X143611795Y-74471329D01*
X143626639Y-74463611D01*
X143559577Y-74457438D01*
X143536392Y-74439332D01*
X143676302Y-74439332D01*
X143743363Y-74445504D01*
X143798432Y-74488507D01*
X143802664Y-74494806D01*
X143870182Y-74602260D01*
X143870184Y-74602262D01*
X143997738Y-74729816D01*
X144150478Y-74825789D01*
X144320745Y-74885368D01*
X144320750Y-74885369D01*
X144499996Y-74905565D01*
X144500000Y-74905565D01*
X144500004Y-74905565D01*
X144679249Y-74885369D01*
X144679252Y-74885368D01*
X144679255Y-74885368D01*
X144849522Y-74825789D01*
X145002262Y-74729816D01*
X145129816Y-74602262D01*
X145197335Y-74494805D01*
X145231157Y-74464890D01*
X145379527Y-74464890D01*
X145382571Y-74466243D01*
X145420943Y-74524632D01*
X145421655Y-74594498D01*
X145419370Y-74601732D01*
X145411689Y-74623683D01*
X145411686Y-74623694D01*
X145391491Y-74802940D01*
X145391491Y-74802947D01*
X145411686Y-74982193D01*
X145411687Y-74982198D01*
X145471267Y-75152467D01*
X145567240Y-75305206D01*
X145694794Y-75432760D01*
X145785136Y-75489526D01*
X145811900Y-75506343D01*
X145847534Y-75528733D01*
X145985665Y-75577067D01*
X146017801Y-75588312D01*
X146017806Y-75588313D01*
X146197052Y-75608509D01*
X146197056Y-75608509D01*
X146197060Y-75608509D01*
X146376305Y-75588313D01*
X146376307Y-75588312D01*
X146376311Y-75588312D01*
X146398262Y-75580630D01*
X146468041Y-75577067D01*
X146528669Y-75611794D01*
X146536387Y-75626640D01*
X146542562Y-75559576D01*
X146585566Y-75504509D01*
X146591851Y-75500286D01*
X146699318Y-75432760D01*
X146826872Y-75305206D01*
X146922845Y-75152466D01*
X146982424Y-74982199D01*
X146989212Y-74921954D01*
X147002621Y-74802947D01*
X147002621Y-74802940D01*
X146982425Y-74623694D01*
X146982424Y-74623689D01*
X146954960Y-74545201D01*
X146922845Y-74453422D01*
X146920394Y-74449522D01*
X146871048Y-74370988D01*
X146826872Y-74300682D01*
X146699318Y-74173128D01*
X146546579Y-74077155D01*
X146376310Y-74017575D01*
X146376305Y-74017574D01*
X146197060Y-73997379D01*
X146197052Y-73997379D01*
X146017806Y-74017574D01*
X146017801Y-74017575D01*
X145847532Y-74077155D01*
X145694793Y-74173128D01*
X145567240Y-74300681D01*
X145567238Y-74300684D01*
X145499720Y-74408137D01*
X145447385Y-74454428D01*
X145379527Y-74464890D01*
X145231157Y-74464890D01*
X145249669Y-74448516D01*
X145317526Y-74438052D01*
X145314483Y-74436700D01*
X145276112Y-74378309D01*
X145275400Y-74308443D01*
X145277687Y-74301206D01*
X145285366Y-74279260D01*
X145285367Y-74279257D01*
X145285368Y-74279255D01*
X145285369Y-74279249D01*
X145305565Y-74100003D01*
X145305565Y-74099996D01*
X145285369Y-73920750D01*
X145285368Y-73920745D01*
X145225788Y-73750476D01*
X145129815Y-73597737D01*
X145002262Y-73470184D01*
X144849523Y-73374211D01*
X144679254Y-73314631D01*
X144679249Y-73314630D01*
X144500004Y-73294435D01*
X144499996Y-73294435D01*
X144320750Y-73314630D01*
X144320745Y-73314631D01*
X144150476Y-73374211D01*
X143997737Y-73470184D01*
X143870184Y-73597737D01*
X143774211Y-73750476D01*
X143714631Y-73920745D01*
X143714630Y-73920750D01*
X143694435Y-74099996D01*
X143694435Y-74100003D01*
X143714630Y-74279249D01*
X143714632Y-74279257D01*
X143722314Y-74301210D01*
X143725875Y-74370988D01*
X143691146Y-74431616D01*
X143676302Y-74439332D01*
X143536392Y-74439332D01*
X143504510Y-74414434D01*
X143500278Y-74408136D01*
X143476936Y-74370988D01*
X143432760Y-74300682D01*
X143305206Y-74173128D01*
X143152467Y-74077155D01*
X142982198Y-74017575D01*
X142982193Y-74017574D01*
X142802948Y-73997379D01*
X142802940Y-73997379D01*
X142623694Y-74017574D01*
X142623689Y-74017575D01*
X142453420Y-74077155D01*
X142300681Y-74173128D01*
X142173128Y-74300681D01*
X142077155Y-74453420D01*
X142017575Y-74623689D01*
X142017574Y-74623694D01*
X141997379Y-74802940D01*
X130572548Y-74802940D01*
X130619780Y-74545197D01*
X130623364Y-74530663D01*
X130708696Y-74256822D01*
X130713998Y-74242841D01*
X130831731Y-73981249D01*
X130838676Y-73968016D01*
X130987080Y-73722526D01*
X130995567Y-73710230D01*
X131172480Y-73484417D01*
X131182395Y-73473226D01*
X131385226Y-73270395D01*
X131396417Y-73260480D01*
X131622230Y-73083567D01*
X131634526Y-73075080D01*
X131880016Y-72926676D01*
X131893249Y-72919731D01*
X132154841Y-72801998D01*
X132168822Y-72796696D01*
X132442668Y-72711362D01*
X132457197Y-72707780D01*
X132739344Y-72656075D01*
X132754201Y-72654271D01*
X133044264Y-72636726D01*
X133051751Y-72636500D01*
X133113892Y-72636500D01*
X157606000Y-72636500D01*
X157673039Y-72656185D01*
G37*
%TD.AperFunction*%
%TD*%
%TA.AperFunction,Conductor*%
%TO.N,Net-(JP3-C)*%
G36*
X161487039Y-99855185D02*
G01*
X161532794Y-99907989D01*
X161544000Y-99959500D01*
X161544000Y-104574103D01*
X161538977Y-104609038D01*
X161522526Y-104665064D01*
X161522523Y-104665076D01*
X161506100Y-104779310D01*
X161506100Y-105351200D01*
X161506099Y-105351200D01*
X161526785Y-105481803D01*
X161526785Y-105520597D01*
X161506100Y-105651199D01*
X161506100Y-106048000D01*
X161486415Y-106115039D01*
X161433611Y-106160794D01*
X161382100Y-106172000D01*
X154556000Y-106172000D01*
X154488961Y-106152315D01*
X154443206Y-106099511D01*
X154432000Y-106048000D01*
X154432000Y-101756460D01*
X154434383Y-101732268D01*
X154445500Y-101676382D01*
X154445500Y-100194584D01*
X154465185Y-100127545D01*
X154481819Y-100106903D01*
X154716903Y-99871819D01*
X154778226Y-99838334D01*
X154804584Y-99835500D01*
X161420000Y-99835500D01*
X161487039Y-99855185D01*
G37*
%TD.AperFunction*%
%TD*%
M02*
