M48
; DRILL file {KiCad 8.0.3} date 2024-08-02T22:41:40+0200
; FORMAT={-:-/ absolute / inch / decimal}
; #@! TF.CreationDate,2024-08-02T22:41:40+02:00
; #@! TF.GenerationSoftware,Kicad,Pcbnew,8.0.3
; #@! TF.FileFunction,Plated,1,2,PTH
FMAT,2
INCH
; #@! TA.AperFunction,Plated,PTH,ViaDrill
T1C0.0118
; #@! TA.AperFunction,Plated,PTH,ComponentDrill
T2C0.0197
; #@! TA.AperFunction,Plated,PTH,ComponentDrill
T3C0.0394
; #@! TA.AperFunction,Plated,PTH,ComponentDrill
T4C0.0433
; #@! TA.AperFunction,Plated,PTH,ComponentDrill
T5C0.0472
; #@! TA.AperFunction,Plated,PTH,ViaDrill
T6C0.1181
; #@! TA.AperFunction,Plated,PTH,ComponentDrill
T7C0.1260
%
G90
G05
T1
X5.19Y-4.23
X5.2Y-3.51
X5.2Y-3.74
X5.2Y-3.99
X5.21Y-3.24
X5.4153Y-3.4936
X5.42Y-3.77
X5.43Y-4.04
X5.4319Y-3.3536
X5.56Y-4.33
X5.69Y-3.3
X5.8465Y-3.6811
X5.8996Y-4.2421
X5.91Y-3.41
X5.94Y-3.77
X5.96Y-3.41
X5.9646Y-4.1339
X5.965Y-3.96
X6.02Y-4.03
X6.04Y-3.56
X6.05Y-4.12
X6.0555Y-3.6705
X6.0555Y-3.7705
X6.0925Y-3.311
X6.11Y-4.35
X6.122Y-3.9567
X6.122Y-3.9961
X6.122Y-4.0354
X6.122Y-4.0748
X6.122Y-4.1142
X6.122Y-4.1535
X6.13Y-3.05
X6.145Y-3.485
X6.1811Y-3.9567
X6.1811Y-3.9961
X6.1811Y-4.0354
X6.1811Y-4.0748
X6.1811Y-4.1142
X6.1811Y-4.1535
X6.19Y-3.8
X6.2205Y-3.6614
X6.23Y-3.19
X6.2402Y-3.2677
X6.2402Y-3.33
X6.2402Y-3.9567
X6.2402Y-3.9961
X6.2402Y-4.0354
X6.2402Y-4.0748
X6.2402Y-4.1142
X6.2402Y-4.1535
X6.25Y-3.505
X6.25Y-3.82
X6.2525Y-3.5875
X6.2992Y-3.9567
X6.2992Y-3.9961
X6.2992Y-4.0354
X6.2992Y-4.0748
X6.2992Y-4.1142
X6.2992Y-4.1535
X6.3858Y-3.7374
X6.39Y-3.34
X6.41Y-4.1097
X6.464Y-3.86
X6.5177Y-3.2618
X6.55Y-3.66
X6.55Y-4.23
X6.56Y-3.99
X6.57Y-3.335
X6.57Y-3.49
X6.67Y-4.14
X6.6752Y-3.9921
X6.69Y-4.24
X6.6929Y-3.6732
X6.7Y-4.35
X6.71Y-4.135
X6.75Y-3.54
X6.83Y-3.745
X6.8307Y-3.2677
X6.8307Y-3.5827
X6.8307Y-3.6614
X6.8389Y-3.18
X6.88Y-4.05
X6.8858Y-3.7402
X6.9454Y-4.1533
X6.95Y-2.89
X7.0433Y-3.6801
X7.0591Y-3.7146
X7.1Y-4.2
X7.11Y-4.05
X7.13Y-4.11
X7.17Y-4.29
X7.38Y-2.95
X7.38Y-3.84
X7.565Y-3.2205
X7.5669Y-3.4488
X7.6Y-4.01
X7.6Y-4.23
X7.61Y-3.0
X7.61Y-3.77
T2
X5.5945Y-3.0118
X5.6222Y-2.945
X5.6222Y-3.0786
X5.689Y-2.9173
X5.689Y-3.1063
X5.7558Y-2.945
X5.7558Y-3.0786
X5.7835Y-3.0118
X7.0315Y-3.0118
X7.0592Y-2.945
X7.0592Y-3.0786
X7.126Y-2.9173
X7.126Y-3.1063
X7.1928Y-2.945
X7.1928Y-3.0786
X7.2205Y-3.0118
T3
X5.6Y-3.25
X5.6Y-3.35
X5.6Y-3.45
X5.6Y-3.55
X5.6Y-3.65
X5.6Y-3.75
X5.6Y-3.85
X5.6Y-3.95
X5.6Y-4.05
X5.6Y-4.15
X5.8115Y-3.4878
X5.9115Y-3.4878
X6.0115Y-3.4878
X6.3Y-4.2913
X6.4Y-4.2913
X6.5Y-4.2913
X6.6Y-4.2913
X6.79Y-4.2913
X6.89Y-4.2913
X6.99Y-3.2935
X6.99Y-3.3935
X6.99Y-3.4935
X6.99Y-3.5935
X6.99Y-3.78
X6.99Y-3.88
X6.99Y-3.98
X6.99Y-4.08
X6.99Y-4.2913
X7.2Y-3.25
X7.2Y-3.35
X7.2Y-3.45
X7.2Y-3.55
X7.2Y-3.65
X7.2Y-3.75
X7.2Y-3.85
X7.2Y-3.95
X7.2Y-4.05
X7.2Y-4.15
T4
X6.532Y-3.9064
X6.532Y-4.0836
X6.788Y-3.9064
X6.788Y-4.0836
T5
X5.324Y-3.0098
X5.324Y-3.1476
X5.324Y-3.2854
X5.324Y-3.4232
X5.324Y-3.561
X5.324Y-3.6988
X5.324Y-3.8366
X5.324Y-3.9744
X5.324Y-4.1122
X5.324Y-4.25
X7.48Y-3.0098
X7.48Y-3.1476
X7.48Y-3.2854
X7.48Y-3.4232
X7.48Y-3.561
X7.48Y-3.6988
X7.48Y-3.8366
X7.48Y-3.9744
X7.48Y-4.1122
X7.48Y-4.25
T6
X5.7283Y-4.2913
T7
X5.689Y-3.0118
X7.126Y-3.0118
M30
