%TF.GenerationSoftware,KiCad,Pcbnew,8.0.3*%
%TF.CreationDate,2024-08-02T22:41:38+02:00*%
%TF.ProjectId,IOT board sensor,494f5420-626f-4617-9264-2073656e736f,rev?*%
%TF.SameCoordinates,Original*%
%TF.FileFunction,Copper,L1,Top*%
%TF.FilePolarity,Positive*%
%FSLAX46Y46*%
G04 Gerber Fmt 4.6, Leading zero omitted, Abs format (unit mm)*
G04 Created by KiCad (PCBNEW 8.0.3) date 2024-08-02 22:41:38*
%MOMM*%
%LPD*%
G01*
G04 APERTURE LIST*
G04 Aperture macros list*
%AMRoundRect*
0 Rectangle with rounded corners*
0 $1 Rounding radius*
0 $2 $3 $4 $5 $6 $7 $8 $9 X,Y pos of 4 corners*
0 Add a 4 corners polygon primitive as box body*
4,1,4,$2,$3,$4,$5,$6,$7,$8,$9,$2,$3,0*
0 Add four circle primitives for the rounded corners*
1,1,$1+$1,$2,$3*
1,1,$1+$1,$4,$5*
1,1,$1+$1,$6,$7*
1,1,$1+$1,$8,$9*
0 Add four rect primitives between the rounded corners*
20,1,$1+$1,$2,$3,$4,$5,0*
20,1,$1+$1,$4,$5,$6,$7,0*
20,1,$1+$1,$6,$7,$8,$9,0*
20,1,$1+$1,$8,$9,$2,$3,0*%
%AMFreePoly0*
4,1,19,0.550000,-0.750000,0.000000,-0.750000,0.000000,-0.744911,-0.071157,-0.744911,-0.207708,-0.704816,-0.327430,-0.627875,-0.420627,-0.520320,-0.479746,-0.390866,-0.500000,-0.250000,-0.500000,0.250000,-0.479746,0.390866,-0.420627,0.520320,-0.327430,0.627875,-0.207708,0.704816,-0.071157,0.744911,0.000000,0.744911,0.000000,0.750000,0.550000,0.750000,0.550000,-0.750000,0.550000,-0.750000,
$1*%
%AMFreePoly1*
4,1,19,0.000000,0.744911,0.071157,0.744911,0.207708,0.704816,0.327430,0.627875,0.420627,0.520320,0.479746,0.390866,0.500000,0.250000,0.500000,-0.250000,0.479746,-0.390866,0.420627,-0.520320,0.327430,-0.627875,0.207708,-0.704816,0.071157,-0.744911,0.000000,-0.744911,0.000000,-0.750000,-0.550000,-0.750000,-0.550000,0.750000,0.000000,0.750000,0.000000,0.744911,0.000000,0.744911,
$1*%
G04 Aperture macros list end*
%TA.AperFunction,EtchedComponent*%
%ADD10C,0.000000*%
%TD*%
%TA.AperFunction,ComponentPad*%
%ADD11C,0.800000*%
%TD*%
%TA.AperFunction,ComponentPad*%
%ADD12C,6.400000*%
%TD*%
%TA.AperFunction,SMDPad,CuDef*%
%ADD13FreePoly0,270.000000*%
%TD*%
%TA.AperFunction,SMDPad,CuDef*%
%ADD14R,1.500000X1.000000*%
%TD*%
%TA.AperFunction,SMDPad,CuDef*%
%ADD15FreePoly1,270.000000*%
%TD*%
%TA.AperFunction,ComponentPad*%
%ADD16R,1.700000X1.700000*%
%TD*%
%TA.AperFunction,ComponentPad*%
%ADD17O,1.700000X1.700000*%
%TD*%
%TA.AperFunction,ComponentPad*%
%ADD18R,2.400000X2.400000*%
%TD*%
%TA.AperFunction,ComponentPad*%
%ADD19C,2.400000*%
%TD*%
%TA.AperFunction,ComponentPad*%
%ADD20C,2.000000*%
%TD*%
%TA.AperFunction,SMDPad,CuDef*%
%ADD21RoundRect,0.250000X-0.850000X-0.350000X0.850000X-0.350000X0.850000X0.350000X-0.850000X0.350000X0*%
%TD*%
%TA.AperFunction,SMDPad,CuDef*%
%ADD22RoundRect,0.250000X-1.275000X-1.125000X1.275000X-1.125000X1.275000X1.125000X-1.275000X1.125000X0*%
%TD*%
%TA.AperFunction,SMDPad,CuDef*%
%ADD23RoundRect,0.249997X-2.950003X-2.650003X2.950003X-2.650003X2.950003X2.650003X-2.950003X2.650003X0*%
%TD*%
%TA.AperFunction,SMDPad,CuDef*%
%ADD24R,2.500000X1.000000*%
%TD*%
%TA.AperFunction,SMDPad,CuDef*%
%ADD25R,1.000000X1.800000*%
%TD*%
%TA.AperFunction,SMDPad,CuDef*%
%ADD26R,1.600000X1.600000*%
%TD*%
%TA.AperFunction,SMDPad,CuDef*%
%ADD27RoundRect,0.250000X0.337500X0.475000X-0.337500X0.475000X-0.337500X-0.475000X0.337500X-0.475000X0*%
%TD*%
%TA.AperFunction,SMDPad,CuDef*%
%ADD28RoundRect,0.250000X-0.337500X-0.475000X0.337500X-0.475000X0.337500X0.475000X-0.337500X0.475000X0*%
%TD*%
%TA.AperFunction,SMDPad,CuDef*%
%ADD29FreePoly0,180.000000*%
%TD*%
%TA.AperFunction,SMDPad,CuDef*%
%ADD30R,1.000000X1.500000*%
%TD*%
%TA.AperFunction,SMDPad,CuDef*%
%ADD31FreePoly1,180.000000*%
%TD*%
%TA.AperFunction,SMDPad,CuDef*%
%ADD32RoundRect,0.250000X-0.450000X0.350000X-0.450000X-0.350000X0.450000X-0.350000X0.450000X0.350000X0*%
%TD*%
%TA.AperFunction,ViaPad*%
%ADD33C,0.600000*%
%TD*%
%TA.AperFunction,ViaPad*%
%ADD34C,3.100000*%
%TD*%
%TA.AperFunction,Conductor*%
%ADD35C,0.750000*%
%TD*%
G04 APERTURE END LIST*
D10*
%TA.AperFunction,EtchedComponent*%
%TO.C,JP5*%
G36*
X147158000Y-99452000D02*
G01*
X146758000Y-99452000D01*
X146758000Y-98952000D01*
X147158000Y-98952000D01*
X147158000Y-99452000D01*
G37*
%TD.AperFunction*%
%TA.AperFunction,EtchedComponent*%
G36*
X146358000Y-99452000D02*
G01*
X145958000Y-99452000D01*
X145958000Y-98952000D01*
X146358000Y-98952000D01*
X146358000Y-99452000D01*
G37*
%TD.AperFunction*%
%TA.AperFunction,EtchedComponent*%
%TO.C,JP4*%
G36*
X148698000Y-104956000D02*
G01*
X148198000Y-104956000D01*
X148198000Y-104556000D01*
X148698000Y-104556000D01*
X148698000Y-104956000D01*
G37*
%TD.AperFunction*%
%TA.AperFunction,EtchedComponent*%
G36*
X148698000Y-105756000D02*
G01*
X148198000Y-105756000D01*
X148198000Y-105356000D01*
X148698000Y-105356000D01*
X148698000Y-105756000D01*
G37*
%TD.AperFunction*%
%TD*%
D11*
%TO.P,REF\u002A\u002A,1*%
%TO.N,N/C*%
X142100000Y-76500000D03*
X142802944Y-74802944D03*
X142802944Y-78197056D03*
X144500000Y-74100000D03*
D12*
%TO.N,GND*%
X144500000Y-76500000D03*
D11*
%TO.N,N/C*%
X144500000Y-78900000D03*
X146197056Y-74802944D03*
X146197056Y-78197056D03*
X146900000Y-76500000D03*
%TD*%
%TO.P,REF\u002A\u002A,1*%
%TO.N,N/C*%
X178600000Y-76500000D03*
X179302944Y-74802944D03*
X179302944Y-78197056D03*
X181000000Y-74100000D03*
D12*
%TO.N,GND*%
X181000000Y-76500000D03*
D11*
%TO.N,N/C*%
X181000000Y-78900000D03*
X182697056Y-74802944D03*
X182697056Y-78197056D03*
X183400000Y-76500000D03*
%TD*%
D13*
%TO.P,JP5,1,A*%
%TO.N,+3.3V*%
X146558000Y-98552000D03*
D14*
%TO.P,JP5,2,C*%
%TO.N,Net-(JP5-C)*%
X146558000Y-99852000D03*
D15*
%TO.P,JP5,3,B*%
%TO.N,Fet LOAD VCC*%
X146558000Y-101152000D03*
%TD*%
D16*
%TO.P,J1,1,Pin_1*%
%TO.N,VIN*%
X142240000Y-82550000D03*
D17*
%TO.P,J1,2,Pin_2*%
%TO.N,+3.3V*%
X142240000Y-85090000D03*
%TO.P,J1,3,Pin_3*%
%TO.N,GND*%
X142240000Y-87630000D03*
%TO.P,J1,4,Pin_4*%
%TO.N,nRST*%
X142240000Y-90170000D03*
%TO.P,J1,5,Pin_5*%
%TO.N,V Sense*%
X142240000Y-92710000D03*
%TO.P,J1,6,Pin_6*%
%TO.N,IO12*%
X142240000Y-95250000D03*
%TO.P,J1,7,Pin_7*%
%TO.N,Fet LOAD VCC*%
X142240000Y-97790000D03*
%TO.P,J1,8,Pin_8*%
%TO.N,Fet LOAD GND*%
X142240000Y-100330000D03*
%TO.P,J1,9,Pin_9*%
%TO.N,Fet GND*%
X142240000Y-102870000D03*
%TO.P,J1,10,Pin_10*%
%TO.N,GND*%
X142240000Y-105410000D03*
%TD*%
%TO.P,J3,10,Pin_10*%
%TO.N,IO14*%
X182880000Y-105410000D03*
%TO.P,J3,9,Pin_9*%
%TO.N,GND LP*%
X182880000Y-102870000D03*
%TO.P,J3,8,Pin_8*%
%TO.N,IO16*%
X182880000Y-100330000D03*
%TO.P,J3,7,Pin_7*%
%TO.N,GND*%
X182880000Y-97790000D03*
%TO.P,J3,6,Pin_6*%
%TO.N,IO13*%
X182880000Y-95250000D03*
%TO.P,J3,5,Pin_5*%
%TO.N,+3.3V*%
X182880000Y-92710000D03*
%TO.P,J3,4,Pin_4*%
%TO.N,SDA*%
X182880000Y-90170000D03*
%TO.P,J3,3,Pin_3*%
%TO.N,SCL*%
X182880000Y-87630000D03*
%TO.P,J3,2,Pin_2*%
%TO.N,TXD*%
X182880000Y-85090000D03*
D16*
%TO.P,J3,1,Pin_1*%
%TO.N,RXD*%
X182880000Y-82550000D03*
%TD*%
D18*
%TO.P,J4,1,Pin_1*%
%TO.N,IO14*%
X189992000Y-107950000D03*
D19*
%TO.P,J4,2,Pin_2*%
%TO.N,GND LP*%
X189992000Y-104450000D03*
%TO.P,J4,3,Pin_3*%
%TO.N,IO16*%
X189992000Y-100950000D03*
%TO.P,J4,4,Pin_4*%
%TO.N,GND*%
X189992000Y-97450000D03*
%TO.P,J4,5,Pin_5*%
%TO.N,IO13*%
X189992000Y-93950000D03*
%TO.P,J4,6,Pin_6*%
%TO.N,+3.3V*%
X189992000Y-90450000D03*
%TO.P,J4,7,Pin_7*%
%TO.N,SDA*%
X189992000Y-86950000D03*
%TO.P,J4,8,Pin_8*%
%TO.N,SCL*%
X189992000Y-83450000D03*
%TO.P,J4,9,Pin_9*%
%TO.N,TXD*%
X189992000Y-79950000D03*
%TO.P,J4,10,Pin_10*%
%TO.N,RXD*%
X189992000Y-76450000D03*
%TD*%
D18*
%TO.P,J2,1,Pin_1*%
%TO.N,VIN*%
X135229600Y-76450000D03*
D19*
%TO.P,J2,2,Pin_2*%
%TO.N,+3.3V*%
X135229600Y-79950000D03*
%TO.P,J2,3,Pin_3*%
%TO.N,GND*%
X135229600Y-83450000D03*
%TO.P,J2,4,Pin_4*%
%TO.N,nRST*%
X135229600Y-86950000D03*
%TO.P,J2,5,Pin_5*%
%TO.N,V Sense*%
X135229600Y-90450000D03*
%TO.P,J2,6,Pin_6*%
%TO.N,IO12*%
X135229600Y-93950000D03*
%TO.P,J2,7,Pin_7*%
%TO.N,Fet LOAD VCC*%
X135229600Y-97450000D03*
%TO.P,J2,8,Pin_8*%
%TO.N,Fet LOAD GND*%
X135229600Y-100950000D03*
%TO.P,J2,9,Pin_9*%
%TO.N,Fet GND*%
X135229600Y-104450000D03*
%TO.P,J2,10,Pin_10*%
%TO.N,GND*%
X135229600Y-107950000D03*
%TD*%
D16*
%TO.P,J9,1,Pin_1*%
%TO.N,+3.3V*%
X167640000Y-109000000D03*
D17*
%TO.P,J9,2,Pin_2*%
%TO.N,GND LP*%
X165100000Y-109000000D03*
%TO.P,J9,3,Pin_3*%
%TO.N,Net-(J9-Pin_3)*%
X162560000Y-109000000D03*
%TO.P,J9,4,Pin_4*%
%TO.N,Net-(J9-Pin_4)*%
X160020000Y-109000000D03*
%TD*%
D20*
%TO.P,SW1,1,C*%
%TO.N,GND*%
X172414000Y-103723000D03*
X165914000Y-103723000D03*
%TO.P,SW1,2,D*%
%TO.N,Net-(SW1A-D)*%
X172414000Y-99223000D03*
X165914000Y-99223000D03*
%TD*%
D21*
%TO.P,Q1,1,G*%
%TO.N,Net-(Q1-G)*%
X151525000Y-100745000D03*
D22*
%TO.P,Q1,2,D*%
%TO.N,Net-(JP3-C)*%
X156150000Y-101500000D03*
X156150000Y-104550000D03*
D23*
X157825000Y-103025000D03*
D22*
X159500000Y-101500000D03*
X159500000Y-104550000D03*
D21*
%TO.P,Q1,3,S*%
%TO.N,Net-(D1-A)*%
X151525000Y-105305000D03*
%TD*%
D17*
%TO.P,J8,4,Pin_4*%
%TO.N,SCL*%
X177546000Y-83655000D03*
%TO.P,J8,3,Pin_3*%
%TO.N,SDA*%
X177546000Y-86195000D03*
%TO.P,J8,2,Pin_2*%
%TO.N,GND LP*%
X177546000Y-88735000D03*
D16*
%TO.P,J8,1,Pin_1*%
%TO.N,+3.3V*%
X177546000Y-91275000D03*
%TD*%
%TO.P,J7,1,Pin_1*%
%TO.N,GND LP*%
X177546000Y-109000000D03*
D17*
%TO.P,J7,2,Pin_2*%
%TO.N,IO14*%
X175006000Y-109000000D03*
%TO.P,J7,3,Pin_3*%
%TO.N,+3.3V*%
X172466000Y-109000000D03*
%TD*%
D24*
%TO.P,U2,1,~{RST}*%
%TO.N,nRST*%
X158250000Y-81030000D03*
%TO.P,U2,2,ADC*%
%TO.N,V Sense*%
X158250000Y-83030000D03*
%TO.P,U2,3,EN*%
%TO.N,Net-(U2-EN)*%
X158250000Y-85030000D03*
%TO.P,U2,4,GPIO16*%
%TO.N,IO16*%
X158250000Y-87030000D03*
%TO.P,U2,5,GPIO14*%
%TO.N,IO14*%
X158250000Y-89030000D03*
%TO.P,U2,6,GPIO12*%
%TO.N,IO12*%
X158250000Y-91030000D03*
%TO.P,U2,7,GPIO13*%
%TO.N,IO13*%
X158250000Y-93030000D03*
%TO.P,U2,8,VCC*%
%TO.N,+3.3V*%
X158250000Y-95030000D03*
D25*
%TO.P,U2,9,CS0*%
%TO.N,unconnected-(U2-CS0-Pad9)*%
X160850000Y-96530000D03*
%TO.P,U2,10,MISO*%
%TO.N,unconnected-(U2-MISO-Pad10)*%
X162850000Y-96530000D03*
%TO.P,U2,11,GPIO9*%
%TO.N,IO9*%
X164850000Y-96530000D03*
%TO.P,U2,12,GPIO10*%
%TO.N,IO10*%
X166850000Y-96530000D03*
%TO.P,U2,13,MOSI*%
%TO.N,unconnected-(U2-MOSI-Pad13)*%
X168850000Y-96530000D03*
%TO.P,U2,14,SCLK*%
%TO.N,unconnected-(U2-SCLK-Pad14)*%
X170850000Y-96530000D03*
D24*
%TO.P,U2,15,GND*%
%TO.N,GND*%
X173450000Y-95030000D03*
%TO.P,U2,16,GPIO15*%
%TO.N,Net-(U2-GPIO15)*%
X173450000Y-93030000D03*
%TO.P,U2,17,GPIO2*%
%TO.N,Net-(SW1A-D)*%
X173450000Y-91030000D03*
%TO.P,U2,18,GPIO0*%
%TO.N,GPIO0*%
X173450000Y-89030000D03*
%TO.P,U2,19,GPIO4*%
%TO.N,SDA*%
X173450000Y-87030000D03*
%TO.P,U2,20,GPIO5*%
%TO.N,SCL*%
X173450000Y-85030000D03*
%TO.P,U2,21,GPIO3/RXD*%
%TO.N,TXD*%
X173450000Y-83030000D03*
%TO.P,U2,22,GPIO1/TXD*%
%TO.N,RXD*%
X173450000Y-81030000D03*
%TD*%
D26*
%TO.P,U1,1*%
%TO.N,Net-(R8-Pad1)*%
X153810000Y-95770000D03*
%TO.P,U1,2*%
%TO.N,GND*%
X153810000Y-93230000D03*
%TO.P,U1,3*%
%TO.N,Net-(D1-K)*%
X146190000Y-93230000D03*
%TO.P,U1,4*%
%TO.N,Net-(R7-Pad1)*%
X146190000Y-95770000D03*
%TD*%
D27*
%TO.P,C3,1*%
%TO.N,+3.3V*%
X153205000Y-82590000D03*
%TO.P,C3,2*%
%TO.N,GND*%
X151130000Y-82590000D03*
%TD*%
D16*
%TO.P,J6,1,Pin_1*%
%TO.N,+3.3V*%
X152692500Y-88590000D03*
D17*
%TO.P,J6,2,Pin_2*%
%TO.N,GND*%
X150152500Y-88590000D03*
%TO.P,J6,3,Pin_3*%
%TO.N,VIN*%
X147612500Y-88590000D03*
%TD*%
D27*
%TO.P,C4,2*%
%TO.N,GND*%
X151130000Y-85090000D03*
%TO.P,C4,1*%
%TO.N,+3.3V*%
X153205000Y-85090000D03*
%TD*%
D28*
%TO.P,C1,1*%
%TO.N,VIN*%
X147130000Y-85090000D03*
%TO.P,C1,2*%
%TO.N,GND*%
X149205000Y-85090000D03*
%TD*%
D16*
%TO.P,J5,1,Pin_1*%
%TO.N,GND LP*%
X177546000Y-103632000D03*
D17*
%TO.P,J5,2,Pin_2*%
%TO.N,unconnected-(J5-Pin_2-Pad2)*%
X177546000Y-101092000D03*
%TO.P,J5,3,Pin_3*%
%TO.N,IO16*%
X177546000Y-98552000D03*
%TO.P,J5,4,Pin_4*%
%TO.N,+3.3V*%
X177546000Y-96012000D03*
%TD*%
D29*
%TO.P,JP4,1,A*%
%TO.N,GND*%
X149098000Y-105156000D03*
D30*
%TO.P,JP4,2,C*%
%TO.N,Net-(D1-A)*%
X147798000Y-105156000D03*
D31*
%TO.P,JP4,3,B*%
%TO.N,Fet GND*%
X146498000Y-105156000D03*
%TD*%
D32*
%TO.P,R7,1*%
%TO.N,Net-(R7-Pad1)*%
X149000000Y-99000000D03*
%TO.P,R7,2*%
%TO.N,Net-(JP5-C)*%
X149000000Y-101000000D03*
%TD*%
D28*
%TO.P,C2,1*%
%TO.N,VIN*%
X147130000Y-82590000D03*
%TO.P,C2,2*%
%TO.N,GND*%
X149205000Y-82590000D03*
%TD*%
D33*
%TO.N,GND*%
X174900000Y-95000000D03*
D34*
%TO.N,*%
X145500000Y-109000000D03*
D33*
%TO.N,GND*%
X165550000Y-82850000D03*
X169418000Y-105156000D03*
X131826000Y-107442000D03*
X158750000Y-97028000D03*
X166624000Y-101346000D03*
X153670000Y-104648000D03*
X149850000Y-107750000D03*
X155194000Y-110490000D03*
X170180000Y-110490000D03*
X180340000Y-106680000D03*
X180594000Y-102870000D03*
X182118000Y-108966000D03*
X193294000Y-76200000D03*
X192150000Y-81800000D03*
X192200000Y-87600000D03*
X193294000Y-95758000D03*
X193040000Y-101854000D03*
X193040000Y-107442000D03*
X157226000Y-96520000D03*
X176413409Y-105494028D03*
X169926000Y-107696000D03*
X162306000Y-84836000D03*
X179300000Y-94350000D03*
X141224000Y-109982000D03*
X137922000Y-102616000D03*
X132080000Y-101346000D03*
X137668000Y-95758000D03*
X132080000Y-94996000D03*
X137549626Y-88737433D03*
X132080000Y-89154000D03*
X137969609Y-85181585D03*
X132334000Y-82296000D03*
X155702000Y-77470000D03*
X176530000Y-73406000D03*
X187452000Y-74930000D03*
X187452000Y-97536000D03*
X181102000Y-104394000D03*
X166370000Y-107442000D03*
X169550000Y-101400000D03*
X174752000Y-102870000D03*
X153810000Y-93230000D03*
X150876000Y-95758000D03*
X154750000Y-84100000D03*
X151384000Y-86614000D03*
X150114000Y-86614000D03*
X144526000Y-83820000D03*
%TO.N,IO13*%
X171450000Y-89916000D03*
%TO.N,IO16*%
X170000000Y-93300000D03*
%TO.N,IO13*%
X178900000Y-93475000D03*
%TO.N,Fet LOAD GND*%
X152908000Y-102362000D03*
%TO.N,V Sense*%
X153416000Y-90424000D03*
%TO.N,nRST*%
X158242000Y-81026000D03*
%TO.N,+3.3V*%
X156083000Y-88519000D03*
%TO.N,nRST*%
X166878000Y-88646000D03*
%TO.N,GND*%
X173482000Y-95123000D03*
%TO.N,IO14*%
X158750000Y-89027000D03*
%TO.N,IO12*%
X158813500Y-91122500D03*
%TO.N,V Sense*%
X162814000Y-104386000D03*
X158500000Y-83000000D03*
%TO.N,Net-(U2-GPIO15)*%
X173500000Y-93000000D03*
%TO.N,Net-(U2-EN)*%
X158500000Y-84582000D03*
%TO.N,RXD*%
X173708000Y-80772000D03*
%TO.N,TXD*%
X173500000Y-83000000D03*
%TO.N,Net-(J9-Pin_3)*%
X164185600Y-98044000D03*
%TO.N,nRST*%
X166370000Y-92964000D03*
X162200000Y-94930000D03*
%TO.N,GPIO0*%
X166878000Y-84709000D03*
%TO.N,Net-(SW1A-D)*%
X173500000Y-91000000D03*
%TO.N,Net-(Q1-G)*%
X151511000Y-100584000D03*
%TO.N,Net-(D1-K)*%
X148500000Y-93500000D03*
%TO.N,Net-(R8-Pad1)*%
X153810000Y-95770000D03*
%TO.N,Net-(D1-A)*%
X151500000Y-105000000D03*
%TO.N,Net-(JP3-C)*%
X155500000Y-100500000D03*
X157000000Y-105500000D03*
X155500000Y-102500000D03*
X155500000Y-103500000D03*
X158500000Y-105500000D03*
X160000000Y-104500000D03*
X160000000Y-103500000D03*
X160000000Y-101500000D03*
X158500000Y-102500000D03*
X158500000Y-103500000D03*
X157000000Y-103500000D03*
X155500000Y-101500000D03*
X155500000Y-104500000D03*
X160000000Y-105500000D03*
X158500000Y-101500000D03*
X157000000Y-102500000D03*
X157000000Y-101500000D03*
X158500000Y-104500000D03*
X160000000Y-102500000D03*
X157000000Y-100500000D03*
X157000000Y-104500000D03*
X155500000Y-105500000D03*
X158500000Y-100500000D03*
X160000000Y-100500000D03*
%TO.N,IO14*%
X170434000Y-105029000D03*
%TO.N,IO13*%
X158000000Y-93000000D03*
%TD*%
D35*
%TO.N,TXD*%
X173450000Y-83030000D02*
X174200000Y-83030000D01*
X174200000Y-83030000D02*
X175080000Y-82150000D01*
X175080000Y-82150000D02*
X179725000Y-82150000D01*
X179725000Y-82150000D02*
X182665000Y-85090000D01*
X182665000Y-85090000D02*
X182880000Y-85090000D01*
%TO.N,SCL*%
X177546000Y-83655000D02*
X178555000Y-83655000D01*
X182530000Y-87630000D02*
X182880000Y-87630000D01*
X178555000Y-83655000D02*
X182530000Y-87630000D01*
%TO.N,SDA*%
X177546000Y-86195000D02*
X178545000Y-86195000D01*
X182520000Y-90170000D02*
X182880000Y-90170000D01*
X178545000Y-86195000D02*
X182520000Y-90170000D01*
X173450000Y-87030000D02*
X175495000Y-87030000D01*
X175495000Y-87030000D02*
X176330000Y-86195000D01*
X176330000Y-86195000D02*
X177546000Y-86195000D01*
%TO.N,SCL*%
X173450000Y-85030000D02*
X174520000Y-85030000D01*
X175895000Y-83655000D02*
X177546000Y-83655000D01*
X174520000Y-85030000D02*
X175895000Y-83655000D01*
%TO.N,+3.3V*%
X177546000Y-91275000D02*
X181445000Y-91275000D01*
X181445000Y-91275000D02*
X182880000Y-92710000D01*
X178727000Y-91275000D02*
X177546000Y-91275000D01*
X177546000Y-91275000D02*
X177546000Y-96012000D01*
%TO.N,IO13*%
X178900000Y-93475000D02*
X181105000Y-93475000D01*
X181105000Y-93475000D02*
X182880000Y-95250000D01*
%TO.N,+3.3V*%
X177546000Y-96012000D02*
X174498000Y-99060000D01*
X174498000Y-99060000D02*
X174498000Y-99822000D01*
X174498000Y-99822000D02*
X172974000Y-101346000D01*
X172974000Y-101346000D02*
X171454000Y-101346000D01*
X171454000Y-101346000D02*
X167640000Y-105160000D01*
X167640000Y-105160000D02*
X167640000Y-109000000D01*
%TO.N,V Sense*%
X162814000Y-104386000D02*
X162814000Y-99568000D01*
X161798000Y-98552000D02*
X153670000Y-98552000D01*
X162814000Y-99568000D02*
X161798000Y-98552000D01*
X153670000Y-98552000D02*
X152019000Y-96901000D01*
X152019000Y-96901000D02*
X152019000Y-91821000D01*
X154850000Y-88990000D02*
X154850000Y-85530000D01*
X152019000Y-91821000D02*
X154850000Y-88990000D01*
X154850000Y-85530000D02*
X157350000Y-83030000D01*
X157350000Y-83030000D02*
X158250000Y-83030000D01*
%TO.N,+3.3V*%
X144526000Y-91774000D02*
X144526000Y-90551000D01*
X144526000Y-90551000D02*
X150731500Y-90551000D01*
X150731500Y-90551000D02*
X152692500Y-88590000D01*
%TO.N,Net-(J9-Pin_3)*%
X164185600Y-98044000D02*
X164185600Y-107374400D01*
X164185600Y-107374400D02*
X162560000Y-109000000D01*
%TO.N,IO16*%
X170000000Y-93292000D02*
X163738000Y-87030000D01*
X170000000Y-93300000D02*
X170000000Y-93292000D01*
X163738000Y-87030000D02*
X158250000Y-87030000D01*
%TO.N,IO13*%
X158250000Y-93030000D02*
X162240000Y-93030000D01*
X169556108Y-94488000D02*
X170762000Y-94488000D01*
X162240000Y-93030000D02*
X163494768Y-91775232D01*
X163494768Y-91775232D02*
X166843340Y-91775232D01*
X166843340Y-91775232D02*
X169556108Y-94488000D01*
X170762000Y-94488000D02*
X171450000Y-93800000D01*
X171450000Y-93800000D02*
X171450000Y-89916000D01*
%TO.N,Net-(SW1A-D)*%
X173500000Y-91000000D02*
X174820000Y-91000000D01*
X174820000Y-91000000D02*
X176000000Y-92180000D01*
X176000000Y-92180000D02*
X176000000Y-95526000D01*
X176000000Y-95526000D02*
X172414000Y-99112000D01*
X172414000Y-99112000D02*
X172414000Y-99223000D01*
%TO.N,GPIO0*%
X166878000Y-84709000D02*
X167659000Y-84709000D01*
X167659000Y-84709000D02*
X171980000Y-89030000D01*
X171980000Y-89030000D02*
X173450000Y-89030000D01*
%TO.N,+3.3V*%
X146558000Y-98552000D02*
X146050000Y-98552000D01*
X146050000Y-98552000D02*
X144526000Y-97028000D01*
X144526000Y-97028000D02*
X144526000Y-91774000D01*
%TO.N,Fet LOAD VCC*%
X146558000Y-101152000D02*
X145752000Y-101152000D01*
X145752000Y-101152000D02*
X142390000Y-97790000D01*
X142390000Y-97790000D02*
X142240000Y-97790000D01*
%TO.N,Fet LOAD GND*%
X152908000Y-102362000D02*
X144612000Y-102362000D01*
X144612000Y-102362000D02*
X142580000Y-100330000D01*
X142580000Y-100330000D02*
X142240000Y-100330000D01*
%TO.N,IO12*%
X135229600Y-93950000D02*
X140000000Y-93950000D01*
X140000000Y-93950000D02*
X141300000Y-95250000D01*
X141300000Y-95250000D02*
X142240000Y-95250000D01*
%TO.N,Fet GND*%
X135229600Y-104450000D02*
X139550000Y-104450000D01*
X139550000Y-104450000D02*
X141130000Y-102870000D01*
X141130000Y-102870000D02*
X142240000Y-102870000D01*
%TO.N,GND*%
X142240000Y-105410000D02*
X141790000Y-105410000D01*
%TO.N,+3.3V*%
X142240000Y-85090000D02*
X140940000Y-85090000D01*
X140940000Y-85090000D02*
X135800000Y-79950000D01*
X135800000Y-79950000D02*
X135229600Y-79950000D01*
X189992000Y-90450000D02*
X185500000Y-90450000D01*
X185500000Y-90450000D02*
X183240000Y-92710000D01*
X183240000Y-92710000D02*
X182880000Y-92710000D01*
%TO.N,SCL*%
X189992000Y-83450000D02*
X187650000Y-83450000D01*
X187650000Y-83450000D02*
X183470000Y-87630000D01*
X183470000Y-87630000D02*
X182880000Y-87630000D01*
%TO.N,SDA*%
X189992000Y-86950000D02*
X186550000Y-86950000D01*
X186550000Y-86950000D02*
X183330000Y-90170000D01*
X183330000Y-90170000D02*
X182880000Y-90170000D01*
%TO.N,TXD*%
X189992000Y-79950000D02*
X188650000Y-79950000D01*
X183510000Y-85090000D02*
X182880000Y-85090000D01*
X188650000Y-79950000D02*
X183510000Y-85090000D01*
%TO.N,RXD*%
X189992000Y-76450000D02*
X188400000Y-76450000D01*
X188400000Y-76450000D02*
X182880000Y-81970000D01*
X182880000Y-81970000D02*
X182880000Y-82550000D01*
%TO.N,IO14*%
X189992000Y-107950000D02*
X185420000Y-107950000D01*
X185420000Y-107950000D02*
X182880000Y-105410000D01*
%TO.N,GND LP*%
X189992000Y-104450000D02*
X184460000Y-104450000D01*
X184460000Y-104450000D02*
X182880000Y-102870000D01*
%TO.N,IO16*%
X189992000Y-100950000D02*
X183500000Y-100950000D01*
X183500000Y-100950000D02*
X182880000Y-100330000D01*
%TO.N,IO13*%
X189992000Y-93950000D02*
X184180000Y-93950000D01*
X184180000Y-93950000D02*
X182880000Y-95250000D01*
%TO.N,Net-(D1-A)*%
X147798000Y-105156000D02*
X147798000Y-104335754D01*
X147798000Y-104335754D02*
X148501754Y-103632000D01*
X148501754Y-103632000D02*
X150876000Y-103632000D01*
X150876000Y-103632000D02*
X151500000Y-104256000D01*
X151500000Y-104256000D02*
X151500000Y-105000000D01*
%TO.N,VIN*%
X135229600Y-76450000D02*
X136140000Y-76450000D01*
X136140000Y-76450000D02*
X142240000Y-82550000D01*
%TO.N,nRST*%
X135229600Y-86950000D02*
X139020000Y-86950000D01*
X139020000Y-86950000D02*
X142240000Y-90170000D01*
%TO.N,V Sense*%
X135229600Y-90450000D02*
X139980000Y-90450000D01*
X139980000Y-90450000D02*
X142240000Y-92710000D01*
%TO.N,Fet LOAD VCC*%
X135229600Y-97450000D02*
X141900000Y-97450000D01*
X141900000Y-97450000D02*
X142240000Y-97790000D01*
%TO.N,Fet LOAD GND*%
X135229600Y-100950000D02*
X141620000Y-100950000D01*
X141620000Y-100950000D02*
X142240000Y-100330000D01*
%TO.N,GND*%
X189652000Y-97790000D02*
X189992000Y-97450000D01*
%TO.N,Net-(JP5-C)*%
X146558000Y-99852000D02*
X147852000Y-99852000D01*
X147852000Y-99852000D02*
X149000000Y-101000000D01*
%TO.N,Fet GND*%
X146498000Y-105156000D02*
X145288000Y-105156000D01*
X145288000Y-105156000D02*
X143002000Y-102870000D01*
X143002000Y-102870000D02*
X142240000Y-102870000D01*
%TO.N,IO14*%
X170434000Y-105029000D02*
X171881800Y-106476800D01*
X171881800Y-106476800D02*
X173685200Y-106476800D01*
X173685200Y-106476800D02*
X175006000Y-107797600D01*
X175006000Y-107797600D02*
X175006000Y-109000000D01*
%TO.N,IO13*%
X171450000Y-89916000D02*
X171450000Y-90170000D01*
%TO.N,nRST*%
X166370000Y-92964000D02*
X164166000Y-92964000D01*
X164166000Y-92964000D02*
X162200000Y-94930000D01*
%TO.N,IO16*%
X177546000Y-98552000D02*
X181102000Y-98552000D01*
X181102000Y-98552000D02*
X182880000Y-100330000D01*
%TO.N,+3.3V*%
X182880000Y-92710000D02*
X182756000Y-92710000D01*
%TO.N,nRST*%
X158246000Y-81030000D02*
X158250000Y-81030000D01*
X158242000Y-81026000D02*
X158246000Y-81030000D01*
X158254000Y-81030000D02*
X158242000Y-81026000D01*
%TO.N,VIN*%
X141986000Y-82550000D02*
X147090000Y-82550000D01*
X147090000Y-82550000D02*
X147130000Y-82590000D01*
%TO.N,IO14*%
X175006000Y-109000000D02*
X175420000Y-109000000D01*
%TO.N,GND LP*%
X177960000Y-109000000D02*
X177546000Y-109000000D01*
X177546000Y-109000000D02*
X177500000Y-108954000D01*
X177500000Y-108954000D02*
X177500000Y-103620000D01*
%TO.N,+3.3V*%
X156083000Y-88519000D02*
X156083000Y-94742000D01*
X156083000Y-88500000D02*
X156083000Y-88519000D01*
X156083000Y-94742000D02*
X156371000Y-95030000D01*
X156371000Y-95030000D02*
X158250000Y-95030000D01*
%TO.N,Net-(SW1A-D)*%
X165914000Y-99223000D02*
X172414000Y-99223000D01*
%TO.N,nRST*%
X166878000Y-88646000D02*
X166878000Y-86995000D01*
X166878000Y-86995000D02*
X160913000Y-81030000D01*
X160913000Y-81030000D02*
X158254000Y-81030000D01*
%TO.N,+3.3V*%
X153205000Y-82590000D02*
X153205000Y-88077500D01*
X153205000Y-88077500D02*
X152692500Y-88590000D01*
%TO.N,VIN*%
X147130000Y-82590000D02*
X147130000Y-88107500D01*
X147130000Y-88107500D02*
X147612500Y-88590000D01*
%TO.N,Net-(D1-K)*%
X148500000Y-93500000D02*
X146460000Y-93500000D01*
X146460000Y-93500000D02*
X146190000Y-93230000D01*
%TO.N,Net-(R7-Pad1)*%
X149000000Y-99000000D02*
X149000000Y-98580000D01*
X149000000Y-98580000D02*
X146190000Y-95770000D01*
%TO.N,+3.3V*%
X144526000Y-91774000D02*
X144550000Y-91750000D01*
X144550000Y-91750000D02*
X144550000Y-86050000D01*
X144550000Y-86050000D02*
X143590000Y-85090000D01*
X143590000Y-85090000D02*
X141986000Y-85090000D01*
%TD*%
%TA.AperFunction,Conductor*%
%TO.N,GND*%
G36*
X166860768Y-104735563D02*
G01*
X166908581Y-104786510D01*
X166921260Y-104855220D01*
X166912481Y-104889906D01*
X166894302Y-104933795D01*
X166894300Y-104933802D01*
X166864500Y-105083615D01*
X166864500Y-107626802D01*
X166844815Y-107693841D01*
X166792011Y-107739596D01*
X166759898Y-107749275D01*
X166664699Y-107764352D01*
X166609297Y-107792580D01*
X166551658Y-107821950D01*
X166551657Y-107821951D01*
X166551652Y-107821954D01*
X166461954Y-107911652D01*
X166461951Y-107911657D01*
X166461950Y-107911658D01*
X166446089Y-107942787D01*
X166404352Y-108024698D01*
X166389500Y-108118475D01*
X166389500Y-108268138D01*
X166369815Y-108335177D01*
X166317011Y-108380932D01*
X166247853Y-108390876D01*
X166184297Y-108361851D01*
X166163925Y-108339261D01*
X166061599Y-108193124D01*
X165986950Y-108118475D01*
X165906877Y-108038402D01*
X165727639Y-107912898D01*
X165727640Y-107912898D01*
X165727638Y-107912897D01*
X165628484Y-107866661D01*
X165529330Y-107820425D01*
X165529326Y-107820424D01*
X165529322Y-107820422D01*
X165317977Y-107763793D01*
X165100002Y-107744723D01*
X165099998Y-107744723D01*
X165063809Y-107747889D01*
X164995309Y-107734122D01*
X164945126Y-107685507D01*
X164929193Y-107617478D01*
X164931385Y-107600170D01*
X164947428Y-107519512D01*
X164961100Y-107450780D01*
X164961100Y-107298019D01*
X164961100Y-104880981D01*
X164980785Y-104813942D01*
X165033589Y-104768187D01*
X165102747Y-104758243D01*
X165156224Y-104779406D01*
X165261517Y-104853134D01*
X165467673Y-104949265D01*
X165467682Y-104949269D01*
X165687389Y-105008139D01*
X165687400Y-105008141D01*
X165913998Y-105027966D01*
X165914002Y-105027966D01*
X166140599Y-105008141D01*
X166140610Y-105008139D01*
X166360317Y-104949269D01*
X166360326Y-104949265D01*
X166566483Y-104853133D01*
X166566489Y-104853129D01*
X166726795Y-104740881D01*
X166793001Y-104718553D01*
X166860768Y-104735563D01*
G37*
%TD.AperFunction*%
%TA.AperFunction,Conductor*%
G36*
X171247688Y-100018185D02*
G01*
X171284455Y-100054675D01*
X171305021Y-100086153D01*
X171462216Y-100256913D01*
X171462219Y-100256915D01*
X171462222Y-100256918D01*
X171580075Y-100348647D01*
X171620888Y-100405357D01*
X171624563Y-100475130D01*
X171589931Y-100535813D01*
X171527990Y-100568140D01*
X171503913Y-100570500D01*
X171377615Y-100570500D01*
X171227802Y-100600299D01*
X171227793Y-100600302D01*
X171086669Y-100658756D01*
X170959641Y-100743635D01*
X170959641Y-100743636D01*
X167293552Y-104409725D01*
X167232229Y-104443210D01*
X167162537Y-104438226D01*
X167106604Y-104396354D01*
X167082187Y-104330890D01*
X167093489Y-104269639D01*
X167140266Y-104169326D01*
X167140269Y-104169317D01*
X167199139Y-103949610D01*
X167199141Y-103949599D01*
X167218966Y-103723002D01*
X167218966Y-103722997D01*
X167199141Y-103496400D01*
X167199139Y-103496389D01*
X167140269Y-103276682D01*
X167140264Y-103276668D01*
X167044136Y-103070521D01*
X167044132Y-103070513D01*
X166993025Y-102997526D01*
X166437787Y-103552763D01*
X166426518Y-103510708D01*
X166354110Y-103385292D01*
X166251708Y-103282890D01*
X166126292Y-103210482D01*
X166084234Y-103199212D01*
X166639472Y-102643974D01*
X166566478Y-102592863D01*
X166360331Y-102496735D01*
X166360317Y-102496730D01*
X166140610Y-102437860D01*
X166140599Y-102437858D01*
X165914002Y-102418034D01*
X165913998Y-102418034D01*
X165687400Y-102437858D01*
X165687389Y-102437860D01*
X165467682Y-102496730D01*
X165467673Y-102496734D01*
X165261516Y-102592866D01*
X165261512Y-102592868D01*
X165156223Y-102666593D01*
X165090017Y-102688920D01*
X165022250Y-102671910D01*
X164974437Y-102620962D01*
X164961100Y-102565018D01*
X164961100Y-100507844D01*
X164980785Y-100440805D01*
X165033589Y-100395050D01*
X165102747Y-100385106D01*
X165144118Y-100398790D01*
X165145371Y-100399468D01*
X165145374Y-100399470D01*
X165191504Y-100424434D01*
X165349486Y-100509931D01*
X165349492Y-100509933D01*
X165349497Y-100509936D01*
X165463487Y-100549068D01*
X165569015Y-100585297D01*
X165569017Y-100585297D01*
X165569019Y-100585298D01*
X165797951Y-100623500D01*
X165797952Y-100623500D01*
X166030048Y-100623500D01*
X166030049Y-100623500D01*
X166258981Y-100585298D01*
X166478503Y-100509936D01*
X166682626Y-100399470D01*
X166865784Y-100256913D01*
X167022979Y-100086153D01*
X167043544Y-100054676D01*
X167096690Y-100009321D01*
X167147351Y-99998500D01*
X171180649Y-99998500D01*
X171247688Y-100018185D01*
G37*
%TD.AperFunction*%
%TA.AperFunction,Conductor*%
G36*
X143294209Y-85906778D02*
G01*
X143338557Y-85935279D01*
X143738181Y-86334903D01*
X143771666Y-86396226D01*
X143774500Y-86422584D01*
X143774500Y-90341751D01*
X143772117Y-90365942D01*
X143750500Y-90474616D01*
X143750500Y-97104384D01*
X143780300Y-97254197D01*
X143780302Y-97254205D01*
X143838759Y-97395334D01*
X143838764Y-97395343D01*
X143923629Y-97522351D01*
X143923632Y-97522355D01*
X145366181Y-98964903D01*
X145399666Y-99026226D01*
X145402500Y-99052584D01*
X145402500Y-99102000D01*
X145402499Y-99102000D01*
X145419229Y-99207626D01*
X145419229Y-99246421D01*
X145407500Y-99320475D01*
X145407500Y-99411416D01*
X145387815Y-99478455D01*
X145335011Y-99524210D01*
X145265853Y-99534154D01*
X145202297Y-99505129D01*
X145195819Y-99499097D01*
X143528010Y-97831288D01*
X143494525Y-97769965D01*
X143492164Y-97754425D01*
X143476207Y-97572023D01*
X143428608Y-97394382D01*
X143419577Y-97360677D01*
X143419576Y-97360676D01*
X143419575Y-97360670D01*
X143327102Y-97162362D01*
X143327100Y-97162359D01*
X143327099Y-97162357D01*
X143201599Y-96983124D01*
X143170095Y-96951620D01*
X143046877Y-96828402D01*
X142867639Y-96702898D01*
X142716414Y-96632381D01*
X142663977Y-96586210D01*
X142644825Y-96519016D01*
X142665041Y-96452135D01*
X142716414Y-96407618D01*
X142867639Y-96337102D01*
X143046877Y-96211598D01*
X143201598Y-96056877D01*
X143327102Y-95877639D01*
X143419575Y-95679330D01*
X143476207Y-95467977D01*
X143495277Y-95250000D01*
X143495175Y-95248839D01*
X143487286Y-95158663D01*
X143476207Y-95032023D01*
X143419575Y-94820670D01*
X143327102Y-94622362D01*
X143327100Y-94622359D01*
X143327099Y-94622357D01*
X143201599Y-94443124D01*
X143147989Y-94389514D01*
X143046877Y-94288402D01*
X142867639Y-94162898D01*
X142716414Y-94092381D01*
X142663977Y-94046210D01*
X142644825Y-93979016D01*
X142665041Y-93912135D01*
X142716414Y-93867618D01*
X142867639Y-93797102D01*
X143046877Y-93671598D01*
X143201598Y-93516877D01*
X143327102Y-93337639D01*
X143419575Y-93139330D01*
X143476207Y-92927977D01*
X143493589Y-92729300D01*
X143495277Y-92710002D01*
X143495277Y-92709997D01*
X143488930Y-92637453D01*
X143476207Y-92492023D01*
X143419575Y-92280670D01*
X143327102Y-92082362D01*
X143327100Y-92082359D01*
X143327099Y-92082357D01*
X143201599Y-91903124D01*
X143124855Y-91826380D01*
X143046877Y-91748402D01*
X142867639Y-91622898D01*
X142716414Y-91552381D01*
X142663977Y-91506210D01*
X142644825Y-91439016D01*
X142665041Y-91372135D01*
X142716414Y-91327618D01*
X142867639Y-91257102D01*
X143046877Y-91131598D01*
X143201598Y-90976877D01*
X143327102Y-90797639D01*
X143419575Y-90599330D01*
X143476207Y-90387977D01*
X143495277Y-90170000D01*
X143476207Y-89952023D01*
X143419575Y-89740670D01*
X143327102Y-89542362D01*
X143327100Y-89542359D01*
X143327099Y-89542357D01*
X143201599Y-89363124D01*
X143130778Y-89292303D01*
X143046877Y-89208402D01*
X142867639Y-89082898D01*
X142867640Y-89082898D01*
X142867638Y-89082897D01*
X142731317Y-89019330D01*
X142669330Y-88990425D01*
X142669327Y-88990424D01*
X142669325Y-88990423D01*
X142588233Y-88968695D01*
X142528573Y-88932330D01*
X142498044Y-88869483D01*
X142506339Y-88800107D01*
X142550824Y-88746229D01*
X142575534Y-88733293D01*
X142754789Y-88663850D01*
X142754798Y-88663846D01*
X142935997Y-88551653D01*
X142935999Y-88551651D01*
X143093499Y-88408071D01*
X143221938Y-88237991D01*
X143316932Y-88047218D01*
X143316937Y-88047205D01*
X143364512Y-87880000D01*
X142673012Y-87880000D01*
X142705925Y-87822993D01*
X142740000Y-87695826D01*
X142740000Y-87564174D01*
X142705925Y-87437007D01*
X142673012Y-87380000D01*
X143364512Y-87380000D01*
X143364512Y-87379999D01*
X143316937Y-87212794D01*
X143316932Y-87212781D01*
X143221938Y-87022008D01*
X143093499Y-86851928D01*
X142935999Y-86708348D01*
X142935997Y-86708346D01*
X142754798Y-86596153D01*
X142754792Y-86596150D01*
X142575533Y-86526706D01*
X142520132Y-86484133D01*
X142496541Y-86418366D01*
X142512252Y-86350286D01*
X142562276Y-86301507D01*
X142588231Y-86291305D01*
X142632810Y-86279360D01*
X142669320Y-86269578D01*
X142669321Y-86269577D01*
X142669330Y-86269575D01*
X142867639Y-86177102D01*
X143046877Y-86051598D01*
X143163198Y-85935276D01*
X143224517Y-85901794D01*
X143294209Y-85906778D01*
G37*
%TD.AperFunction*%
%TA.AperFunction,Conductor*%
G36*
X178514391Y-94150030D02*
G01*
X178525393Y-94157381D01*
X178532660Y-94162237D01*
X178532665Y-94162240D01*
X178564636Y-94175482D01*
X178673795Y-94220698D01*
X178823615Y-94250499D01*
X178823619Y-94250500D01*
X178823620Y-94250500D01*
X180732416Y-94250500D01*
X180799455Y-94270185D01*
X180820097Y-94286819D01*
X181596591Y-95063314D01*
X181630076Y-95124637D01*
X181632438Y-95161801D01*
X181624723Y-95249996D01*
X181624723Y-95250002D01*
X181643793Y-95467975D01*
X181643793Y-95467979D01*
X181700422Y-95679322D01*
X181700424Y-95679326D01*
X181700425Y-95679330D01*
X181726178Y-95734557D01*
X181792897Y-95877638D01*
X181792898Y-95877639D01*
X181918402Y-96056877D01*
X182073123Y-96211598D01*
X182252361Y-96337102D01*
X182450670Y-96429575D01*
X182531766Y-96451304D01*
X182591425Y-96487668D01*
X182621955Y-96550515D01*
X182613661Y-96619891D01*
X182569176Y-96673769D01*
X182544466Y-96686706D01*
X182365207Y-96756150D01*
X182365201Y-96756153D01*
X182184002Y-96868346D01*
X182184000Y-96868348D01*
X182026500Y-97011928D01*
X181898061Y-97182008D01*
X181803067Y-97372781D01*
X181803062Y-97372794D01*
X181755487Y-97539999D01*
X181755488Y-97540000D01*
X182446988Y-97540000D01*
X182414075Y-97597007D01*
X182380000Y-97724174D01*
X182380000Y-97855826D01*
X182414075Y-97982993D01*
X182446988Y-98040000D01*
X181738085Y-98040000D01*
X181671046Y-98020315D01*
X181650404Y-98003681D01*
X181596355Y-97949632D01*
X181596351Y-97949629D01*
X181469343Y-97864764D01*
X181469334Y-97864759D01*
X181328205Y-97806302D01*
X181328197Y-97806300D01*
X181178384Y-97776500D01*
X181178380Y-97776500D01*
X178590338Y-97776500D01*
X178523299Y-97756815D01*
X178502657Y-97740182D01*
X178430817Y-97668342D01*
X178352877Y-97590402D01*
X178173639Y-97464898D01*
X178022414Y-97394381D01*
X177969977Y-97348210D01*
X177950825Y-97281016D01*
X177971041Y-97214135D01*
X178022414Y-97169618D01*
X178173639Y-97099102D01*
X178352877Y-96973598D01*
X178507598Y-96818877D01*
X178633102Y-96639639D01*
X178725575Y-96441330D01*
X178782207Y-96229977D01*
X178801277Y-96012000D01*
X178799432Y-95990916D01*
X178794750Y-95937398D01*
X178782207Y-95794023D01*
X178738892Y-95632370D01*
X178725577Y-95582677D01*
X178725576Y-95582676D01*
X178725575Y-95582670D01*
X178633102Y-95384362D01*
X178633100Y-95384359D01*
X178633099Y-95384357D01*
X178507597Y-95205121D01*
X178357819Y-95055343D01*
X178324334Y-94994020D01*
X178321500Y-94967662D01*
X178321500Y-94253132D01*
X178341185Y-94186093D01*
X178393989Y-94140338D01*
X178463147Y-94130394D01*
X178514391Y-94150030D01*
G37*
%TD.AperFunction*%
%TA.AperFunction,Conductor*%
G36*
X155226834Y-89812402D02*
G01*
X155282767Y-89854274D01*
X155307184Y-89919738D01*
X155307500Y-89928584D01*
X155307500Y-94818384D01*
X155337300Y-94968197D01*
X155337302Y-94968205D01*
X155395759Y-95109334D01*
X155395764Y-95109343D01*
X155480629Y-95236351D01*
X155480632Y-95236355D01*
X155876641Y-95632364D01*
X155876644Y-95632366D01*
X155876648Y-95632370D01*
X156003663Y-95717240D01*
X156127036Y-95768342D01*
X156144795Y-95775698D01*
X156294615Y-95805499D01*
X156294619Y-95805500D01*
X156294620Y-95805500D01*
X156657745Y-95805500D01*
X156724784Y-95825185D01*
X156745426Y-95841819D01*
X156761652Y-95858045D01*
X156761654Y-95858046D01*
X156761658Y-95858050D01*
X156863802Y-95910095D01*
X156874698Y-95915647D01*
X156968475Y-95930499D01*
X156968481Y-95930500D01*
X159531518Y-95930499D01*
X159625304Y-95915646D01*
X159738342Y-95858050D01*
X159738349Y-95858042D01*
X159746241Y-95852311D01*
X159747107Y-95853503D01*
X159799132Y-95825090D01*
X159868824Y-95830069D01*
X159924761Y-95871936D01*
X159949183Y-95937398D01*
X159949500Y-95946254D01*
X159949500Y-97461517D01*
X159956016Y-97502655D01*
X159964354Y-97555304D01*
X159985195Y-97596207D01*
X159998091Y-97664874D01*
X159971815Y-97729615D01*
X159914708Y-97769872D01*
X159874710Y-97776500D01*
X154042584Y-97776500D01*
X153975545Y-97756815D01*
X153954903Y-97740181D01*
X153396902Y-97182180D01*
X153363417Y-97120857D01*
X153368401Y-97051165D01*
X153410273Y-96995232D01*
X153475737Y-96970815D01*
X153484583Y-96970499D01*
X154641517Y-96970499D01*
X154641518Y-96970499D01*
X154735304Y-96955646D01*
X154848342Y-96898050D01*
X154938050Y-96808342D01*
X154995646Y-96695304D01*
X154995646Y-96695302D01*
X154995647Y-96695301D01*
X155010499Y-96601524D01*
X155010500Y-96601519D01*
X155010499Y-94938482D01*
X154995646Y-94844696D01*
X154938050Y-94731658D01*
X154938046Y-94731654D01*
X154938045Y-94731652D01*
X154848347Y-94641954D01*
X154848344Y-94641952D01*
X154848342Y-94641950D01*
X154735304Y-94584354D01*
X154735303Y-94584353D01*
X154735300Y-94584352D01*
X154667374Y-94573594D01*
X154604239Y-94543665D01*
X154567308Y-94484353D01*
X154568306Y-94414490D01*
X154606916Y-94356258D01*
X154670880Y-94328144D01*
X154672490Y-94327946D01*
X154679874Y-94327089D01*
X154782474Y-94281788D01*
X154782479Y-94281785D01*
X154861785Y-94202479D01*
X154861788Y-94202474D01*
X154907089Y-94099877D01*
X154907089Y-94099875D01*
X154909999Y-94074794D01*
X154910000Y-94074791D01*
X154910000Y-93480000D01*
X153684000Y-93480000D01*
X153616961Y-93460315D01*
X153571206Y-93407511D01*
X153560000Y-93356000D01*
X153560000Y-92980000D01*
X154060000Y-92980000D01*
X154909999Y-92980000D01*
X154909999Y-92385214D01*
X154909997Y-92385191D01*
X154907091Y-92360130D01*
X154907090Y-92360126D01*
X154861788Y-92257525D01*
X154861785Y-92257520D01*
X154782479Y-92178214D01*
X154782474Y-92178211D01*
X154679876Y-92132910D01*
X154654794Y-92130000D01*
X154060000Y-92130000D01*
X154060000Y-92980000D01*
X153560000Y-92980000D01*
X153560000Y-92130000D01*
X153106083Y-92130000D01*
X153039044Y-92110315D01*
X152993289Y-92057511D01*
X152983345Y-91988353D01*
X153012370Y-91924797D01*
X153018388Y-91918333D01*
X155095819Y-89840903D01*
X155157142Y-89807418D01*
X155226834Y-89812402D01*
G37*
%TD.AperFunction*%
%TA.AperFunction,Conductor*%
G36*
X175167539Y-94519685D02*
G01*
X175213294Y-94572489D01*
X175224500Y-94624000D01*
X175224500Y-95153416D01*
X175204815Y-95220455D01*
X175188181Y-95241097D01*
X174915409Y-95513869D01*
X174854086Y-95547354D01*
X174827728Y-95550188D01*
X172273931Y-95550188D01*
X172206892Y-95530503D01*
X172161137Y-95477699D01*
X172149931Y-95426304D01*
X172149678Y-95157011D01*
X172149178Y-94624114D01*
X172168800Y-94557058D01*
X172221561Y-94511254D01*
X172273178Y-94500000D01*
X175100500Y-94500000D01*
X175167539Y-94519685D01*
G37*
%TD.AperFunction*%
%TA.AperFunction,Conductor*%
G36*
X146187127Y-83345185D02*
G01*
X146226820Y-83386379D01*
X146274417Y-83466862D01*
X146274423Y-83466870D01*
X146318180Y-83510626D01*
X146351666Y-83571949D01*
X146354500Y-83598308D01*
X146354500Y-84081691D01*
X146334815Y-84148730D01*
X146318181Y-84169372D01*
X146274423Y-84213129D01*
X146274417Y-84213137D01*
X146190755Y-84354603D01*
X146190754Y-84354606D01*
X146144902Y-84512426D01*
X146144901Y-84512432D01*
X146142000Y-84549298D01*
X146142000Y-85630701D01*
X146144901Y-85667567D01*
X146144902Y-85667573D01*
X146190754Y-85825393D01*
X146190755Y-85825395D01*
X146190756Y-85825398D01*
X146196848Y-85835699D01*
X146274417Y-85966862D01*
X146274423Y-85966870D01*
X146318180Y-86010626D01*
X146351666Y-86071949D01*
X146354500Y-86098308D01*
X146354500Y-88183884D01*
X146379623Y-88310185D01*
X146377782Y-88366464D01*
X146376295Y-88372012D01*
X146376292Y-88372029D01*
X146357223Y-88589997D01*
X146357223Y-88590002D01*
X146363684Y-88663850D01*
X146375619Y-88800278D01*
X146376293Y-88807975D01*
X146376293Y-88807979D01*
X146432922Y-89019322D01*
X146432924Y-89019326D01*
X146432925Y-89019330D01*
X146434798Y-89023346D01*
X146525397Y-89217638D01*
X146525398Y-89217639D01*
X146650902Y-89396877D01*
X146650906Y-89396881D01*
X146805623Y-89551598D01*
X146809768Y-89555076D01*
X146808529Y-89556552D01*
X146846855Y-89604490D01*
X146854056Y-89673987D01*
X146822540Y-89736346D01*
X146762314Y-89771766D01*
X146732112Y-89775500D01*
X145449500Y-89775500D01*
X145382461Y-89755815D01*
X145336706Y-89703011D01*
X145325500Y-89651500D01*
X145325500Y-85973619D01*
X145325499Y-85973615D01*
X145319475Y-85943329D01*
X145295698Y-85823795D01*
X145241259Y-85692367D01*
X145237238Y-85682660D01*
X145152373Y-85555651D01*
X145152367Y-85555643D01*
X144084355Y-84487632D01*
X144084351Y-84487629D01*
X143957343Y-84402764D01*
X143957334Y-84402759D01*
X143816205Y-84344302D01*
X143816197Y-84344300D01*
X143666384Y-84314500D01*
X143666380Y-84314500D01*
X143284338Y-84314500D01*
X143217299Y-84294815D01*
X143196657Y-84278182D01*
X143131604Y-84213129D01*
X143046877Y-84128402D01*
X142900733Y-84026071D01*
X142857112Y-83971497D01*
X142849919Y-83901998D01*
X142881441Y-83839644D01*
X142941671Y-83804230D01*
X142971859Y-83800499D01*
X143121518Y-83800499D01*
X143215304Y-83785646D01*
X143328342Y-83728050D01*
X143418050Y-83638342D01*
X143475646Y-83525304D01*
X143475646Y-83525302D01*
X143475647Y-83525301D01*
X143490725Y-83430102D01*
X143520654Y-83366968D01*
X143579965Y-83330036D01*
X143613198Y-83325500D01*
X146120088Y-83325500D01*
X146187127Y-83345185D01*
G37*
%TD.AperFunction*%
%TA.AperFunction,Conductor*%
G36*
X160607455Y-81825185D02*
G01*
X160628097Y-81841819D01*
X164830098Y-86043820D01*
X164863583Y-86105143D01*
X164858599Y-86174835D01*
X164816727Y-86230768D01*
X164751263Y-86255185D01*
X164742417Y-86255501D01*
X163830636Y-86255501D01*
X163818483Y-86254904D01*
X163814381Y-86254500D01*
X163814380Y-86254500D01*
X159842255Y-86254500D01*
X159775216Y-86234815D01*
X159754574Y-86218181D01*
X159738347Y-86201954D01*
X159738343Y-86201951D01*
X159738342Y-86201950D01*
X159734782Y-86200136D01*
X159617708Y-86140483D01*
X159566913Y-86092509D01*
X159550118Y-86024688D01*
X159572656Y-85958553D01*
X159617710Y-85919514D01*
X159625300Y-85915646D01*
X159625304Y-85915646D01*
X159738342Y-85858050D01*
X159828050Y-85768342D01*
X159885646Y-85655304D01*
X159885646Y-85655302D01*
X159885647Y-85655301D01*
X159900499Y-85561524D01*
X159900500Y-85561519D01*
X159900499Y-84498482D01*
X159885646Y-84404696D01*
X159828050Y-84291658D01*
X159828046Y-84291654D01*
X159828045Y-84291652D01*
X159738347Y-84201954D01*
X159738343Y-84201951D01*
X159738342Y-84201950D01*
X159693024Y-84178859D01*
X159617708Y-84140483D01*
X159566913Y-84092509D01*
X159550118Y-84024688D01*
X159572656Y-83958553D01*
X159617710Y-83919514D01*
X159625300Y-83915646D01*
X159625304Y-83915646D01*
X159738342Y-83858050D01*
X159828050Y-83768342D01*
X159885646Y-83655304D01*
X159885646Y-83655302D01*
X159885647Y-83655301D01*
X159900499Y-83561524D01*
X159900500Y-83561519D01*
X159900499Y-82498482D01*
X159885646Y-82404696D01*
X159828050Y-82291658D01*
X159828046Y-82291654D01*
X159828045Y-82291652D01*
X159738347Y-82201954D01*
X159738343Y-82201951D01*
X159738342Y-82201950D01*
X159714777Y-82189943D01*
X159617708Y-82140483D01*
X159566913Y-82092509D01*
X159550118Y-82024688D01*
X159572656Y-81958553D01*
X159617710Y-81919514D01*
X159625300Y-81915646D01*
X159625304Y-81915646D01*
X159738342Y-81858050D01*
X159741790Y-81854602D01*
X159754574Y-81841819D01*
X159815897Y-81808334D01*
X159842255Y-81805500D01*
X160540416Y-81805500D01*
X160607455Y-81825185D01*
G37*
%TD.AperFunction*%
%TA.AperFunction,Conductor*%
G36*
X157673039Y-72656185D02*
G01*
X157718794Y-72708989D01*
X157730000Y-72760500D01*
X157730000Y-79730000D01*
X173970000Y-79730000D01*
X173970000Y-78197052D01*
X178497379Y-78197052D01*
X178497379Y-78197059D01*
X178517574Y-78376305D01*
X178517575Y-78376310D01*
X178577155Y-78546579D01*
X178628952Y-78629013D01*
X178673128Y-78699318D01*
X178800682Y-78826872D01*
X178953422Y-78922845D01*
X179123689Y-78982424D01*
X179123694Y-78982425D01*
X179302940Y-79002621D01*
X179302944Y-79002621D01*
X179302948Y-79002621D01*
X179482193Y-78982425D01*
X179482196Y-78982424D01*
X179482199Y-78982424D01*
X179652466Y-78922845D01*
X179805206Y-78826872D01*
X179932760Y-78699318D01*
X180000279Y-78591861D01*
X180034101Y-78561946D01*
X180182471Y-78561946D01*
X180185515Y-78563299D01*
X180223887Y-78621688D01*
X180224599Y-78691554D01*
X180222314Y-78698788D01*
X180214633Y-78720739D01*
X180214630Y-78720750D01*
X180194435Y-78899996D01*
X180194435Y-78900003D01*
X180214630Y-79079249D01*
X180214631Y-79079254D01*
X180274211Y-79249523D01*
X180370184Y-79402262D01*
X180497738Y-79529816D01*
X180650478Y-79625789D01*
X180820745Y-79685368D01*
X180820750Y-79685369D01*
X180999996Y-79705565D01*
X181000000Y-79705565D01*
X181000004Y-79705565D01*
X181179249Y-79685369D01*
X181179252Y-79685368D01*
X181179255Y-79685368D01*
X181349522Y-79625789D01*
X181502262Y-79529816D01*
X181629816Y-79402262D01*
X181725789Y-79249522D01*
X181785368Y-79079255D01*
X181793583Y-79006343D01*
X181805565Y-78900003D01*
X181805565Y-78899996D01*
X181785369Y-78720750D01*
X181785368Y-78720748D01*
X181785368Y-78720745D01*
X181777685Y-78698790D01*
X181774123Y-78629013D01*
X181808851Y-78568385D01*
X181823695Y-78560667D01*
X181756633Y-78554494D01*
X181733448Y-78536388D01*
X181873358Y-78536388D01*
X181940419Y-78542560D01*
X181995488Y-78585563D01*
X181999720Y-78591862D01*
X182067238Y-78699316D01*
X182067240Y-78699318D01*
X182194794Y-78826872D01*
X182347534Y-78922845D01*
X182517801Y-78982424D01*
X182517806Y-78982425D01*
X182697052Y-79002621D01*
X182697056Y-79002621D01*
X182697060Y-79002621D01*
X182876305Y-78982425D01*
X182876308Y-78982424D01*
X182876311Y-78982424D01*
X183046578Y-78922845D01*
X183199318Y-78826872D01*
X183326872Y-78699318D01*
X183422845Y-78546578D01*
X183482424Y-78376311D01*
X183482425Y-78376305D01*
X183502621Y-78197059D01*
X183502621Y-78197052D01*
X183482425Y-78017806D01*
X183482424Y-78017801D01*
X183479926Y-78010661D01*
X183422845Y-77847534D01*
X183326872Y-77694794D01*
X183199318Y-77567240D01*
X183199316Y-77567238D01*
X183091862Y-77499720D01*
X183045572Y-77447386D01*
X183035108Y-77379527D01*
X183033756Y-77382571D01*
X182975366Y-77420943D01*
X182905500Y-77421655D01*
X182898266Y-77419370D01*
X182876313Y-77411688D01*
X182876305Y-77411686D01*
X182697060Y-77391491D01*
X182697052Y-77391491D01*
X182517806Y-77411686D01*
X182517801Y-77411687D01*
X182347532Y-77471267D01*
X182194793Y-77567240D01*
X182067240Y-77694793D01*
X181971267Y-77847532D01*
X181911687Y-78017801D01*
X181911686Y-78017806D01*
X181891491Y-78197052D01*
X181891491Y-78197059D01*
X181911686Y-78376305D01*
X181911688Y-78376313D01*
X181919370Y-78398266D01*
X181922931Y-78468044D01*
X181888202Y-78528672D01*
X181873358Y-78536388D01*
X181733448Y-78536388D01*
X181701566Y-78511490D01*
X181697334Y-78505192D01*
X181645768Y-78423126D01*
X181629816Y-78397738D01*
X181502262Y-78270184D01*
X181349523Y-78174211D01*
X181179254Y-78114631D01*
X181179249Y-78114630D01*
X181000004Y-78094435D01*
X180999996Y-78094435D01*
X180820750Y-78114630D01*
X180820745Y-78114631D01*
X180650476Y-78174211D01*
X180497737Y-78270184D01*
X180370184Y-78397737D01*
X180370182Y-78397740D01*
X180302664Y-78505193D01*
X180250329Y-78551484D01*
X180182471Y-78561946D01*
X180034101Y-78561946D01*
X180052613Y-78545572D01*
X180120470Y-78535108D01*
X180117427Y-78533756D01*
X180079056Y-78475365D01*
X180078344Y-78405499D01*
X180080631Y-78398262D01*
X180088310Y-78376316D01*
X180088311Y-78376313D01*
X180088312Y-78376311D01*
X180088313Y-78376305D01*
X180108509Y-78197059D01*
X180108509Y-78197052D01*
X180088313Y-78017806D01*
X180088312Y-78017801D01*
X180085814Y-78010661D01*
X180028733Y-77847534D01*
X179932760Y-77694794D01*
X179805206Y-77567240D01*
X179697749Y-77499720D01*
X179652467Y-77471267D01*
X179482198Y-77411687D01*
X179482193Y-77411686D01*
X179302948Y-77391491D01*
X179302940Y-77391491D01*
X179123694Y-77411686D01*
X179123683Y-77411689D01*
X179101732Y-77419370D01*
X179031953Y-77422931D01*
X178971326Y-77388201D01*
X178963610Y-77373358D01*
X178957439Y-77440418D01*
X178914437Y-77495487D01*
X178908137Y-77499720D01*
X178800684Y-77567238D01*
X178800681Y-77567240D01*
X178673128Y-77694793D01*
X178577155Y-77847532D01*
X178517575Y-78017801D01*
X178517574Y-78017806D01*
X178497379Y-78197052D01*
X173970000Y-78197052D01*
X173970000Y-76499996D01*
X177794435Y-76499996D01*
X177794435Y-76500003D01*
X177814630Y-76679249D01*
X177814631Y-76679254D01*
X177874211Y-76849523D01*
X177934901Y-76946110D01*
X177970184Y-77002262D01*
X178097738Y-77129816D01*
X178250478Y-77225789D01*
X178388609Y-77274123D01*
X178420745Y-77285368D01*
X178420750Y-77285369D01*
X178599996Y-77305565D01*
X178600000Y-77305565D01*
X178600004Y-77305565D01*
X178779249Y-77285369D01*
X178779251Y-77285368D01*
X178779255Y-77285368D01*
X178801206Y-77277686D01*
X178870985Y-77274123D01*
X178931613Y-77308850D01*
X178939331Y-77323696D01*
X178945506Y-77256632D01*
X178988510Y-77201565D01*
X178994795Y-77197342D01*
X179102262Y-77129816D01*
X179229816Y-77002262D01*
X179325789Y-76849522D01*
X179385368Y-76679255D01*
X179405565Y-76500000D01*
X179405565Y-76499996D01*
X182594435Y-76499996D01*
X182594435Y-76500003D01*
X182614630Y-76679249D01*
X182614631Y-76679254D01*
X182674211Y-76849523D01*
X182734901Y-76946110D01*
X182770184Y-77002262D01*
X182897738Y-77129816D01*
X182975789Y-77178859D01*
X183005192Y-77197334D01*
X183051483Y-77249669D01*
X183061946Y-77317527D01*
X183063299Y-77314484D01*
X183121689Y-77276112D01*
X183191555Y-77275400D01*
X183198782Y-77277683D01*
X183220745Y-77285368D01*
X183220748Y-77285368D01*
X183220750Y-77285369D01*
X183399996Y-77305565D01*
X183400000Y-77305565D01*
X183400004Y-77305565D01*
X183579249Y-77285369D01*
X183579252Y-77285368D01*
X183579255Y-77285368D01*
X183749522Y-77225789D01*
X183902262Y-77129816D01*
X184029816Y-77002262D01*
X184125789Y-76849522D01*
X184185368Y-76679255D01*
X184205565Y-76500000D01*
X184199931Y-76450000D01*
X184185369Y-76320750D01*
X184185368Y-76320745D01*
X184125788Y-76150476D01*
X184029815Y-75997737D01*
X183902262Y-75870184D01*
X183749523Y-75774211D01*
X183579254Y-75714631D01*
X183579249Y-75714630D01*
X183400004Y-75694435D01*
X183399996Y-75694435D01*
X183220750Y-75714630D01*
X183220739Y-75714633D01*
X183198788Y-75722314D01*
X183129009Y-75725875D01*
X183068382Y-75691145D01*
X183060666Y-75676302D01*
X183054495Y-75743362D01*
X183011493Y-75798431D01*
X183005193Y-75802664D01*
X182897740Y-75870182D01*
X182897737Y-75870184D01*
X182770184Y-75997737D01*
X182674211Y-76150476D01*
X182614631Y-76320745D01*
X182614630Y-76320750D01*
X182594435Y-76499996D01*
X179405565Y-76499996D01*
X179399931Y-76450000D01*
X179385369Y-76320750D01*
X179385368Y-76320745D01*
X179325788Y-76150476D01*
X179229815Y-75997737D01*
X179102260Y-75870182D01*
X178994806Y-75802664D01*
X178948516Y-75750330D01*
X178938052Y-75682471D01*
X178936700Y-75685515D01*
X178878310Y-75723887D01*
X178808444Y-75724599D01*
X178801210Y-75722314D01*
X178779257Y-75714632D01*
X178779249Y-75714630D01*
X178600004Y-75694435D01*
X178599996Y-75694435D01*
X178420750Y-75714630D01*
X178420745Y-75714631D01*
X178250476Y-75774211D01*
X178097737Y-75870184D01*
X177970184Y-75997737D01*
X177874211Y-76150476D01*
X177814631Y-76320745D01*
X177814630Y-76320750D01*
X177794435Y-76499996D01*
X173970000Y-76499996D01*
X173970000Y-74802940D01*
X178497379Y-74802940D01*
X178497379Y-74802947D01*
X178517574Y-74982193D01*
X178517575Y-74982198D01*
X178577155Y-75152467D01*
X178673128Y-75305206D01*
X178800682Y-75432760D01*
X178883848Y-75485016D01*
X178908136Y-75500278D01*
X178954427Y-75552613D01*
X178964890Y-75620471D01*
X178966243Y-75617428D01*
X179024633Y-75579056D01*
X179094499Y-75578344D01*
X179101726Y-75580627D01*
X179123689Y-75588312D01*
X179123692Y-75588312D01*
X179123694Y-75588313D01*
X179302940Y-75608509D01*
X179302944Y-75608509D01*
X179302948Y-75608509D01*
X179482193Y-75588313D01*
X179482196Y-75588312D01*
X179482199Y-75588312D01*
X179652466Y-75528733D01*
X179805206Y-75432760D01*
X179932760Y-75305206D01*
X180028733Y-75152466D01*
X180088312Y-74982199D01*
X180095100Y-74921954D01*
X180108509Y-74802947D01*
X180108509Y-74802940D01*
X180088313Y-74623694D01*
X180088312Y-74623692D01*
X180088312Y-74623689D01*
X180080629Y-74601734D01*
X180077067Y-74531957D01*
X180111795Y-74471329D01*
X180126639Y-74463611D01*
X180059577Y-74457438D01*
X180036392Y-74439332D01*
X180176302Y-74439332D01*
X180243363Y-74445504D01*
X180298432Y-74488507D01*
X180302664Y-74494806D01*
X180370182Y-74602260D01*
X180370184Y-74602262D01*
X180497738Y-74729816D01*
X180650478Y-74825789D01*
X180820745Y-74885368D01*
X180820750Y-74885369D01*
X180999996Y-74905565D01*
X181000000Y-74905565D01*
X181000004Y-74905565D01*
X181179249Y-74885369D01*
X181179252Y-74885368D01*
X181179255Y-74885368D01*
X181349522Y-74825789D01*
X181502262Y-74729816D01*
X181629816Y-74602262D01*
X181697335Y-74494805D01*
X181731157Y-74464890D01*
X181879527Y-74464890D01*
X181882571Y-74466243D01*
X181920943Y-74524632D01*
X181921655Y-74594498D01*
X181919370Y-74601732D01*
X181911689Y-74623683D01*
X181911686Y-74623694D01*
X181891491Y-74802940D01*
X181891491Y-74802947D01*
X181911686Y-74982193D01*
X181911687Y-74982198D01*
X181971267Y-75152467D01*
X182067240Y-75305206D01*
X182194794Y-75432760D01*
X182285136Y-75489526D01*
X182311900Y-75506343D01*
X182347534Y-75528733D01*
X182485665Y-75577067D01*
X182517801Y-75588312D01*
X182517806Y-75588313D01*
X182697052Y-75608509D01*
X182697056Y-75608509D01*
X182697060Y-75608509D01*
X182876305Y-75588313D01*
X182876307Y-75588312D01*
X182876311Y-75588312D01*
X182898262Y-75580630D01*
X182968041Y-75577067D01*
X183028669Y-75611794D01*
X183036387Y-75626640D01*
X183042562Y-75559576D01*
X183085566Y-75504509D01*
X183091851Y-75500286D01*
X183199318Y-75432760D01*
X183326872Y-75305206D01*
X183422845Y-75152466D01*
X183482424Y-74982199D01*
X183489212Y-74921954D01*
X183502621Y-74802947D01*
X183502621Y-74802940D01*
X183482425Y-74623694D01*
X183482424Y-74623689D01*
X183454960Y-74545201D01*
X183422845Y-74453422D01*
X183420394Y-74449522D01*
X183371048Y-74370988D01*
X183326872Y-74300682D01*
X183199318Y-74173128D01*
X183046579Y-74077155D01*
X182876310Y-74017575D01*
X182876305Y-74017574D01*
X182697060Y-73997379D01*
X182697052Y-73997379D01*
X182517806Y-74017574D01*
X182517801Y-74017575D01*
X182347532Y-74077155D01*
X182194793Y-74173128D01*
X182067240Y-74300681D01*
X182067238Y-74300684D01*
X181999720Y-74408137D01*
X181947385Y-74454428D01*
X181879527Y-74464890D01*
X181731157Y-74464890D01*
X181749669Y-74448516D01*
X181817526Y-74438052D01*
X181814483Y-74436700D01*
X181776112Y-74378309D01*
X181775400Y-74308443D01*
X181777687Y-74301206D01*
X181785366Y-74279260D01*
X181785367Y-74279257D01*
X181785368Y-74279255D01*
X181785369Y-74279249D01*
X181805565Y-74100003D01*
X181805565Y-74099996D01*
X181785369Y-73920750D01*
X181785368Y-73920745D01*
X181725788Y-73750476D01*
X181629815Y-73597737D01*
X181502262Y-73470184D01*
X181349523Y-73374211D01*
X181179254Y-73314631D01*
X181179249Y-73314630D01*
X181000004Y-73294435D01*
X180999996Y-73294435D01*
X180820750Y-73314630D01*
X180820745Y-73314631D01*
X180650476Y-73374211D01*
X180497737Y-73470184D01*
X180370184Y-73597737D01*
X180274211Y-73750476D01*
X180214631Y-73920745D01*
X180214630Y-73920750D01*
X180194435Y-74099996D01*
X180194435Y-74100003D01*
X180214630Y-74279249D01*
X180214632Y-74279257D01*
X180222314Y-74301210D01*
X180225875Y-74370988D01*
X180191146Y-74431616D01*
X180176302Y-74439332D01*
X180036392Y-74439332D01*
X180004510Y-74414434D01*
X180000278Y-74408136D01*
X179976936Y-74370988D01*
X179932760Y-74300682D01*
X179805206Y-74173128D01*
X179652467Y-74077155D01*
X179482198Y-74017575D01*
X179482193Y-74017574D01*
X179302948Y-73997379D01*
X179302940Y-73997379D01*
X179123694Y-74017574D01*
X179123689Y-74017575D01*
X178953420Y-74077155D01*
X178800681Y-74173128D01*
X178673128Y-74300681D01*
X178577155Y-74453420D01*
X178517575Y-74623689D01*
X178517574Y-74623694D01*
X178497379Y-74802940D01*
X173970000Y-74802940D01*
X173970000Y-72760500D01*
X173989685Y-72693461D01*
X174042489Y-72647706D01*
X174094000Y-72636500D01*
X192260108Y-72636500D01*
X192322249Y-72636500D01*
X192329736Y-72636726D01*
X192619796Y-72654271D01*
X192634657Y-72656075D01*
X192838662Y-72693461D01*
X192916798Y-72707780D01*
X192931335Y-72711363D01*
X193205172Y-72796695D01*
X193219163Y-72802000D01*
X193480743Y-72919727D01*
X193493989Y-72926680D01*
X193739465Y-73075075D01*
X193751776Y-73083573D01*
X193977573Y-73260473D01*
X193988781Y-73270403D01*
X194191596Y-73473218D01*
X194201526Y-73484426D01*
X194321481Y-73637538D01*
X194378422Y-73710217D01*
X194386928Y-73722540D01*
X194535316Y-73968004D01*
X194542275Y-73981263D01*
X194659997Y-74242831D01*
X194665306Y-74256832D01*
X194750635Y-74530663D01*
X194754219Y-74545201D01*
X194805923Y-74827340D01*
X194807728Y-74842205D01*
X194825274Y-75132263D01*
X194825500Y-75139750D01*
X194825500Y-108756249D01*
X194825274Y-108763736D01*
X194807728Y-109053794D01*
X194805923Y-109068659D01*
X194754219Y-109350798D01*
X194750635Y-109365336D01*
X194665306Y-109639167D01*
X194659997Y-109653168D01*
X194542275Y-109914736D01*
X194535316Y-109927995D01*
X194386928Y-110173459D01*
X194378422Y-110185782D01*
X194201526Y-110411573D01*
X194191596Y-110422781D01*
X193988781Y-110625596D01*
X193977573Y-110635526D01*
X193751782Y-110812422D01*
X193739459Y-110820928D01*
X193493995Y-110969316D01*
X193480736Y-110976275D01*
X193219168Y-111093997D01*
X193205167Y-111099306D01*
X192931336Y-111184635D01*
X192916798Y-111188219D01*
X192634659Y-111239923D01*
X192619794Y-111241728D01*
X192329736Y-111259274D01*
X192322249Y-111259500D01*
X133051751Y-111259500D01*
X133044264Y-111259274D01*
X132754205Y-111241728D01*
X132739340Y-111239923D01*
X132457201Y-111188219D01*
X132442663Y-111184635D01*
X132168832Y-111099306D01*
X132154831Y-111093997D01*
X131893263Y-110976275D01*
X131880004Y-110969316D01*
X131857120Y-110955482D01*
X131634537Y-110820926D01*
X131622217Y-110812422D01*
X131579258Y-110778766D01*
X131408590Y-110645056D01*
X131396426Y-110635526D01*
X131385218Y-110625596D01*
X131182403Y-110422781D01*
X131172473Y-110411573D01*
X131069831Y-110280560D01*
X130995573Y-110185776D01*
X130987075Y-110173465D01*
X130838680Y-109927989D01*
X130831727Y-109914743D01*
X130714000Y-109653163D01*
X130708693Y-109639167D01*
X130705100Y-109627638D01*
X130623363Y-109365335D01*
X130619780Y-109350798D01*
X130568076Y-109068659D01*
X130566271Y-109053794D01*
X130548726Y-108763736D01*
X130548500Y-108756249D01*
X130548500Y-107949994D01*
X133724459Y-107949994D01*
X133724459Y-107950005D01*
X133744985Y-108197729D01*
X133744987Y-108197738D01*
X133806012Y-108438717D01*
X133905866Y-108666364D01*
X134006164Y-108819882D01*
X134664987Y-108161059D01*
X134670489Y-108181591D01*
X134749481Y-108318408D01*
X134861192Y-108430119D01*
X134998009Y-108509111D01*
X135018540Y-108514612D01*
X134359542Y-109173609D01*
X134406368Y-109210055D01*
X134406370Y-109210056D01*
X134624985Y-109328364D01*
X134624996Y-109328369D01*
X134860106Y-109409083D01*
X135105307Y-109450000D01*
X135353893Y-109450000D01*
X135599093Y-109409083D01*
X135834203Y-109328369D01*
X135834214Y-109328364D01*
X136052828Y-109210057D01*
X136052831Y-109210055D01*
X136099656Y-109173609D01*
X135926045Y-108999998D01*
X143544518Y-108999998D01*
X143544518Y-109000001D01*
X143564422Y-109278299D01*
X143623637Y-109550500D01*
X143623729Y-109550923D01*
X143679955Y-109701670D01*
X143721231Y-109812338D01*
X143721233Y-109812342D01*
X143854940Y-110057207D01*
X143854945Y-110057215D01*
X144022138Y-110280560D01*
X144022154Y-110280578D01*
X144219421Y-110477845D01*
X144219439Y-110477861D01*
X144442784Y-110645054D01*
X144442792Y-110645059D01*
X144687657Y-110778766D01*
X144687661Y-110778768D01*
X144687663Y-110778769D01*
X144949077Y-110876271D01*
X145085391Y-110905924D01*
X145221700Y-110935577D01*
X145221702Y-110935577D01*
X145221706Y-110935578D01*
X145469014Y-110953265D01*
X145499999Y-110955482D01*
X145500000Y-110955482D01*
X145500001Y-110955482D01*
X145527881Y-110953487D01*
X145778294Y-110935578D01*
X146050923Y-110876271D01*
X146312337Y-110778769D01*
X146557213Y-110645056D01*
X146780568Y-110477855D01*
X146977855Y-110280568D01*
X147145056Y-110057213D01*
X147278769Y-109812337D01*
X147376271Y-109550923D01*
X147435578Y-109278294D01*
X147455482Y-109000000D01*
X147435578Y-108721706D01*
X147429920Y-108695698D01*
X147398740Y-108552367D01*
X147376271Y-108449077D01*
X147278769Y-108187663D01*
X147275453Y-108181591D01*
X147145059Y-107942792D01*
X147145054Y-107942784D01*
X146977861Y-107719439D01*
X146977845Y-107719421D01*
X146780578Y-107522154D01*
X146780560Y-107522138D01*
X146557215Y-107354945D01*
X146557207Y-107354940D01*
X146312342Y-107221233D01*
X146312338Y-107221231D01*
X146159001Y-107164040D01*
X146050923Y-107123729D01*
X146050919Y-107123728D01*
X146050916Y-107123727D01*
X145778299Y-107064422D01*
X145500001Y-107044518D01*
X145499999Y-107044518D01*
X145221700Y-107064422D01*
X144949083Y-107123727D01*
X144949078Y-107123728D01*
X144949077Y-107123729D01*
X144910330Y-107138181D01*
X144687661Y-107221231D01*
X144687657Y-107221233D01*
X144442792Y-107354940D01*
X144442784Y-107354945D01*
X144219439Y-107522138D01*
X144219421Y-107522154D01*
X144022154Y-107719421D01*
X144022138Y-107719439D01*
X143854945Y-107942784D01*
X143854940Y-107942792D01*
X143721233Y-108187657D01*
X143721231Y-108187661D01*
X143623727Y-108449083D01*
X143564422Y-108721700D01*
X143544518Y-108999998D01*
X135926045Y-108999998D01*
X135440659Y-108514612D01*
X135461191Y-108509111D01*
X135598008Y-108430119D01*
X135709719Y-108318408D01*
X135788711Y-108181591D01*
X135794212Y-108161060D01*
X136453034Y-108819882D01*
X136553331Y-108666369D01*
X136653187Y-108438717D01*
X136714212Y-108197738D01*
X136714214Y-108197729D01*
X136734741Y-107950005D01*
X136734741Y-107949994D01*
X136714214Y-107702270D01*
X136714212Y-107702261D01*
X136653187Y-107461282D01*
X136553331Y-107233630D01*
X136453034Y-107080116D01*
X135794212Y-107738939D01*
X135788711Y-107718409D01*
X135709719Y-107581592D01*
X135598008Y-107469881D01*
X135461191Y-107390889D01*
X135440660Y-107385387D01*
X136099657Y-106726390D01*
X136099656Y-106726389D01*
X136052829Y-106689943D01*
X135834214Y-106571635D01*
X135834203Y-106571630D01*
X135599093Y-106490916D01*
X135353893Y-106450000D01*
X135105307Y-106450000D01*
X134860106Y-106490916D01*
X134624996Y-106571630D01*
X134624990Y-106571632D01*
X134406361Y-106689949D01*
X134359542Y-106726388D01*
X134359542Y-106726390D01*
X135018540Y-107385387D01*
X134998009Y-107390889D01*
X134861192Y-107469881D01*
X134749481Y-107581592D01*
X134670489Y-107718409D01*
X134664987Y-107738939D01*
X134006164Y-107080116D01*
X133905867Y-107233632D01*
X133806012Y-107461282D01*
X133744987Y-107702261D01*
X133744985Y-107702270D01*
X133724459Y-107949994D01*
X130548500Y-107949994D01*
X130548500Y-83449994D01*
X133724459Y-83449994D01*
X133724459Y-83450005D01*
X133744985Y-83697729D01*
X133744987Y-83697738D01*
X133806012Y-83938717D01*
X133905866Y-84166364D01*
X134006164Y-84319882D01*
X134664987Y-83661059D01*
X134670489Y-83681591D01*
X134749481Y-83818408D01*
X134861192Y-83930119D01*
X134998009Y-84009111D01*
X135018540Y-84014612D01*
X134359542Y-84673609D01*
X134406368Y-84710055D01*
X134406370Y-84710056D01*
X134624985Y-84828364D01*
X134624996Y-84828369D01*
X134860106Y-84909083D01*
X135105307Y-84950000D01*
X135353893Y-84950000D01*
X135599093Y-84909083D01*
X135834203Y-84828369D01*
X135834214Y-84828364D01*
X136052828Y-84710057D01*
X136052831Y-84710055D01*
X136099656Y-84673609D01*
X135440659Y-84014612D01*
X135461191Y-84009111D01*
X135598008Y-83930119D01*
X135709719Y-83818408D01*
X135788711Y-83681591D01*
X135794212Y-83661060D01*
X136453034Y-84319882D01*
X136553331Y-84166369D01*
X136653187Y-83938717D01*
X136714212Y-83697738D01*
X136714214Y-83697729D01*
X136734741Y-83450005D01*
X136734741Y-83449994D01*
X136714214Y-83202270D01*
X136714212Y-83202261D01*
X136653187Y-82961282D01*
X136553331Y-82733630D01*
X136453034Y-82580116D01*
X135794212Y-83238939D01*
X135788711Y-83218409D01*
X135709719Y-83081592D01*
X135598008Y-82969881D01*
X135461191Y-82890889D01*
X135440660Y-82885387D01*
X136099657Y-82226390D01*
X136099656Y-82226389D01*
X136052829Y-82189943D01*
X135834214Y-82071635D01*
X135834203Y-82071630D01*
X135599093Y-81990916D01*
X135353893Y-81950000D01*
X135105307Y-81950000D01*
X134860106Y-81990916D01*
X134624996Y-82071630D01*
X134624990Y-82071632D01*
X134406361Y-82189949D01*
X134359542Y-82226388D01*
X134359542Y-82226390D01*
X135018540Y-82885387D01*
X134998009Y-82890889D01*
X134861192Y-82969881D01*
X134749481Y-83081592D01*
X134670489Y-83218409D01*
X134664987Y-83238939D01*
X134006164Y-82580116D01*
X133905867Y-82733632D01*
X133806012Y-82961282D01*
X133744987Y-83202261D01*
X133744985Y-83202270D01*
X133724459Y-83449994D01*
X130548500Y-83449994D01*
X130548500Y-79950000D01*
X133624151Y-79950000D01*
X133643917Y-80201151D01*
X133702726Y-80446110D01*
X133799133Y-80678859D01*
X133930760Y-80893653D01*
X133930761Y-80893656D01*
X133930764Y-80893659D01*
X134094376Y-81085224D01*
X134242666Y-81211875D01*
X134285943Y-81248838D01*
X134285946Y-81248839D01*
X134500740Y-81380466D01*
X134699415Y-81462759D01*
X134733489Y-81476873D01*
X134978452Y-81535683D01*
X135229600Y-81555449D01*
X135480748Y-81535683D01*
X135725711Y-81476873D01*
X135958459Y-81380466D01*
X135983793Y-81364940D01*
X136051234Y-81346695D01*
X136117837Y-81367808D01*
X136136264Y-81382986D01*
X140445644Y-85692367D01*
X140445648Y-85692370D01*
X140572656Y-85777235D01*
X140572662Y-85777238D01*
X140572663Y-85777239D01*
X140713795Y-85835698D01*
X140863615Y-85865499D01*
X140863619Y-85865500D01*
X140863620Y-85865500D01*
X141016380Y-85865500D01*
X141195662Y-85865500D01*
X141262701Y-85885185D01*
X141283343Y-85901818D01*
X141433123Y-86051598D01*
X141612361Y-86177102D01*
X141810670Y-86269575D01*
X141891766Y-86291304D01*
X141951425Y-86327668D01*
X141981955Y-86390515D01*
X141973661Y-86459891D01*
X141929176Y-86513769D01*
X141904466Y-86526706D01*
X141725207Y-86596150D01*
X141725201Y-86596153D01*
X141544002Y-86708346D01*
X141544000Y-86708348D01*
X141386500Y-86851928D01*
X141258061Y-87022008D01*
X141163067Y-87212781D01*
X141163062Y-87212794D01*
X141115487Y-87379999D01*
X141115488Y-87380000D01*
X141806988Y-87380000D01*
X141774075Y-87437007D01*
X141740000Y-87564174D01*
X141740000Y-87695826D01*
X141774075Y-87822993D01*
X141806988Y-87880000D01*
X141098084Y-87880000D01*
X141031045Y-87860315D01*
X141010403Y-87843681D01*
X139514355Y-86347632D01*
X139514351Y-86347629D01*
X139387343Y-86262764D01*
X139387334Y-86262759D01*
X139246205Y-86204302D01*
X139246197Y-86204300D01*
X139096384Y-86174500D01*
X139096380Y-86174500D01*
X136700927Y-86174500D01*
X136633888Y-86154815D01*
X136595199Y-86115289D01*
X136588871Y-86104963D01*
X136528436Y-86006341D01*
X136364824Y-85814776D01*
X136218460Y-85689769D01*
X136173256Y-85651161D01*
X136173253Y-85651160D01*
X135958459Y-85519533D01*
X135725710Y-85423126D01*
X135480751Y-85364317D01*
X135229600Y-85344551D01*
X134978448Y-85364317D01*
X134733489Y-85423126D01*
X134500740Y-85519533D01*
X134285946Y-85651160D01*
X134285943Y-85651161D01*
X134094376Y-85814776D01*
X133930761Y-86006343D01*
X133930760Y-86006346D01*
X133799133Y-86221140D01*
X133702726Y-86453889D01*
X133643917Y-86698848D01*
X133624151Y-86950000D01*
X133643917Y-87201151D01*
X133702726Y-87446110D01*
X133799133Y-87678859D01*
X133930760Y-87893653D01*
X133930761Y-87893656D01*
X133952846Y-87919514D01*
X134094376Y-88085224D01*
X134209892Y-88183884D01*
X134285943Y-88248838D01*
X134285946Y-88248839D01*
X134500740Y-88380466D01*
X134733489Y-88476873D01*
X134978452Y-88535683D01*
X135229600Y-88555449D01*
X135480748Y-88535683D01*
X135725711Y-88476873D01*
X135958459Y-88380466D01*
X136173259Y-88248836D01*
X136364824Y-88085224D01*
X136528436Y-87893659D01*
X136595199Y-87784710D01*
X136647011Y-87737835D01*
X136700927Y-87725500D01*
X138647416Y-87725500D01*
X138714455Y-87745185D01*
X138735097Y-87761819D01*
X140628514Y-89655236D01*
X140661999Y-89716559D01*
X140657015Y-89786251D01*
X140615143Y-89842184D01*
X140549679Y-89866601D01*
X140481406Y-89851749D01*
X140471942Y-89846019D01*
X140347343Y-89762764D01*
X140347334Y-89762759D01*
X140206205Y-89704302D01*
X140206197Y-89704300D01*
X140056384Y-89674500D01*
X140056380Y-89674500D01*
X136700927Y-89674500D01*
X136633888Y-89654815D01*
X136595199Y-89615289D01*
X136588581Y-89604490D01*
X136528436Y-89506341D01*
X136364824Y-89314776D01*
X136188676Y-89164331D01*
X136173256Y-89151161D01*
X136173253Y-89151160D01*
X135958459Y-89019533D01*
X135725710Y-88923126D01*
X135480751Y-88864317D01*
X135229600Y-88844551D01*
X134978448Y-88864317D01*
X134733489Y-88923126D01*
X134500740Y-89019533D01*
X134285946Y-89151160D01*
X134285943Y-89151161D01*
X134094376Y-89314776D01*
X133930761Y-89506343D01*
X133930760Y-89506346D01*
X133799133Y-89721140D01*
X133702726Y-89953889D01*
X133643917Y-90198848D01*
X133624151Y-90450000D01*
X133643917Y-90701151D01*
X133702726Y-90946110D01*
X133799133Y-91178859D01*
X133930760Y-91393653D01*
X133930761Y-91393656D01*
X133979311Y-91450500D01*
X134094376Y-91585224D01*
X134225975Y-91697620D01*
X134285943Y-91748838D01*
X134285946Y-91748839D01*
X134500740Y-91880466D01*
X134689260Y-91958553D01*
X134733489Y-91976873D01*
X134978452Y-92035683D01*
X135229600Y-92055449D01*
X135480748Y-92035683D01*
X135725711Y-91976873D01*
X135958459Y-91880466D01*
X136173259Y-91748836D01*
X136364824Y-91585224D01*
X136528436Y-91393659D01*
X136595199Y-91284710D01*
X136647011Y-91237835D01*
X136700927Y-91225500D01*
X139607416Y-91225500D01*
X139674455Y-91245185D01*
X139695097Y-91261819D01*
X140956591Y-92523313D01*
X140990076Y-92584636D01*
X140992438Y-92621800D01*
X140984723Y-92709997D01*
X140984723Y-92710002D01*
X140986411Y-92729300D01*
X141002747Y-92916025D01*
X141003793Y-92927975D01*
X141003793Y-92927979D01*
X141060422Y-93139322D01*
X141060424Y-93139326D01*
X141060425Y-93139330D01*
X141090721Y-93204300D01*
X141152897Y-93337638D01*
X141177998Y-93373486D01*
X141278402Y-93516877D01*
X141433123Y-93671598D01*
X141571288Y-93768342D01*
X141612361Y-93797102D01*
X141763583Y-93867618D01*
X141816022Y-93913790D01*
X141835174Y-93980984D01*
X141814958Y-94047865D01*
X141763583Y-94092382D01*
X141742164Y-94102370D01*
X141613776Y-94162239D01*
X141612358Y-94162900D01*
X141519530Y-94227898D01*
X141453323Y-94250225D01*
X141385556Y-94233214D01*
X141360726Y-94214004D01*
X140494355Y-93347632D01*
X140494351Y-93347629D01*
X140367343Y-93262764D01*
X140367334Y-93262759D01*
X140226205Y-93204302D01*
X140226197Y-93204300D01*
X140076384Y-93174500D01*
X140076380Y-93174500D01*
X136700927Y-93174500D01*
X136633888Y-93154815D01*
X136595199Y-93115289D01*
X136587062Y-93102011D01*
X136528436Y-93006341D01*
X136364824Y-92814776D01*
X136210778Y-92683208D01*
X136173256Y-92651161D01*
X136173253Y-92651160D01*
X135958459Y-92519533D01*
X135725710Y-92423126D01*
X135480751Y-92364317D01*
X135229600Y-92344551D01*
X134978448Y-92364317D01*
X134733489Y-92423126D01*
X134500740Y-92519533D01*
X134285946Y-92651160D01*
X134285943Y-92651161D01*
X134094376Y-92814776D01*
X133930761Y-93006343D01*
X133930760Y-93006346D01*
X133799133Y-93221140D01*
X133702726Y-93453889D01*
X133643917Y-93698848D01*
X133624151Y-93950000D01*
X133643917Y-94201151D01*
X133702726Y-94446110D01*
X133799133Y-94678859D01*
X133930760Y-94893653D01*
X133930761Y-94893656D01*
X133930764Y-94893659D01*
X134094376Y-95085224D01*
X134199770Y-95175239D01*
X134285943Y-95248838D01*
X134285945Y-95248838D01*
X134287844Y-95250002D01*
X134500740Y-95380466D01*
X134527763Y-95391659D01*
X134733489Y-95476873D01*
X134978452Y-95535683D01*
X135229600Y-95555449D01*
X135480748Y-95535683D01*
X135725711Y-95476873D01*
X135958459Y-95380466D01*
X136173259Y-95248836D01*
X136364824Y-95085224D01*
X136528436Y-94893659D01*
X136595199Y-94784710D01*
X136647011Y-94737835D01*
X136700927Y-94725500D01*
X139627416Y-94725500D01*
X139694455Y-94745185D01*
X139715096Y-94761818D01*
X140697630Y-95744352D01*
X140758777Y-95805499D01*
X140805649Y-95852371D01*
X140932656Y-95937235D01*
X140932665Y-95937240D01*
X140954427Y-95946254D01*
X141073795Y-95995698D01*
X141193622Y-96019533D01*
X141215943Y-96023973D01*
X141277854Y-96056357D01*
X141279433Y-96057908D01*
X141433123Y-96211598D01*
X141612361Y-96337102D01*
X141763583Y-96407618D01*
X141816022Y-96453789D01*
X141835174Y-96520982D01*
X141814959Y-96587864D01*
X141763584Y-96632380D01*
X141698177Y-96662881D01*
X141645771Y-96674500D01*
X136700927Y-96674500D01*
X136633888Y-96654815D01*
X136595199Y-96615289D01*
X136592218Y-96610425D01*
X136528436Y-96506341D01*
X136364824Y-96314776D01*
X136238171Y-96206604D01*
X136173256Y-96151161D01*
X136173253Y-96151160D01*
X135958459Y-96019533D01*
X135725710Y-95923126D01*
X135480751Y-95864317D01*
X135229600Y-95844551D01*
X134978448Y-95864317D01*
X134733489Y-95923126D01*
X134500740Y-96019533D01*
X134285946Y-96151160D01*
X134285943Y-96151161D01*
X134094376Y-96314776D01*
X133930761Y-96506343D01*
X133930760Y-96506346D01*
X133799133Y-96721140D01*
X133702726Y-96953889D01*
X133643917Y-97198848D01*
X133624151Y-97450000D01*
X133643917Y-97701151D01*
X133702726Y-97946110D01*
X133799133Y-98178859D01*
X133930760Y-98393653D01*
X133930761Y-98393656D01*
X133986204Y-98458571D01*
X134094376Y-98585224D01*
X134163228Y-98644029D01*
X134285943Y-98748838D01*
X134285946Y-98748839D01*
X134500740Y-98880466D01*
X134693012Y-98960107D01*
X134733489Y-98976873D01*
X134978452Y-99035683D01*
X135229600Y-99055449D01*
X135480748Y-99035683D01*
X135725711Y-98976873D01*
X135958459Y-98880466D01*
X136173259Y-98748836D01*
X136364824Y-98585224D01*
X136528436Y-98393659D01*
X136595199Y-98284710D01*
X136647011Y-98237835D01*
X136700927Y-98225500D01*
X140984305Y-98225500D01*
X141051344Y-98245185D01*
X141096687Y-98297095D01*
X141152897Y-98417638D01*
X141152898Y-98417639D01*
X141278402Y-98596877D01*
X141433123Y-98751598D01*
X141581790Y-98855696D01*
X141612361Y-98877102D01*
X141763583Y-98947618D01*
X141816022Y-98993790D01*
X141835174Y-99060984D01*
X141814958Y-99127865D01*
X141763583Y-99172382D01*
X141612361Y-99242898D01*
X141612357Y-99242900D01*
X141433121Y-99368402D01*
X141278402Y-99523121D01*
X141152900Y-99702357D01*
X141152898Y-99702361D01*
X141110513Y-99793256D01*
X141061492Y-99898383D01*
X141060426Y-99900668D01*
X141060422Y-99900677D01*
X141011679Y-100082593D01*
X140975314Y-100142254D01*
X140912467Y-100172783D01*
X140891904Y-100174500D01*
X136700927Y-100174500D01*
X136633888Y-100154815D01*
X136595199Y-100115289D01*
X136594779Y-100114604D01*
X136528436Y-100006341D01*
X136364824Y-99814776D01*
X136233198Y-99702357D01*
X136173256Y-99651161D01*
X136173253Y-99651160D01*
X135958459Y-99519533D01*
X135725710Y-99423126D01*
X135480751Y-99364317D01*
X135229600Y-99344551D01*
X134978448Y-99364317D01*
X134733489Y-99423126D01*
X134500740Y-99519533D01*
X134285946Y-99651160D01*
X134285943Y-99651161D01*
X134094376Y-99814776D01*
X133930761Y-100006343D01*
X133930760Y-100006346D01*
X133799133Y-100221140D01*
X133702726Y-100453889D01*
X133643917Y-100698848D01*
X133624151Y-100950000D01*
X133643917Y-101201151D01*
X133702726Y-101446110D01*
X133799133Y-101678859D01*
X133930760Y-101893653D01*
X133930761Y-101893656D01*
X133967935Y-101937181D01*
X134094376Y-102085224D01*
X134201009Y-102176297D01*
X134285943Y-102248838D01*
X134285946Y-102248839D01*
X134500740Y-102380466D01*
X134678148Y-102453950D01*
X134733489Y-102476873D01*
X134978452Y-102535683D01*
X135229600Y-102555449D01*
X135480748Y-102535683D01*
X135725711Y-102476873D01*
X135958459Y-102380466D01*
X136173259Y-102248836D01*
X136364824Y-102085224D01*
X136528436Y-101893659D01*
X136595199Y-101784710D01*
X136647011Y-101737835D01*
X136700927Y-101725500D01*
X141316662Y-101725500D01*
X141383701Y-101745185D01*
X141429456Y-101797989D01*
X141439400Y-101867147D01*
X141410375Y-101930703D01*
X141404343Y-101937181D01*
X141283343Y-102058181D01*
X141222020Y-102091666D01*
X141195662Y-102094500D01*
X141053615Y-102094500D01*
X140917885Y-102121498D01*
X140917886Y-102121499D01*
X140903796Y-102124301D01*
X140903792Y-102124303D01*
X140762660Y-102182761D01*
X140635651Y-102267626D01*
X140635643Y-102267632D01*
X139265097Y-103638181D01*
X139203774Y-103671666D01*
X139177416Y-103674500D01*
X136700927Y-103674500D01*
X136633888Y-103654815D01*
X136595199Y-103615289D01*
X136528437Y-103506343D01*
X136528436Y-103506341D01*
X136364824Y-103314776D01*
X136198826Y-103173000D01*
X136173256Y-103151161D01*
X136173253Y-103151160D01*
X135958459Y-103019533D01*
X135725710Y-102923126D01*
X135480751Y-102864317D01*
X135229600Y-102844551D01*
X134978448Y-102864317D01*
X134733489Y-102923126D01*
X134500740Y-103019533D01*
X134285946Y-103151160D01*
X134285943Y-103151161D01*
X134094376Y-103314776D01*
X133930761Y-103506343D01*
X133930760Y-103506346D01*
X133799133Y-103721140D01*
X133702726Y-103953889D01*
X133643917Y-104198848D01*
X133624151Y-104450000D01*
X133643917Y-104701151D01*
X133702726Y-104946110D01*
X133799133Y-105178859D01*
X133930760Y-105393653D01*
X133930761Y-105393656D01*
X133986204Y-105458571D01*
X134094376Y-105585224D01*
X134276420Y-105740704D01*
X134285941Y-105748836D01*
X134285946Y-105748839D01*
X134500740Y-105880466D01*
X134655681Y-105944644D01*
X134733489Y-105976873D01*
X134978452Y-106035683D01*
X135229600Y-106055449D01*
X135480748Y-106035683D01*
X135725711Y-105976873D01*
X135958459Y-105880466D01*
X136173259Y-105748836D01*
X136364824Y-105585224D01*
X136528436Y-105393659D01*
X136595199Y-105284710D01*
X136647011Y-105237835D01*
X136700927Y-105225500D01*
X139626381Y-105225500D01*
X139626382Y-105225499D01*
X139776205Y-105195698D01*
X139917337Y-105137239D01*
X140044352Y-105052370D01*
X141261442Y-103835278D01*
X141322765Y-103801794D01*
X141392456Y-103806778D01*
X141427811Y-103829499D01*
X141428973Y-103828116D01*
X141433113Y-103831589D01*
X141433116Y-103831591D01*
X141433123Y-103831598D01*
X141612361Y-103957102D01*
X141810670Y-104049575D01*
X141891766Y-104071304D01*
X141951425Y-104107668D01*
X141981955Y-104170515D01*
X141973661Y-104239891D01*
X141929176Y-104293769D01*
X141904466Y-104306706D01*
X141725207Y-104376150D01*
X141725201Y-104376153D01*
X141544002Y-104488346D01*
X141544000Y-104488348D01*
X141386500Y-104631928D01*
X141258061Y-104802008D01*
X141163067Y-104992781D01*
X141163062Y-104992794D01*
X141115487Y-105159999D01*
X141115488Y-105160000D01*
X141806988Y-105160000D01*
X141774075Y-105217007D01*
X141740000Y-105344174D01*
X141740000Y-105475826D01*
X141774075Y-105602993D01*
X141806988Y-105660000D01*
X141115488Y-105660000D01*
X141163062Y-105827205D01*
X141163067Y-105827218D01*
X141258061Y-106017991D01*
X141386500Y-106188071D01*
X141544000Y-106331651D01*
X141544002Y-106331653D01*
X141725201Y-106443846D01*
X141725207Y-106443849D01*
X141923941Y-106520838D01*
X141990000Y-106533186D01*
X141990000Y-105843012D01*
X142047007Y-105875925D01*
X142174174Y-105910000D01*
X142305826Y-105910000D01*
X142432993Y-105875925D01*
X142490000Y-105843012D01*
X142490000Y-106533185D01*
X142556058Y-106520838D01*
X142754792Y-106443849D01*
X142754798Y-106443846D01*
X142935997Y-106331653D01*
X142935999Y-106331651D01*
X143093499Y-106188071D01*
X143221938Y-106017991D01*
X143316932Y-105827218D01*
X143316937Y-105827205D01*
X143364512Y-105660000D01*
X142673012Y-105660000D01*
X142705925Y-105602993D01*
X142740000Y-105475826D01*
X142740000Y-105344174D01*
X142705925Y-105217007D01*
X142673012Y-105160000D01*
X143364512Y-105160000D01*
X143364512Y-105159999D01*
X143316937Y-104992794D01*
X143316932Y-104992781D01*
X143221938Y-104802008D01*
X143093499Y-104631928D01*
X142935999Y-104488348D01*
X142935997Y-104488346D01*
X142754798Y-104376153D01*
X142754792Y-104376150D01*
X142575533Y-104306706D01*
X142520132Y-104264133D01*
X142496541Y-104198366D01*
X142512252Y-104130286D01*
X142562276Y-104081507D01*
X142588231Y-104071305D01*
X142632810Y-104059360D01*
X142669320Y-104049578D01*
X142669321Y-104049577D01*
X142669330Y-104049575D01*
X142867639Y-103957102D01*
X142867638Y-103957102D01*
X142872546Y-103954814D01*
X142873474Y-103956805D01*
X142932179Y-103942543D01*
X142998213Y-103965374D01*
X143014001Y-103978724D01*
X144793643Y-105758367D01*
X144793647Y-105758370D01*
X144910646Y-105836546D01*
X144910650Y-105836550D01*
X144910651Y-105836549D01*
X144920663Y-105843239D01*
X145061795Y-105901698D01*
X145211615Y-105931499D01*
X145211619Y-105931500D01*
X145211620Y-105931500D01*
X145698571Y-105931500D01*
X145765610Y-105951185D01*
X145792284Y-105974297D01*
X145841680Y-106031304D01*
X145860747Y-106053308D01*
X145947965Y-106128884D01*
X145947973Y-106128890D01*
X146068921Y-106206619D01*
X146068927Y-106206622D01*
X146173914Y-106254568D01*
X146311869Y-106295075D01*
X146426111Y-106311500D01*
X146426114Y-106311500D01*
X147047998Y-106311500D01*
X147048000Y-106311500D01*
X147153628Y-106294769D01*
X147192418Y-106294769D01*
X147266481Y-106306500D01*
X148329518Y-106306499D01*
X148423304Y-106291646D01*
X148536342Y-106234050D01*
X148626050Y-106144342D01*
X148683646Y-106031304D01*
X148683646Y-106031302D01*
X148683647Y-106031301D01*
X148694282Y-105964147D01*
X148698500Y-105937519D01*
X148698499Y-104583339D01*
X148718184Y-104516301D01*
X148734819Y-104495658D01*
X148786660Y-104443818D01*
X148847983Y-104410334D01*
X148874340Y-104407500D01*
X150025652Y-104407500D01*
X150092691Y-104427185D01*
X150138446Y-104479989D01*
X150148390Y-104549147D01*
X150132384Y-104594621D01*
X150073255Y-104694603D01*
X150073254Y-104694606D01*
X150027402Y-104852426D01*
X150027401Y-104852432D01*
X150024500Y-104889298D01*
X150024500Y-105720701D01*
X150027401Y-105757567D01*
X150027402Y-105757573D01*
X150073254Y-105915393D01*
X150073255Y-105915396D01*
X150156917Y-106056862D01*
X150156923Y-106056870D01*
X150273129Y-106173076D01*
X150273133Y-106173079D01*
X150273135Y-106173081D01*
X150414602Y-106256744D01*
X150456224Y-106268836D01*
X150572426Y-106302597D01*
X150572429Y-106302597D01*
X150572431Y-106302598D01*
X150609306Y-106305500D01*
X150609314Y-106305500D01*
X152440686Y-106305500D01*
X152440694Y-106305500D01*
X152477569Y-106302598D01*
X152477571Y-106302597D01*
X152477573Y-106302597D01*
X152566551Y-106276746D01*
X152635398Y-106256744D01*
X152776865Y-106173081D01*
X152893081Y-106056865D01*
X152976744Y-105915398D01*
X153022598Y-105757569D01*
X153025500Y-105720694D01*
X153025500Y-104889306D01*
X153022598Y-104852431D01*
X153010284Y-104810048D01*
X152976745Y-104694606D01*
X152976744Y-104694603D01*
X152976744Y-104694602D01*
X152893081Y-104553135D01*
X152893079Y-104553133D01*
X152893076Y-104553129D01*
X152776870Y-104436923D01*
X152776862Y-104436917D01*
X152674110Y-104376150D01*
X152635398Y-104353256D01*
X152635397Y-104353255D01*
X152635396Y-104353255D01*
X152635393Y-104353254D01*
X152477573Y-104307402D01*
X152477567Y-104307401D01*
X152440701Y-104304500D01*
X152440694Y-104304500D01*
X152399500Y-104304500D01*
X152332461Y-104284815D01*
X152286706Y-104232011D01*
X152276615Y-104185629D01*
X152276097Y-104185681D01*
X152275658Y-104181228D01*
X152275500Y-104180500D01*
X152275500Y-104179619D01*
X152275499Y-104179615D01*
X152265687Y-104130286D01*
X152245698Y-104029795D01*
X152187239Y-103888663D01*
X152154864Y-103840210D01*
X152102370Y-103761647D01*
X152102368Y-103761644D01*
X152102367Y-103761643D01*
X151689904Y-103349181D01*
X151656419Y-103287858D01*
X151661403Y-103218167D01*
X151703274Y-103162233D01*
X151768739Y-103137816D01*
X151777585Y-103137500D01*
X152984381Y-103137500D01*
X152984382Y-103137499D01*
X153134205Y-103107698D01*
X153275337Y-103049239D01*
X153402352Y-102964370D01*
X153510370Y-102856352D01*
X153595239Y-102729337D01*
X153653698Y-102588205D01*
X153683500Y-102438380D01*
X153683500Y-102285620D01*
X153653698Y-102135795D01*
X153595239Y-101994663D01*
X153595238Y-101994662D01*
X153595235Y-101994656D01*
X153510370Y-101867648D01*
X153510367Y-101867644D01*
X153402355Y-101759632D01*
X153402351Y-101759629D01*
X153275343Y-101674764D01*
X153275334Y-101674759D01*
X153134205Y-101616302D01*
X153134199Y-101616300D01*
X153026866Y-101594950D01*
X152964955Y-101562565D01*
X152930381Y-101501849D01*
X152934122Y-101432079D01*
X152944323Y-101410217D01*
X152976744Y-101355398D01*
X153022598Y-101197569D01*
X153025500Y-101160694D01*
X153025500Y-100329306D01*
X153023925Y-100309295D01*
X154224500Y-100309295D01*
X154224500Y-105740707D01*
X154225140Y-105748824D01*
X154225140Y-105748836D01*
X154225141Y-105748836D01*
X154227401Y-105777568D01*
X154227402Y-105777575D01*
X154273254Y-105935395D01*
X154273255Y-105935398D01*
X154356916Y-106076863D01*
X154356922Y-106076871D01*
X154473128Y-106193077D01*
X154473132Y-106193080D01*
X154473134Y-106193082D01*
X154614600Y-106276744D01*
X154614601Y-106276744D01*
X154614604Y-106276746D01*
X154772423Y-106322597D01*
X154772426Y-106322597D01*
X154772428Y-106322598D01*
X154789726Y-106323959D01*
X154796143Y-106325500D01*
X154804426Y-106325500D01*
X154814154Y-106325882D01*
X154815902Y-106326019D01*
X154821280Y-106325500D01*
X157496808Y-106325500D01*
X157496828Y-106325499D01*
X158155434Y-106325499D01*
X158155466Y-106325500D01*
X158159306Y-106325500D01*
X160840689Y-106325500D01*
X160840694Y-106325500D01*
X160869473Y-106323234D01*
X160869504Y-106323240D01*
X160869504Y-106323231D01*
X160877572Y-106322598D01*
X161035400Y-106276744D01*
X161176866Y-106193082D01*
X161293082Y-106076866D01*
X161376744Y-105935400D01*
X161376745Y-105935396D01*
X161376746Y-105935395D01*
X161422597Y-105777576D01*
X161422598Y-105777570D01*
X161425499Y-105740704D01*
X161425500Y-105740697D01*
X161425499Y-102695108D01*
X161425500Y-102695080D01*
X161425500Y-100309313D01*
X161425499Y-100309303D01*
X161422980Y-100277284D01*
X161422862Y-100274283D01*
X161422598Y-100272429D01*
X161422598Y-100272428D01*
X161407697Y-100221140D01*
X161376746Y-100114604D01*
X161376744Y-100114601D01*
X161376744Y-100114600D01*
X161293082Y-99973134D01*
X161293080Y-99973132D01*
X161293077Y-99973128D01*
X161176871Y-99856922D01*
X161176863Y-99856916D01*
X161035398Y-99773255D01*
X161035395Y-99773253D01*
X160877576Y-99727402D01*
X160877570Y-99727401D01*
X160840704Y-99724500D01*
X160840697Y-99724500D01*
X160840694Y-99724500D01*
X158159306Y-99724500D01*
X158159300Y-99724500D01*
X157490701Y-99724500D01*
X157490694Y-99724500D01*
X154809306Y-99724500D01*
X154809298Y-99724500D01*
X154780499Y-99726767D01*
X154780498Y-99726767D01*
X154772427Y-99727402D01*
X154614604Y-99773254D01*
X154614601Y-99773255D01*
X154473136Y-99856916D01*
X154473128Y-99856922D01*
X154356922Y-99973128D01*
X154356916Y-99973136D01*
X154273255Y-100114601D01*
X154273253Y-100114604D01*
X154227402Y-100272423D01*
X154227401Y-100272429D01*
X154224500Y-100309295D01*
X153023925Y-100309295D01*
X153022598Y-100292431D01*
X153020475Y-100285124D01*
X152976745Y-100134606D01*
X152976744Y-100134603D01*
X152976744Y-100134602D01*
X152893081Y-99993135D01*
X152893079Y-99993133D01*
X152893076Y-99993129D01*
X152776870Y-99876923D01*
X152776862Y-99876917D01*
X152698681Y-99830681D01*
X152635398Y-99793256D01*
X152635397Y-99793255D01*
X152635396Y-99793255D01*
X152635393Y-99793254D01*
X152477573Y-99747402D01*
X152477567Y-99747401D01*
X152440701Y-99744500D01*
X152440694Y-99744500D01*
X150609306Y-99744500D01*
X150609298Y-99744500D01*
X150572432Y-99747401D01*
X150572426Y-99747402D01*
X150414606Y-99793254D01*
X150414603Y-99793255D01*
X150273137Y-99876917D01*
X150273129Y-99876923D01*
X150156923Y-99993129D01*
X150156919Y-99993135D01*
X150073354Y-100134435D01*
X150022284Y-100182118D01*
X149953543Y-100194621D01*
X149888953Y-100167975D01*
X149878941Y-100158994D01*
X149851870Y-100131923D01*
X149851862Y-100131917D01*
X149809276Y-100106732D01*
X149761593Y-100055663D01*
X149749089Y-99986922D01*
X149775734Y-99922332D01*
X149809276Y-99893268D01*
X149816117Y-99889222D01*
X149851865Y-99868081D01*
X149968081Y-99751865D01*
X150051744Y-99610398D01*
X150097598Y-99452569D01*
X150100500Y-99415694D01*
X150100500Y-98584306D01*
X150097598Y-98547431D01*
X150051744Y-98389602D01*
X149968081Y-98248135D01*
X149968079Y-98248133D01*
X149968076Y-98248129D01*
X149851870Y-98131923D01*
X149851862Y-98131917D01*
X149710396Y-98048255D01*
X149710393Y-98048254D01*
X149552571Y-98002402D01*
X149549701Y-98001878D01*
X149548245Y-98001145D01*
X149546485Y-98000634D01*
X149546579Y-98000307D01*
X149487290Y-97970469D01*
X149484328Y-97967605D01*
X148454488Y-96937766D01*
X147426818Y-95910095D01*
X147393333Y-95848772D01*
X147390499Y-95822414D01*
X147390499Y-94938482D01*
X147383400Y-94893659D01*
X147375646Y-94844696D01*
X147318050Y-94731658D01*
X147318046Y-94731654D01*
X147318045Y-94731652D01*
X147228347Y-94641954D01*
X147228343Y-94641951D01*
X147228342Y-94641950D01*
X147226448Y-94640985D01*
X147166586Y-94610483D01*
X147115791Y-94562508D01*
X147098996Y-94494687D01*
X147121534Y-94428552D01*
X147166586Y-94389516D01*
X147228342Y-94358050D01*
X147274572Y-94311820D01*
X147335895Y-94278334D01*
X147362254Y-94275500D01*
X148576381Y-94275500D01*
X148576382Y-94275499D01*
X148726205Y-94245698D01*
X148867337Y-94187239D01*
X148994352Y-94102370D01*
X149102370Y-93994352D01*
X149187239Y-93867337D01*
X149245698Y-93726205D01*
X149275500Y-93576380D01*
X149275500Y-93423620D01*
X149245698Y-93273795D01*
X149187239Y-93132663D01*
X149187238Y-93132662D01*
X149187235Y-93132656D01*
X149102370Y-93005648D01*
X149102367Y-93005644D01*
X148994355Y-92897632D01*
X148994351Y-92897629D01*
X148867343Y-92812764D01*
X148867334Y-92812759D01*
X148726205Y-92754302D01*
X148726197Y-92754300D01*
X148576384Y-92724500D01*
X148576380Y-92724500D01*
X147514499Y-92724500D01*
X147447460Y-92704815D01*
X147401705Y-92652011D01*
X147390499Y-92600500D01*
X147390499Y-92398482D01*
X147385088Y-92364317D01*
X147375646Y-92304696D01*
X147318050Y-92191658D01*
X147318046Y-92191654D01*
X147318045Y-92191652D01*
X147228347Y-92101954D01*
X147228344Y-92101952D01*
X147228342Y-92101950D01*
X147136269Y-92055036D01*
X147115301Y-92044352D01*
X147021524Y-92029500D01*
X145436191Y-92029500D01*
X145369152Y-92009815D01*
X145323397Y-91957011D01*
X145313453Y-91887853D01*
X145314574Y-91881308D01*
X145314742Y-91880466D01*
X145317235Y-91867929D01*
X145325500Y-91826382D01*
X145325500Y-91450500D01*
X145345185Y-91383461D01*
X145397989Y-91337706D01*
X145449500Y-91326500D01*
X150807884Y-91326500D01*
X150813947Y-91325903D01*
X150813980Y-91326244D01*
X150828641Y-91324800D01*
X151199559Y-91324800D01*
X151266598Y-91344485D01*
X151312353Y-91397289D01*
X151322297Y-91466447D01*
X151314120Y-91496250D01*
X151299965Y-91530425D01*
X151273302Y-91594794D01*
X151273300Y-91594802D01*
X151243500Y-91744615D01*
X151243500Y-96977384D01*
X151273300Y-97127197D01*
X151273302Y-97127205D01*
X151331759Y-97268334D01*
X151331764Y-97268343D01*
X151416629Y-97395351D01*
X151416632Y-97395355D01*
X153175644Y-99154367D01*
X153175648Y-99154370D01*
X153302656Y-99239235D01*
X153302665Y-99239240D01*
X153311501Y-99242900D01*
X153443795Y-99297698D01*
X153593615Y-99327499D01*
X153593619Y-99327500D01*
X153593620Y-99327500D01*
X153746381Y-99327500D01*
X161425416Y-99327500D01*
X161492455Y-99347185D01*
X161513097Y-99363819D01*
X162002181Y-99852903D01*
X162035666Y-99914226D01*
X162038500Y-99940584D01*
X162038500Y-104462384D01*
X162068300Y-104612197D01*
X162068302Y-104612205D01*
X162126759Y-104753334D01*
X162126764Y-104753343D01*
X162211629Y-104880351D01*
X162211632Y-104880355D01*
X162319644Y-104988367D01*
X162319648Y-104988370D01*
X162446656Y-105073235D01*
X162446662Y-105073238D01*
X162446663Y-105073239D01*
X162587795Y-105131698D01*
X162730074Y-105159999D01*
X162737615Y-105161499D01*
X162737619Y-105161500D01*
X162737620Y-105161500D01*
X162890381Y-105161500D01*
X162890382Y-105161499D01*
X163040205Y-105131698D01*
X163181337Y-105073239D01*
X163181342Y-105073235D01*
X163181345Y-105073234D01*
X163217208Y-105049271D01*
X163283885Y-105028392D01*
X163351265Y-105046876D01*
X163397956Y-105098854D01*
X163410100Y-105152372D01*
X163410100Y-107001815D01*
X163390415Y-107068854D01*
X163373781Y-107089496D01*
X162746685Y-107716591D01*
X162685362Y-107750076D01*
X162648198Y-107752438D01*
X162560004Y-107744723D01*
X162559998Y-107744723D01*
X162424687Y-107756561D01*
X162342023Y-107763793D01*
X162342020Y-107763793D01*
X162130677Y-107820422D01*
X162130670Y-107820424D01*
X162130670Y-107820425D01*
X162127391Y-107821954D01*
X161932361Y-107912898D01*
X161932357Y-107912900D01*
X161753121Y-108038402D01*
X161598402Y-108193121D01*
X161472900Y-108372357D01*
X161472898Y-108372361D01*
X161402382Y-108523583D01*
X161356209Y-108576022D01*
X161289016Y-108595174D01*
X161222135Y-108574958D01*
X161177618Y-108523583D01*
X161138044Y-108438717D01*
X161107102Y-108372362D01*
X161107100Y-108372359D01*
X161107099Y-108372357D01*
X160981599Y-108193124D01*
X160906950Y-108118475D01*
X160826877Y-108038402D01*
X160647639Y-107912898D01*
X160647640Y-107912898D01*
X160647638Y-107912897D01*
X160548484Y-107866661D01*
X160449330Y-107820425D01*
X160449326Y-107820424D01*
X160449322Y-107820422D01*
X160237977Y-107763793D01*
X160020002Y-107744723D01*
X160019998Y-107744723D01*
X159884687Y-107756561D01*
X159802023Y-107763793D01*
X159802020Y-107763793D01*
X159590677Y-107820422D01*
X159590670Y-107820424D01*
X159590670Y-107820425D01*
X159587391Y-107821954D01*
X159392361Y-107912898D01*
X159392357Y-107912900D01*
X159213121Y-108038402D01*
X159058402Y-108193121D01*
X158932900Y-108372357D01*
X158932898Y-108372361D01*
X158840426Y-108570668D01*
X158840422Y-108570677D01*
X158783793Y-108782020D01*
X158783793Y-108782023D01*
X158782396Y-108797989D01*
X158777479Y-108854200D01*
X158764723Y-109000000D01*
X158780603Y-109181519D01*
X158783793Y-109217975D01*
X158783793Y-109217979D01*
X158840422Y-109429322D01*
X158840424Y-109429326D01*
X158840425Y-109429330D01*
X158850064Y-109450000D01*
X158932897Y-109627638D01*
X158957998Y-109663486D01*
X159058402Y-109806877D01*
X159213123Y-109961598D01*
X159392361Y-110087102D01*
X159590670Y-110179575D01*
X159590676Y-110179576D01*
X159590677Y-110179577D01*
X159613835Y-110185782D01*
X159802023Y-110236207D01*
X159984926Y-110252208D01*
X160019998Y-110255277D01*
X160020000Y-110255277D01*
X160020002Y-110255277D01*
X160048254Y-110252805D01*
X160237977Y-110236207D01*
X160449330Y-110179575D01*
X160647639Y-110087102D01*
X160826877Y-109961598D01*
X160981598Y-109806877D01*
X161107102Y-109627639D01*
X161177618Y-109476414D01*
X161223790Y-109423977D01*
X161290984Y-109404825D01*
X161357865Y-109425041D01*
X161402381Y-109476414D01*
X161472898Y-109627639D01*
X161598402Y-109806877D01*
X161753123Y-109961598D01*
X161932361Y-110087102D01*
X162130670Y-110179575D01*
X162130676Y-110179576D01*
X162130677Y-110179577D01*
X162153835Y-110185782D01*
X162342023Y-110236207D01*
X162524926Y-110252208D01*
X162559998Y-110255277D01*
X162560000Y-110255277D01*
X162560002Y-110255277D01*
X162588254Y-110252805D01*
X162777977Y-110236207D01*
X162989330Y-110179575D01*
X163187639Y-110087102D01*
X163366877Y-109961598D01*
X163521598Y-109806877D01*
X163647102Y-109627639D01*
X163717618Y-109476414D01*
X163763790Y-109423977D01*
X163830984Y-109404825D01*
X163897865Y-109425041D01*
X163942381Y-109476414D01*
X164012898Y-109627639D01*
X164138402Y-109806877D01*
X164293123Y-109961598D01*
X164472361Y-110087102D01*
X164670670Y-110179575D01*
X164670676Y-110179576D01*
X164670677Y-110179577D01*
X164693835Y-110185782D01*
X164882023Y-110236207D01*
X165064926Y-110252208D01*
X165099998Y-110255277D01*
X165100000Y-110255277D01*
X165100002Y-110255277D01*
X165128254Y-110252805D01*
X165317977Y-110236207D01*
X165529330Y-110179575D01*
X165727639Y-110087102D01*
X165906877Y-109961598D01*
X166061598Y-109806877D01*
X166163928Y-109660734D01*
X166218502Y-109617112D01*
X166288000Y-109609918D01*
X166350355Y-109641441D01*
X166385769Y-109701670D01*
X166389500Y-109731859D01*
X166389500Y-109881517D01*
X166400292Y-109949657D01*
X166404354Y-109975304D01*
X166461950Y-110088342D01*
X166461952Y-110088344D01*
X166461954Y-110088347D01*
X166551652Y-110178045D01*
X166551654Y-110178046D01*
X166551658Y-110178050D01*
X166664694Y-110235645D01*
X166664698Y-110235647D01*
X166758475Y-110250499D01*
X166758481Y-110250500D01*
X168521518Y-110250499D01*
X168615304Y-110235646D01*
X168728342Y-110178050D01*
X168818050Y-110088342D01*
X168875646Y-109975304D01*
X168875646Y-109975302D01*
X168875647Y-109975301D01*
X168890499Y-109881524D01*
X168890500Y-109881519D01*
X168890499Y-108118482D01*
X168875646Y-108024696D01*
X168818050Y-107911658D01*
X168818046Y-107911654D01*
X168818045Y-107911652D01*
X168728347Y-107821954D01*
X168728344Y-107821952D01*
X168728342Y-107821950D01*
X168651517Y-107782805D01*
X168615301Y-107764352D01*
X168520101Y-107749274D01*
X168456967Y-107719344D01*
X168420036Y-107660032D01*
X168415500Y-107626801D01*
X168415500Y-105532584D01*
X168435185Y-105465545D01*
X168451819Y-105444903D01*
X170173725Y-103722997D01*
X171109034Y-103722997D01*
X171109034Y-103723002D01*
X171128858Y-103949599D01*
X171128860Y-103949610D01*
X171187730Y-104169317D01*
X171187735Y-104169331D01*
X171283863Y-104375478D01*
X171334974Y-104448472D01*
X171890212Y-103893234D01*
X171901482Y-103935292D01*
X171973890Y-104060708D01*
X172076292Y-104163110D01*
X172201708Y-104235518D01*
X172243765Y-104246787D01*
X171688526Y-104802025D01*
X171761513Y-104853132D01*
X171761521Y-104853136D01*
X171967668Y-104949264D01*
X171967682Y-104949269D01*
X172187389Y-105008139D01*
X172187400Y-105008141D01*
X172413998Y-105027966D01*
X172414002Y-105027966D01*
X172640599Y-105008141D01*
X172640610Y-105008139D01*
X172860317Y-104949269D01*
X172860331Y-104949264D01*
X173066478Y-104853136D01*
X173139471Y-104802024D01*
X172584234Y-104246787D01*
X172626292Y-104235518D01*
X172751708Y-104163110D01*
X172854110Y-104060708D01*
X172926518Y-103935292D01*
X172937787Y-103893234D01*
X173493024Y-104448471D01*
X173544136Y-104375478D01*
X173640264Y-104169331D01*
X173640269Y-104169317D01*
X173699139Y-103949610D01*
X173699141Y-103949599D01*
X173718966Y-103723002D01*
X173718966Y-103722997D01*
X173699141Y-103496400D01*
X173699139Y-103496389D01*
X173640269Y-103276682D01*
X173640264Y-103276668D01*
X173544136Y-103070521D01*
X173544132Y-103070513D01*
X173493025Y-102997526D01*
X172937787Y-103552764D01*
X172926518Y-103510708D01*
X172854110Y-103385292D01*
X172751708Y-103282890D01*
X172626292Y-103210482D01*
X172584234Y-103199212D01*
X173139472Y-102643974D01*
X173066478Y-102592863D01*
X172860331Y-102496735D01*
X172860317Y-102496730D01*
X172640610Y-102437860D01*
X172640599Y-102437858D01*
X172414002Y-102418034D01*
X172413998Y-102418034D01*
X172187400Y-102437858D01*
X172187389Y-102437860D01*
X171967682Y-102496730D01*
X171967673Y-102496734D01*
X171761516Y-102592866D01*
X171761512Y-102592868D01*
X171688526Y-102643973D01*
X171688526Y-102643974D01*
X172243765Y-103199212D01*
X172201708Y-103210482D01*
X172076292Y-103282890D01*
X171973890Y-103385292D01*
X171901482Y-103510708D01*
X171890212Y-103552764D01*
X171334974Y-102997526D01*
X171334973Y-102997526D01*
X171283868Y-103070512D01*
X171283866Y-103070516D01*
X171187734Y-103276673D01*
X171187730Y-103276682D01*
X171128860Y-103496389D01*
X171128858Y-103496400D01*
X171109034Y-103722997D01*
X170173725Y-103722997D01*
X171738903Y-102157819D01*
X171800226Y-102124334D01*
X171826584Y-102121500D01*
X173050381Y-102121500D01*
X173050382Y-102121499D01*
X173200205Y-102091698D01*
X173341337Y-102033239D01*
X173468352Y-101948370D01*
X175100370Y-100316353D01*
X175150185Y-100241800D01*
X175185238Y-100189339D01*
X175188229Y-100182118D01*
X175243698Y-100048205D01*
X175247568Y-100028750D01*
X175249670Y-100018185D01*
X175266339Y-99934382D01*
X175273500Y-99898380D01*
X175273500Y-99432583D01*
X175293185Y-99365544D01*
X175309814Y-99344906D01*
X176087567Y-98567153D01*
X176148888Y-98533670D01*
X176218579Y-98538654D01*
X176274513Y-98580526D01*
X176298774Y-98644029D01*
X176309621Y-98768015D01*
X176309793Y-98769975D01*
X176309793Y-98769979D01*
X176366422Y-98981322D01*
X176366424Y-98981326D01*
X176366425Y-98981330D01*
X176412661Y-99080484D01*
X176458897Y-99179638D01*
X176458898Y-99179639D01*
X176584402Y-99358877D01*
X176739123Y-99513598D01*
X176877365Y-99610396D01*
X176918361Y-99639102D01*
X177069583Y-99709618D01*
X177122022Y-99755790D01*
X177141174Y-99822984D01*
X177120958Y-99889865D01*
X177069583Y-99934382D01*
X176918361Y-100004898D01*
X176918357Y-100004900D01*
X176739121Y-100130402D01*
X176584402Y-100285121D01*
X176458900Y-100464357D01*
X176458898Y-100464361D01*
X176366426Y-100662668D01*
X176366422Y-100662677D01*
X176309793Y-100874020D01*
X176309793Y-100874023D01*
X176290723Y-101092000D01*
X176302261Y-101223889D01*
X176309793Y-101309975D01*
X176309793Y-101309979D01*
X176366422Y-101521322D01*
X176366424Y-101521326D01*
X176366425Y-101521330D01*
X176389935Y-101571747D01*
X176458897Y-101719638D01*
X176480320Y-101750233D01*
X176584402Y-101898877D01*
X176739123Y-102053598D01*
X176885263Y-102155926D01*
X176928887Y-102210502D01*
X176936081Y-102280000D01*
X176904558Y-102342355D01*
X176844328Y-102377769D01*
X176814140Y-102381500D01*
X176664482Y-102381500D01*
X176583519Y-102394323D01*
X176570696Y-102396354D01*
X176457658Y-102453950D01*
X176457657Y-102453951D01*
X176457652Y-102453954D01*
X176367954Y-102543652D01*
X176367951Y-102543657D01*
X176367950Y-102543658D01*
X176348751Y-102581337D01*
X176310352Y-102656698D01*
X176295500Y-102750475D01*
X176295500Y-104513517D01*
X176302487Y-104557630D01*
X176310354Y-104607304D01*
X176367950Y-104720342D01*
X176367952Y-104720344D01*
X176367954Y-104720347D01*
X176457652Y-104810045D01*
X176457654Y-104810046D01*
X176457658Y-104810050D01*
X176570696Y-104867646D01*
X176619898Y-104875438D01*
X176683032Y-104905367D01*
X176719964Y-104964679D01*
X176724500Y-104997912D01*
X176724500Y-107634088D01*
X176704815Y-107701127D01*
X176652011Y-107746882D01*
X176619897Y-107756561D01*
X176570700Y-107764352D01*
X176570699Y-107764352D01*
X176515297Y-107792580D01*
X176457658Y-107821950D01*
X176457657Y-107821951D01*
X176457652Y-107821954D01*
X176367954Y-107911652D01*
X176367951Y-107911657D01*
X176367950Y-107911658D01*
X176352089Y-107942787D01*
X176310352Y-108024698D01*
X176295500Y-108118475D01*
X176295500Y-108268138D01*
X176275815Y-108335177D01*
X176223011Y-108380932D01*
X176153853Y-108390876D01*
X176090297Y-108361851D01*
X176069925Y-108339261D01*
X175967597Y-108193121D01*
X175817819Y-108043343D01*
X175784334Y-107982020D01*
X175781500Y-107955662D01*
X175781500Y-107721219D01*
X175781499Y-107721215D01*
X175757508Y-107600605D01*
X175751698Y-107571395D01*
X175693239Y-107430263D01*
X175671089Y-107397113D01*
X175608370Y-107303247D01*
X175608368Y-107303244D01*
X175608367Y-107303243D01*
X174179555Y-105874432D01*
X174179551Y-105874429D01*
X174052543Y-105789564D01*
X174052534Y-105789559D01*
X173911405Y-105731102D01*
X173911397Y-105731100D01*
X173761584Y-105701300D01*
X173761580Y-105701300D01*
X172254385Y-105701300D01*
X172187346Y-105681615D01*
X172166704Y-105664981D01*
X170928355Y-104426632D01*
X170928351Y-104426629D01*
X170801343Y-104341764D01*
X170801334Y-104341759D01*
X170660205Y-104283302D01*
X170660197Y-104283300D01*
X170510384Y-104253500D01*
X170510380Y-104253500D01*
X170357620Y-104253500D01*
X170357615Y-104253500D01*
X170207802Y-104283300D01*
X170207794Y-104283302D01*
X170066665Y-104341759D01*
X170066656Y-104341764D01*
X169939648Y-104426629D01*
X169939644Y-104426632D01*
X169831632Y-104534644D01*
X169831629Y-104534648D01*
X169746764Y-104661656D01*
X169746759Y-104661665D01*
X169688302Y-104802794D01*
X169688300Y-104802802D01*
X169658500Y-104952615D01*
X169658500Y-105105384D01*
X169688300Y-105255197D01*
X169688302Y-105255205D01*
X169746759Y-105396334D01*
X169746764Y-105396343D01*
X169831629Y-105523351D01*
X169831632Y-105523355D01*
X171387441Y-107079165D01*
X171387444Y-107079168D01*
X171454136Y-107123730D01*
X171514456Y-107164035D01*
X171514462Y-107164038D01*
X171514463Y-107164039D01*
X171655595Y-107222498D01*
X171805415Y-107252299D01*
X171805419Y-107252300D01*
X171805420Y-107252300D01*
X173312616Y-107252300D01*
X173379655Y-107271985D01*
X173400297Y-107288619D01*
X174086919Y-107975241D01*
X174120404Y-108036564D01*
X174115420Y-108106256D01*
X174086921Y-108150601D01*
X174044403Y-108193120D01*
X173918900Y-108372357D01*
X173918898Y-108372361D01*
X173848382Y-108523583D01*
X173802209Y-108576022D01*
X173735016Y-108595174D01*
X173668135Y-108574958D01*
X173623618Y-108523583D01*
X173584044Y-108438717D01*
X173553102Y-108372362D01*
X173553100Y-108372359D01*
X173553099Y-108372357D01*
X173427599Y-108193124D01*
X173352950Y-108118475D01*
X173272877Y-108038402D01*
X173093639Y-107912898D01*
X173093640Y-107912898D01*
X173093638Y-107912897D01*
X172994484Y-107866661D01*
X172895330Y-107820425D01*
X172895326Y-107820424D01*
X172895322Y-107820422D01*
X172683977Y-107763793D01*
X172466002Y-107744723D01*
X172465998Y-107744723D01*
X172330687Y-107756561D01*
X172248023Y-107763793D01*
X172248020Y-107763793D01*
X172036677Y-107820422D01*
X172036670Y-107820424D01*
X172036670Y-107820425D01*
X172033391Y-107821954D01*
X171838361Y-107912898D01*
X171838357Y-107912900D01*
X171659121Y-108038402D01*
X171504402Y-108193121D01*
X171378900Y-108372357D01*
X171378898Y-108372361D01*
X171286426Y-108570668D01*
X171286422Y-108570677D01*
X171229793Y-108782020D01*
X171229793Y-108782023D01*
X171228396Y-108797989D01*
X171223479Y-108854200D01*
X171210723Y-109000000D01*
X171226603Y-109181519D01*
X171229793Y-109217975D01*
X171229793Y-109217979D01*
X171286422Y-109429322D01*
X171286424Y-109429326D01*
X171286425Y-109429330D01*
X171296064Y-109450000D01*
X171378897Y-109627638D01*
X171403998Y-109663486D01*
X171504402Y-109806877D01*
X171659123Y-109961598D01*
X171838361Y-110087102D01*
X172036670Y-110179575D01*
X172036676Y-110179576D01*
X172036677Y-110179577D01*
X172059835Y-110185782D01*
X172248023Y-110236207D01*
X172430926Y-110252208D01*
X172465998Y-110255277D01*
X172466000Y-110255277D01*
X172466002Y-110255277D01*
X172494254Y-110252805D01*
X172683977Y-110236207D01*
X172895330Y-110179575D01*
X173093639Y-110087102D01*
X173272877Y-109961598D01*
X173427598Y-109806877D01*
X173553102Y-109627639D01*
X173623618Y-109476414D01*
X173669790Y-109423977D01*
X173736984Y-109404825D01*
X173803865Y-109425041D01*
X173848381Y-109476414D01*
X173918898Y-109627639D01*
X174044402Y-109806877D01*
X174199123Y-109961598D01*
X174378361Y-110087102D01*
X174576670Y-110179575D01*
X174576676Y-110179576D01*
X174576677Y-110179577D01*
X174599835Y-110185782D01*
X174788023Y-110236207D01*
X174970926Y-110252208D01*
X175005998Y-110255277D01*
X175006000Y-110255277D01*
X175006002Y-110255277D01*
X175034254Y-110252805D01*
X175223977Y-110236207D01*
X175435330Y-110179575D01*
X175633639Y-110087102D01*
X175812877Y-109961598D01*
X175967598Y-109806877D01*
X176069928Y-109660734D01*
X176124502Y-109617112D01*
X176194000Y-109609918D01*
X176256355Y-109641441D01*
X176291769Y-109701670D01*
X176295500Y-109731859D01*
X176295500Y-109881517D01*
X176306292Y-109949657D01*
X176310354Y-109975304D01*
X176367950Y-110088342D01*
X176367952Y-110088344D01*
X176367954Y-110088347D01*
X176457652Y-110178045D01*
X176457654Y-110178046D01*
X176457658Y-110178050D01*
X176570694Y-110235645D01*
X176570698Y-110235647D01*
X176664475Y-110250499D01*
X176664481Y-110250500D01*
X178427518Y-110250499D01*
X178521304Y-110235646D01*
X178634342Y-110178050D01*
X178724050Y-110088342D01*
X178781646Y-109975304D01*
X178781646Y-109975302D01*
X178781647Y-109975301D01*
X178796499Y-109881524D01*
X178796500Y-109881519D01*
X178796499Y-108118482D01*
X178781646Y-108024696D01*
X178724050Y-107911658D01*
X178724046Y-107911654D01*
X178724045Y-107911652D01*
X178634347Y-107821954D01*
X178634344Y-107821952D01*
X178634342Y-107821950D01*
X178557517Y-107782805D01*
X178521301Y-107764352D01*
X178427524Y-107749500D01*
X178427519Y-107749500D01*
X178399500Y-107749500D01*
X178332461Y-107729815D01*
X178286706Y-107677011D01*
X178275500Y-107625500D01*
X178275500Y-105006499D01*
X178295185Y-104939460D01*
X178347989Y-104893705D01*
X178399500Y-104882499D01*
X178427517Y-104882499D01*
X178427518Y-104882499D01*
X178521304Y-104867646D01*
X178634342Y-104810050D01*
X178724050Y-104720342D01*
X178781646Y-104607304D01*
X178781646Y-104607302D01*
X178781647Y-104607301D01*
X178792282Y-104540147D01*
X178796500Y-104513519D01*
X178796499Y-102750482D01*
X178781646Y-102656696D01*
X178724050Y-102543658D01*
X178724046Y-102543654D01*
X178724045Y-102543652D01*
X178634347Y-102453954D01*
X178634344Y-102453952D01*
X178634342Y-102453950D01*
X178557517Y-102414805D01*
X178521301Y-102396352D01*
X178427524Y-102381500D01*
X178277862Y-102381500D01*
X178210823Y-102361815D01*
X178165068Y-102309011D01*
X178155124Y-102239853D01*
X178184149Y-102176297D01*
X178206734Y-102155928D01*
X178352877Y-102053598D01*
X178507598Y-101898877D01*
X178633102Y-101719639D01*
X178725575Y-101521330D01*
X178782207Y-101309977D01*
X178801277Y-101092000D01*
X178782207Y-100874023D01*
X178725575Y-100662670D01*
X178633102Y-100464362D01*
X178633100Y-100464359D01*
X178633099Y-100464357D01*
X178507599Y-100285124D01*
X178443615Y-100221140D01*
X178352877Y-100130402D01*
X178173639Y-100004898D01*
X178022414Y-99934381D01*
X177969977Y-99888210D01*
X177950825Y-99821016D01*
X177971041Y-99754135D01*
X178022414Y-99709618D01*
X178173639Y-99639102D01*
X178352877Y-99513598D01*
X178502657Y-99363818D01*
X178563980Y-99330334D01*
X178590338Y-99327500D01*
X180729416Y-99327500D01*
X180796455Y-99347185D01*
X180817097Y-99363819D01*
X181596591Y-100143313D01*
X181630076Y-100204636D01*
X181632438Y-100241800D01*
X181624783Y-100329313D01*
X181624723Y-100330000D01*
X181640464Y-100509931D01*
X181643793Y-100547975D01*
X181643793Y-100547979D01*
X181700422Y-100759322D01*
X181700424Y-100759326D01*
X181700425Y-100759330D01*
X181746661Y-100858484D01*
X181792897Y-100957638D01*
X181792898Y-100957639D01*
X181918402Y-101136877D01*
X182073123Y-101291598D01*
X182230029Y-101401465D01*
X182252361Y-101417102D01*
X182403583Y-101487618D01*
X182456022Y-101533790D01*
X182475174Y-101600984D01*
X182454958Y-101667865D01*
X182403583Y-101712382D01*
X182252361Y-101782898D01*
X182252357Y-101782900D01*
X182073121Y-101908402D01*
X181918402Y-102063121D01*
X181792900Y-102242357D01*
X181792898Y-102242361D01*
X181700426Y-102440668D01*
X181700422Y-102440677D01*
X181643793Y-102652020D01*
X181643793Y-102652023D01*
X181624723Y-102870000D01*
X181642265Y-103070516D01*
X181643793Y-103087975D01*
X181643793Y-103087979D01*
X181700422Y-103299322D01*
X181700424Y-103299326D01*
X181700425Y-103299330D01*
X181707628Y-103314776D01*
X181792897Y-103497638D01*
X181802049Y-103510708D01*
X181918402Y-103676877D01*
X182073123Y-103831598D01*
X182231569Y-103942543D01*
X182252361Y-103957102D01*
X182403583Y-104027618D01*
X182456022Y-104073790D01*
X182475174Y-104140984D01*
X182454958Y-104207865D01*
X182403583Y-104252382D01*
X182252361Y-104322898D01*
X182252357Y-104322900D01*
X182073121Y-104448402D01*
X181918402Y-104603121D01*
X181792900Y-104782357D01*
X181792898Y-104782361D01*
X181700426Y-104980668D01*
X181700422Y-104980677D01*
X181643793Y-105192020D01*
X181643793Y-105192023D01*
X181643471Y-105195699D01*
X181624723Y-105409997D01*
X181624723Y-105410002D01*
X181629582Y-105465545D01*
X181641055Y-105596685D01*
X181643793Y-105627975D01*
X181643793Y-105627979D01*
X181700422Y-105839322D01*
X181700424Y-105839326D01*
X181700425Y-105839330D01*
X181717490Y-105875925D01*
X181792897Y-106037638D01*
X181805368Y-106055448D01*
X181918402Y-106216877D01*
X182073123Y-106371598D01*
X182252361Y-106497102D01*
X182450670Y-106589575D01*
X182662023Y-106646207D01*
X182844926Y-106662208D01*
X182879998Y-106665277D01*
X182879999Y-106665277D01*
X182879999Y-106665276D01*
X182880000Y-106665277D01*
X182968197Y-106657560D01*
X183036696Y-106671326D01*
X183066685Y-106693407D01*
X184925643Y-108552367D01*
X184925651Y-108552373D01*
X185045815Y-108632664D01*
X185045816Y-108632664D01*
X185052663Y-108637239D01*
X185193795Y-108695698D01*
X185343615Y-108725499D01*
X185343619Y-108725500D01*
X185343620Y-108725500D01*
X188267501Y-108725500D01*
X188334540Y-108745185D01*
X188380295Y-108797989D01*
X188391501Y-108849500D01*
X188391501Y-109181518D01*
X188406354Y-109275304D01*
X188463950Y-109388342D01*
X188463952Y-109388344D01*
X188463954Y-109388347D01*
X188553652Y-109478045D01*
X188553654Y-109478046D01*
X188553658Y-109478050D01*
X188666694Y-109535645D01*
X188666698Y-109535647D01*
X188760475Y-109550499D01*
X188760481Y-109550500D01*
X191223518Y-109550499D01*
X191317304Y-109535646D01*
X191430342Y-109478050D01*
X191520050Y-109388342D01*
X191577646Y-109275304D01*
X191577646Y-109275302D01*
X191577647Y-109275301D01*
X191592499Y-109181524D01*
X191592500Y-109181519D01*
X191592499Y-106718482D01*
X191577646Y-106624696D01*
X191520050Y-106511658D01*
X191520046Y-106511654D01*
X191520045Y-106511652D01*
X191430347Y-106421954D01*
X191430344Y-106421952D01*
X191430342Y-106421950D01*
X191353517Y-106382805D01*
X191317301Y-106364352D01*
X191223524Y-106349500D01*
X188760482Y-106349500D01*
X188679519Y-106362323D01*
X188666696Y-106364354D01*
X188553658Y-106421950D01*
X188553657Y-106421951D01*
X188553652Y-106421954D01*
X188463954Y-106511652D01*
X188463951Y-106511657D01*
X188463950Y-106511658D01*
X188452981Y-106533186D01*
X188406352Y-106624698D01*
X188391500Y-106718475D01*
X188391500Y-107050500D01*
X188371815Y-107117539D01*
X188319011Y-107163294D01*
X188267500Y-107174500D01*
X185792585Y-107174500D01*
X185725546Y-107154815D01*
X185704904Y-107138181D01*
X184163407Y-105596685D01*
X184129922Y-105535362D01*
X184127560Y-105498200D01*
X184135277Y-105410000D01*
X184128858Y-105336631D01*
X184142624Y-105268133D01*
X184191239Y-105217950D01*
X184259268Y-105202016D01*
X184276577Y-105204207D01*
X184383618Y-105225499D01*
X184383619Y-105225500D01*
X184383620Y-105225500D01*
X188520673Y-105225500D01*
X188587712Y-105245185D01*
X188626399Y-105284709D01*
X188693164Y-105393659D01*
X188856776Y-105585224D01*
X189038820Y-105740704D01*
X189048341Y-105748836D01*
X189048346Y-105748839D01*
X189263140Y-105880466D01*
X189418081Y-105944644D01*
X189495889Y-105976873D01*
X189740852Y-106035683D01*
X189992000Y-106055449D01*
X190243148Y-106035683D01*
X190488111Y-105976873D01*
X190720859Y-105880466D01*
X190935659Y-105748836D01*
X191127224Y-105585224D01*
X191290836Y-105393659D01*
X191422466Y-105178859D01*
X191518873Y-104946111D01*
X191577683Y-104701148D01*
X191597449Y-104450000D01*
X191577683Y-104198852D01*
X191518873Y-103953889D01*
X191472281Y-103841406D01*
X191422466Y-103721140D01*
X191290839Y-103506346D01*
X191290838Y-103506343D01*
X191165249Y-103359298D01*
X191127224Y-103314776D01*
X190961226Y-103173000D01*
X190935656Y-103151161D01*
X190935653Y-103151160D01*
X190720859Y-103019533D01*
X190488110Y-102923126D01*
X190243151Y-102864317D01*
X189992000Y-102844551D01*
X189740848Y-102864317D01*
X189495889Y-102923126D01*
X189263140Y-103019533D01*
X189048346Y-103151160D01*
X189048343Y-103151161D01*
X188856776Y-103314776D01*
X188693162Y-103506343D01*
X188626401Y-103615289D01*
X188574589Y-103662165D01*
X188520673Y-103674500D01*
X184832585Y-103674500D01*
X184765546Y-103654815D01*
X184744904Y-103638181D01*
X184163407Y-103056685D01*
X184129922Y-102995362D01*
X184127560Y-102958200D01*
X184135277Y-102870000D01*
X184116207Y-102652023D01*
X184069276Y-102476873D01*
X184059577Y-102440677D01*
X184059576Y-102440676D01*
X184059575Y-102440670D01*
X183967102Y-102242362D01*
X183967100Y-102242359D01*
X183967099Y-102242357D01*
X183841599Y-102063124D01*
X183811710Y-102033235D01*
X183715654Y-101937179D01*
X183682171Y-101875859D01*
X183687155Y-101806167D01*
X183729026Y-101750233D01*
X183794490Y-101725816D01*
X183803337Y-101725500D01*
X188520673Y-101725500D01*
X188587712Y-101745185D01*
X188626399Y-101784709D01*
X188693164Y-101893659D01*
X188856776Y-102085224D01*
X188963409Y-102176297D01*
X189048343Y-102248838D01*
X189048346Y-102248839D01*
X189263140Y-102380466D01*
X189440548Y-102453950D01*
X189495889Y-102476873D01*
X189740852Y-102535683D01*
X189992000Y-102555449D01*
X190243148Y-102535683D01*
X190488111Y-102476873D01*
X190720859Y-102380466D01*
X190935659Y-102248836D01*
X191127224Y-102085224D01*
X191290836Y-101893659D01*
X191422466Y-101678859D01*
X191518873Y-101446111D01*
X191577683Y-101201148D01*
X191597449Y-100950000D01*
X191577683Y-100698852D01*
X191518873Y-100453889D01*
X191513453Y-100440805D01*
X191422466Y-100221140D01*
X191290839Y-100006346D01*
X191290838Y-100006343D01*
X191229377Y-99934382D01*
X191127224Y-99814776D01*
X190995598Y-99702357D01*
X190935656Y-99651161D01*
X190935653Y-99651160D01*
X190720859Y-99519533D01*
X190488110Y-99423126D01*
X190243151Y-99364317D01*
X189992000Y-99344551D01*
X189740848Y-99364317D01*
X189495889Y-99423126D01*
X189263140Y-99519533D01*
X189048346Y-99651160D01*
X189048343Y-99651161D01*
X188856776Y-99814776D01*
X188693162Y-100006343D01*
X188662939Y-100055663D01*
X188626821Y-100114604D01*
X188626401Y-100115289D01*
X188574589Y-100162165D01*
X188520673Y-100174500D01*
X184228096Y-100174500D01*
X184161057Y-100154815D01*
X184115302Y-100102011D01*
X184108321Y-100082593D01*
X184099120Y-100048256D01*
X184059575Y-99900670D01*
X183967102Y-99702362D01*
X183967100Y-99702359D01*
X183967099Y-99702357D01*
X183841599Y-99523124D01*
X183771042Y-99452567D01*
X183686877Y-99368402D01*
X183548978Y-99271844D01*
X183507638Y-99242897D01*
X183408484Y-99196661D01*
X183309330Y-99150425D01*
X183309327Y-99150424D01*
X183309325Y-99150423D01*
X183228233Y-99128695D01*
X183168573Y-99092330D01*
X183138044Y-99029483D01*
X183146339Y-98960107D01*
X183190824Y-98906229D01*
X183215534Y-98893293D01*
X183394789Y-98823850D01*
X183394798Y-98823846D01*
X183575997Y-98711653D01*
X183575999Y-98711651D01*
X183733499Y-98568071D01*
X183861938Y-98397991D01*
X183956932Y-98207218D01*
X183956937Y-98207205D01*
X184004512Y-98040000D01*
X183313012Y-98040000D01*
X183345925Y-97982993D01*
X183380000Y-97855826D01*
X183380000Y-97724174D01*
X183345925Y-97597007D01*
X183313012Y-97540000D01*
X184004512Y-97540000D01*
X184004512Y-97539999D01*
X183978903Y-97449994D01*
X188486859Y-97449994D01*
X188486859Y-97450005D01*
X188507385Y-97697729D01*
X188507387Y-97697738D01*
X188568412Y-97938717D01*
X188668266Y-98166364D01*
X188768564Y-98319882D01*
X189427387Y-97661059D01*
X189432889Y-97681591D01*
X189511881Y-97818408D01*
X189623592Y-97930119D01*
X189760409Y-98009111D01*
X189780940Y-98014612D01*
X189121942Y-98673609D01*
X189168768Y-98710055D01*
X189168770Y-98710056D01*
X189387385Y-98828364D01*
X189387396Y-98828369D01*
X189622506Y-98909083D01*
X189867707Y-98950000D01*
X190116293Y-98950000D01*
X190361493Y-98909083D01*
X190596603Y-98828369D01*
X190596614Y-98828364D01*
X190815228Y-98710057D01*
X190815231Y-98710055D01*
X190862056Y-98673609D01*
X190203059Y-98014612D01*
X190223591Y-98009111D01*
X190360408Y-97930119D01*
X190472119Y-97818408D01*
X190551111Y-97681591D01*
X190556612Y-97661060D01*
X191215434Y-98319882D01*
X191315731Y-98166369D01*
X191415587Y-97938717D01*
X191476612Y-97697738D01*
X191476614Y-97697729D01*
X191497141Y-97450005D01*
X191497141Y-97449994D01*
X191476614Y-97202270D01*
X191476612Y-97202261D01*
X191415587Y-96961282D01*
X191315731Y-96733630D01*
X191215434Y-96580116D01*
X190556612Y-97238939D01*
X190551111Y-97218409D01*
X190472119Y-97081592D01*
X190360408Y-96969881D01*
X190223591Y-96890889D01*
X190203060Y-96885387D01*
X190862057Y-96226390D01*
X190862056Y-96226389D01*
X190815229Y-96189943D01*
X190596614Y-96071635D01*
X190596603Y-96071630D01*
X190361493Y-95990916D01*
X190116293Y-95950000D01*
X189867707Y-95950000D01*
X189622506Y-95990916D01*
X189387396Y-96071630D01*
X189387390Y-96071632D01*
X189168761Y-96189949D01*
X189121942Y-96226388D01*
X189121942Y-96226390D01*
X189780940Y-96885387D01*
X189760409Y-96890889D01*
X189623592Y-96969881D01*
X189511881Y-97081592D01*
X189432889Y-97218409D01*
X189427387Y-97238939D01*
X188768564Y-96580116D01*
X188668267Y-96733632D01*
X188568412Y-96961282D01*
X188507387Y-97202261D01*
X188507385Y-97202270D01*
X188486859Y-97449994D01*
X183978903Y-97449994D01*
X183956937Y-97372794D01*
X183956932Y-97372781D01*
X183861938Y-97182008D01*
X183733499Y-97011928D01*
X183575999Y-96868348D01*
X183575997Y-96868346D01*
X183394798Y-96756153D01*
X183394792Y-96756150D01*
X183215533Y-96686706D01*
X183160132Y-96644133D01*
X183136541Y-96578366D01*
X183152252Y-96510286D01*
X183202276Y-96461507D01*
X183228231Y-96451305D01*
X183272810Y-96439360D01*
X183309320Y-96429578D01*
X183309321Y-96429577D01*
X183309330Y-96429575D01*
X183507639Y-96337102D01*
X183686877Y-96211598D01*
X183841598Y-96056877D01*
X183967102Y-95877639D01*
X184059575Y-95679330D01*
X184116207Y-95467977D01*
X184135277Y-95250000D01*
X184135175Y-95248839D01*
X184134083Y-95236351D01*
X184127560Y-95161799D01*
X184141326Y-95093302D01*
X184163401Y-95063319D01*
X184464904Y-94761816D01*
X184526226Y-94728334D01*
X184552584Y-94725500D01*
X188520673Y-94725500D01*
X188587712Y-94745185D01*
X188626399Y-94784709D01*
X188693164Y-94893659D01*
X188856776Y-95085224D01*
X188962170Y-95175239D01*
X189048343Y-95248838D01*
X189048345Y-95248838D01*
X189050244Y-95250002D01*
X189263140Y-95380466D01*
X189290163Y-95391659D01*
X189495889Y-95476873D01*
X189740852Y-95535683D01*
X189992000Y-95555449D01*
X190243148Y-95535683D01*
X190488111Y-95476873D01*
X190720859Y-95380466D01*
X190935659Y-95248836D01*
X191127224Y-95085224D01*
X191290836Y-94893659D01*
X191422466Y-94678859D01*
X191518873Y-94446111D01*
X191577683Y-94201148D01*
X191597449Y-93950000D01*
X191577683Y-93698852D01*
X191518873Y-93453889D01*
X191470721Y-93337639D01*
X191422466Y-93221140D01*
X191290839Y-93006346D01*
X191290838Y-93006343D01*
X191226867Y-92931443D01*
X191127224Y-92814776D01*
X190973178Y-92683208D01*
X190935656Y-92651161D01*
X190935653Y-92651160D01*
X190720859Y-92519533D01*
X190488110Y-92423126D01*
X190243151Y-92364317D01*
X189992000Y-92344551D01*
X189740848Y-92364317D01*
X189495889Y-92423126D01*
X189263140Y-92519533D01*
X189048346Y-92651160D01*
X189048343Y-92651161D01*
X188856776Y-92814776D01*
X188693162Y-93006343D01*
X188685769Y-93018408D01*
X188634538Y-93102011D01*
X188626401Y-93115289D01*
X188574589Y-93162165D01*
X188520673Y-93174500D01*
X184211751Y-93174500D01*
X184144712Y-93154815D01*
X184098957Y-93102011D01*
X184089013Y-93032853D01*
X184091976Y-93018408D01*
X184106678Y-92963537D01*
X184138770Y-92907950D01*
X185784903Y-91261819D01*
X185846226Y-91228334D01*
X185872584Y-91225500D01*
X188520673Y-91225500D01*
X188587712Y-91245185D01*
X188626399Y-91284709D01*
X188693164Y-91393659D01*
X188856776Y-91585224D01*
X188988375Y-91697620D01*
X189048343Y-91748838D01*
X189048346Y-91748839D01*
X189263140Y-91880466D01*
X189451660Y-91958553D01*
X189495889Y-91976873D01*
X189740852Y-92035683D01*
X189992000Y-92055449D01*
X190243148Y-92035683D01*
X190488111Y-91976873D01*
X190720859Y-91880466D01*
X190935659Y-91748836D01*
X191127224Y-91585224D01*
X191290836Y-91393659D01*
X191422466Y-91178859D01*
X191518873Y-90946111D01*
X191577683Y-90701148D01*
X191597449Y-90450000D01*
X191577683Y-90198852D01*
X191518873Y-89953889D01*
X191504727Y-89919738D01*
X191422466Y-89721140D01*
X191290839Y-89506346D01*
X191290838Y-89506343D01*
X191197348Y-89396881D01*
X191127224Y-89314776D01*
X190951076Y-89164331D01*
X190935656Y-89151161D01*
X190935653Y-89151160D01*
X190720859Y-89019533D01*
X190488110Y-88923126D01*
X190243151Y-88864317D01*
X189992000Y-88844551D01*
X189740848Y-88864317D01*
X189495889Y-88923126D01*
X189263140Y-89019533D01*
X189048346Y-89151160D01*
X189048343Y-89151161D01*
X188856776Y-89314776D01*
X188693162Y-89506343D01*
X188659351Y-89561519D01*
X188633019Y-89604490D01*
X188626401Y-89615289D01*
X188574589Y-89662165D01*
X188520673Y-89674500D01*
X185423615Y-89674500D01*
X185273802Y-89704300D01*
X185273799Y-89704301D01*
X185273798Y-89704301D01*
X185273795Y-89704302D01*
X185233145Y-89721140D01*
X185198681Y-89735415D01*
X185129211Y-89742883D01*
X185066732Y-89711607D01*
X185031080Y-89651518D01*
X185033575Y-89581693D01*
X185063545Y-89533175D01*
X186834903Y-87761819D01*
X186896226Y-87728334D01*
X186922584Y-87725500D01*
X188520673Y-87725500D01*
X188587712Y-87745185D01*
X188626399Y-87784709D01*
X188693164Y-87893659D01*
X188856776Y-88085224D01*
X188972292Y-88183884D01*
X189048343Y-88248838D01*
X189048346Y-88248839D01*
X189263140Y-88380466D01*
X189495889Y-88476873D01*
X189740852Y-88535683D01*
X189992000Y-88555449D01*
X190243148Y-88535683D01*
X190488111Y-88476873D01*
X190720859Y-88380466D01*
X190935659Y-88248836D01*
X191127224Y-88085224D01*
X191290836Y-87893659D01*
X191422466Y-87678859D01*
X191518873Y-87446111D01*
X191577683Y-87201148D01*
X191597449Y-86950000D01*
X191577683Y-86698852D01*
X191518873Y-86453889D01*
X191492623Y-86390515D01*
X191422466Y-86221140D01*
X191290839Y-86006346D01*
X191290838Y-86006343D01*
X191230143Y-85935279D01*
X191127224Y-85814776D01*
X190980860Y-85689769D01*
X190935656Y-85651161D01*
X190935653Y-85651160D01*
X190720859Y-85519533D01*
X190488110Y-85423126D01*
X190243151Y-85364317D01*
X189992000Y-85344551D01*
X189740848Y-85364317D01*
X189495889Y-85423126D01*
X189263140Y-85519533D01*
X189048346Y-85651160D01*
X189048343Y-85651161D01*
X188856776Y-85814776D01*
X188693162Y-86006343D01*
X188665430Y-86051598D01*
X188632729Y-86104963D01*
X188626401Y-86115289D01*
X188574589Y-86162165D01*
X188520673Y-86174500D01*
X186473615Y-86174500D01*
X186323796Y-86204301D01*
X186321835Y-86204896D01*
X186320758Y-86204905D01*
X186317820Y-86205490D01*
X186317709Y-86204932D01*
X186251968Y-86205513D01*
X186192858Y-86168260D01*
X186163273Y-86104963D01*
X186172605Y-86035719D01*
X186198165Y-85998555D01*
X187934903Y-84261819D01*
X187996226Y-84228334D01*
X188022584Y-84225500D01*
X188520673Y-84225500D01*
X188587712Y-84245185D01*
X188626399Y-84284709D01*
X188693164Y-84393659D01*
X188856776Y-84585224D01*
X188947346Y-84662578D01*
X189048343Y-84748838D01*
X189048346Y-84748839D01*
X189263140Y-84880466D01*
X189439821Y-84953649D01*
X189495889Y-84976873D01*
X189740852Y-85035683D01*
X189992000Y-85055449D01*
X190243148Y-85035683D01*
X190488111Y-84976873D01*
X190720859Y-84880466D01*
X190935659Y-84748836D01*
X191127224Y-84585224D01*
X191290836Y-84393659D01*
X191422466Y-84178859D01*
X191518873Y-83946111D01*
X191577683Y-83701148D01*
X191597449Y-83450000D01*
X191577683Y-83198852D01*
X191518873Y-82953889D01*
X191474859Y-82847630D01*
X191422466Y-82721140D01*
X191290839Y-82506346D01*
X191290838Y-82506343D01*
X191218141Y-82421226D01*
X191127224Y-82314776D01*
X190995121Y-82201949D01*
X190935656Y-82151161D01*
X190935653Y-82151160D01*
X190720859Y-82019533D01*
X190488110Y-81923126D01*
X190243151Y-81864317D01*
X189992000Y-81844551D01*
X189740848Y-81864317D01*
X189495889Y-81923126D01*
X189263140Y-82019533D01*
X189048346Y-82151160D01*
X189048343Y-82151161D01*
X188856776Y-82314776D01*
X188693162Y-82506343D01*
X188626401Y-82615289D01*
X188574589Y-82662165D01*
X188520673Y-82674500D01*
X187573615Y-82674500D01*
X187423802Y-82704300D01*
X187423794Y-82704302D01*
X187282665Y-82762759D01*
X187282651Y-82762767D01*
X187278594Y-82765478D01*
X187211915Y-82786350D01*
X187144536Y-82767860D01*
X187097850Y-82715877D01*
X187086680Y-82646906D01*
X187114571Y-82582845D01*
X187122016Y-82574704D01*
X188648937Y-81047783D01*
X188710258Y-81014300D01*
X188779950Y-81019284D01*
X188830905Y-81054933D01*
X188856776Y-81085224D01*
X189005066Y-81211875D01*
X189048343Y-81248838D01*
X189048346Y-81248839D01*
X189263140Y-81380466D01*
X189461815Y-81462759D01*
X189495889Y-81476873D01*
X189740852Y-81535683D01*
X189992000Y-81555449D01*
X190243148Y-81535683D01*
X190488111Y-81476873D01*
X190720859Y-81380466D01*
X190935659Y-81248836D01*
X191127224Y-81085224D01*
X191290836Y-80893659D01*
X191422466Y-80678859D01*
X191518873Y-80446111D01*
X191577683Y-80201148D01*
X191597449Y-79950000D01*
X191577683Y-79698852D01*
X191518873Y-79453889D01*
X191422466Y-79221140D01*
X191290839Y-79006346D01*
X191290838Y-79006343D01*
X191253875Y-78963066D01*
X191127224Y-78814776D01*
X190982950Y-78691554D01*
X190935656Y-78651161D01*
X190935653Y-78651160D01*
X190720859Y-78519533D01*
X190488110Y-78423126D01*
X190243151Y-78364317D01*
X189992000Y-78344551D01*
X189740848Y-78364317D01*
X189495889Y-78423126D01*
X189263140Y-78519533D01*
X189048346Y-78651160D01*
X189048343Y-78651161D01*
X188856776Y-78814776D01*
X188693161Y-79006343D01*
X188693160Y-79006346D01*
X188620745Y-79124517D01*
X188568933Y-79171392D01*
X188539209Y-79181344D01*
X188423802Y-79204300D01*
X188423794Y-79204302D01*
X188282665Y-79262759D01*
X188282656Y-79262764D01*
X188155648Y-79347629D01*
X188155644Y-79347632D01*
X184342180Y-83161097D01*
X184280857Y-83194582D01*
X184211165Y-83189598D01*
X184155232Y-83147726D01*
X184130815Y-83082262D01*
X184130499Y-83073416D01*
X184130499Y-81867584D01*
X184150184Y-81800545D01*
X184166818Y-81779903D01*
X186320933Y-79625788D01*
X188533775Y-77412945D01*
X188595096Y-77379462D01*
X188664788Y-77384446D01*
X188715742Y-77420094D01*
X188856776Y-77585224D01*
X188969521Y-77681517D01*
X189048343Y-77748838D01*
X189048346Y-77748839D01*
X189263140Y-77880466D01*
X189282155Y-77888342D01*
X189495889Y-77976873D01*
X189740852Y-78035683D01*
X189992000Y-78055449D01*
X190243148Y-78035683D01*
X190488111Y-77976873D01*
X190720859Y-77880466D01*
X190935659Y-77748836D01*
X191127224Y-77585224D01*
X191290836Y-77393659D01*
X191422466Y-77178859D01*
X191518873Y-76946111D01*
X191577683Y-76701148D01*
X191597449Y-76450000D01*
X191577683Y-76198852D01*
X191518873Y-75953889D01*
X191422466Y-75721140D01*
X191290839Y-75506346D01*
X191290838Y-75506343D01*
X191227991Y-75432759D01*
X191127224Y-75314776D01*
X190937185Y-75152467D01*
X190935656Y-75151161D01*
X190935653Y-75151160D01*
X190720859Y-75019533D01*
X190488110Y-74923126D01*
X190243151Y-74864317D01*
X189992000Y-74844551D01*
X189740848Y-74864317D01*
X189495889Y-74923126D01*
X189263140Y-75019533D01*
X189048346Y-75151160D01*
X189048343Y-75151161D01*
X188856776Y-75314776D01*
X188693162Y-75506343D01*
X188650630Y-75575748D01*
X188628543Y-75611794D01*
X188626401Y-75615289D01*
X188574589Y-75662165D01*
X188520673Y-75674500D01*
X188323615Y-75674500D01*
X188173802Y-75704300D01*
X188173794Y-75704302D01*
X188032665Y-75762759D01*
X188032656Y-75762764D01*
X187905648Y-75847629D01*
X187905644Y-75847632D01*
X182490095Y-81263181D01*
X182428772Y-81296666D01*
X182402414Y-81299500D01*
X181998482Y-81299500D01*
X181917519Y-81312323D01*
X181904696Y-81314354D01*
X181791658Y-81371950D01*
X181791657Y-81371951D01*
X181791652Y-81371954D01*
X181701954Y-81461652D01*
X181701951Y-81461657D01*
X181701950Y-81461658D01*
X181694198Y-81476873D01*
X181644352Y-81574698D01*
X181629500Y-81668475D01*
X181629500Y-82658415D01*
X181609815Y-82725454D01*
X181557011Y-82771209D01*
X181487853Y-82781153D01*
X181424297Y-82752128D01*
X181417819Y-82746096D01*
X180219355Y-81547632D01*
X180219351Y-81547629D01*
X180092343Y-81462764D01*
X180092334Y-81462759D01*
X179951205Y-81404302D01*
X179951197Y-81404300D01*
X179801384Y-81374500D01*
X179801380Y-81374500D01*
X175224500Y-81374500D01*
X175157461Y-81354815D01*
X175111706Y-81302011D01*
X175100500Y-81250500D01*
X175100499Y-80498482D01*
X175100498Y-80498475D01*
X175085646Y-80404696D01*
X175028050Y-80291658D01*
X175028046Y-80291654D01*
X175028045Y-80291652D01*
X174938347Y-80201954D01*
X174938344Y-80201952D01*
X174938342Y-80201950D01*
X174861517Y-80162805D01*
X174825301Y-80144352D01*
X174731524Y-80129500D01*
X174731519Y-80129500D01*
X174021731Y-80129500D01*
X173964107Y-80115297D01*
X173958225Y-80112210D01*
X173958224Y-80112209D01*
X173958223Y-80112209D01*
X173793056Y-80071500D01*
X173622944Y-80071500D01*
X173457772Y-80112210D01*
X173451888Y-80115299D01*
X173394267Y-80129500D01*
X172168482Y-80129500D01*
X172087519Y-80142323D01*
X172074696Y-80144354D01*
X171961658Y-80201950D01*
X171961657Y-80201951D01*
X171961652Y-80201954D01*
X171871954Y-80291652D01*
X171871951Y-80291657D01*
X171814352Y-80404698D01*
X171799500Y-80498475D01*
X171799500Y-81561517D01*
X171801588Y-81574698D01*
X171814354Y-81655304D01*
X171871950Y-81768342D01*
X171871952Y-81768344D01*
X171871954Y-81768347D01*
X171961652Y-81858045D01*
X171961654Y-81858046D01*
X171961658Y-81858050D01*
X172074696Y-81915646D01*
X172074697Y-81915646D01*
X172082290Y-81919515D01*
X172133086Y-81967490D01*
X172149881Y-82035311D01*
X172127343Y-82101446D01*
X172082290Y-82140485D01*
X172074697Y-82144353D01*
X172074696Y-82144354D01*
X171961658Y-82201950D01*
X171961657Y-82201951D01*
X171961652Y-82201954D01*
X171871954Y-82291652D01*
X171871951Y-82291657D01*
X171814352Y-82404698D01*
X171799500Y-82498475D01*
X171799500Y-83561517D01*
X171805327Y-83598308D01*
X171814354Y-83655304D01*
X171871950Y-83768342D01*
X171871952Y-83768344D01*
X171871954Y-83768347D01*
X171961652Y-83858045D01*
X171961654Y-83858046D01*
X171961658Y-83858050D01*
X172074696Y-83915646D01*
X172074697Y-83915646D01*
X172082290Y-83919515D01*
X172133086Y-83967490D01*
X172149881Y-84035311D01*
X172127343Y-84101446D01*
X172082290Y-84140485D01*
X172074697Y-84144353D01*
X172074696Y-84144354D01*
X171961658Y-84201950D01*
X171961657Y-84201951D01*
X171961652Y-84201954D01*
X171871954Y-84291652D01*
X171871951Y-84291657D01*
X171871950Y-84291658D01*
X171857569Y-84319882D01*
X171814352Y-84404698D01*
X171799500Y-84498475D01*
X171799500Y-85561517D01*
X171810100Y-85628446D01*
X171814354Y-85655304D01*
X171871950Y-85768342D01*
X171871952Y-85768344D01*
X171871954Y-85768347D01*
X171961652Y-85858045D01*
X171961654Y-85858046D01*
X171961658Y-85858050D01*
X172074696Y-85915646D01*
X172074697Y-85915646D01*
X172082290Y-85919515D01*
X172133086Y-85967490D01*
X172149881Y-86035311D01*
X172127343Y-86101446D01*
X172082290Y-86140485D01*
X172074697Y-86144353D01*
X172074696Y-86144354D01*
X171961658Y-86201950D01*
X171961657Y-86201951D01*
X171961652Y-86201954D01*
X171871954Y-86291652D01*
X171871951Y-86291657D01*
X171814352Y-86404698D01*
X171799500Y-86498475D01*
X171799500Y-87453416D01*
X171779815Y-87520455D01*
X171727011Y-87566210D01*
X171657853Y-87576154D01*
X171594297Y-87547129D01*
X171587819Y-87541097D01*
X168153355Y-84106632D01*
X168153351Y-84106629D01*
X168026343Y-84021764D01*
X168026334Y-84021759D01*
X167885205Y-83963302D01*
X167885197Y-83963300D01*
X167735384Y-83933500D01*
X167735380Y-83933500D01*
X166801620Y-83933500D01*
X166801615Y-83933500D01*
X166651802Y-83963300D01*
X166651794Y-83963302D01*
X166510665Y-84021759D01*
X166510656Y-84021764D01*
X166383648Y-84106629D01*
X166383644Y-84106632D01*
X166275632Y-84214644D01*
X166275629Y-84214648D01*
X166190764Y-84341656D01*
X166190759Y-84341665D01*
X166132302Y-84482794D01*
X166132300Y-84482802D01*
X166102500Y-84632615D01*
X166102500Y-84785381D01*
X166106529Y-84805639D01*
X166100300Y-84875230D01*
X166057435Y-84930406D01*
X165991545Y-84953649D01*
X165923548Y-84937580D01*
X165897230Y-84917508D01*
X161407355Y-80427632D01*
X161407351Y-80427629D01*
X161280343Y-80342764D01*
X161280334Y-80342759D01*
X161139205Y-80284302D01*
X161139197Y-80284300D01*
X160989384Y-80254500D01*
X160989380Y-80254500D01*
X159842255Y-80254500D01*
X159775216Y-80234815D01*
X159754574Y-80218181D01*
X159738347Y-80201954D01*
X159738344Y-80201952D01*
X159738342Y-80201950D01*
X159661517Y-80162805D01*
X159625301Y-80144352D01*
X159531524Y-80129500D01*
X156968482Y-80129500D01*
X156887519Y-80142323D01*
X156874696Y-80144354D01*
X156761658Y-80201950D01*
X156761657Y-80201951D01*
X156761652Y-80201954D01*
X156671954Y-80291652D01*
X156671951Y-80291657D01*
X156614352Y-80404698D01*
X156599500Y-80498475D01*
X156599500Y-81561517D01*
X156601588Y-81574698D01*
X156614354Y-81655304D01*
X156671950Y-81768342D01*
X156671952Y-81768344D01*
X156671954Y-81768347D01*
X156761652Y-81858045D01*
X156761654Y-81858046D01*
X156761658Y-81858050D01*
X156874696Y-81915646D01*
X156874697Y-81915646D01*
X156882290Y-81919515D01*
X156933086Y-81967490D01*
X156949881Y-82035311D01*
X156927343Y-82101446D01*
X156882290Y-82140485D01*
X156874697Y-82144353D01*
X156874696Y-82144354D01*
X156761658Y-82201950D01*
X156761657Y-82201951D01*
X156761652Y-82201954D01*
X156671954Y-82291652D01*
X156671951Y-82291657D01*
X156614352Y-82404698D01*
X156599500Y-82498475D01*
X156599500Y-82632415D01*
X156579815Y-82699454D01*
X156563181Y-82720096D01*
X154404681Y-84878596D01*
X154343358Y-84912081D01*
X154273666Y-84907097D01*
X154217733Y-84865225D01*
X154193316Y-84799761D01*
X154193000Y-84790915D01*
X154193000Y-84549313D01*
X154192999Y-84549298D01*
X154192767Y-84546354D01*
X154190098Y-84512431D01*
X154186045Y-84498482D01*
X154144245Y-84354606D01*
X154144244Y-84354603D01*
X154144244Y-84354602D01*
X154060581Y-84213135D01*
X154060579Y-84213133D01*
X154060576Y-84213129D01*
X154016819Y-84169372D01*
X153983334Y-84108049D01*
X153980500Y-84081691D01*
X153980500Y-83598308D01*
X154000185Y-83531269D01*
X154016820Y-83510626D01*
X154060576Y-83466870D01*
X154060581Y-83466865D01*
X154144244Y-83325398D01*
X154190098Y-83167569D01*
X154193000Y-83130694D01*
X154193000Y-82049306D01*
X154190098Y-82012431D01*
X154183847Y-81990916D01*
X154144245Y-81854606D01*
X154144244Y-81854603D01*
X154144244Y-81854602D01*
X154060581Y-81713135D01*
X154060579Y-81713133D01*
X154060576Y-81713129D01*
X153944370Y-81596923D01*
X153944362Y-81596917D01*
X153861025Y-81547632D01*
X153802898Y-81513256D01*
X153802897Y-81513255D01*
X153802896Y-81513255D01*
X153802893Y-81513254D01*
X153645073Y-81467402D01*
X153645067Y-81467401D01*
X153608201Y-81464500D01*
X153608194Y-81464500D01*
X152801806Y-81464500D01*
X152801798Y-81464500D01*
X152764932Y-81467401D01*
X152764926Y-81467402D01*
X152607106Y-81513254D01*
X152607103Y-81513255D01*
X152465637Y-81596917D01*
X152465629Y-81596923D01*
X152349423Y-81713129D01*
X152349417Y-81713137D01*
X152265755Y-81854603D01*
X152265754Y-81854605D01*
X152235638Y-81958263D01*
X152198031Y-82017149D01*
X152134558Y-82046354D01*
X152065372Y-82036607D01*
X152012438Y-81991003D01*
X152001207Y-81969156D01*
X151951421Y-81842905D01*
X151860064Y-81722435D01*
X151739595Y-81631079D01*
X151598943Y-81575613D01*
X151510554Y-81565000D01*
X151380000Y-81565000D01*
X151380000Y-83615000D01*
X151510554Y-83615000D01*
X151598943Y-83604386D01*
X151739595Y-83548920D01*
X151860064Y-83457564D01*
X151951421Y-83337094D01*
X152001207Y-83210843D01*
X152044113Y-83155699D01*
X152110020Y-83132505D01*
X152178005Y-83148625D01*
X152226482Y-83198942D01*
X152235638Y-83221736D01*
X152265754Y-83325395D01*
X152265755Y-83325396D01*
X152265756Y-83325398D01*
X152290340Y-83366968D01*
X152349417Y-83466862D01*
X152349423Y-83466870D01*
X152393180Y-83510626D01*
X152426666Y-83571949D01*
X152429500Y-83598308D01*
X152429500Y-84081691D01*
X152409815Y-84148730D01*
X152393181Y-84169372D01*
X152349423Y-84213129D01*
X152349417Y-84213137D01*
X152265755Y-84354603D01*
X152265754Y-84354605D01*
X152235638Y-84458263D01*
X152198031Y-84517149D01*
X152134558Y-84546354D01*
X152065372Y-84536607D01*
X152012438Y-84491003D01*
X152001207Y-84469156D01*
X151951421Y-84342905D01*
X151860064Y-84222435D01*
X151739595Y-84131079D01*
X151598943Y-84075613D01*
X151510554Y-84065000D01*
X151380000Y-84065000D01*
X151380000Y-86115000D01*
X151510554Y-86115000D01*
X151598943Y-86104386D01*
X151739595Y-86048920D01*
X151860064Y-85957564D01*
X151951421Y-85837094D01*
X152001207Y-85710843D01*
X152044113Y-85655699D01*
X152110020Y-85632505D01*
X152178005Y-85648625D01*
X152226482Y-85698942D01*
X152235638Y-85721736D01*
X152265754Y-85825395D01*
X152265755Y-85825396D01*
X152265756Y-85825398D01*
X152271848Y-85835699D01*
X152349417Y-85966862D01*
X152349423Y-85966870D01*
X152393180Y-86010626D01*
X152426666Y-86071949D01*
X152429500Y-86098308D01*
X152429500Y-87215500D01*
X152409815Y-87282539D01*
X152357011Y-87328294D01*
X152305500Y-87339500D01*
X151810982Y-87339500D01*
X151730019Y-87352323D01*
X151717196Y-87354354D01*
X151604158Y-87411950D01*
X151604157Y-87411951D01*
X151604152Y-87411954D01*
X151514454Y-87501652D01*
X151514451Y-87501657D01*
X151514450Y-87501658D01*
X151498549Y-87532865D01*
X151456852Y-87614698D01*
X151442000Y-87708475D01*
X151442000Y-88692415D01*
X151422315Y-88759454D01*
X151405681Y-88780096D01*
X150446597Y-89739181D01*
X150385274Y-89772666D01*
X150358916Y-89775500D01*
X148492888Y-89775500D01*
X148425849Y-89755815D01*
X148380094Y-89703011D01*
X148370150Y-89633853D01*
X148399175Y-89570297D01*
X148415586Y-89555498D01*
X148415232Y-89555076D01*
X148419370Y-89551602D01*
X148419377Y-89551598D01*
X148574098Y-89396877D01*
X148699602Y-89217639D01*
X148792075Y-89019330D01*
X148848707Y-88807977D01*
X148867777Y-88590000D01*
X148848707Y-88372023D01*
X148792075Y-88160670D01*
X148699602Y-87962362D01*
X148699600Y-87962359D01*
X148699599Y-87962357D01*
X148574099Y-87783124D01*
X148499450Y-87708475D01*
X148419377Y-87628402D01*
X148240139Y-87502898D01*
X148240140Y-87502898D01*
X148240138Y-87502897D01*
X148134302Y-87453545D01*
X148041830Y-87410425D01*
X148016313Y-87403587D01*
X147997405Y-87398521D01*
X147937745Y-87362156D01*
X147907217Y-87299309D01*
X147905500Y-87278747D01*
X147905500Y-86098308D01*
X147925185Y-86031269D01*
X147941820Y-86010626D01*
X147985576Y-85966870D01*
X147985581Y-85966865D01*
X148069244Y-85825398D01*
X148099361Y-85721737D01*
X148136967Y-85662851D01*
X148200440Y-85633645D01*
X148269626Y-85643391D01*
X148322561Y-85688995D01*
X148333792Y-85710842D01*
X148383579Y-85837095D01*
X148474935Y-85957564D01*
X148595404Y-86048920D01*
X148736056Y-86104386D01*
X148824446Y-86115000D01*
X148955000Y-86115000D01*
X149455000Y-86115000D01*
X149585554Y-86115000D01*
X149673943Y-86104386D01*
X149814595Y-86048920D01*
X149935064Y-85957564D01*
X150026421Y-85837094D01*
X150052145Y-85771862D01*
X150095051Y-85716717D01*
X150160959Y-85693524D01*
X150228943Y-85709644D01*
X150277420Y-85759961D01*
X150282855Y-85771862D01*
X150308578Y-85837094D01*
X150399935Y-85957564D01*
X150520404Y-86048920D01*
X150661056Y-86104386D01*
X150749446Y-86115000D01*
X150880000Y-86115000D01*
X150880000Y-84065000D01*
X150749446Y-84065000D01*
X150661056Y-84075613D01*
X150520404Y-84131079D01*
X150399935Y-84222435D01*
X150308579Y-84342904D01*
X150282855Y-84408138D01*
X150239949Y-84463282D01*
X150174041Y-84486475D01*
X150106056Y-84470354D01*
X150057580Y-84420038D01*
X150052145Y-84408138D01*
X150026420Y-84342904D01*
X149935064Y-84222435D01*
X149814595Y-84131079D01*
X149673943Y-84075613D01*
X149585554Y-84065000D01*
X149455000Y-84065000D01*
X149455000Y-86115000D01*
X148955000Y-86115000D01*
X148955000Y-84065000D01*
X148824446Y-84065000D01*
X148736056Y-84075613D01*
X148595404Y-84131079D01*
X148474935Y-84222435D01*
X148383578Y-84342906D01*
X148383577Y-84342908D01*
X148333791Y-84469157D01*
X148290886Y-84524301D01*
X148224978Y-84547494D01*
X148156993Y-84531373D01*
X148108517Y-84481056D01*
X148099361Y-84458262D01*
X148069246Y-84354606D01*
X148069244Y-84354603D01*
X148069244Y-84354602D01*
X147985581Y-84213135D01*
X147985579Y-84213133D01*
X147985576Y-84213129D01*
X147941819Y-84169372D01*
X147908334Y-84108049D01*
X147905500Y-84081691D01*
X147905500Y-83598308D01*
X147925185Y-83531269D01*
X147941820Y-83510626D01*
X147985576Y-83466870D01*
X147985581Y-83466865D01*
X148069244Y-83325398D01*
X148099361Y-83221737D01*
X148136967Y-83162851D01*
X148200440Y-83133645D01*
X148269626Y-83143391D01*
X148322561Y-83188995D01*
X148333792Y-83210842D01*
X148383579Y-83337095D01*
X148474935Y-83457564D01*
X148595404Y-83548920D01*
X148736056Y-83604386D01*
X148824446Y-83615000D01*
X148955000Y-83615000D01*
X149455000Y-83615000D01*
X149585554Y-83615000D01*
X149673943Y-83604386D01*
X149814595Y-83548920D01*
X149935064Y-83457564D01*
X150026421Y-83337094D01*
X150052145Y-83271862D01*
X150095051Y-83216717D01*
X150160959Y-83193524D01*
X150228943Y-83209644D01*
X150277420Y-83259961D01*
X150282855Y-83271862D01*
X150308578Y-83337094D01*
X150399935Y-83457564D01*
X150520404Y-83548920D01*
X150661056Y-83604386D01*
X150749446Y-83615000D01*
X150880000Y-83615000D01*
X150880000Y-81565000D01*
X150749446Y-81565000D01*
X150661056Y-81575613D01*
X150520404Y-81631079D01*
X150399935Y-81722435D01*
X150308579Y-81842904D01*
X150282855Y-81908138D01*
X150239949Y-81963282D01*
X150174041Y-81986475D01*
X150106056Y-81970354D01*
X150057580Y-81920038D01*
X150052145Y-81908138D01*
X150026420Y-81842904D01*
X149935064Y-81722435D01*
X149814595Y-81631079D01*
X149673943Y-81575613D01*
X149585554Y-81565000D01*
X149455000Y-81565000D01*
X149455000Y-83615000D01*
X148955000Y-83615000D01*
X148955000Y-81565000D01*
X148824446Y-81565000D01*
X148736056Y-81575613D01*
X148595404Y-81631079D01*
X148474935Y-81722435D01*
X148383578Y-81842906D01*
X148383577Y-81842908D01*
X148333791Y-81969157D01*
X148290886Y-82024301D01*
X148224978Y-82047494D01*
X148156993Y-82031373D01*
X148108517Y-81981056D01*
X148099361Y-81958262D01*
X148069246Y-81854606D01*
X148069244Y-81854603D01*
X148069244Y-81854602D01*
X147985581Y-81713135D01*
X147985579Y-81713133D01*
X147985576Y-81713129D01*
X147869370Y-81596923D01*
X147869362Y-81596917D01*
X147786025Y-81547632D01*
X147727898Y-81513256D01*
X147727897Y-81513255D01*
X147727896Y-81513255D01*
X147727893Y-81513254D01*
X147570073Y-81467402D01*
X147570067Y-81467401D01*
X147533201Y-81464500D01*
X147533194Y-81464500D01*
X146726806Y-81464500D01*
X146726798Y-81464500D01*
X146689932Y-81467401D01*
X146689926Y-81467402D01*
X146532106Y-81513254D01*
X146532103Y-81513255D01*
X146390637Y-81596917D01*
X146390629Y-81596923D01*
X146274423Y-81713129D01*
X146274417Y-81713137D01*
X146274129Y-81713625D01*
X146273803Y-81713928D01*
X146269639Y-81719298D01*
X146268772Y-81718625D01*
X146223058Y-81761307D01*
X146167399Y-81774500D01*
X143613197Y-81774500D01*
X143546158Y-81754815D01*
X143500403Y-81702011D01*
X143490723Y-81669897D01*
X143488412Y-81655304D01*
X143475646Y-81574696D01*
X143418050Y-81461658D01*
X143418046Y-81461654D01*
X143418045Y-81461652D01*
X143328347Y-81371954D01*
X143328344Y-81371952D01*
X143328342Y-81371950D01*
X143251517Y-81332805D01*
X143215301Y-81314352D01*
X143121524Y-81299500D01*
X143121519Y-81299500D01*
X142137584Y-81299500D01*
X142070545Y-81279815D01*
X142049903Y-81263181D01*
X138983774Y-78197052D01*
X141997379Y-78197052D01*
X141997379Y-78197059D01*
X142017574Y-78376305D01*
X142017575Y-78376310D01*
X142077155Y-78546579D01*
X142128952Y-78629013D01*
X142173128Y-78699318D01*
X142300682Y-78826872D01*
X142453422Y-78922845D01*
X142623689Y-78982424D01*
X142623694Y-78982425D01*
X142802940Y-79002621D01*
X142802944Y-79002621D01*
X142802948Y-79002621D01*
X142982193Y-78982425D01*
X142982196Y-78982424D01*
X142982199Y-78982424D01*
X143152466Y-78922845D01*
X143305206Y-78826872D01*
X143432760Y-78699318D01*
X143500279Y-78591861D01*
X143534101Y-78561946D01*
X143682471Y-78561946D01*
X143685515Y-78563299D01*
X143723887Y-78621688D01*
X143724599Y-78691554D01*
X143722314Y-78698788D01*
X143714633Y-78720739D01*
X143714630Y-78720750D01*
X143694435Y-78899996D01*
X143694435Y-78900003D01*
X143714630Y-79079249D01*
X143714631Y-79079254D01*
X143774211Y-79249523D01*
X143870184Y-79402262D01*
X143997738Y-79529816D01*
X144150478Y-79625789D01*
X144320745Y-79685368D01*
X144320750Y-79685369D01*
X144499996Y-79705565D01*
X144500000Y-79705565D01*
X144500004Y-79705565D01*
X144679249Y-79685369D01*
X144679252Y-79685368D01*
X144679255Y-79685368D01*
X144849522Y-79625789D01*
X145002262Y-79529816D01*
X145129816Y-79402262D01*
X145225789Y-79249522D01*
X145285368Y-79079255D01*
X145293583Y-79006343D01*
X145305565Y-78900003D01*
X145305565Y-78899996D01*
X145285369Y-78720750D01*
X145285368Y-78720748D01*
X145285368Y-78720745D01*
X145277685Y-78698790D01*
X145274123Y-78629013D01*
X145308851Y-78568385D01*
X145323695Y-78560667D01*
X145256633Y-78554494D01*
X145233448Y-78536388D01*
X145373358Y-78536388D01*
X145440419Y-78542560D01*
X145495488Y-78585563D01*
X145499720Y-78591862D01*
X145567238Y-78699316D01*
X145567240Y-78699318D01*
X145694794Y-78826872D01*
X145847534Y-78922845D01*
X146017801Y-78982424D01*
X146017806Y-78982425D01*
X146197052Y-79002621D01*
X146197056Y-79002621D01*
X146197060Y-79002621D01*
X146376305Y-78982425D01*
X146376308Y-78982424D01*
X146376311Y-78982424D01*
X146546578Y-78922845D01*
X146699318Y-78826872D01*
X146826872Y-78699318D01*
X146922845Y-78546578D01*
X146982424Y-78376311D01*
X146982425Y-78376305D01*
X147002621Y-78197059D01*
X147002621Y-78197052D01*
X146982425Y-78017806D01*
X146982424Y-78017801D01*
X146979926Y-78010661D01*
X146922845Y-77847534D01*
X146826872Y-77694794D01*
X146699318Y-77567240D01*
X146699316Y-77567238D01*
X146591862Y-77499720D01*
X146545572Y-77447386D01*
X146535108Y-77379527D01*
X146533756Y-77382571D01*
X146475366Y-77420943D01*
X146405500Y-77421655D01*
X146398266Y-77419370D01*
X146376313Y-77411688D01*
X146376305Y-77411686D01*
X146197060Y-77391491D01*
X146197052Y-77391491D01*
X146017806Y-77411686D01*
X146017801Y-77411687D01*
X145847532Y-77471267D01*
X145694793Y-77567240D01*
X145567240Y-77694793D01*
X145471267Y-77847532D01*
X145411687Y-78017801D01*
X145411686Y-78017806D01*
X145391491Y-78197052D01*
X145391491Y-78197059D01*
X145411686Y-78376305D01*
X145411688Y-78376313D01*
X145419370Y-78398266D01*
X145422931Y-78468044D01*
X145388202Y-78528672D01*
X145373358Y-78536388D01*
X145233448Y-78536388D01*
X145201566Y-78511490D01*
X145197334Y-78505192D01*
X145145768Y-78423126D01*
X145129816Y-78397738D01*
X145002262Y-78270184D01*
X144849523Y-78174211D01*
X144679254Y-78114631D01*
X144679249Y-78114630D01*
X144500004Y-78094435D01*
X144499996Y-78094435D01*
X144320750Y-78114630D01*
X144320745Y-78114631D01*
X144150476Y-78174211D01*
X143997737Y-78270184D01*
X143870184Y-78397737D01*
X143870182Y-78397740D01*
X143802664Y-78505193D01*
X143750329Y-78551484D01*
X143682471Y-78561946D01*
X143534101Y-78561946D01*
X143552613Y-78545572D01*
X143620470Y-78535108D01*
X143617427Y-78533756D01*
X143579056Y-78475365D01*
X143578344Y-78405499D01*
X143580631Y-78398262D01*
X143588310Y-78376316D01*
X143588311Y-78376313D01*
X143588312Y-78376311D01*
X143588313Y-78376305D01*
X143608509Y-78197059D01*
X143608509Y-78197052D01*
X143588313Y-78017806D01*
X143588312Y-78017801D01*
X143585814Y-78010661D01*
X143528733Y-77847534D01*
X143432760Y-77694794D01*
X143305206Y-77567240D01*
X143197749Y-77499720D01*
X143152467Y-77471267D01*
X142982198Y-77411687D01*
X142982193Y-77411686D01*
X142802948Y-77391491D01*
X142802940Y-77391491D01*
X142623694Y-77411686D01*
X142623683Y-77411689D01*
X142601732Y-77419370D01*
X142531953Y-77422931D01*
X142471326Y-77388201D01*
X142463610Y-77373358D01*
X142457439Y-77440418D01*
X142414437Y-77495487D01*
X142408137Y-77499720D01*
X142300684Y-77567238D01*
X142300681Y-77567240D01*
X142173128Y-77694793D01*
X142077155Y-77847532D01*
X142017575Y-78017801D01*
X142017574Y-78017806D01*
X141997379Y-78197052D01*
X138983774Y-78197052D01*
X137286718Y-76499996D01*
X141294435Y-76499996D01*
X141294435Y-76500003D01*
X141314630Y-76679249D01*
X141314631Y-76679254D01*
X141374211Y-76849523D01*
X141434901Y-76946110D01*
X141470184Y-77002262D01*
X141597738Y-77129816D01*
X141750478Y-77225789D01*
X141888609Y-77274123D01*
X141920745Y-77285368D01*
X141920750Y-77285369D01*
X142099996Y-77305565D01*
X142100000Y-77305565D01*
X142100004Y-77305565D01*
X142279249Y-77285369D01*
X142279251Y-77285368D01*
X142279255Y-77285368D01*
X142301206Y-77277686D01*
X142370985Y-77274123D01*
X142431613Y-77308850D01*
X142439331Y-77323696D01*
X142445506Y-77256632D01*
X142488510Y-77201565D01*
X142494795Y-77197342D01*
X142602262Y-77129816D01*
X142729816Y-77002262D01*
X142825789Y-76849522D01*
X142885368Y-76679255D01*
X142905565Y-76500000D01*
X142905565Y-76499996D01*
X146094435Y-76499996D01*
X146094435Y-76500003D01*
X146114630Y-76679249D01*
X146114631Y-76679254D01*
X146174211Y-76849523D01*
X146234901Y-76946110D01*
X146270184Y-77002262D01*
X146397738Y-77129816D01*
X146475789Y-77178859D01*
X146505192Y-77197334D01*
X146551483Y-77249669D01*
X146561946Y-77317527D01*
X146563299Y-77314484D01*
X146621689Y-77276112D01*
X146691555Y-77275400D01*
X146698782Y-77277683D01*
X146720745Y-77285368D01*
X146720748Y-77285368D01*
X146720750Y-77285369D01*
X146899996Y-77305565D01*
X146900000Y-77305565D01*
X146900004Y-77305565D01*
X147079249Y-77285369D01*
X147079252Y-77285368D01*
X147079255Y-77285368D01*
X147249522Y-77225789D01*
X147402262Y-77129816D01*
X147529816Y-77002262D01*
X147625789Y-76849522D01*
X147685368Y-76679255D01*
X147705565Y-76500000D01*
X147699931Y-76450000D01*
X147685369Y-76320750D01*
X147685368Y-76320745D01*
X147625788Y-76150476D01*
X147529815Y-75997737D01*
X147402262Y-75870184D01*
X147249523Y-75774211D01*
X147079254Y-75714631D01*
X147079249Y-75714630D01*
X146900004Y-75694435D01*
X146899996Y-75694435D01*
X146720750Y-75714630D01*
X146720739Y-75714633D01*
X146698788Y-75722314D01*
X146629009Y-75725875D01*
X146568382Y-75691145D01*
X146560666Y-75676302D01*
X146554495Y-75743362D01*
X146511493Y-75798431D01*
X146505193Y-75802664D01*
X146397740Y-75870182D01*
X146397737Y-75870184D01*
X146270184Y-75997737D01*
X146174211Y-76150476D01*
X146114631Y-76320745D01*
X146114630Y-76320750D01*
X146094435Y-76499996D01*
X142905565Y-76499996D01*
X142899931Y-76450000D01*
X142885369Y-76320750D01*
X142885368Y-76320745D01*
X142825788Y-76150476D01*
X142729815Y-75997737D01*
X142602260Y-75870182D01*
X142494806Y-75802664D01*
X142448516Y-75750330D01*
X142438052Y-75682471D01*
X142436700Y-75685515D01*
X142378310Y-75723887D01*
X142308444Y-75724599D01*
X142301210Y-75722314D01*
X142279257Y-75714632D01*
X142279249Y-75714630D01*
X142100004Y-75694435D01*
X142099996Y-75694435D01*
X141920750Y-75714630D01*
X141920745Y-75714631D01*
X141750476Y-75774211D01*
X141597737Y-75870184D01*
X141470184Y-75997737D01*
X141374211Y-76150476D01*
X141314631Y-76320745D01*
X141314630Y-76320750D01*
X141294435Y-76499996D01*
X137286718Y-76499996D01*
X136866418Y-76079696D01*
X136832933Y-76018373D01*
X136830099Y-75992015D01*
X136830099Y-75218482D01*
X136830098Y-75218475D01*
X136815246Y-75124696D01*
X136757650Y-75011658D01*
X136757646Y-75011654D01*
X136757645Y-75011652D01*
X136667947Y-74921954D01*
X136667944Y-74921952D01*
X136667942Y-74921950D01*
X136591117Y-74882805D01*
X136554901Y-74864352D01*
X136461124Y-74849500D01*
X133998082Y-74849500D01*
X133917119Y-74862323D01*
X133904296Y-74864354D01*
X133791258Y-74921950D01*
X133791257Y-74921951D01*
X133791252Y-74921954D01*
X133701554Y-75011652D01*
X133701551Y-75011657D01*
X133701550Y-75011658D01*
X133697537Y-75019534D01*
X133643952Y-75124698D01*
X133629100Y-75218475D01*
X133629100Y-77681517D01*
X133639762Y-77748836D01*
X133643954Y-77775304D01*
X133701550Y-77888342D01*
X133701552Y-77888344D01*
X133701554Y-77888347D01*
X133791252Y-77978045D01*
X133791254Y-77978046D01*
X133791258Y-77978050D01*
X133903831Y-78035409D01*
X133904298Y-78035647D01*
X133991716Y-78049491D01*
X133998068Y-78050498D01*
X133998075Y-78050499D01*
X133998081Y-78050500D01*
X136461118Y-78050499D01*
X136461123Y-78050499D01*
X136461123Y-78050498D01*
X136529552Y-78039660D01*
X136556401Y-78035409D01*
X136625694Y-78044364D01*
X136663479Y-78070201D01*
X140953181Y-82359903D01*
X140986666Y-82421226D01*
X140989500Y-82447584D01*
X140989500Y-83431517D01*
X141000292Y-83499657D01*
X141004354Y-83525304D01*
X141061950Y-83638342D01*
X141061952Y-83638344D01*
X141061954Y-83638347D01*
X141151652Y-83728045D01*
X141151654Y-83728046D01*
X141151658Y-83728050D01*
X141264694Y-83785645D01*
X141264698Y-83785647D01*
X141358475Y-83800499D01*
X141358481Y-83800500D01*
X141508140Y-83800499D01*
X141575177Y-83820183D01*
X141620932Y-83872987D01*
X141630876Y-83942145D01*
X141601851Y-84005701D01*
X141579262Y-84026074D01*
X141433118Y-84128405D01*
X141341804Y-84219720D01*
X141280481Y-84253205D01*
X141210789Y-84248221D01*
X141166442Y-84219720D01*
X136862128Y-79915406D01*
X136828643Y-79854083D01*
X136826191Y-79837454D01*
X136815283Y-79698854D01*
X136812045Y-79685368D01*
X136756473Y-79453889D01*
X136660066Y-79221140D01*
X136528439Y-79006346D01*
X136528438Y-79006343D01*
X136491475Y-78963066D01*
X136364824Y-78814776D01*
X136220550Y-78691554D01*
X136173256Y-78651161D01*
X136173253Y-78651160D01*
X135958459Y-78519533D01*
X135725710Y-78423126D01*
X135480751Y-78364317D01*
X135229600Y-78344551D01*
X134978448Y-78364317D01*
X134733489Y-78423126D01*
X134500740Y-78519533D01*
X134285946Y-78651160D01*
X134285943Y-78651161D01*
X134094376Y-78814776D01*
X133930761Y-79006343D01*
X133930760Y-79006346D01*
X133799133Y-79221140D01*
X133702726Y-79453889D01*
X133643917Y-79698848D01*
X133624151Y-79950000D01*
X130548500Y-79950000D01*
X130548500Y-75139750D01*
X130548726Y-75132263D01*
X130557803Y-74982198D01*
X130566271Y-74842201D01*
X130568076Y-74827340D01*
X130568361Y-74825788D01*
X130572548Y-74802940D01*
X141997379Y-74802940D01*
X141997379Y-74802947D01*
X142017574Y-74982193D01*
X142017575Y-74982198D01*
X142077155Y-75152467D01*
X142173128Y-75305206D01*
X142300682Y-75432760D01*
X142383848Y-75485016D01*
X142408136Y-75500278D01*
X142454427Y-75552613D01*
X142464890Y-75620471D01*
X142466243Y-75617428D01*
X142524633Y-75579056D01*
X142594499Y-75578344D01*
X142601726Y-75580627D01*
X142623689Y-75588312D01*
X142623692Y-75588312D01*
X142623694Y-75588313D01*
X142802940Y-75608509D01*
X142802944Y-75608509D01*
X142802948Y-75608509D01*
X142982193Y-75588313D01*
X142982196Y-75588312D01*
X142982199Y-75588312D01*
X143152466Y-75528733D01*
X143305206Y-75432760D01*
X143432760Y-75305206D01*
X143528733Y-75152466D01*
X143588312Y-74982199D01*
X143595100Y-74921954D01*
X143608509Y-74802947D01*
X143608509Y-74802940D01*
X143588313Y-74623694D01*
X143588312Y-74623692D01*
X143588312Y-74623689D01*
X143580629Y-74601734D01*
X143577067Y-74531957D01*
X143611795Y-74471329D01*
X143626639Y-74463611D01*
X143559577Y-74457438D01*
X143536392Y-74439332D01*
X143676302Y-74439332D01*
X143743363Y-74445504D01*
X143798432Y-74488507D01*
X143802664Y-74494806D01*
X143870182Y-74602260D01*
X143870184Y-74602262D01*
X143997738Y-74729816D01*
X144150478Y-74825789D01*
X144320745Y-74885368D01*
X144320750Y-74885369D01*
X144499996Y-74905565D01*
X144500000Y-74905565D01*
X144500004Y-74905565D01*
X144679249Y-74885369D01*
X144679252Y-74885368D01*
X144679255Y-74885368D01*
X144849522Y-74825789D01*
X145002262Y-74729816D01*
X145129816Y-74602262D01*
X145197335Y-74494805D01*
X145231157Y-74464890D01*
X145379527Y-74464890D01*
X145382571Y-74466243D01*
X145420943Y-74524632D01*
X145421655Y-74594498D01*
X145419370Y-74601732D01*
X145411689Y-74623683D01*
X145411686Y-74623694D01*
X145391491Y-74802940D01*
X145391491Y-74802947D01*
X145411686Y-74982193D01*
X145411687Y-74982198D01*
X145471267Y-75152467D01*
X145567240Y-75305206D01*
X145694794Y-75432760D01*
X145785136Y-75489526D01*
X145811900Y-75506343D01*
X145847534Y-75528733D01*
X145985665Y-75577067D01*
X146017801Y-75588312D01*
X146017806Y-75588313D01*
X146197052Y-75608509D01*
X146197056Y-75608509D01*
X146197060Y-75608509D01*
X146376305Y-75588313D01*
X146376307Y-75588312D01*
X146376311Y-75588312D01*
X146398262Y-75580630D01*
X146468041Y-75577067D01*
X146528669Y-75611794D01*
X146536387Y-75626640D01*
X146542562Y-75559576D01*
X146585566Y-75504509D01*
X146591851Y-75500286D01*
X146699318Y-75432760D01*
X146826872Y-75305206D01*
X146922845Y-75152466D01*
X146982424Y-74982199D01*
X146989212Y-74921954D01*
X147002621Y-74802947D01*
X147002621Y-74802940D01*
X146982425Y-74623694D01*
X146982424Y-74623689D01*
X146954960Y-74545201D01*
X146922845Y-74453422D01*
X146920394Y-74449522D01*
X146871048Y-74370988D01*
X146826872Y-74300682D01*
X146699318Y-74173128D01*
X146546579Y-74077155D01*
X146376310Y-74017575D01*
X146376305Y-74017574D01*
X146197060Y-73997379D01*
X146197052Y-73997379D01*
X146017806Y-74017574D01*
X146017801Y-74017575D01*
X145847532Y-74077155D01*
X145694793Y-74173128D01*
X145567240Y-74300681D01*
X145567238Y-74300684D01*
X145499720Y-74408137D01*
X145447385Y-74454428D01*
X145379527Y-74464890D01*
X145231157Y-74464890D01*
X145249669Y-74448516D01*
X145317526Y-74438052D01*
X145314483Y-74436700D01*
X145276112Y-74378309D01*
X145275400Y-74308443D01*
X145277687Y-74301206D01*
X145285366Y-74279260D01*
X145285367Y-74279257D01*
X145285368Y-74279255D01*
X145285369Y-74279249D01*
X145305565Y-74100003D01*
X145305565Y-74099996D01*
X145285369Y-73920750D01*
X145285368Y-73920745D01*
X145225788Y-73750476D01*
X145129815Y-73597737D01*
X145002262Y-73470184D01*
X144849523Y-73374211D01*
X144679254Y-73314631D01*
X144679249Y-73314630D01*
X144500004Y-73294435D01*
X144499996Y-73294435D01*
X144320750Y-73314630D01*
X144320745Y-73314631D01*
X144150476Y-73374211D01*
X143997737Y-73470184D01*
X143870184Y-73597737D01*
X143774211Y-73750476D01*
X143714631Y-73920745D01*
X143714630Y-73920750D01*
X143694435Y-74099996D01*
X143694435Y-74100003D01*
X143714630Y-74279249D01*
X143714632Y-74279257D01*
X143722314Y-74301210D01*
X143725875Y-74370988D01*
X143691146Y-74431616D01*
X143676302Y-74439332D01*
X143536392Y-74439332D01*
X143504510Y-74414434D01*
X143500278Y-74408136D01*
X143476936Y-74370988D01*
X143432760Y-74300682D01*
X143305206Y-74173128D01*
X143152467Y-74077155D01*
X142982198Y-74017575D01*
X142982193Y-74017574D01*
X142802948Y-73997379D01*
X142802940Y-73997379D01*
X142623694Y-74017574D01*
X142623689Y-74017575D01*
X142453420Y-74077155D01*
X142300681Y-74173128D01*
X142173128Y-74300681D01*
X142077155Y-74453420D01*
X142017575Y-74623689D01*
X142017574Y-74623694D01*
X141997379Y-74802940D01*
X130572548Y-74802940D01*
X130619780Y-74545197D01*
X130623364Y-74530663D01*
X130708696Y-74256822D01*
X130713998Y-74242841D01*
X130831731Y-73981249D01*
X130838676Y-73968016D01*
X130987080Y-73722526D01*
X130995567Y-73710230D01*
X131172480Y-73484417D01*
X131182395Y-73473226D01*
X131385226Y-73270395D01*
X131396417Y-73260480D01*
X131622230Y-73083567D01*
X131634526Y-73075080D01*
X131880016Y-72926676D01*
X131893249Y-72919731D01*
X132154841Y-72801998D01*
X132168822Y-72796696D01*
X132442668Y-72711362D01*
X132457197Y-72707780D01*
X132739344Y-72656075D01*
X132754201Y-72654271D01*
X133044264Y-72636726D01*
X133051751Y-72636500D01*
X133113892Y-72636500D01*
X157606000Y-72636500D01*
X157673039Y-72656185D01*
G37*
%TD.AperFunction*%
%TD*%
%TA.AperFunction,Conductor*%
%TO.N,Net-(JP3-C)*%
G36*
X159693039Y-101269685D02*
G01*
X159738794Y-101322489D01*
X159750000Y-101374000D01*
X159750000Y-104676000D01*
X159730315Y-104743039D01*
X159677511Y-104788794D01*
X159626000Y-104800000D01*
X156024000Y-104800000D01*
X155956961Y-104780315D01*
X155911206Y-104727511D01*
X155900000Y-104676000D01*
X155900000Y-104300000D01*
X156400000Y-104300000D01*
X159250000Y-104300000D01*
X159250000Y-101750000D01*
X156400000Y-101750000D01*
X156400000Y-104300000D01*
X155900000Y-104300000D01*
X155900000Y-101374000D01*
X155919685Y-101306961D01*
X155972489Y-101261206D01*
X156024000Y-101250000D01*
X159626000Y-101250000D01*
X159693039Y-101269685D01*
G37*
%TD.AperFunction*%
%TD*%
M02*
